<svg width="39" height="72" viewBox="0 0 39 72" fill="none" xmlns="http://www.w3.org/2000/svg">
<g clip-path="url(#clip0_770_2353)">
<path d="M31.0419 65.8645C30.2847 65.5885 29.5156 65.3411 28.7735 65.0274C27.9983 64.7001 27.2548 64.2929 26.4871 63.9461C25.6666 63.5765 25.2036 62.8888 24.7874 62.1423C24.3771 61.4062 24.4631 60.616 24.5144 59.8272C24.626 58.0927 24.3002 56.4699 23.2535 55.0432C23.074 54.7988 22.8538 54.5802 22.6291 54.3765C21.9399 53.7537 21.2371 53.1444 20.5433 52.5275C20.3472 52.3526 20.1617 52.1685 19.8963 51.9182C19.8209 52.1369 19.7439 52.2741 19.7273 52.4174C19.5569 54.004 19.3412 55.5982 19.6353 57.1863C19.851 58.3567 20.2145 59.4833 21.1179 60.352C21.4723 60.6929 21.8464 60.99 22.3049 61.171C22.875 61.3972 23.4255 61.6536 23.8794 62.0819C23.9126 62.1136 23.9759 62.1121 24.0695 62.1392C24.0529 61.735 23.5597 61.7365 23.5054 61.4108C23.9066 61.2946 24.0106 61.3504 24.2007 61.7109C24.4993 62.278 24.813 62.836 25.1222 63.4001C25.0754 63.3835 24.9819 63.3624 24.9005 63.3186C23.7196 62.6762 22.5281 62.0533 21.3668 61.3761C20.8117 61.0533 20.2763 60.6718 19.8043 60.2374C18.8707 59.3807 18.2327 58.3265 18.005 57.0657C17.9462 56.7414 17.9718 56.3885 18.0246 56.0597C18.1558 55.2468 18.3564 54.4444 18.4725 53.63C18.652 52.3767 18.3624 51.2063 17.7214 50.1234C17.4017 49.5835 17.0548 49.0586 16.7215 48.5263C16.5496 48.2533 16.3565 47.9893 16.2162 47.7013C16.079 47.4177 15.9976 47.107 15.8709 46.7496C15.7804 46.8597 15.6808 46.9366 15.6446 47.0346C15.2193 48.196 14.6839 49.3196 14.4396 50.5412C14.2601 51.4356 14.0113 52.3209 14.2375 53.2514C14.5195 54.4143 15.0791 55.4172 15.9056 56.2769C16.2645 56.6494 16.7456 56.7293 17.2494 56.8756C17.2765 56.7685 17.3006 56.675 17.3248 56.5815C17.3474 56.5906 17.3896 56.5921 17.4017 56.6132C17.4394 56.6735 17.4771 56.7369 17.4967 56.8047C17.7441 57.6689 18.0397 58.512 18.5389 59.3068C18.471 59.2782 18.3926 59.2631 18.3368 59.2179C16.9583 58.1199 15.6854 56.9224 14.5557 55.559C12.9465 53.6149 11.5303 51.5532 10.3961 49.3C10.1307 48.7721 9.85616 48.2412 9.65105 47.6892C9.49721 47.2745 9.41728 46.825 9.35393 46.3831C9.2197 45.4601 9.09754 44.5356 9.01459 43.6065C8.9799 43.2189 9.03269 42.8162 9.10508 42.4316C9.13675 42.2642 9.29511 42.0953 9.4399 41.9807C9.79131 41.7047 10.1834 41.4769 10.5333 41.1979C11.5906 40.3549 12.1139 39.18 12.5046 37.9312C12.6991 37.3098 12.7866 36.6733 12.7595 36.0203C12.7368 35.4819 12.7444 34.9434 12.7248 34.405C12.7142 34.1426 12.6705 33.8817 12.6433 33.6358C12.5483 33.6268 12.4955 33.6057 12.4804 33.6223C11.8847 34.224 11.0597 34.4412 10.3705 34.8846C10.0537 35.0882 9.72344 35.2707 9.41426 35.4834C8.41885 36.1741 7.96488 37.1771 7.76278 38.3354C7.63157 39.091 7.65117 39.8496 7.80652 40.5811C7.89852 41.0154 8.18809 41.4242 8.45354 41.7982C8.6315 42.0501 8.74764 42.2853 8.70993 42.5855C8.58626 43.5598 8.77629 44.5145 8.89092 45.4737C8.91354 45.6592 8.92259 45.8477 8.85623 46.0483C8.51236 45.0906 8.15793 44.1374 7.82612 43.1752C7.34199 41.7771 7.09314 40.3247 6.96193 38.8587C6.91517 38.3354 6.9936 37.7819 7.11426 37.2646C7.27262 36.5859 7.53504 35.9328 7.73865 35.2632C7.82914 34.9676 8.03275 34.8545 8.31026 34.767C8.906 34.5785 9.50174 34.3764 10.0749 34.1275C10.841 33.7942 11.3945 33.215 11.7776 32.4715C12.3899 31.28 12.8002 30.0282 12.9872 28.698C13.0837 28.0088 13.1516 27.3044 13.4758 26.6665C13.497 26.6257 13.4789 26.5669 13.4789 26.4689C13.3567 26.5081 13.2526 26.5187 13.1727 26.5684C12.3794 27.0661 11.5453 27.4749 10.6691 27.8082C10.2181 27.9786 9.7898 28.2169 9.37052 28.4567C8.72351 28.8262 8.28914 29.4084 7.9875 30.0659C7.69793 30.6979 7.46114 31.3585 7.24999 32.0221C7.03734 32.6887 7.11576 33.3734 7.26206 34.0461C7.29524 34.1969 7.36914 34.3583 7.4717 34.4699C7.61649 34.6267 7.63458 34.7655 7.55314 34.954C7.26809 35.6086 6.9936 36.2691 6.69196 36.9795C6.6633 36.8438 6.62409 36.7382 6.62409 36.6326C6.61957 35.2873 6.59996 33.9405 6.62711 32.5952C6.64068 31.9527 6.74475 31.3117 6.80658 30.6692C6.88048 29.897 7.26809 29.2425 7.60744 28.5743C7.8759 28.0434 8.43242 27.9967 8.92259 27.873C9.46102 27.7373 10.0191 27.6785 10.556 27.5382C12.4216 27.0465 13.6176 25.843 14.2616 24.0392C14.4954 23.3846 14.6854 22.7014 15.1213 22.1343C15.1575 22.0861 15.1515 22.0061 15.1756 21.887C15.0338 21.9111 14.9252 21.9051 14.8408 21.9488C13.8876 22.4375 12.8605 22.6833 11.8168 22.8794C10.8033 23.0694 9.92253 23.5309 9.17295 24.2307C8.96783 24.4223 8.82003 24.6802 8.66167 24.917C8.60436 25.0029 8.53046 25.1552 8.56816 25.2126C8.79741 25.57 8.5018 25.8143 8.40829 26.1024C8.32534 26.3588 8.23937 26.6137 8.17452 26.8746C8.04632 27.3889 7.73111 27.7961 7.43248 28.3089C7.41891 28.1731 7.3978 28.1219 7.41137 28.0796C7.81406 26.6846 8.25144 25.2985 8.6119 23.8929C8.8336 23.0287 9.39164 22.5144 10.1307 22.0966C11.3131 22.9352 12.5589 22.6215 13.7699 22.1962C14.4396 21.9609 14.9343 21.4134 15.346 20.8493C15.9583 20.0093 16.5073 19.124 17.0804 18.2552C17.1076 18.2145 17.1061 18.1557 17.1197 18.0924C17.0684 18.0682 17.0201 18.0245 16.9794 18.029C16.0368 18.1406 15.0941 18.2492 14.1545 18.3744C12.224 18.6323 10.8305 19.6277 10.0417 21.4255C9.90443 21.7407 9.75059 22.0197 9.28757 22.2007C9.4957 21.7467 9.65256 21.3923 9.81997 21.0454C9.9361 20.8041 10.0899 20.5779 10.1865 20.3305C10.7324 18.9324 11.7731 18.0592 13.141 17.5404C13.2496 17.4996 13.4427 17.5177 13.5226 17.5901C13.9962 18.017 14.5874 18.02 15.1515 18.0215C16.2947 18.0245 17.3037 17.5886 18.1105 16.7968C18.8134 16.1076 19.4347 15.3369 20.0938 14.6039C20.3668 14.2993 20.6443 13.9991 20.9595 13.6522C20.8313 13.6296 20.7378 13.5919 20.6489 13.601C19.9008 13.6749 19.1557 13.785 18.4077 13.8287C17.4711 13.883 16.5481 14.0067 15.6612 14.3083C14.8212 14.5949 14.1877 15.1846 13.6221 15.8452C13.3899 16.1166 13.1637 16.4032 12.9842 16.7109C12.6463 17.293 12.1019 17.6339 11.5257 17.9777C11.7007 17.7334 11.8787 17.4906 12.0506 17.2417C12.224 16.9914 12.3809 16.729 12.5589 16.4816C13.1018 15.726 13.6433 14.9704 14.2028 14.2269C14.4501 13.8981 14.7352 13.5979 15.0052 13.2873C15.7487 12.4366 16.4606 11.5574 17.2464 10.7459C18.0457 9.92096 18.9687 9.23171 19.9581 8.6405C20.0456 8.58771 20.1511 8.56811 20.2537 8.53191C20.4106 8.81847 20.5538 9.08089 20.7182 9.37951C20.305 9.52732 19.8299 9.15781 19.3231 9.49565C19.5026 9.56653 19.6007 9.6344 19.7002 9.63742C20.1119 9.65401 20.5252 9.64948 20.9384 9.65702C21.0998 9.66004 21.2657 9.64948 21.4211 9.68568C22.8493 10.0205 24.0257 9.4881 25.1056 8.62391C25.7692 8.09302 26.4796 7.6466 27.3015 7.40076C27.5368 7.32988 27.7811 7.29066 28.0481 7.23034C28.0013 7.15794 27.9847 7.09007 27.9485 7.07952C26.7435 6.72358 25.5309 6.41742 24.2625 6.38273C23.3093 6.35709 22.4647 6.70247 21.6578 7.14135C21.1571 7.41434 20.7077 7.78083 20.2281 8.09453C19.5871 8.51532 18.9386 8.92555 18.2418 9.27545C19.1286 8.54096 20.0154 7.80647 20.9037 7.07047C21.0576 6.9106 21.2129 6.75073 21.3668 6.58935C21.682 6.01322 22.0997 5.53814 22.6533 5.17316C23.7799 4.4266 24.3545 3.31506 24.6682 2.04063C24.6803 1.98935 24.6863 1.93355 24.6833 1.88076C24.6456 1.27749 24.6049 0.674207 24.5611 -0.00146484C23.1766 0.802404 22.1872 1.90188 21.5251 3.42817C21.4512 3.24719 21.3758 3.14614 21.3773 3.04811C21.3864 2.54739 21.409 2.04667 21.4391 1.54594C21.4527 1.33932 21.4995 1.13572 21.5447 0.844633C21.3773 0.924568 21.2868 0.944174 21.231 0.998469C20.5523 1.66358 19.8586 2.31362 19.21 3.00739C18.3775 3.90024 17.8451 4.93788 17.8888 6.20175C17.91 6.81106 17.9281 7.41886 17.9688 8.02666C17.9944 8.41276 17.9371 8.77322 17.7742 9.12463C17.4439 9.83951 16.9281 10.4172 16.3806 10.9571C15.9237 11.4065 15.4033 11.7926 14.8091 12.2903C14.8438 11.9223 15.0006 11.7414 15.1771 11.5966C15.8528 11.0385 16.3113 10.3086 16.7999 9.59971C17.4002 8.72797 17.5374 7.77932 17.4454 6.73112C17.3836 6.01322 17.0186 5.45519 16.7532 4.84286C16.5933 4.47335 16.4591 4.11591 16.4892 3.7087C16.4968 3.60916 16.4576 3.50509 16.4244 3.31807C16.2705 3.42214 16.1423 3.47493 16.0624 3.56994C15.4968 4.24109 14.8694 4.87604 14.3959 5.60902C13.4472 7.0765 12.9329 8.6782 13.2617 10.4624C13.3446 10.9149 13.497 11.3507 13.8469 11.6478C14.2842 12.0189 14.2948 12.4593 14.1108 12.9117C13.9238 13.3732 13.6885 13.8242 13.4185 14.2434C12.6614 15.4183 11.8711 16.5721 11.105 17.7425C10.9149 18.0335 10.7701 18.3548 10.5635 18.6429C10.5002 18.1904 10.657 17.7998 10.8591 17.4288C11.0039 17.1618 11.1894 16.9175 11.3568 16.6626C12.0612 15.5933 12.672 14.4817 12.8967 13.1983C13.0656 12.233 12.8756 11.3432 12.3055 10.5438C11.948 10.0431 11.6087 9.53938 11.6434 8.88181C11.6464 8.81394 11.6132 8.74155 11.5861 8.67669C11.565 8.62994 11.5257 8.59073 11.4488 8.48515C11.3267 8.57866 11.1834 8.64804 11.0989 8.76115C10.5937 9.43532 10.0688 10.0974 9.61184 10.8048C8.88488 11.9314 8.54705 13.1877 8.52291 14.527C8.50482 15.5465 8.88338 16.4364 9.55151 17.1724C10.0537 17.7259 10.2347 18.2945 9.98135 18.9897C9.66161 19.8645 9.32377 20.7332 8.99498 21.605C8.83662 22.0242 8.68128 22.445 8.5199 22.8643C8.49727 22.9231 8.44901 22.9729 8.36606 23.0966C8.27557 22.3304 8.37511 21.6804 8.60888 21.0318C8.90147 20.2204 9.1096 19.3909 9.09905 18.5116C9.08246 17.204 8.69033 16.0518 7.83518 15.0549C7.36914 14.5119 6.93176 13.9448 6.47779 13.3898C6.43557 13.337 6.37373 13.3008 6.29983 13.2405C6.24553 13.3129 6.1837 13.3612 6.16861 13.4215C5.83078 14.7231 5.45674 16.0171 5.17772 17.3322C4.93038 18.492 4.99071 19.6443 5.54573 20.7438C5.90015 21.4451 6.43707 21.9549 7.08258 22.356C7.33445 22.5129 7.47019 22.6954 7.5637 22.9608C7.8035 23.6335 7.87288 24.2805 7.66324 25.0014C7.30731 26.223 7.05996 27.4749 6.76586 28.7146C6.74776 28.793 6.71006 28.8684 6.67235 28.9725C6.60901 28.7101 6.52153 28.4959 6.51399 28.2787C6.50494 27.9605 6.5336 27.6362 6.58186 27.3195C6.70101 26.5413 6.85484 25.7676 6.96645 24.9878C7.08862 24.1417 6.89858 23.353 6.47176 22.6124C6.0012 21.7965 5.38435 21.0997 4.73431 20.4301C4.35123 20.0349 3.94402 19.6639 3.50211 19.2386C3.43424 19.4015 3.36185 19.492 3.36487 19.581C3.39654 20.3667 3.12959 21.1012 3.0029 21.8598C2.8747 22.6185 2.77667 23.3831 2.70126 24.1493C2.63037 24.8536 2.77969 25.5429 2.94709 26.2246C3.17182 27.1446 3.78113 27.7961 4.49451 28.3632C4.68907 28.5185 4.9153 28.6377 5.137 28.7538C6.07963 29.247 6.0555 29.0992 6.12789 30.3178C6.17766 31.1729 6.08868 32.0356 6.0736 32.8968C6.06304 33.5061 6.07209 34.1154 6.07209 34.8439C5.50953 34.1411 5.63923 33.4111 5.53668 32.7339C5.43261 32.0447 5.36323 31.3464 5.19884 30.6707C4.99976 29.8563 4.58349 29.1429 3.96061 28.5638C3.52775 28.1611 3.08434 27.7674 2.65752 27.3572C2.33477 27.0465 2.03011 26.7177 1.71791 26.3965C1.54748 26.22 1.37706 26.0421 1.19456 25.8535C1.12519 25.935 1.06486 25.9712 1.06486 26.0104C1.0347 27.1566 0.983418 28.3029 0.993977 29.4491C1.00303 30.5425 1.06034 31.639 1.46453 32.6796C1.73601 33.3779 2.15378 33.9767 2.73896 34.4457C3.46139 35.0249 4.24867 35.4804 5.18526 35.6161C5.41904 35.6493 5.59248 35.7443 5.63773 36.058C5.51255 36.052 5.39189 36.0731 5.29536 36.0354C4.309 35.6568 3.30001 35.3416 2.36493 34.8258C1.75562 34.4895 1.0905 34.2572 0.446499 33.9842C0.372597 33.9526 0.280594 33.9661 0.120724 33.9526C0.156921 34.1667 0.184071 34.3341 0.21122 34.5015C0.291153 34.9781 0.389187 35.4517 0.446499 35.9313C0.559612 36.883 0.761711 37.812 1.22021 38.6581C1.60781 39.373 2.20958 39.8798 2.94408 40.2236C3.43123 40.4514 3.92592 40.6625 4.41307 40.8903C4.50356 40.9325 4.56841 41.026 4.64684 41.0954C4.77051 41.0758 4.89418 41.0547 5.01936 41.0366C5.97255 40.8993 6.50343 41.1859 6.90311 42.0651C6.99963 42.2763 7.06901 42.501 7.1414 42.7227C7.28167 43.148 7.41288 43.5764 7.55465 44.0017C7.84573 44.8809 8.14134 45.7602 8.45806 46.7119C8.20016 46.4842 8.01013 46.2685 7.77786 46.1222C7.27412 45.807 7.07052 45.3877 6.95288 44.7874C6.70252 43.516 6.09471 42.4 5.0435 41.5735C4.84743 41.4196 4.66192 41.2507 4.47189 41.0893C2.99686 40.4212 1.57011 39.64 0.0106277 39.0744C0.0106277 39.189 -0.0089798 39.2539 0.0136452 39.2886C0.374104 39.824 0.496269 40.4348 0.616924 41.0562C0.828072 42.1556 1.20361 43.1948 1.79483 44.1585C2.42677 45.1871 3.25175 45.9563 4.47189 46.3213C3.573 46.4932 2.72388 46.1403 1.82047 46.3213C1.88683 46.4751 1.90794 46.5777 1.96677 46.6546C2.44788 47.279 2.96821 47.8777 3.41463 48.5263C4.24716 49.7343 5.45071 50.3014 6.82619 50.5819C7.5637 50.7327 8.31026 50.8006 9.07039 50.8066C9.85616 50.8127 10.5424 51.1626 11.0099 51.793C11.844 52.9151 12.6297 54.0764 13.4321 55.2211C13.4487 55.2438 13.4397 55.2845 13.4487 55.3916C12.9887 55.1322 12.5664 54.8939 12.0913 54.6269C11.8319 54.0085 11.4714 53.3751 10.9813 52.8141C9.99492 51.6829 8.74914 51.0072 7.28468 50.7931C6.00874 50.6061 4.71772 50.5261 3.43424 50.4025C3.34978 50.3949 3.26231 50.416 3.09792 50.4311C3.16277 50.597 3.18841 50.7327 3.2608 50.8338C4.09936 51.9981 4.88966 53.2032 5.80514 54.3042C6.65124 55.3207 7.73111 55.9918 9.15033 55.9933C10.0025 55.9933 10.7928 55.8636 11.5242 55.4368C11.8485 55.2468 12.1516 55.1925 12.4774 55.4127C12.5513 55.4625 12.6358 55.5062 12.7202 55.5258C13.8092 55.7807 14.5663 56.5182 15.2932 57.2979C15.8663 57.9133 16.4334 58.5346 16.9296 59.0731C16.4666 59.0143 15.9674 58.8046 15.6009 58.2315C14.7639 56.9209 13.512 56.3342 11.9722 56.2693C10.9617 56.2271 9.97682 56.3327 8.99046 56.5348C8.61039 56.6132 8.20469 56.568 7.81104 56.5861C7.60593 56.5966 7.40081 56.6223 7.05393 56.6554C7.24245 56.8681 7.32088 57.0068 7.44003 57.0823C8.20317 57.5724 8.78534 58.2632 9.42482 58.8845C10.1201 59.5602 10.9074 60.1017 11.8063 60.3988C12.9902 60.7909 14.1817 60.708 15.2616 59.9855C15.4079 59.8875 15.5722 59.7729 15.6522 59.6236C15.8256 59.3038 16.0896 59.2767 16.3867 59.331C17.0035 59.4456 17.6023 59.5813 18.1302 59.9795C19.4498 60.9704 20.7816 61.9462 22.2355 62.738C22.7045 62.9929 23.1796 63.2387 23.626 63.5569C23.338 63.477 23.0469 63.4091 22.7634 63.3171C22.0243 63.0743 21.2627 62.9597 20.489 62.9341C20.2069 62.925 20.029 62.83 19.8812 62.5842C19.7454 62.3579 19.5388 62.1739 19.3624 61.9733C19.2161 61.8059 18.9627 61.72 18.9898 61.4228C18.9959 61.3625 18.8918 61.2796 18.8209 61.2298C18.7033 61.1483 18.5811 61.0609 18.4469 61.0202C17.2358 60.6522 16.0126 60.3897 14.7427 60.6899C14.3069 60.7939 13.8755 60.9221 13.4457 61.0473C12.865 61.2162 12.2874 61.3927 11.6751 61.5752C11.7067 61.6219 11.7474 61.7139 11.8153 61.7743C12.2648 62.186 12.7368 62.5721 13.1682 63.0004C14.1395 63.9626 15.2993 64.6127 16.625 64.8495C17.6792 65.038 18.7742 65.0455 19.7681 64.4664C20.13 64.2552 20.4422 64.038 20.3186 63.5449C20.308 63.5011 20.3487 63.4453 20.3774 63.3548C20.578 63.3548 20.7921 63.3232 20.9927 63.3609C21.9082 63.5268 22.8192 63.7289 23.7361 63.8842C24.7029 64.0486 25.5973 64.394 26.472 64.8253C27.5172 65.3396 28.582 65.8117 29.6392 66.3365C29.3466 66.2792 29.0571 66.1948 28.7615 66.1691C28.1552 66.1163 27.5459 66.0756 26.9365 66.0666C26.6228 66.062 26.3876 65.9882 26.2081 65.7167C25.5007 64.6489 24.4133 64.2884 23.2173 64.1527C23.0258 64.1316 22.8207 64.1557 22.6306 64.1979C21.3984 64.4709 20.2628 64.9113 19.474 65.9851C19.3367 66.1737 19.0728 66.2732 18.8571 66.3969C18.7229 66.4738 18.569 66.5205 18.4107 66.5869C18.4559 66.8192 18.6354 66.8177 18.7772 66.8704C19.765 67.2415 20.7529 67.6155 21.7951 68.0076C21.679 68.1811 21.6005 68.3002 21.5236 68.4179C21.5794 68.4586 21.6066 68.4948 21.6337 68.4963C21.9188 68.5144 22.2023 68.5249 22.4874 68.5415C23.3455 68.5913 24.1992 68.6788 25.0181 68.2625C25.6154 67.9579 26.0874 67.5325 26.4403 66.982C26.7058 66.5673 27.0497 66.3954 27.5217 66.4391C28.306 66.51 29.0903 66.6201 29.876 66.6533C30.9363 66.697 31.888 67.1208 32.8713 67.433C33.087 67.5009 33.2891 67.608 33.4852 67.7995C33.081 67.8915 32.6798 67.9895 32.2726 68.0664C32.2032 68.08 32.1097 68.0046 32.0388 67.9533C30.9559 67.154 29.784 67.1178 28.5714 67.5793C27.6152 67.9428 26.8928 68.6109 26.3483 69.4615C25.9411 70.095 25.5761 70.7556 25.1961 71.4056C25.1614 71.4644 25.1569 71.5398 25.1252 71.6499C25.2443 71.6982 25.3529 71.7841 25.4585 71.7796C26.5701 71.7329 27.6831 71.665 28.7569 71.3619C29.1446 71.2533 29.5201 71.0301 29.8459 70.7857C30.4763 70.3137 31.1263 69.8446 31.6602 69.273C32.7205 68.1388 33.9738 68.0649 35.3146 68.5068C35.9194 68.7059 36.4699 69.0739 37.0385 69.3756C37.2436 69.4841 37.4261 69.6365 37.6282 69.7526C37.9932 69.9622 38.1696 69.92 38.4004 69.5897C38.6191 69.2775 38.6115 69.1192 38.2918 68.8552C38.058 68.6637 37.8016 68.4827 37.5271 68.359C36.4819 67.8855 35.4247 67.439 34.3735 66.979C34.0447 66.8358 33.7099 66.7045 33.3947 66.5341C32.7567 66.1872 32.4912 65.685 32.5983 64.9746C32.9663 62.5464 32.0569 60.5632 30.4039 58.8876C29.7946 58.2692 29.0148 57.8182 28.1989 57.4653C27.6394 57.224 27.0843 56.9706 26.5399 56.6962C26.3197 56.5845 26.1297 56.4096 25.9321 56.2558C25.7948 56.1487 25.6666 56.0295 25.5234 55.9074C25.4615 55.9828 25.4027 56.0235 25.4027 56.0612C25.4479 57.5649 25.4359 59.0746 25.9336 60.524C26.2775 61.5254 26.6198 62.5148 27.3181 63.3563C27.9576 64.1285 28.7117 64.6881 29.6453 65.0274C29.8971 65.1194 30.143 65.228 30.3918 65.3291C30.8729 65.4467 31.3571 65.5493 31.8322 65.6865C32.0222 65.7408 32.1172 65.8901 31.9453 66.1179C31.6406 66.0319 31.3405 65.9459 31.0404 65.8615L31.0419 65.8645ZM6.61504 41.0924C6.51851 41.0109 6.45065 40.9596 6.39032 40.9008C6.08868 40.6022 6.06606 40.195 5.97707 39.8149C5.59851 38.1981 4.87307 36.797 3.48552 35.8061C3.45083 35.782 3.43575 35.7292 3.34828 35.5844C3.79018 35.7684 4.12349 35.9283 4.47189 36.0474C4.8052 36.1606 5.14756 36.2646 5.49445 36.3129C5.87602 36.3657 5.93786 36.3808 6.03288 36.7729C6.07058 36.9297 6.10376 37.0881 6.12638 37.2465C6.30586 38.4847 6.48232 39.7229 6.65878 40.9627C6.66029 40.9777 6.64822 40.9958 6.61504 41.0924ZM5.2094 46.3816C5.40245 46.3529 5.62114 46.2519 5.78101 46.3107C6.15956 46.454 6.42199 46.2775 6.71458 46.1056C6.82166 46.0438 7.02225 45.991 7.09465 46.0468C7.50488 46.359 7.94075 46.6606 8.27255 47.0482C9.15334 48.0783 9.67065 49.3347 10.2935 50.5216C10.3358 50.603 10.3433 50.7011 10.375 50.8217C9.92554 50.7343 9.69177 50.4945 9.59374 50.1144C9.41125 49.407 9.02816 48.7962 8.62698 48.2065C8.42337 47.9064 8.13078 47.6319 7.81859 47.4464C7.01622 46.9668 6.15202 46.6199 5.20789 46.3816H5.2094ZM21.4422 4.41303C21.4422 4.66339 21.4738 4.91827 21.4346 5.1626C21.3622 5.61807 21.3079 6.08109 20.9203 6.42496C20.1692 7.09007 19.4393 7.77932 18.6987 8.4565C18.6188 8.52889 18.5223 8.5847 18.4333 8.64804C18.471 8.43388 18.5344 8.22273 18.6701 8.15335C19.109 7.93014 19.3744 7.53801 19.6534 7.17755C20.3276 6.31184 21.2069 5.5683 21.4407 4.41303H21.4422ZM7.99504 23.0046C7.72809 22.4269 7.74167 22.2942 8.08855 22.0288C8.05688 22.3575 8.03124 22.6305 7.99504 23.0046ZM15.1454 12.3311C15.1771 12.3612 15.2088 12.3914 15.2404 12.4215C14.9901 12.7066 14.7412 12.9916 14.4909 13.2767C14.4622 13.2511 14.4336 13.2254 14.4049 13.1983C14.6522 12.9087 14.8981 12.6191 15.1454 12.3295V12.3311ZM6.44612 29.7281L6.42501 29.7507C6.39786 29.5607 6.37222 29.3707 6.34055 29.1806C6.29681 28.9167 6.2953 28.9182 6.44461 28.6075V29.7281H6.44612ZM21.7438 4.66489C21.7302 4.66489 21.7182 4.66489 21.7046 4.66339V4.06916C21.7182 4.06916 21.7302 4.06916 21.7438 4.07066V4.66489ZM10.3373 17.7425C10.3147 17.7319 10.2905 17.7213 10.2679 17.7108C10.295 17.655 10.3222 17.5992 10.3493 17.5434C10.3674 17.5524 10.3855 17.56 10.4021 17.569C10.381 17.6278 10.3599 17.6852 10.3373 17.744V17.7425ZM32.4943 66.3365C32.3676 66.3124 32.3178 66.3154 32.2861 66.2928C32.262 66.2762 32.259 66.2264 32.2122 66.0952C32.3374 66.2023 32.3842 66.2415 32.4958 66.3365H32.4943Z" fill="white" fill-opacity="0.6"/>
<path d="M12.6132 39.575C12.5453 39.765 12.4412 39.9505 12.4141 40.1466C12.3206 40.8192 12.0235 41.4029 11.7098 41.9926C11.2995 42.7663 10.8727 43.546 10.5861 44.371C9.91047 46.3211 10.2272 48.1566 11.4413 49.8247C11.6147 50.0629 11.8892 50.2243 12.1049 50.434C12.212 50.538 12.3703 50.6692 12.3719 50.7899C12.3839 51.7144 12.7504 52.4927 13.2873 53.2136C13.3793 53.3372 13.4517 53.4775 13.5633 53.66C13.7654 53.3795 13.7202 53.1955 13.5196 53.0175C12.8334 52.4112 12.8183 51.6028 12.8862 50.7884C12.8997 50.621 13.0656 50.4445 13.2014 50.3118C14.1244 49.4008 14.7216 48.324 14.9222 47.036C15.1334 45.6892 14.978 44.3816 14.4049 43.1494C14.1108 42.519 13.7262 41.9292 13.3597 41.3365C13.0309 40.8041 12.6448 40.2989 12.7761 39.6006C12.7218 39.5931 12.6675 39.5855 12.6147 39.578L12.6132 39.575Z" fill="white" fill-opacity="0.6"/>
<path d="M21.3666 6.59075C21.2127 6.75062 21.0574 6.91049 20.9036 7.07187C21.0393 7.05679 21.1871 7.07187 21.3078 7.02059C21.4872 6.94367 21.6637 6.84112 21.813 6.71594C22.5369 6.11718 23.3861 6.08853 24.2593 6.15338C24.4689 6.16846 24.6801 6.18957 24.9742 6.21521C24.5051 5.9181 24.2186 5.88492 22.7888 5.93016C23.095 5.5501 23.4916 5.35403 23.8521 5.12177C23.9335 5.06898 24.1402 5.1263 24.2427 5.19869C25.4583 6.06289 26.6 5.716 27.6709 4.94531C27.9303 4.7583 28.1625 4.50794 28.4415 4.32544C28.7266 4.13843 29.0403 3.97856 29.2801 3.74479C29.7552 3.28479 30.1926 2.78558 30.636 2.29541C30.9723 1.92289 31.2755 1.5202 31.6299 1.16426C31.8531 0.939543 32.1412 0.781183 32.3976 0.589642C32.4624 0.54138 32.5167 0.481052 32.6766 0.333248C32.3764 0.309117 32.1894 0.275937 32.0054 0.28197C31.0402 0.307609 30.0734 0.330232 29.1082 0.376986C28.2395 0.419216 27.3903 0.625838 26.6212 1.0044C25.766 1.42518 25.1069 2.11141 24.8053 3.04046C24.4976 3.9861 23.9712 4.71908 23.1251 5.26053C22.5083 5.65567 21.9518 6.14282 21.3681 6.58774L21.3666 6.59075ZM26.6996 4.50944C26.6951 4.53207 26.6905 4.55469 26.686 4.5758C26.5699 4.56223 26.4537 4.54866 26.3376 4.53508C26.3391 4.52 26.3406 4.50492 26.3421 4.48984C26.4613 4.49587 26.5804 4.5019 26.6996 4.50944ZM25.7509 4.40689C25.7494 4.42197 25.7464 4.43705 25.7449 4.45213C25.6785 4.4461 25.6122 4.44007 25.5458 4.43403C25.5458 4.42498 25.5458 4.41594 25.5473 4.40689H25.7509Z" fill="white" fill-opacity="0.6"/>
<path d="M24.3861 10.1698C24.1387 10.0039 23.8838 10.0613 23.65 10.0929C22.8432 10.2045 22.0438 10.1548 21.2369 10.0643C20.783 10.013 20.2988 10.0341 19.8539 10.1352C19.2446 10.2724 18.6504 10.4896 18.0682 10.7188C17.4332 10.9692 16.9748 11.4518 16.5615 11.9842C16.3911 12.2029 16.477 12.3763 16.5962 12.5422C16.195 13.0867 15.4047 13.0158 15.1061 13.6689C15.4258 13.5346 15.7531 13.417 16.0623 13.2632C16.3488 13.1214 16.5871 13.147 16.8707 13.2993C17.1648 13.4562 17.4966 13.5844 17.8254 13.6296C19.5749 13.8679 21.065 13.3597 22.1871 11.9676C22.7617 11.2542 23.3967 10.6464 24.2624 10.3101C24.3031 10.2935 24.3287 10.2377 24.3861 10.1714V10.1698Z" fill="white" fill-opacity="0.6"/>
<path d="M31.0404 65.8676C31.3481 65.8314 31.2515 65.6579 31.0962 65.59C30.8805 65.495 30.6286 65.4799 30.3919 65.4302C30.6075 65.5765 30.8232 65.7228 31.0404 65.8676Z" fill="white" fill-opacity="0.6"/>
<path d="M14.4125 14.3264C14.4969 14.2525 14.5814 14.1786 14.6658 14.1047C14.6492 14.0821 14.6311 14.0595 14.6146 14.0369C14.5241 14.1002 14.4351 14.1636 14.3446 14.2284C14.3672 14.2616 14.3898 14.2948 14.4125 14.3279V14.3264Z" fill="white" fill-opacity="0.6"/>
</g>
<defs>
<clipPath id="clip0_770_2353">
<rect width="38.5496" height="71.7781" fill="white" transform="matrix(-1 0 0 1 38.5496 0)"/>
</clipPath>
</defs>
</svg>
