<svg width="28" height="30" viewBox="0 0 28 30" fill="none" xmlns="http://www.w3.org/2000/svg">
<path d="M14.5959 28.9057C6.70204 28.9057 0.280273 22.4839 0.280273 14.5901C0.280273 6.69624 6.32309 0.580549 14.0391 0.286133H14.0741C14.4181 0.286133 14.7212 0.519334 14.8145 0.851645C14.9107 1.19853 14.7591 1.56291 14.4414 1.73781C10.9288 3.6792 8.74838 7.37544 8.74838 11.3865C8.74838 17.4614 13.6922 22.4052 19.7671 22.4052C22.0233 22.4052 24.1921 21.7289 26.0344 20.4463C26.1656 20.356 26.3171 20.3064 26.4775 20.3064C26.6699 20.3064 26.8535 20.3764 26.9963 20.5046C27.2645 20.7466 27.3316 21.1372 27.1596 21.4549C24.6439 26.049 19.8312 28.9028 14.5988 28.9028L14.5959 28.9057ZM11.0658 2.31498C5.65264 3.8541 1.82814 8.85043 1.82814 14.5901C1.82814 21.6269 7.55614 27.3549 14.593 27.3549C18.1522 27.3549 21.5861 25.8333 23.9851 23.2331C22.6384 23.7141 21.2246 23.9589 19.7642 23.9589C12.8323 23.9589 7.19468 18.3213 7.19468 11.3894C7.19468 7.92929 8.59097 4.67905 11.0629 2.31498H11.0658Z" fill="#CCDEE2"/>
<path d="M14.0737 0.565511C14.2952 0.565511 14.4847 0.714177 14.5459 0.926973C14.6071 1.14851 14.508 1.38171 14.3098 1.49248C10.7068 3.48344 8.47102 7.27295 8.47102 11.386C8.47102 17.6154 13.5402 22.6846 19.7696 22.6846C22.0841 22.6846 24.3083 21.9908 26.1972 20.6762C26.2817 20.6179 26.3808 20.5887 26.4799 20.5887C26.5995 20.5887 26.719 20.6324 26.8123 20.717C26.9842 20.8715 27.0251 21.1222 26.9143 21.3233C24.4482 25.827 19.7288 28.6254 14.5984 28.6254C6.85902 28.6254 0.562597 22.329 0.562597 14.5925C0.562597 6.8561 6.48881 0.857012 14.0533 0.568426C14.062 0.568426 14.0707 0.568426 14.0766 0.568426M12.1002 1.78107C6.04573 2.93833 1.54787 8.22907 1.54787 14.5896C1.54787 21.7809 7.40121 27.6343 14.5925 27.6343C18.6794 27.6343 22.4893 25.722 24.935 22.5388C23.3259 23.288 21.5711 23.6786 19.7638 23.6786C12.9864 23.6786 7.47408 18.1663 7.47408 11.3889C7.47408 7.61692 9.2056 4.09267 12.0973 1.78107M14.0737 0.00291508C14.0562 0.00291508 14.0387 0.00291508 14.0212 0.00291508C6.16233 0.303161 0 6.71035 0 14.5867C0 22.4631 6.54711 29.1822 14.5984 29.1822C19.9328 29.1822 24.8417 26.273 27.4069 21.5886C27.643 21.1571 27.5527 20.6237 27.1854 20.2972C26.9901 20.1223 26.7394 20.0261 26.4799 20.0261C26.2642 20.0261 26.0544 20.0902 25.8765 20.2156C24.0809 21.4632 21.9704 22.122 19.7696 22.122C13.8492 22.122 9.0307 17.3064 9.0307 11.3831C9.0307 7.47408 11.1557 3.87113 14.5809 1.97929C15.0123 1.74026 15.2193 1.24471 15.0881 0.772477C14.9598 0.317736 14.5459 0 14.0766 0L14.0737 0.00291508ZM14.5955 27.0746C7.7102 27.0746 2.11047 21.4749 2.11047 14.5925C2.11047 9.36009 5.35487 4.76313 10.083 2.94124C8.05126 5.26159 6.92023 8.24073 6.92023 11.3919C6.92023 18.4782 12.6832 24.2412 19.7696 24.2412C20.8685 24.2412 21.9413 24.1071 22.9819 23.8389C20.7024 25.894 17.6999 27.0775 14.5984 27.0775L14.5955 27.0746Z" fill="#2A6CB5"/>
</svg>
