<svg width="29" height="30" viewBox="0 0 29 30" fill="none" xmlns="http://www.w3.org/2000/svg">
<path d="M14.494 21.5936C18.2483 21.5936 21.2918 18.5058 21.2918 14.6967C21.2918 10.8877 18.2483 7.7998 14.494 7.7998C10.7397 7.7998 7.69629 10.8877 7.69629 14.6967C7.69629 18.5058 10.7397 21.5936 14.494 21.5936Z" stroke="#B8BECE" stroke-width="1.8" stroke-miterlimit="10" stroke-linecap="round"/>
<path d="M14.4932 5.86785V0.599609" stroke="#B8BECE" stroke-width="1.8" stroke-miterlimit="10" stroke-linecap="round"/>
<path d="M10.1412 7.04996L7.54492 2.49023" stroke="#B8BECE" stroke-width="1.8" stroke-miterlimit="10" stroke-linecap="round"/>
<path d="M6.95702 10.2806L2.45996 7.64941" stroke="#B8BECE" stroke-width="1.8" stroke-miterlimit="10" stroke-linecap="round"/>
<path d="M5.78919 14.6963H0.599609" stroke="#B8BECE" stroke-width="1.8" stroke-miterlimit="10" stroke-linecap="round"/>
<path d="M6.95702 19.1123L2.45996 21.7435" stroke="#B8BECE" stroke-width="1.8" stroke-miterlimit="10" stroke-linecap="round"/>
<path d="M10.1412 22.3428L7.54492 26.9025" stroke="#B8BECE" stroke-width="1.8" stroke-miterlimit="10" stroke-linecap="round"/>
<path d="M14.4932 23.5244V28.7926" stroke="#B8BECE" stroke-width="1.8" stroke-miterlimit="10" stroke-linecap="round"/>
<path d="M18.8428 22.3428L21.439 26.9025" stroke="#B8BECE" stroke-width="1.8" stroke-miterlimit="10" stroke-linecap="round"/>
<path d="M22.0273 19.1123L26.5244 21.7435" stroke="#B8BECE" stroke-width="1.8" stroke-miterlimit="10" stroke-linecap="round"/>
<path d="M23.1953 14.6963H28.3849" stroke="#B8BECE" stroke-width="1.8" stroke-miterlimit="10" stroke-linecap="round"/>
<path d="M22.0273 10.2806L26.5244 7.64941" stroke="#B8BECE" stroke-width="1.8" stroke-miterlimit="10" stroke-linecap="round"/>
<path d="M18.8428 7.04996L21.439 2.49023" stroke="#B8BECE" stroke-width="1.8" stroke-miterlimit="10" stroke-linecap="round"/>
</svg>
