<svg width="353" height="505" viewBox="0 0 353 505" fill="none" xmlns="http://www.w3.org/2000/svg">
<g clip-path="url(#clip0_1313_14624)">
<path d="M248.665 300.288C246.579 330.992 228.082 332.296 228.082 332.296L228.204 333.131L229.231 340.161L229.9 344.796L229.086 345.119C209.662 352.717 187.461 351.959 170.247 349.341L171.931 337.465L172.902 337.51C173.761 337.944 174.575 338.122 174.575 338.122C175.245 337.989 175.892 337.844 176.517 337.688C183.579 335.916 188.231 332.619 191.254 328.742C195.527 323.261 196.554 316.587 196.542 311.384C196.531 306.104 194.01 301.18 189.849 298.172C188.889 297.481 187.84 296.879 186.725 296.411C178.012 292.735 169.934 296.11 165.349 298.361C162.683 299.664 161.511 301.413 161.199 303.062L140.214 300.745L110.995 297.525L106.287 298.105C105.629 295.854 104.625 293.659 103.107 291.844C109.322 292.267 119.552 292.735 120.991 291.487C123.077 289.66 137.402 255.313 143.137 246.467C147.711 239.404 157.785 236.652 161.667 235.828C168.674 244.841 183.333 254.99 206.717 230.859C227.089 230.369 239.015 245.197 244.727 263.713C248.342 275.422 249.468 288.613 248.676 300.333L248.665 300.288Z" fill="#4BA3C3" stroke="black" stroke-width="2.32" stroke-linecap="round" stroke-linejoin="round"/>
<path d="M218.956 201.403C218.498 211.385 207.576 211.151 205.222 210.984C204.988 210.961 204.787 211.162 204.787 211.396L205.234 230.458C205.234 230.692 205.434 230.859 205.657 230.848C205.657 230.848 205.657 230.848 205.669 230.848C206.037 230.825 206.238 231.282 205.981 231.538C183.456 254.277 169.143 245.074 162.058 236.295C161.869 236.061 162.002 235.705 162.304 235.638C162.571 235.582 162.783 235.549 162.928 235.527C163.096 235.493 163.23 235.371 163.263 235.204L164.011 231.182C164.055 230.959 163.899 230.747 163.665 230.703C159.604 230.079 156.692 227.483 156.647 227.461C136.164 216.153 154.561 171.534 159.28 160.494C159.37 160.282 159.615 160.193 159.827 160.293C174.319 167.033 195.951 164.437 201.474 163.624C201.853 163.568 202.099 164.036 201.82 164.304C195.315 170.843 196.889 181.383 198.863 188.123C199.086 188.891 199.321 189.627 199.544 190.284C199.633 190.54 199.945 190.641 200.168 190.485C202.589 188.724 204.776 187.989 206.338 187.51C212.775 185.527 215.999 186.775 217.684 190.696C217.706 190.752 217.729 190.808 217.762 190.875C217.784 190.93 217.807 190.986 217.829 191.053C217.851 191.131 217.885 191.198 217.907 191.276C217.985 191.498 218.063 191.721 218.13 191.966C218.889 194.54 219.112 197.715 218.934 201.403H218.956Z" fill="#FDDBCA" stroke="black" stroke-width="2.32" stroke-linecap="round" stroke-linejoin="round"/>
<path d="M164.1 230.77C167.246 231.148 178.949 227.661 183.646 224.598" stroke="black" stroke-width="2.32" stroke-linecap="round" stroke-linejoin="round"/>
<path d="M177.778 186.574C177.778 186.574 175.948 194.417 181.682 194.529C187.417 194.64 186.636 189.17 186.636 189.17" stroke="black" stroke-width="2.32" stroke-linecap="round" stroke-linejoin="round"/>
<path d="M168.663 179.021C168.663 179.021 159.805 192.847 158.243 194.529C156.681 196.2 159.28 200.89 163.453 201.147L167.625 201.403" stroke="black" stroke-width="2.32" stroke-linecap="round" stroke-linejoin="round"/>
<path d="M157.774 184.491C157.774 184.491 157.004 189.181 161.924 188.925" stroke="black" stroke-width="2.32" stroke-linecap="round" stroke-linejoin="round"/>
<path d="M157.774 174.342C157.774 174.342 161.356 169.663 165.004 174.342" stroke="black" stroke-width="2.32" stroke-linecap="round" stroke-linejoin="round"/>
<path d="M179.339 176.938C179.339 176.938 185.854 174.598 187.94 179.021" stroke="black" stroke-width="2.32" stroke-linecap="round" stroke-linejoin="round"/>
<path d="M219.469 164.794C217.383 162.533 217.639 156.639 208.268 151.18C181.682 136.864 145.725 148.841 152.765 155.603C154.695 157.43 156.96 158.912 159.459 160.104C176.16 168.136 202.801 163.402 202.801 163.402C195.17 169.83 196.81 181.06 198.874 188.123C199.164 189.103 199.454 190.006 199.744 190.808C202.344 188.858 204.631 187.633 206.36 187.499C212.73 187.02 216.022 186.764 217.706 190.685C217.517 190.184 217.293 189.716 217.048 189.271C217.327 189.761 217.561 190.295 217.773 190.864C217.795 190.919 217.818 190.975 217.84 191.042C217.862 191.12 217.896 191.187 217.918 191.265C217.996 191.488 218.074 191.71 218.141 191.955C218.699 191.465 219.145 190.886 219.469 190.206C222.593 183.7 221.555 167.045 219.469 164.783V164.794Z" fill="black" stroke="black" stroke-width="2.32" stroke-linecap="round" stroke-linejoin="round"/>
<path d="M172.891 337.498L171.92 337.454L171.998 336.941C172.277 337.164 172.589 337.354 172.891 337.498Z" stroke="black" stroke-width="2.32" stroke-linecap="round" stroke-linejoin="round"/>
<path d="M176.517 337.677C175.892 337.833 175.245 337.978 174.576 338.111C174.576 338.111 173.761 337.944 172.902 337.51L176.517 337.677Z" stroke="black" stroke-width="2.32" stroke-linecap="round" stroke-linejoin="round"/>
<path d="M106.276 298.071L102.561 298.528L93.625 299.62L92.7659 298.929C92.7659 298.929 92.6878 299.252 92.5205 299.753C91.9069 301.67 90.0438 306.271 86.5183 306.271C82.6136 306.271 80.2484 305.781 80.9067 301.179L80.215 301.269L76.0425 301.781L71.4795 302.338C71.5018 299.007 73.1083 289.738 89.8653 287.554C96.3583 286.708 100.486 288.702 103.097 291.81C104.625 293.626 105.629 295.832 106.276 298.071Z" fill="#FDDBCA" stroke="black" stroke-width="2.32" stroke-linecap="round" stroke-linejoin="round"/>
<path d="M127.227 315.473L125.308 362.197L78.3957 353.909L62.8325 351.168L51.877 304.722L72.0812 307.608L127.227 315.473Z" fill="#4BA3C3" stroke="black" stroke-width="2.32" stroke-linecap="round" stroke-linejoin="round"/>
<path d="M171.998 336.941L171.92 337.454L170.235 349.33L136.465 359L125.309 362.198L127.239 315.473L138.317 313.056L163.017 307.675C163.798 308.053 165.382 307.519 167.101 306.783C169.901 305.602 173.091 303.887 173.828 304.722C173.939 304.845 173.995 305.034 173.995 305.279C174.051 307.363 170.548 313.546 165.315 318.76C164.434 319.629 163.519 320.475 162.549 321.278C155.141 327.394 163.519 330.602 163.519 330.602C163.508 330.758 163.497 330.914 163.486 331.059C163.118 338.111 171.251 333.454 171.251 333.454C170.447 335.103 171.083 336.217 171.998 336.941Z" fill="#4BA3C3" stroke="black" stroke-width="2.32" stroke-linecap="round" stroke-linejoin="round"/>
<path d="M176.517 337.677C175.892 337.833 175.245 337.978 174.576 338.111C174.576 338.111 173.761 337.944 172.902 337.51L176.517 337.677Z" stroke="black" stroke-width="2.32" stroke-linecap="round" stroke-linejoin="round"/>
<path d="M248.9 477.104C248.9 477.104 251.823 486.685 251.823 490.038C251.823 493.391 251.823 494.349 247.026 496.745C242.228 499.14 208.67 506.326 194.278 502.727C189.247 502.003 196.197 492.912 206.74 487.409C217.294 481.905 214.65 481.66 214.65 481.66L211.057 482.139C211.057 482.139 181.326 409.836 182.285 383.978C182.285 379.432 180.366 369.138 180.366 369.138C180.366 369.138 168.373 412.231 170.772 432.351C173.17 452.46 171.977 477.839 171.977 477.839L167.179 478.797C167.179 478.797 169.098 497.703 166.945 499.385C164.792 501.056 149.92 499.864 149.92 499.864L149.686 496.511C149.686 496.511 130.865 503.218 108.932 499.864C100.419 497.714 108.575 488.133 120.077 485.983C131.59 483.833 134.703 478.808 134.703 478.808L130.385 478.563C130.385 478.563 126.972 410.459 129.136 399.007C130.33 392.723 133.677 374.33 136.466 359.034L170.236 349.363C187.451 351.97 209.652 352.739 229.075 345.141C228.707 359.646 228.049 401.625 232.389 411.284C237.666 423.015 251.812 474.965 251.812 474.965L248.889 477.115L248.9 477.104Z" fill="black" stroke="black" stroke-width="2.32" stroke-linecap="round" stroke-linejoin="round"/>
<path d="M147.03 260.438C147.03 260.438 140.169 292.735 140.202 300.711" stroke="black" stroke-width="2.32" stroke-linecap="round" stroke-linejoin="round"/>
<path d="M163.006 307.675L138.306 313.056L127.228 315.473L72.0816 307.608L51.8662 304.722L71.468 302.327L76.031 301.77L80.2035 301.258L80.8952 301.169C80.2258 305.77 82.6021 306.26 86.5069 306.26C90.0434 306.26 91.8954 301.659 92.509 299.743L93.6135 299.609L102.55 298.517L106.265 298.06L110.973 297.481L140.192 300.701L161.177 303.018C160.775 305.157 161.824 307.107 162.995 307.664L163.006 307.675Z" fill="#23577A" stroke="black" stroke-width="2.32" stroke-linecap="round" stroke-linejoin="round"/>
<path d="M176.517 337.677C175.892 337.833 175.245 337.978 174.576 338.111C174.576 338.111 173.761 337.944 172.902 337.51L176.517 337.677Z" stroke="black" stroke-width="2.32" stroke-linecap="round" stroke-linejoin="round"/>
<path d="M55.1797 318.76L126.659 329.343" stroke="black" stroke-width="2.32" stroke-linecap="round" stroke-linejoin="round"/>
<path d="M126.011 345.108L59.4746 336.941" stroke="black" stroke-width="2.32" stroke-linecap="round" stroke-linejoin="round"/>
<path d="M107.437 312.654L108.909 359.301" stroke="black" stroke-width="2.32" stroke-linecap="round" stroke-linejoin="round"/>
<path d="M89.1729 310.047L92.7429 356.449" stroke="black" stroke-width="2.32" stroke-linecap="round" stroke-linejoin="round"/>
<path d="M72.082 307.608L78.3966 353.909" stroke="black" stroke-width="2.32" stroke-linecap="round" stroke-linejoin="round"/>
<path d="M110.984 297.492L111.196 313.189" stroke="black" stroke-width="2.32" stroke-linecap="round" stroke-linejoin="round"/>
<path d="M141.82 312.298L139.924 358.008" stroke="black" stroke-width="2.32" stroke-linecap="round" stroke-linejoin="round"/>
<path d="M156.09 309.179L149.652 355.224" stroke="black" stroke-width="2.32" stroke-linecap="round" stroke-linejoin="round"/>
<path d="M196.543 311.362C196.565 316.576 195.527 323.238 191.254 328.719C188.22 332.608 183.568 335.894 176.517 337.665L172.902 337.498C172.601 337.342 172.289 337.153 172.01 336.93C171.084 336.206 170.459 335.092 171.262 333.443C171.262 333.443 163.14 338.1 163.497 331.059C163.497 330.903 163.52 330.747 163.531 330.58C163.531 330.58 155.164 327.36 162.56 321.255C163.52 320.453 164.446 319.617 165.327 318.737C170.559 313.523 174.062 307.351 174.007 305.257C174.007 305.012 173.951 304.822 173.839 304.7C173.103 303.864 169.923 305.58 167.112 306.761C165.394 307.496 163.81 308.031 163.029 307.652C161.857 307.095 160.809 305.146 161.21 303.007C161.523 301.369 162.694 299.609 165.36 298.305C169.946 296.055 178.023 292.69 186.736 296.355C187.863 296.835 188.912 297.425 189.86 298.116C194.021 301.124 196.531 306.059 196.554 311.329L196.543 311.362Z" fill="#FDDBCA" stroke="black" stroke-width="2.32" stroke-linecap="round" stroke-linejoin="round"/>
<path d="M167.089 306.783L165.315 318.76" stroke="black" stroke-width="2.32" stroke-linecap="round" stroke-linejoin="round"/>
<path d="M163.486 331.07L160.496 351.168" stroke="black" stroke-width="2.32" stroke-linecap="round" stroke-linejoin="round"/>
<path d="M157.774 209.034C157.774 209.034 163.125 215.52 173.311 209.034" stroke="black" stroke-width="2.32" stroke-linecap="round" stroke-linejoin="round"/>
<path d="M214.861 268.426L215.274 299.275" stroke="black" stroke-width="2.32" stroke-linecap="round" stroke-linejoin="round"/>
<path d="M226.018 301.748C226.018 301.748 204.408 295.721 193.106 300.132" stroke="black" stroke-width="2.32" stroke-linecap="round" stroke-linejoin="round"/>
<path d="M126.659 329.343L162.549 321.277" stroke="black" stroke-width="2.32" stroke-linecap="round" stroke-linejoin="round"/>
<path d="M126.012 345.107L168.663 335.649" stroke="black" stroke-width="2.32" stroke-linecap="round" stroke-linejoin="round"/>
<path d="M228.07 332.295C228.07 332.295 201.953 333.398 191.254 328.73" stroke="black" stroke-width="2.32" stroke-linecap="round" stroke-linejoin="round"/>
<path d="M85.2911 294.751C85.2911 294.751 81.4533 297.537 80.8955 301.169" stroke="black" stroke-width="2.32" stroke-linecap="round" stroke-linejoin="round"/>
<path d="M179.194 318.76C179.194 318.76 173.025 327.951 163.52 330.602" stroke="black" stroke-width="2.32" stroke-linecap="round" stroke-linejoin="round"/>
<path d="M185.04 323.35C185.04 323.35 176.506 330.725 171.251 333.454" stroke="black" stroke-width="2.32" stroke-linecap="round" stroke-linejoin="round"/>
<path d="M329.527 482.396L312.547 470.319L322.789 465.061C323.347 464.771 323.068 463.924 322.443 464.024L311.075 465.93L317.445 446.11C317.724 445.241 316.564 444.662 316.039 445.408L303.946 462.364L298.68 452.137C298.39 451.58 297.542 451.859 297.642 452.483L299.55 463.835L279.703 457.474C278.833 457.195 278.253 458.354 279 458.877L295.98 470.954L285.738 476.212C285.181 476.502 285.46 477.349 286.084 477.249L297.453 475.343L291.082 495.163C290.803 496.032 291.964 496.611 292.488 495.865L304.582 478.909L309.847 489.136C310.138 489.693 310.985 489.414 310.885 488.79L308.977 477.438L328.825 483.799C329.695 484.078 330.275 482.919 329.527 482.396Z" stroke="white" stroke-width="1.22" stroke-linecap="round" stroke-linejoin="round"/>
<path d="M351.94 49.688L335.919 47.4153L341.107 40.1293C341.386 39.7282 340.895 39.2491 340.505 39.5388L333.353 44.9087L330.654 28.9774C330.531 28.2866 329.527 28.2978 329.438 28.9885L327.162 44.9866L319.865 39.8062C319.464 39.5277 318.984 40.0179 319.274 40.4078L324.651 47.549L308.698 50.2451C308.006 50.3676 308.017 51.3703 308.709 51.4594L324.73 53.7321L319.553 61.0182C319.274 61.4193 319.765 61.8983 320.155 61.6087L327.307 56.2388L330.007 72.1701C330.129 72.8608 331.133 72.8497 331.223 72.159L333.498 56.1608L340.795 61.3413C341.196 61.6198 341.676 61.1296 341.386 60.7397L336.009 53.5985L351.962 50.9024C352.654 50.7798 352.643 49.7772 351.951 49.688H351.94Z" stroke="white" stroke-width="0.94" stroke-linecap="round" stroke-linejoin="round"/>
<path d="M138.931 51.9381L129.783 45.3651L135.339 42.5464C135.64 42.3905 135.495 41.9337 135.16 41.9894L129.013 42.9921L132.505 32.2858C132.661 31.8179 132.036 31.5059 131.746 31.8959L125.164 41.0313L122.341 35.4832C122.185 35.1824 121.728 35.3272 121.784 35.6614L122.788 41.8L112.066 38.3129C111.598 38.157 111.285 38.7809 111.676 39.0705L120.824 45.6436L115.268 48.4622C114.967 48.6182 115.112 49.0749 115.447 49.0192L121.594 48.0166L118.102 58.7228C117.946 59.1907 118.571 59.5027 118.861 59.1128L125.443 49.9773L128.265 55.5254C128.422 55.8262 128.879 55.6814 128.823 55.3472L127.819 49.2086L138.541 52.6957C139.009 52.8516 139.321 52.2278 138.931 51.9381Z" stroke="white" stroke-width="0.66" stroke-linecap="round" stroke-linejoin="round"/>
<path d="M235.846 33.2331L230.636 29.4898L233.805 27.8855C233.983 27.7964 233.894 27.5402 233.704 27.5625L230.201 28.1306L232.198 22.0366C232.287 21.7693 231.93 21.591 231.763 21.8138L228.014 27.0166L226.408 23.8526C226.319 23.6743 226.062 23.7635 226.084 23.9528L226.653 27.451L220.551 25.4568C220.283 25.3677 220.105 25.7242 220.328 25.8913L225.538 29.6346L222.369 31.2389C222.191 31.328 222.28 31.5843 222.47 31.562L225.973 30.9938L223.976 37.0878C223.887 37.3552 224.244 37.5334 224.411 37.3106L228.159 32.1079L229.766 35.2719C229.855 35.4501 230.112 35.361 230.089 35.1716L229.521 31.6734L235.623 33.6676C235.891 33.7567 236.069 33.4002 235.846 33.2331Z" stroke="white" stroke-width="0.38" stroke-linecap="round" stroke-linejoin="round"/>
<path d="M23.4057 74.0079L18.6977 73.9188L19.9361 71.6349C20.003 71.5124 19.8468 71.3898 19.7353 71.4901L17.861 73.2949L16.5111 68.794C16.4553 68.5935 16.1652 68.6381 16.1541 68.8386L16.0648 73.54L13.7778 72.3034C13.655 72.2365 13.5323 72.3925 13.6327 72.5039L15.4401 74.3756L10.9329 75.7236C10.7321 75.7793 10.7767 76.0689 10.9775 76.0801L15.6855 76.1692L14.4471 78.4531C14.3802 78.5756 14.5364 78.6982 14.648 78.5979L16.5222 76.7931L17.8722 81.294C17.9279 81.4945 18.218 81.4499 18.2292 81.2494L18.3184 76.548L20.6055 77.7846C20.7282 77.8515 20.8509 77.6955 20.7505 77.5841L18.9432 75.7124L23.4504 74.3644C23.6512 74.3087 23.6066 74.019 23.4057 74.0079Z" stroke="white" stroke-width="0.27" stroke-linecap="round" stroke-linejoin="round"/>
<path d="M33.9601 303.686L22.7702 295.732L29.5198 292.267C29.888 292.077 29.6983 291.52 29.2967 291.587L21.8107 292.846L26.0055 279.789C26.184 279.221 25.4254 278.842 25.0796 279.321L17.1139 290.495L13.6442 283.755C13.4546 283.388 12.8968 283.577 12.9637 283.978L14.2244 291.454L1.14906 287.265C0.580082 287.086 0.200764 287.844 0.68049 288.189L11.8704 296.144L5.12074 299.609C4.75258 299.798 4.94224 300.355 5.34387 300.288L12.8298 299.029L8.63501 312.086C8.45651 312.654 9.21514 313.033 9.56099 312.554L17.5267 301.38L20.9963 308.12C21.186 308.488 21.7438 308.298 21.6769 307.897L20.4162 300.422L33.4915 304.611C34.0605 304.789 34.4398 304.032 33.9601 303.686Z" stroke="white" stroke-width="0.8" stroke-linecap="round" stroke-linejoin="round"/>
<path d="M18.7424 280.58C7.53022 168.214 57.3994 -19.8642 165.092 142.045C168.662 34.7145 232.566 42.9698 248.899 78.6648" stroke="white" stroke-linecap="round" stroke-linejoin="round"/>
<path d="M308.162 34.2357C308.162 34.2357 282.001 -18.8613 209.551 8.2888" stroke="white" stroke-linecap="round" stroke-linejoin="round"/>
</g>
<defs>
<clipPath id="clip0_1313_14624">
<rect width="353" height="505" fill="white"/>
</clipPath>
</defs>
</svg>
