<svg width="38" height="38" viewBox="0 0 38 38" fill="none" xmlns="http://www.w3.org/2000/svg">
<path d="M6.92102 37.5199C3.33965 37.5199 0.420837 34.5923 0.420837 31.0001V6.94164C0.420837 3.34948 3.33965 0.421875 6.92102 0.421875H30.9072C34.4886 0.421875 37.4074 3.34948 37.4074 6.94164V31.0001C37.4074 34.5923 34.4886 37.5199 30.9072 37.5199H6.92102ZM6.92102 2.41552C4.43197 2.41552 2.4085 4.44509 2.4085 6.94164V31.0001C2.4085 33.4967 4.43197 35.5262 6.92102 35.5262H30.9072C33.3963 35.5262 35.4198 33.4967 35.4198 31.0001V6.94164C35.4198 4.44509 33.3963 2.41552 30.9072 2.41552H6.92102Z" fill="#CCDEE2"/>
<path d="M30.9072 0.844159C34.2647 0.844159 36.9955 3.58317 36.9955 6.95082V31.0093C36.9955 34.3769 34.2647 37.116 30.9072 37.116H6.92099C3.56346 37.116 0.832675 34.3769 0.832675 31.0093V6.95082C0.832675 3.58317 3.56346 0.844159 6.92099 0.844159H30.9072ZM6.92099 35.9485H30.9072C33.6291 35.9485 35.8405 33.7304 35.8405 31.0003V6.94185C35.8405 4.21181 33.6291 1.99365 30.9072 1.99365H6.92099C4.19915 1.99365 1.98766 4.21181 1.98766 6.94185V31.0003C1.98766 33.7304 4.19915 35.9485 6.92099 35.9485ZM30.9072 0H6.92099C3.10683 0 0 3.1162 0 6.94185V31.0003C0 34.826 3.10683 37.9422 6.92099 37.9422H30.9072C34.7214 37.9422 37.8282 34.826 37.8282 31.0003V6.94185C37.8282 3.1162 34.7214 0 30.9072 0ZM6.92099 35.1043C4.66473 35.1043 2.82032 33.2634 2.82032 30.9913V6.93286C2.82032 4.6698 4.65578 2.81984 6.92099 2.81984H30.9072C33.1635 2.81984 35.0079 4.66082 35.0079 6.93286V30.9913C35.0079 33.2544 33.1724 35.1043 30.9072 35.1043H6.92099Z" fill="#296CB5"/>
<path d="M29.1972 13.0663C26.726 13.0663 24.7205 11.0547 24.7205 8.57613C24.7205 6.09754 26.726 4.08594 29.1972 4.08594C31.6683 4.08594 33.6739 6.09754 33.6739 8.57613C33.6739 11.0547 31.6683 13.0663 29.1972 13.0663ZM29.1972 6.0257C27.8004 6.0257 26.6544 7.16621 26.6544 8.57613C26.6544 9.98605 27.7915 11.1266 29.1972 11.1266C30.6029 11.1266 31.7399 9.98605 31.7399 8.57613C31.7399 7.16621 30.6029 6.0257 29.1972 6.0257Z" fill="#CCDEE2"/>
<path d="M29.1971 4.49924C31.4355 4.49924 33.262 6.33124 33.262 8.57634C33.262 10.8214 31.4355 12.6534 29.1971 12.6534C26.9588 12.6534 25.1323 10.8214 25.1323 8.57634C25.1323 6.33124 26.9588 4.49924 29.1971 4.49924ZM29.1971 11.5399C30.8267 11.5399 32.1518 10.2108 32.1518 8.57634C32.1518 6.94191 30.8267 5.61281 29.1971 5.61281C27.5676 5.61281 26.2425 6.94191 26.2425 8.57634C26.2425 10.2108 27.5676 11.5399 29.1971 11.5399ZM29.1971 3.66406C26.4932 3.66406 24.2996 5.86426 24.2996 8.57634C24.2996 11.2884 26.4932 13.4886 29.1971 13.4886C31.9011 13.4886 34.0947 11.2884 34.0947 8.57634C34.0947 5.86426 31.9011 3.66406 29.1971 3.66406ZM29.1971 10.7047C28.0242 10.7047 27.0752 9.75277 27.0752 8.57634C27.0752 7.39991 28.0242 6.44798 29.1971 6.44798C30.37 6.44798 31.3191 7.39991 31.3191 8.57634C31.3191 9.75277 30.37 10.7047 29.1971 10.7047Z" fill="#296CB5"/>
<path d="M18.9186 23.1518C16.4475 23.1518 14.4419 21.1402 14.4419 18.6616C14.4419 16.183 16.4475 14.1714 18.9186 14.1714C21.3897 14.1714 23.3953 16.183 23.3953 18.6616C23.3953 21.1402 21.3897 23.1518 18.9186 23.1518ZM18.9186 16.1112C17.5219 16.1112 16.3758 17.2517 16.3758 18.6616C16.3758 20.0715 17.5129 21.212 18.9186 21.212C20.3243 21.212 21.4614 20.0715 21.4614 18.6616C21.4614 17.2517 20.3243 16.1112 18.9186 16.1112Z" fill="#CCDEE2"/>
<path d="M18.9186 14.5844C21.1569 14.5844 22.9834 16.4164 22.9834 18.6615C22.9834 20.9066 21.1569 22.7386 18.9186 22.7386C16.6802 22.7386 14.8537 20.9066 14.8537 18.6615C14.8537 16.4164 16.6802 14.5844 18.9186 14.5844ZM18.9186 21.625C20.5481 21.625 21.8732 20.2959 21.8732 18.6615C21.8732 17.0271 20.5481 15.698 18.9186 15.698C17.2891 15.698 15.9639 17.0271 15.9639 18.6615C15.9639 20.2959 17.2891 21.625 18.9186 21.625ZM18.9186 13.7402C16.2146 13.7402 14.0211 15.9404 14.0211 18.6525C14.0211 21.3646 16.2146 23.5648 18.9186 23.5648C21.6225 23.5648 23.8161 21.3646 23.8161 18.6525C23.8161 15.9404 21.6225 13.7402 18.9186 13.7402ZM18.9186 20.7898C17.7457 20.7898 16.7966 19.8379 16.7966 18.6615C16.7966 17.4851 17.7457 16.5331 18.9186 16.5331C20.0915 16.5331 21.0405 17.4851 21.0405 18.6615C21.0405 19.8379 20.0915 20.7898 18.9186 20.7898Z" fill="#296CB5"/>
<path d="M29.1972 33.1196C26.726 33.1196 24.7205 31.1079 24.7205 28.6294C24.7205 26.1508 26.726 24.1392 29.1972 24.1392C31.6683 24.1392 33.6739 26.1508 33.6739 28.6294C33.6739 31.1079 31.6683 33.1196 29.1972 33.1196ZM29.1972 26.0789C27.8004 26.0789 26.6544 27.2194 26.6544 28.6294C26.6544 30.0393 27.7915 31.1798 29.1972 31.1798C30.6029 31.1798 31.7399 30.0393 31.7399 28.6294C31.7399 27.2194 30.6029 26.0789 29.1972 26.0789Z" fill="#CCDEE2"/>
<path d="M29.1971 24.5525C31.4355 24.5525 33.262 26.3845 33.262 28.6296C33.262 30.8747 31.4355 32.7067 29.1971 32.7067C26.9588 32.7067 25.1323 30.8747 25.1323 28.6296C25.1323 26.3845 26.9588 24.5525 29.1971 24.5525ZM29.1971 31.5931C30.8267 31.5931 32.1518 30.264 32.1518 28.6296C32.1518 26.9951 30.8267 25.666 29.1971 25.666C27.5676 25.666 26.2425 26.9951 26.2425 28.6296C26.2425 30.264 27.5676 31.5931 29.1971 31.5931ZM29.1971 23.7173C26.4932 23.7173 24.2996 25.9175 24.2996 28.6296C24.2996 31.3416 26.4932 33.5418 29.1971 33.5418C31.9011 33.5418 34.0947 31.3416 34.0947 28.6296C34.0947 25.9175 31.9011 23.7173 29.1971 23.7173ZM29.1971 30.7579C28.0242 30.7579 27.0752 29.806 27.0752 28.6296C27.0752 27.4531 28.0242 26.5012 29.1971 26.5012C30.37 26.5012 31.3191 27.4531 31.3191 28.6296C31.3191 29.806 30.37 30.7579 29.1971 30.7579Z" fill="#296CB5"/>
<path d="M9.10568 33.1196C6.63453 33.1196 4.62897 31.1079 4.62897 28.6294C4.62897 26.1508 6.63453 24.1392 9.10568 24.1392C11.5768 24.1392 13.5824 26.1508 13.5824 28.6294C13.5824 31.1079 11.5768 33.1196 9.10568 33.1196ZM9.10568 26.0789C7.70894 26.0789 6.56291 27.2194 6.56291 28.6294C6.56291 30.0393 7.69999 31.1798 9.10568 31.1798C10.5114 31.1798 11.6484 30.0393 11.6484 28.6294C11.6484 27.2194 10.5114 26.0789 9.10568 26.0789Z" fill="#CCDEE2"/>
<path d="M9.10565 24.5525C11.344 24.5525 13.1705 26.3845 13.1705 28.6296C13.1705 30.8747 11.344 32.7067 9.10565 32.7067C6.8673 32.7067 5.04081 30.8747 5.04081 28.6296C5.04081 26.3845 6.8673 24.5525 9.10565 24.5525ZM9.10565 31.5931C10.7352 31.5931 12.0603 30.264 12.0603 28.6296C12.0603 26.9951 10.7352 25.666 9.10565 25.666C7.47613 25.666 6.15102 26.9951 6.15102 28.6296C6.15102 30.264 7.47613 31.5931 9.10565 31.5931ZM9.10565 23.7173C6.40172 23.7173 4.20813 25.9175 4.20813 28.6296C4.20813 31.3416 6.40172 33.5418 9.10565 33.5418C11.8096 33.5418 14.0032 31.3416 14.0032 28.6296C14.0032 25.9175 11.8096 23.7173 9.10565 23.7173ZM9.10565 30.7579C7.93275 30.7579 6.9837 29.806 6.9837 28.6296C6.9837 27.4531 7.93275 26.5012 9.10565 26.5012C10.2786 26.5012 11.2276 27.4531 11.2276 28.6296C11.2276 29.806 10.2786 30.7579 9.10565 30.7579Z" fill="#296CB5"/>
<path d="M9.10568 13.2099C6.63453 13.2099 4.62897 11.1983 4.62897 8.71969C4.62897 6.2411 6.63453 4.22949 9.10568 4.22949C11.5768 4.22949 13.5824 6.2411 13.5824 8.71969C13.5824 11.1983 11.5768 13.2099 9.10568 13.2099ZM9.10568 6.16926C7.70894 6.16926 6.56291 7.30977 6.56291 8.71969C6.56291 10.1296 7.69999 11.2701 9.10568 11.2701C10.5114 11.2701 11.6484 10.1296 11.6484 8.71969C11.6484 7.30977 10.5114 6.16926 9.10568 6.16926Z" fill="#CCDEE2"/>
<path d="M9.10565 4.64279C11.344 4.64279 13.1705 6.47479 13.1705 8.71989C13.1705 10.965 11.344 12.797 9.10565 12.797C6.8673 12.797 5.04081 10.965 5.04081 8.71989C5.04081 6.47479 6.8673 4.64279 9.10565 4.64279ZM9.10565 11.6834C10.7352 11.6834 12.0603 10.3543 12.0603 8.71989C12.0603 7.08546 10.7352 5.75637 9.10565 5.75637C7.47613 5.75637 6.15102 7.08546 6.15102 8.71989C6.15102 10.3543 7.47613 11.6834 9.10565 11.6834ZM9.10565 3.80762C6.40172 3.80762 4.20813 6.00781 4.20813 8.71989C4.20813 11.432 6.40172 13.6322 9.10565 13.6322C11.8096 13.6322 14.0032 11.432 14.0032 8.71989C14.0032 6.00781 11.8096 3.80762 9.10565 3.80762ZM9.10565 10.8482C7.93275 10.8482 6.9837 9.89632 6.9837 8.71989C6.9837 7.54346 7.93275 6.59154 9.10565 6.59154C10.2786 6.59154 11.2276 7.54346 11.2276 8.71989C11.2276 9.89632 10.2786 10.8482 9.10565 10.8482Z" fill="#296CB5"/>
</svg>
