<svg width="49" height="101" viewBox="0 0 49 101" fill="none" xmlns="http://www.w3.org/2000/svg">
<g clip-path="url(#clip0_1335_17007)">
<path d="M46.7523 87.593C46.7863 91.7808 44.1262 96.0628 40.2082 97.7243C37.9815 98.7348 35.4063 98.7263 32.5167 98.7434H23.1084C21.3236 98.7434 19.5389 98.7434 17.7711 98.7434C11.3204 98.8718 6.79903 98.7434 3.37398 93.5878C2.11614 91.6524 1.62321 89.5713 1.59771 87.3618C1.55522 80.2622 1.59771 69.874 1.58071 58.1756C1.57221 52.6175 1.59771 46.126 1.58071 41.45C1.52972 39.1034 1.75919 36.6284 2.98303 34.4874C4.88678 30.7878 8.26084 28.1757 10.4791 24.6217C11.7964 22.5235 12.8672 20.1084 13.6066 17.6934H34.9899C35.5933 19.6374 36.4092 21.6071 37.344 23.3028C39.3498 27.208 42.9703 30.1283 45.0695 33.8879L45.1035 33.9479C47.0583 37.305 46.7438 39.7714 46.7693 43.9336C46.7438 57.7388 46.8203 77.5731 46.7438 87.6016L46.7523 87.593Z" stroke="#E4EBFF" stroke-width="4.49815" stroke-miterlimit="10"/>
<path d="M39.2641 4.09372V15.1927C39.2641 16.5715 38.1508 17.6934 36.7825 17.6934H11.5832C10.2149 17.6934 9.10156 16.5715 9.10156 15.1927V4.09372C9.10156 2.71491 10.2149 1.59302 11.5832 1.59302H36.7825C38.1508 1.59302 39.2641 2.71491 39.2641 4.09372Z" stroke="#E4EBFF" stroke-width="4.49815" stroke-miterlimit="10"/>
<path d="M16.4453 1.59302V16.7171" stroke="#E4EBFF" stroke-width="4.49815" stroke-miterlimit="10"/>
<path d="M24.3486 1.59302V16.7171" stroke="#E4EBFF" stroke-width="4.49815" stroke-miterlimit="10"/>
<path d="M32.458 1.59302V16.7171" stroke="#E4EBFF" stroke-width="4.49815" stroke-miterlimit="10"/>
<path d="M1.44727 87.892V48.4731H46.8363C46.8794 56.5029 46.9398 75.1028 46.8363 85.264C46.7329 95.4253 41.1896 98.7443 38.4309 99.1336C34.379 98.793 23.8959 98.3161 14.3784 99.1336C4.86084 99.9512 1.79199 91.9799 1.44727 87.892Z" fill="#E4EBFF"/>
</g>
<defs>
<clipPath id="clip0_1335_17007">
<rect width="48.3672" height="100.362" fill="white"/>
</clipPath>
</defs>
</svg>
