<svg width="33" height="45" viewBox="0 0 33 45" fill="none" xmlns="http://www.w3.org/2000/svg">
<path d="M25.5609 27.0992C25.4404 27.0992 25.3106 27.0713 25.1994 27.025L6.58034 18.8786C6.12621 18.684 5.92232 18.1557 6.11694 17.7108L10.9177 6.73771C12.5859 2.92862 16.4042 0.463379 20.6489 0.463379C22.1596 0.463379 23.6424 0.778485 25.0419 1.39016L25.5145 1.59405C28.1466 2.74327 30.1948 4.8378 31.2699 7.4884C32.3449 10.139 32.3079 13.0213 31.1865 15.5978L26.3857 26.5709C26.2467 26.8953 25.9223 27.0992 25.5701 27.0992H25.5609ZM25.0882 25.0417L29.5368 14.8749C31.483 10.4356 29.3514 5.19924 24.8009 3.20666L24.3283 3.00277C23.1605 2.49303 21.9186 2.23354 20.6582 2.23354C17.1179 2.23354 13.939 4.28173 12.5488 7.45133L8.10026 17.6181L25.0789 25.0417H25.0882Z" fill="#CCDEE2"/>
<path d="M20.6397 0.926784C22.0484 0.926784 23.4756 1.21409 24.8473 1.80723L25.3199 2.01112C30.547 4.29101 32.9752 10.3058 30.7416 15.4032L25.9409 26.3763C25.876 26.5338 25.7184 26.6265 25.5516 26.6265C25.496 26.6265 25.4311 26.6172 25.3755 26.5894L6.75644 18.443C6.53401 18.3503 6.43206 18.1001 6.53401 17.8869L11.3348 6.91381C12.9752 3.15107 16.7101 0.917516 20.6397 0.917516M25.3199 25.6534L29.9538 15.0602C32.002 10.3892 29.7685 4.87488 24.9863 2.78962L24.5136 2.58573C23.2532 2.03893 21.9464 1.77943 20.6582 1.77943C17.053 1.77943 13.6332 3.82762 12.1318 7.27525L7.49787 17.8684L25.3292 25.6627M20.6397 0C16.2096 0 12.2245 2.56719 10.4821 6.55236L5.68137 17.5255C5.53309 17.8591 5.53308 18.2298 5.6721 18.5728C5.80185 18.9064 6.06135 19.1659 6.38573 19.3142L25.0048 27.4606C25.1809 27.5348 25.3663 27.5718 25.5516 27.5718C26.0892 27.5718 26.5711 27.2567 26.7935 26.7655L31.5943 15.7924C34.0317 10.2224 31.3811 3.67006 25.6906 1.17701L25.218 0.973123C23.7537 0.333642 22.2152 0.00926805 20.6397 0.00926805V0ZM8.71196 17.3772L12.9752 7.6367C14.2912 4.63392 17.3032 2.69694 20.6582 2.69694C21.863 2.69694 23.0308 2.94717 24.1429 3.4291L24.6156 3.63299C26.7101 4.55051 28.3227 6.20945 29.1753 8.30398C30.0187 10.3892 30.0002 12.6599 29.1105 14.6895L24.8473 24.43L8.71196 17.3772Z" fill="#296CB5"/>
<path d="M11.3348 44.189C9.91677 44.189 8.54513 43.9017 7.24763 43.3363L6.77498 43.1324C4.13364 41.9739 2.12252 39.7867 1.13086 36.9693C0.139202 34.1612 0.268949 31.0657 1.50157 28.2575L6.06135 17.8405C6.20964 17.4976 6.54328 17.2751 6.90472 17.2751C7.02521 17.2751 7.14569 17.303 7.2569 17.3493L25.876 25.4957C26.0984 25.5884 26.2745 25.783 26.3486 26.0147C26.4228 26.2371 26.4135 26.4874 26.3208 26.7005L21.7611 37.1176C19.8797 41.4179 15.7926 44.1982 11.3348 44.1982V44.189ZM3.13271 28.9712C1.00111 33.8553 2.96589 39.4531 7.5164 41.4364L7.98906 41.6403C9.06413 42.113 10.2041 42.3447 11.3811 42.3447C15.1068 42.3447 18.5359 40.0092 20.1207 36.3947L24.3097 26.8303L7.33104 19.4067L3.14198 28.9712H3.13271Z" fill="#DAE0CE"/>
<path d="M6.8954 17.7386C6.951 17.7386 7.00661 17.7478 7.06222 17.7756L25.6813 25.9221C25.9037 26.0147 25.9964 26.2835 25.8945 26.5152L21.3347 36.9322C19.4811 41.1677 15.4496 43.7348 11.3347 43.7348C10.0187 43.7348 8.69336 43.4753 7.43293 42.9193L6.96027 42.7154C1.73321 40.4355 -0.528141 34.0314 1.91857 28.4429L6.47835 18.0259C6.55249 17.8498 6.71931 17.7386 6.8954 17.7386ZM11.381 42.8173C15.153 42.8173 18.8509 40.4633 20.5469 36.5893L24.9213 26.5986L7.09003 18.8044L2.7156 28.7951C0.472786 33.9109 2.54878 39.7775 7.34026 41.872L7.81292 42.0759C8.9714 42.5856 10.1855 42.8266 11.3903 42.8266M6.8954 16.8118C6.3486 16.8118 5.84813 17.1454 5.6257 17.6551L1.06593 28.0722C-0.213033 30.9916 -0.342782 34.2075 0.685948 37.1269C1.72395 40.074 3.81847 42.3539 6.58029 43.568L7.05295 43.7719C8.40606 44.3651 9.84257 44.6616 11.3254 44.6616C15.9593 44.6616 20.2226 41.7701 22.1781 37.303L26.7378 26.8859C27.0437 26.1816 26.7378 25.366 26.052 25.0694L7.43293 16.923C7.26611 16.8488 7.08075 16.8118 6.8954 16.8118ZM11.381 41.8905C10.2689 41.8905 9.19382 41.6681 8.17436 41.2233L7.7017 41.0194C5.62571 40.1111 4.05017 38.3873 3.26241 36.1538C2.46537 33.9017 2.57659 31.4179 3.55898 29.1565L7.55342 20.0092L23.6887 27.062L19.6943 36.2094C18.1836 39.657 14.9213 41.8905 11.381 41.8905Z" fill="#ED2024"/>
</svg>
