<svg width="81" height="68" viewBox="0 0 81 68" fill="none" xmlns="http://www.w3.org/2000/svg">
<path d="M61.3046 21.3465C61.4568 20.9783 61.806 20.7358 62.2089 20.7358C62.2984 20.7358 62.3879 20.7448 62.4775 20.7718L62.5401 21.5531L61.8776 21.8764L61.3046 21.3465Z" fill="#FEDCBB"/>
<path d="M62.2089 21.1578C62.2626 21.1578 62.3073 21.1578 62.3611 21.1758L61.9134 21.3913L61.6985 21.4991C61.7791 21.2835 61.985 21.1488 62.2089 21.1488M62.2089 20.3137C61.6358 20.3137 61.1344 20.6549 60.9196 21.1848L62.0656 22.2445L62.2805 22.1367L62.7282 21.9212L62.5938 20.3586C62.4685 20.3226 62.3342 20.3047 62.2089 20.3047V20.3137Z" fill="#ED2024"/>
<path d="M73.141 32.0958C71.8427 32.0958 70.831 31.0362 70.643 30.8296C70.249 30.3896 70.2848 29.716 70.7236 29.3209C70.9205 29.1413 71.1712 29.0515 71.4309 29.0515C71.7353 29.0515 72.0218 29.1772 72.2277 29.4017C72.4337 29.6262 72.8813 29.9585 73.141 29.9585C73.2753 29.9405 73.4991 29.743 73.7319 29.1144C74.1796 27.911 73.4006 27.2015 71.4936 26.07C70.8668 25.7018 70.3744 25.4054 70.0521 25.0283C69.1567 23.9776 68.6374 22.5407 68.5837 22.3791C68.4942 22.1096 68.5031 21.8133 68.6285 21.5618C68.7538 21.3014 68.9687 21.1128 69.2373 21.014C69.3537 20.9781 69.4701 20.9512 69.5865 20.9512C70.0431 20.9512 70.446 21.2385 70.5893 21.6696C70.5893 21.6786 71.0101 22.864 71.6637 23.6363C71.7622 23.7441 72.2635 24.0494 72.568 24.229C74.0721 25.1181 76.8746 26.7705 75.7285 29.8597C75.5494 30.3357 75.3346 30.7398 75.0839 31.0631C74.672 31.6019 74.1617 31.9342 73.5618 32.0509C73.4185 32.0779 73.2753 32.0869 73.132 32.0869L73.141 32.0958Z" fill="#FEDCBB"/>
<path d="M69.5864 21.3822C69.855 21.3822 70.1057 21.5529 70.1953 21.8223C70.1953 21.8313 70.6429 23.0885 71.3503 23.9237C71.4935 24.0853 71.9322 24.3458 72.362 24.5972C73.8572 25.4863 76.3642 26.9591 75.3435 29.716C75.1823 30.1561 74.9854 30.5243 74.7615 30.8117C74.4123 31.2697 73.9915 31.548 73.4991 31.6379C73.3827 31.6648 73.2663 31.6738 73.1499 31.6738C72.0039 31.6738 71.0727 30.668 70.9653 30.5422C70.7235 30.2728 70.7504 29.8687 71.019 29.6262C71.1443 29.5185 71.2965 29.4646 71.4488 29.4646C71.6278 29.4646 71.8069 29.5364 71.9322 29.6801C72.1113 29.8777 72.6754 30.3806 73.1499 30.3806C73.1857 30.3806 73.2305 30.3806 73.2663 30.3716C73.6782 30.2908 73.9647 29.725 74.1348 29.267C74.7347 27.6595 73.4543 26.7435 71.7174 25.7198C71.1264 25.3695 70.6609 25.0911 70.3833 24.7678C69.5148 23.7441 69.0134 22.3072 68.9955 22.2533C68.8791 21.9121 69.0582 21.5439 69.3984 21.4271C69.4701 21.4002 69.5417 21.3912 69.6133 21.3912M69.5864 20.5471C69.4163 20.5471 69.2552 20.574 69.103 20.6279C68.7269 20.7626 68.4315 21.023 68.2524 21.3822C68.0823 21.7415 68.0554 22.1456 68.1897 22.5228C68.2434 22.6934 68.7806 24.1841 69.7387 25.3067C70.1147 25.7467 70.634 26.052 71.2876 26.4382C73.2215 27.5787 73.6692 28.1265 73.3469 28.9707C73.2394 29.258 73.141 29.4287 73.0783 29.5095C72.9261 29.4377 72.6843 29.267 72.55 29.1144C72.2725 28.809 71.8696 28.6204 71.4488 28.6204C71.0817 28.6204 70.7325 28.7551 70.4639 28.9976C69.8551 29.5454 69.8013 30.4884 70.3475 31.099C70.5534 31.3325 71.6726 32.5089 73.1589 32.5089C73.329 32.5089 73.4991 32.491 73.6692 32.4641C74.3676 32.3293 74.9675 31.9432 75.442 31.3235C75.7195 30.9643 75.9523 30.5243 76.1404 30.0124C77.4117 26.5999 74.296 24.7589 72.8007 23.8698C72.5321 23.7171 72.0934 23.4477 71.986 23.349C71.5025 22.7832 71.1175 21.8492 71.0011 21.5349C70.7952 20.9332 70.2311 20.5381 69.6044 20.5381L69.5864 20.5471Z" fill="#ED2024"/>
<path d="M43.7469 18.3472C43.4335 18.3472 43.147 18.2125 42.9411 17.979C42.9411 17.979 42.0636 17.0001 40.4252 16.1739C38.8225 15.3657 37.0497 14.9616 35.1605 14.9616C34.4174 14.9616 33.6564 15.0245 32.8774 15.1502C31.9284 15.3029 31.0062 15.3747 30.1377 15.3747C27.3532 15.3747 24.9715 14.5934 23.0734 13.0578C18.928 9.6901 18.5878 3.94266 18.5698 3.70019C18.543 3.24219 18.8205 2.82011 19.2414 2.64948C19.3667 2.60458 19.501 2.57764 19.6263 2.57764C19.9397 2.57764 20.2441 2.72132 20.4411 2.96379C20.9604 3.58344 21.3991 4.14022 21.7841 4.62516C23.7002 7.04089 24.2195 7.69646 27.192 7.69646C28.4007 7.69646 30.0123 7.57971 32.376 7.37317C32.7968 7.33724 33.2087 7.31928 33.6026 7.31928C38.3659 7.31928 41.1146 9.83379 42.5829 11.9352C44.3109 14.4138 44.7586 16.9912 44.7765 17.0989C44.8302 17.3953 44.7497 17.6916 44.5706 17.9251C44.4721 18.0598 44.3288 18.1676 44.1766 18.2394C44.0334 18.3113 43.8812 18.3382 43.72 18.3382L43.7469 18.3472ZM35.1605 12.8243C37.9092 12.8243 40.067 13.5607 41.598 14.3689C40.4431 12.1507 38.1152 9.45662 33.6206 9.45662C33.2803 9.45662 32.9311 9.47458 32.573 9.50152C30.0481 9.71705 28.526 9.80685 27.3263 9.80685C24.506 9.80685 23.1988 9.30395 21.8468 7.96587C22.393 9.16924 23.2077 10.4355 24.4164 11.4054C25.9206 12.6267 27.8456 13.2463 30.1377 13.2463C30.8898 13.2463 31.6956 13.1745 32.5372 13.0488C33.4236 12.9051 34.31 12.8332 35.1605 12.8332V12.8243Z" fill="#FEDCBB"/>
<path d="M19.6353 2.99962C19.8233 2.99962 20.0114 3.08044 20.1367 3.23311C20.6471 3.85276 21.0858 4.40056 21.4797 4.8855C23.4047 7.31919 24.0404 8.10946 27.2189 8.10946C28.4813 8.10946 30.1377 7.98374 32.4387 7.78617C32.8506 7.75025 33.2445 7.73229 33.6295 7.73229C38.1779 7.73229 40.8191 10.0941 42.2606 12.1686C43.9349 14.5753 44.3736 17.0539 44.3915 17.1617C44.4184 17.3413 44.3736 17.5299 44.2662 17.6646C44.2035 17.7454 44.1229 17.8083 44.0244 17.8532C43.9349 17.8981 43.8454 17.916 43.7469 17.916C43.5589 17.916 43.3798 17.8352 43.2544 17.6915C43.2544 17.6915 42.3412 16.6588 40.6042 15.7877C38.9389 14.9525 37.1124 14.5304 35.1516 14.5304C34.3906 14.5304 33.6027 14.5933 32.8058 14.719C31.8746 14.8717 30.9793 14.9435 30.1287 14.9435C27.4338 14.9435 25.1596 14.1982 23.3331 12.7164C19.3309 9.4655 18.9996 3.89766 18.9907 3.66417C18.9728 3.38578 19.1429 3.12535 19.4025 3.02656C19.4831 2.99962 19.5637 2.98166 19.6353 2.98166M30.1377 13.6593C30.9166 13.6593 31.7403 13.5875 32.5999 13.4528C33.5042 13.3091 34.3547 13.2462 35.1605 13.2462C38.5718 13.2462 41.034 14.4047 42.5292 15.4195C41.5712 12.9499 39.1806 9.04343 33.6295 9.04343C33.2803 9.04343 32.9222 9.06139 32.5462 9.08833C30.3347 9.27691 28.6604 9.39366 27.3353 9.39366C23.7091 9.39366 22.7332 8.54052 20.7187 6.02601C21.1932 7.77719 22.1691 10.1211 24.1568 11.7286C25.7416 13.0128 27.7471 13.6593 30.1377 13.6593ZM19.6353 2.15546C19.4473 2.15546 19.2682 2.19139 19.0981 2.25425C18.5072 2.48774 18.1222 3.08045 18.158 3.71805C18.167 3.9695 18.5251 9.89656 22.8138 13.372C24.7835 14.9705 27.2547 15.7877 30.1377 15.7877C31.033 15.7877 31.9731 15.7069 32.9401 15.5542C33.6922 15.4375 34.4443 15.3746 35.1605 15.3746C36.987 15.3746 38.6882 15.7697 40.2371 16.5421C41.795 17.3233 42.6277 18.2393 42.6367 18.2483C42.9142 18.5716 43.3261 18.7512 43.7558 18.7512C43.9797 18.7512 44.1856 18.7063 44.3915 18.6075C44.6064 18.5088 44.7944 18.3561 44.9377 18.1675C45.1884 17.8442 45.2869 17.4221 45.2242 17.018C45.2063 16.9102 44.7497 14.2521 42.959 11.6837C41.4369 9.49244 38.5808 6.88813 33.6385 6.88813C33.2266 6.88813 32.8058 6.90609 32.376 6.94201C30.0213 7.13958 28.4186 7.25633 27.2278 7.25633C24.4523 7.25633 24.0494 6.75342 22.1423 4.34668C21.7483 3.85276 21.3096 3.29597 20.7903 2.67633C20.5038 2.33507 20.0919 2.14648 19.6532 2.14648L19.6353 2.15546ZM30.1377 12.8242C27.9441 12.8242 26.1086 12.2404 24.6761 11.082C24.0941 10.606 23.6017 10.0672 23.1988 9.49244C24.2195 10.0133 25.464 10.2378 27.3263 10.2378C28.535 10.2378 30.0661 10.148 32.6088 9.93248C32.9491 9.90554 33.2893 9.88758 33.6206 9.88758C37.1034 9.88758 39.2433 11.531 40.5505 13.4348C39.118 12.8511 37.3094 12.4111 35.1516 12.4111C34.2742 12.4111 33.3699 12.4829 32.4656 12.6266C31.6508 12.7523 30.8719 12.8242 30.1377 12.8242Z" fill="#ED2024"/>
<path d="M55.1535 20.5559C53.9269 20.5559 52.7719 20.3853 51.7244 20.053C48.9488 19.1729 46.8627 17.1703 45.5286 14.099C41.3563 4.48999 35.2411 4.11282 32.3044 3.92423C31.991 3.90627 31.7224 3.88831 31.4896 3.86137C30.5853 3.76258 30.3794 3.16987 30.3347 2.91842C30.263 2.52329 30.3884 1.98446 30.9883 1.67015C31.9463 1.15827 36.226 0.421875 40.7475 0.421875C45.072 0.421875 50.7843 1.09541 53.8911 4.24752C56.3264 6.70815 57.1681 9.05203 57.8485 10.9379C58.8602 13.7578 59.4243 15.3114 65.1635 15.3652C65.638 15.3652 66.0588 15.6885 66.1842 16.1465C66.2737 16.4698 66.2021 16.8201 66.0051 17.0805C65.9245 17.1883 65.826 17.2691 65.7186 17.3409C65.5037 17.4756 60.4182 20.5559 55.1714 20.5559H55.1535ZM37.4258 2.69391C41.7234 4.22956 45.0989 7.75885 47.4805 13.2369C48.5549 15.7155 50.2023 17.323 52.3601 18.0055C53.1927 18.2659 54.1239 18.4006 55.1267 18.4006C56.7383 18.4006 58.5111 18.0683 60.4092 17.4128C60.6867 17.314 60.9733 17.2152 61.2508 17.0985C57.4904 16.2543 56.7114 14.099 55.834 11.6474C55.1983 9.87823 54.4731 7.86662 52.369 5.72929C49.7636 3.08905 44.678 2.54125 40.8639 2.54125C39.6104 2.54125 38.4465 2.60411 37.4258 2.68493V2.69391Z" fill="#FEDCBB"/>
<path d="M40.7385 0.835177C40.7385 0.835177 40.7923 0.835177 40.8191 0.835177C44.9825 0.835177 50.5873 1.49075 53.5867 4.5351C55.9593 6.93286 56.7831 9.23184 57.4456 11.0728C58.4842 13.9645 59.111 15.7157 65.1456 15.7696C65.4321 15.7696 65.6828 15.9671 65.7634 16.2455C65.8171 16.4431 65.7723 16.6586 65.6559 16.8113C65.6111 16.8742 65.5485 16.928 65.4768 16.9729C65.2261 17.1256 60.2659 20.1251 55.1446 20.1251C54.0344 20.1251 52.9152 19.9814 51.8408 19.6401C49.1816 18.796 47.185 16.8742 45.9047 13.9196C41.6339 4.0771 35.3486 3.68196 32.3223 3.49337C32.0179 3.47541 31.7583 3.45745 31.5255 3.43051C30.9524 3.36765 30.7823 3.07129 30.7286 2.82882C30.7017 2.71208 30.6659 2.29 31.1673 2.02957C32.0716 1.55361 36.3424 0.826198 40.7296 0.826198M55.1267 18.8319C57.1054 18.8319 59.0572 18.338 60.5435 17.8261C61.3672 17.5387 62.1104 17.2334 62.7371 16.946C57.9739 16.3802 57.186 14.198 56.2279 11.5308C55.5743 9.71678 54.8402 7.66027 52.6645 5.46008C50.1038 2.86475 45.2511 2.14632 40.8639 2.14632C38.7419 2.14632 36.7364 2.31694 35.1426 2.52349C38.6345 3.17906 43.5857 5.35232 47.0955 13.4167C48.2236 16.012 49.9516 17.7004 52.2347 18.4188C53.1748 18.7151 54.1508 18.8319 55.1267 18.8319ZM40.7385 0C36.4409 0 31.9463 0.682512 30.7913 1.29318C29.9855 1.71526 29.8243 2.47859 29.9228 2.99047C30.0571 3.69992 30.6301 4.18486 31.4449 4.26569C31.6866 4.29263 31.9552 4.31059 32.2686 4.32855C35.1337 4.50816 41.0788 4.87635 45.1436 14.2519C46.5314 17.4399 48.6981 19.5234 51.599 20.4394C52.6913 20.7896 53.8911 20.9602 55.1535 20.9602C60.5166 20.9602 65.7007 17.8171 65.9156 17.6824C66.0678 17.5836 66.211 17.4669 66.3185 17.3232C66.605 16.955 66.6945 16.47 66.5692 16.021C66.3901 15.3834 65.8081 14.9344 65.1545 14.9344C59.7019 14.8805 59.2363 13.5963 58.2335 10.7855C57.5441 8.86365 56.6846 6.47486 54.1776 3.94239C50.9723 0.700473 45.1436 0 40.8191 0H40.7385ZM39.2254 3.00843C39.7537 2.99047 40.2998 2.97251 40.8639 2.97251C44.5975 2.97251 49.5666 3.50236 52.0736 6.04381C54.1149 8.1093 54.7865 9.9862 55.4401 11.8092C56.228 13.9914 56.98 16.0749 59.8989 17.1525C58.2067 17.7004 56.5592 17.9877 55.1267 17.9877C54.1687 17.9877 53.2733 17.862 52.4854 17.6105C50.444 16.964 48.8861 15.4373 47.8655 13.0754C45.7524 8.20808 42.8515 4.83145 39.2254 3.00843Z" fill="#ED2024"/>
<path d="M73.2394 36.478C72.6306 36.478 72.0397 36.2984 71.4667 35.9392C70.6967 35.4542 70.0699 34.8076 69.47 34.179C68.8164 33.5055 68.2076 32.8679 67.4287 32.4278L67.7957 31.6735C68.0017 31.7633 68.2166 31.8531 68.4225 31.9698C69.3089 32.4727 69.9804 33.2181 70.5713 33.8827C71.207 34.6011 71.8069 35.2746 72.559 35.5261C72.7649 35.5979 72.9887 35.6338 73.2126 35.6338C73.2752 35.6338 73.3469 35.6338 73.4185 35.6249L73.714 35.5979L73.8304 36.4241C73.6423 36.46 73.4454 36.478 73.2394 36.478ZM67.9927 34.0353C67.8226 33.8916 67.6525 33.7749 67.4824 33.6761C67.2496 33.5504 66.9989 33.4426 66.7303 33.3349C66.3722 33.1912 66.0319 33.0565 65.6827 32.8589C64.68 32.2931 64.098 31.3861 64.1249 30.4432C64.1338 29.9044 64.3397 29.4643 64.5009 29.1141C64.5725 28.9524 64.6262 28.8536 64.6621 28.7549L65.4589 29.0063C65.4231 29.141 65.3873 29.2847 65.3515 29.4194C65.1366 30.2187 64.9486 30.9102 65.441 31.5298C65.7454 31.916 66.2289 32.1045 66.7393 32.2931C67.1511 32.4548 67.5809 32.6164 67.9659 32.9038C68.1718 33.0565 68.3598 33.2181 68.5478 33.3798L68.0017 34.0174L67.9927 34.0353ZM66.6945 32.1225C66.211 31.9609 65.3962 31.6825 65.253 30.7844C65.253 30.7395 65.244 30.6946 65.2351 30.6497L66.0588 30.542C66.0946 30.7395 66.3274 30.991 66.6318 31.1706C66.7482 31.2335 66.8646 31.2963 66.9899 31.3502L66.6945 32.1315V32.1225ZM65.2351 30.3624C65.253 29.9762 65.3694 29.59 65.4768 29.2398C65.5305 29.0692 65.5843 28.8985 65.6201 28.7369C65.8708 27.5605 65.3962 26.5996 64.8501 25.486L64.7158 25.2076C64.4472 24.6688 64.1786 24.121 64.1875 23.5103L65.0202 23.4475C65.0381 23.5373 65.0918 23.672 65.1366 23.7797L66.1752 26.3212C66.4527 27.0037 66.8646 28.0185 66.605 29.0692C66.5244 29.4014 66.3901 29.6888 66.2737 29.9313C66.1752 30.1468 66.0946 30.3174 66.0767 30.4522L65.244 30.3713L65.2351 30.3624ZM64.2323 23.1421C64.286 22.9266 64.3666 22.72 64.4919 22.5225C64.859 21.9477 65.2888 21.4269 65.6917 20.9509C66.2558 20.2953 67.1511 19.3524 68.2255 18.5801L68.7538 19.2267L67.3749 20.5378C66.6676 21.2113 65.7633 22.1273 65.1187 23.214C65.0739 23.2858 65.0381 23.3487 65.0112 23.4025L64.2233 23.1421H64.2323Z" fill="#FEDCBB"/>
<path d="M68.4762 18.9215L67.0974 20.2326C66.3721 20.9241 65.441 21.8671 64.7695 22.9986C64.7158 23.0794 64.671 23.1602 64.6441 23.2411C64.68 23.0794 64.7426 22.9178 64.8501 22.7561C65.1903 22.2173 65.6022 21.7144 66.014 21.2384C66.6497 20.4931 67.5182 19.622 68.4762 18.9305M64.6083 23.5195C64.6352 23.6452 64.6889 23.7979 64.7516 23.9326C65.0739 24.7139 65.3873 25.5041 65.7096 26.2944L65.7812 26.483C66.0498 27.1386 66.4169 28.0456 66.1931 28.9706C66.1215 29.2579 65.9961 29.5184 65.8887 29.7518C65.7812 29.9853 65.6827 30.1919 65.6559 30.3895C65.6827 29.8686 65.9245 29.3118 66.0319 28.8359C66.3363 27.4529 65.7365 26.3483 65.1366 25.1269C64.8769 24.5971 64.5904 24.0673 64.6083 23.5284M65.047 28.9077C64.8053 29.9045 64.3845 30.8834 65.1097 31.7994C65.7633 32.6166 66.9004 32.6525 67.7062 33.2542C67.8942 33.3979 68.0823 33.5506 68.2524 33.7032C68.0733 33.5506 67.8763 33.4158 67.6794 33.3081C67.4287 33.1644 67.1511 33.0566 66.8646 32.9399C66.5423 32.8142 66.211 32.6795 65.8797 32.4909C65.0202 31.9969 64.5098 31.2336 64.5277 30.4523C64.5367 29.9943 64.7247 29.6082 64.8769 29.2669C64.9307 29.1412 64.9933 29.0244 65.0381 28.9077M65.6559 30.605C65.7185 30.9911 66.0946 31.3414 66.4348 31.53C66.5602 31.6018 66.6945 31.6647 66.8288 31.7275C66.2916 31.5479 65.7633 31.3324 65.6648 30.7217C65.6648 30.6858 65.6559 30.6499 65.6469 30.605M67.6435 32.0598C67.8405 32.1406 68.0375 32.2304 68.2255 32.3382C69.0492 32.7962 69.667 33.4877 70.2669 34.1612C70.9384 34.9156 71.583 35.634 72.4336 35.9214C72.6843 36.0022 72.944 36.0471 73.2215 36.0471C73.3021 36.0471 73.3827 36.0471 73.4633 36.0381L73.7587 36.0112C73.5886 36.0471 73.4185 36.0561 73.2484 36.0561C72.747 36.0561 72.2277 35.9124 71.6994 35.5801C70.1684 34.6192 69.2283 32.9578 67.6435 32.0598ZM68.4762 18.0863V18.8317L67.9927 18.239C66.8825 19.0382 65.9603 20.0081 65.3873 20.6817C64.9665 21.1666 64.5277 21.7054 64.1517 22.2981C63.9995 22.5316 63.892 22.7831 63.8383 23.0525L64.9575 23.4207L63.7846 23.5105C63.7667 24.2289 64.0801 24.8575 64.3576 25.4053L64.4024 25.4951L64.4919 25.6747C65.0291 26.7614 65.4499 27.6235 65.2261 28.6473C65.2082 28.7191 65.1903 28.7999 65.1634 28.8807L65.056 28.8448L64.2771 28.5934C64.2412 28.6742 64.2054 28.764 64.1607 28.8538L64.1338 28.9077C63.9547 29.2938 63.7219 29.8057 63.704 30.4254C63.6772 31.521 64.3397 32.5717 65.4768 33.2183C65.8529 33.4338 66.2289 33.5775 66.5602 33.7122C66.8377 33.8289 67.0884 33.9188 67.2854 34.0355C67.4376 34.1163 67.5809 34.2241 67.7331 34.3498L68.3509 33.6314C68.6284 33.8918 68.906 34.1792 69.1835 34.4666C69.8013 35.1131 70.446 35.7777 71.2607 36.2896C71.8964 36.6937 72.5679 36.8913 73.2484 36.8913C73.4722 36.8913 73.696 36.8733 73.9109 36.8284L73.7587 35.7148V35.167V35.6969L73.6871 35.176L73.3916 35.2029C73.3379 35.2029 73.2752 35.2029 73.2215 35.2029C73.0425 35.2029 72.8634 35.176 72.7022 35.1221C72.0576 34.9066 71.5204 34.3049 70.8936 33.5955C70.2758 32.904 69.5864 32.1316 68.6374 31.6018C68.4314 31.494 68.2255 31.3863 67.9659 31.2785L67.5271 32.1766C67.3033 32.0688 67.0884 31.988 66.8825 31.9071C66.8556 31.8982 66.8288 31.8892 66.8019 31.8802L67.1601 30.9462C67.0526 30.9013 66.9452 30.8475 66.8467 30.7936C66.6497 30.6858 66.5244 30.5421 66.4885 30.4793C66.5065 30.3984 66.587 30.2368 66.6497 30.1021C66.7751 29.8417 66.9183 29.5273 67.0078 29.1591C67.2944 27.9737 66.8556 26.8871 66.5602 26.1597L66.4796 25.9621L66.0856 25.0012L65.5216 23.6093C65.5216 23.6093 65.4768 23.5105 65.4589 23.4566C65.4589 23.4476 65.4768 23.4296 65.4768 23.4207C66.1035 22.3789 66.972 21.4899 67.6704 20.8253L69.0492 19.5142L68.4762 18.8227V18.0684V18.0863ZM65.5395 30.596C65.5395 30.5421 65.5395 30.4793 65.5574 30.4164L66.3184 30.4882L65.5484 30.596H65.5395Z" fill="#ED2024"/>
<path d="M68.8165 34.8441C68.5479 34.5657 68.2703 34.2873 67.9838 34.0269L68.521 33.3893C68.8433 33.6587 69.1477 33.964 69.4253 34.2694L68.8165 34.8441ZM67.1153 32.3026C66.9631 32.2398 66.8109 32.1769 66.6676 32.1141L66.9721 31.3328C67.2765 31.4316 67.5272 31.5214 67.742 31.6381C67.7868 31.6561 67.8316 31.683 67.8674 31.7099L67.4734 32.4374L67.1243 32.2937L67.1153 32.3026ZM65.244 30.6862C65.2351 30.6233 65.2261 30.5605 65.2261 30.4976C65.2261 30.4078 65.2261 30.3539 65.244 30.3L66.0678 30.4078L65.244 30.6772V30.6862ZM64.6352 28.8093C64.671 28.6476 64.7068 28.486 64.7337 28.3154L65.5664 28.3782C65.5664 28.5219 65.5485 28.6656 65.5127 28.8003C65.4947 28.8901 65.4679 28.9709 65.4321 29.0607L64.6352 28.8093ZM64.1965 23.6096C64.1786 23.5468 64.1786 23.4839 64.1786 23.421V23.3312C64.1965 23.2504 64.2144 23.1696 64.2592 23.0708L65.0471 23.3312C65.0292 23.3941 65.0292 23.457 65.0202 23.5288L64.1965 23.6096Z" fill="#FEDCBB"/>
<path d="M64.5994 23.52C64.5994 23.4841 64.5904 23.4482 64.5904 23.4212C64.5904 23.4482 64.5904 23.4841 64.5994 23.52ZM64.6352 23.2326C64.6173 23.2865 64.5994 23.3404 64.5904 23.3853C64.5904 23.3404 64.6083 23.2865 64.6352 23.2326ZM65.1455 28.3784C65.1455 28.4862 65.1366 28.5939 65.1097 28.7017C65.0918 28.7646 65.0739 28.8364 65.047 28.9082C65.0918 28.7286 65.1276 28.558 65.1545 28.3784M65.6559 30.39C65.6559 30.39 65.6559 30.4619 65.6559 30.5068C65.6559 30.4708 65.6559 30.4349 65.6559 30.39ZM65.6559 30.39C65.6559 30.39 65.6559 30.4529 65.6469 30.4798C65.6469 30.4798 65.6469 30.4888 65.6469 30.4978C65.6469 30.4978 65.6469 30.4888 65.6469 30.4798C65.6469 30.4529 65.6469 30.417 65.6559 30.39ZM65.638 30.4978C65.638 30.4978 65.638 30.5696 65.6469 30.6055C65.6469 30.5696 65.638 30.5337 65.638 30.4978ZM65.6469 30.5068C65.6469 30.5068 65.6469 30.5786 65.6469 30.6055C65.6469 30.5696 65.6469 30.5427 65.6469 30.5068ZM66.8377 31.7281C67.0884 31.8089 67.3391 31.8897 67.545 32.0065C67.5719 32.0244 67.5988 32.0334 67.6256 32.0514C67.5988 32.0334 67.5719 32.0155 67.545 32.0065C67.3391 31.8987 67.0884 31.8179 66.8377 31.7281ZM66.8377 31.7281C66.981 31.7909 67.1242 31.8538 67.2765 31.9077C67.3928 31.9526 67.5092 31.9975 67.6346 32.0514C67.5182 31.9975 67.3928 31.9526 67.2765 31.9077C67.1242 31.8448 66.981 31.7909 66.8377 31.7281ZM68.2613 33.7128C68.5568 33.9552 68.8343 34.2426 69.1209 34.5479C68.8433 34.2606 68.5657 33.9822 68.2613 33.7128ZM64.6441 22.3975V23.2326H64.6352L63.8742 22.9183C63.8204 23.0441 63.7846 23.1698 63.7757 23.2865V23.4212H63.7578C63.7578 23.511 63.7667 23.6008 63.7846 23.6996L64.6352 23.6188L65.3783 23.547L65.2172 23.4751L65.4231 23.4931C65.4231 23.4931 65.4231 23.529 65.4141 23.538H65.441C65.441 23.4931 65.441 23.4571 65.4499 23.4212H65.4231H65.0918H65.0829L65.2619 23.3853L64.6441 23.2416V22.4064V22.3975ZM65.1545 28.3245L64.3308 28.2617C64.3129 28.4143 64.2771 28.558 64.2412 28.7107L65.1545 28.9981L65.826 29.2136C65.8708 29.1058 65.9066 28.9981 65.9245 28.8993C65.9603 28.7376 65.9872 28.567 65.9872 28.3874L65.1545 28.3245ZM65.6559 29.5548V30.39L64.8411 30.2104C64.8232 30.2912 64.8143 30.3631 64.8143 30.4439V30.4978C64.8143 30.5876 64.8143 30.6774 64.8411 30.7672L65.6648 30.6145L66.3901 30.5606H66.3363L66.0498 30.5427L66.1841 30.5157H66.1931H66.2199H66.4975V30.4439L65.6648 30.399V29.5638L65.6559 29.5548ZM67.1063 30.9378L66.8377 31.7281L66.5065 32.4914C66.6587 32.5543 66.8109 32.6172 66.972 32.68L67.0795 32.7249L67.3123 32.8147L67.6435 32.0155L68.1002 31.3419C68.0464 31.306 67.9927 31.2701 67.93 31.2432C67.6883 31.1174 67.4287 31.0276 67.169 30.9378L67.0974 30.9109L67.1063 30.9378ZM68.7896 33.0662L67.7062 34.3414C67.9659 34.5749 68.2255 34.8263 68.521 35.1406L69.7297 33.9911C69.4432 33.6768 69.1298 33.3535 68.7896 33.0751V33.0662Z" fill="#ED2024"/>
<path d="M10.476 67.3349C6.65287 67.3349 3.09837 65.1078 1.42408 61.6683C-0.250212 58.2108 0.152686 54.1697 2.48058 51.1253C3.42964 49.877 4.63836 48.8982 6.053 48.1977L64.7695 19.5233C65.253 19.2898 65.7544 19.0922 66.2827 18.9306L66.3543 18.8587C67.3839 17.8978 69.3984 16.3442 71.601 16.3442C72.8992 16.3442 74.0184 16.8831 74.9317 17.9517C75.0481 18.0415 75.1465 18.1762 75.2003 18.3289C75.2271 18.3648 75.2629 18.4636 75.2719 18.5714C75.63 19.6221 76.4627 20.4573 77.3401 21.3373C78.1549 22.1545 78.9876 22.9987 79.48 24.1213C79.9814 25.2708 79.9008 26.3843 79.7665 27.5158C79.6054 28.8449 79.3726 30.0573 79.0592 31.2068C78.325 33.847 77.2596 35.6162 75.7823 36.6309C75.254 36.9902 74.6899 37.2326 74.1169 37.3494L73.9647 37.4302C73.8393 37.502 73.7051 37.5739 73.5708 37.6367L14.8542 66.3022C13.4754 66.9757 11.9981 67.3169 10.476 67.3169V67.3349ZM6.92148 49.9578C5.77544 50.5146 4.80847 51.3139 4.03848 52.3107C2.15826 54.7713 1.82698 58.0312 3.17895 60.8151C4.53091 63.5901 7.396 65.3862 10.476 65.3862C11.7026 65.3862 12.8934 65.1078 14.0036 64.5689L21.5245 60.896C20.4322 60.3482 18.9101 59.4232 17.5223 57.9594C13.9678 54.2146 13.8693 49.6615 14.5319 46.231L6.91252 49.9578H6.92148ZM16.7613 45.1444C15.4272 49.8411 16.1435 53.6937 18.8833 56.6123C20.9246 58.7856 23.4495 59.6477 23.5569 59.6836C23.6375 59.7106 23.7181 59.7465 23.7808 59.7914L28.3291 57.5732C27.2816 57.0973 25.5536 56.1453 23.9957 54.5019C20.5217 50.8379 20.4322 46.3836 21.1037 43.025L16.7613 45.1444ZM23.2883 41.9563C21.9543 46.5543 22.6347 50.335 25.3208 53.1818C27.3532 55.3371 29.8243 56.1543 29.8512 56.1633C30.075 56.2351 30.2541 56.3878 30.3705 56.5764L67.7421 38.3282C66.6139 37.7266 65.2172 36.8105 63.9369 35.4545C60.3555 31.6738 60.1675 27.0938 60.7584 23.6633L23.2973 41.9563H23.2883ZM62.9789 22.5766C61.7522 27.2644 62.5401 31.1349 65.3067 34.0805C67.169 36.0562 69.3895 36.9902 69.9983 37.2236L70.831 36.8195C70.1684 36.3615 69.6402 35.7688 69.1209 35.1851L68.8165 34.8438C68.5479 34.5565 68.2793 34.2691 67.9928 34.0356C67.8047 33.865 67.6346 33.7213 67.4556 33.5866C67.1601 33.3711 66.802 33.2274 66.4259 33.0837C65.835 32.8592 65.2262 32.6167 64.7785 32.0599C64.0174 31.108 64.2861 30.0932 64.5278 29.2042C64.5636 29.0695 64.5994 28.9347 64.6352 28.809H64.6711L64.68 28.7641H64.6531C64.671 28.7013 64.689 28.6564 64.6979 28.6025C64.7158 28.5306 64.7248 28.4498 64.7248 28.369C64.7248 28.0008 64.5547 27.5338 64.3577 27.0578L63.328 24.5164C63.2027 24.2021 63.0147 23.7441 63.0773 23.2053C63.1132 22.8909 63.2206 22.6215 63.3459 22.397L62.9789 22.5766ZM67.8406 31.6917C68.7269 32.1946 69.4074 32.9041 70.0789 33.5956C70.6698 34.2152 71.2339 34.79 71.9144 35.23C72.3441 35.4994 72.7918 35.6431 73.2395 35.6431C73.3827 35.6431 73.526 35.6251 73.6692 35.5982C74.6004 35.4186 75.5495 34.6373 76.221 33.4968C77.2417 31.7636 77.6446 29.6981 77.8863 28.0996L77.949 27.6955C78.0654 26.968 78.1818 26.2137 78.0564 25.5581C77.9221 24.8577 77.5461 24.1931 76.8477 23.4118C76.5612 23.0975 76.2657 22.7922 75.9703 22.4958C75.0212 21.5349 74.0453 20.5471 73.5887 19.1461C73.0067 18.4636 72.3441 18.1313 71.5652 18.1313C70.7325 18.1313 69.7745 18.5175 68.7269 19.2718C67.7152 19.9993 66.8736 20.8973 66.3364 21.5169C65.9514 21.966 65.5395 22.4599 65.1993 22.9897C65.1277 23.1065 65.074 23.2232 65.0471 23.34L64.9934 23.4657C65.0113 23.9506 65.2262 24.3907 65.4589 24.8577L65.5933 25.136C66.1842 26.3394 66.7482 27.4799 66.4259 28.9348C66.3901 29.1144 66.3274 29.3119 66.2648 29.5005C66.1663 29.8148 66.0767 30.1381 66.0588 30.4165V30.4435L66.0499 30.4973H66.032L65.9962 30.5871H66.0588C66.1215 31.0002 66.3991 31.1529 66.9542 31.3415L66.99 31.3595C67.1243 31.4133 67.2675 31.4672 67.4197 31.5301L67.7779 31.6738L67.76 31.7097L67.8047 31.7366L67.8316 31.6917H67.8406Z" fill="#FEDCBB"/>
<path d="M71.6189 16.7665C72.7022 16.7665 73.7587 17.1976 74.663 18.2662C74.7347 18.3111 74.7884 18.374 74.8242 18.4728C74.8511 18.5267 74.869 18.5806 74.8779 18.6255C75.6479 20.9514 78.1459 22.0739 79.1129 24.2921C79.5695 25.3428 79.4979 26.3666 79.3636 27.4711C79.2203 28.7015 78.9965 29.9138 78.6652 31.1082C78.137 33.03 77.2595 35.1314 75.5494 36.2989C75.0301 36.6581 74.5019 36.8736 73.9736 36.9634L73.7587 37.0802C73.6334 37.152 73.508 37.2149 73.3827 37.2777L14.6662 65.9431C13.3142 66.6077 11.8816 66.913 10.467 66.913C6.89459 66.913 3.45647 64.9104 1.79114 61.4799C0.188474 58.1661 0.57347 54.2956 2.81183 51.368C3.72507 50.1736 4.88007 49.2306 6.24099 48.5661L61.6895 21.4902L61.9044 21.3824L62.3521 21.1669L64.9575 19.8917C65.4589 19.6492 65.9782 19.4517 66.4975 19.29C66.5512 19.2361 66.6139 19.1822 66.6676 19.1284C68.0644 17.8352 69.8729 16.7486 71.601 16.7486M73.2394 36.0564C73.4096 36.0564 73.5797 36.0384 73.7498 36.0115C74.9048 35.787 75.9255 34.8261 76.5791 33.7125C77.5639 32.0422 78.0116 30.0665 78.2981 28.1626C78.4235 27.3005 78.6294 26.3396 78.4682 25.4775C78.2981 24.5615 77.7699 23.8071 77.1521 23.1246C75.9613 21.7955 74.5019 20.7089 73.9468 18.9308C73.2305 18.0507 72.4068 17.7005 71.5472 17.7005C70.5176 17.7005 69.4432 18.2124 68.4673 18.9218C67.5092 19.6133 66.6408 20.4844 66.0051 21.2298C65.5932 21.7147 65.1814 22.2086 64.8411 22.7475C64.7337 22.9091 64.671 23.0708 64.6352 23.2324C64.6173 23.2863 64.5994 23.3402 64.5904 23.3851C64.5904 23.43 64.5904 23.4749 64.5994 23.5198C64.5904 24.0676 64.868 24.5884 65.1276 25.1183C65.7275 26.3396 66.3184 27.4352 66.023 28.8272C65.9155 29.3031 65.6738 29.8599 65.6469 30.3808C65.6469 30.4077 65.6469 30.4437 65.638 30.4706C65.638 30.5155 65.638 30.5514 65.6469 30.5963C65.6469 30.6322 65.6469 30.6682 65.6648 30.7131C65.7633 31.3237 66.2916 31.5393 66.8288 31.7189C66.9721 31.7817 67.1153 31.8446 67.2675 31.8985C67.3839 31.9434 67.5003 31.9883 67.6257 32.0422C67.6257 32.0422 67.6256 32.0422 67.6346 32.0422C69.2194 32.9402 70.1595 34.6016 71.6905 35.5625C72.2188 35.8948 72.738 36.0384 73.2394 36.0384M70.0341 37.6819L71.7353 36.8467C70.7862 36.4246 70.1057 35.6523 69.4342 34.9069C69.3357 34.7902 69.2283 34.6824 69.1298 34.5746C69.1298 34.5746 69.1209 34.5657 69.1119 34.5567C68.8344 34.2513 68.5568 33.964 68.2524 33.7215C68.0733 33.5598 67.8943 33.4072 67.7062 33.2635C66.8915 32.6618 65.7544 32.6259 65.1097 31.8087C64.3845 30.8927 64.8053 29.9048 65.0471 28.917C65.0739 28.8451 65.1008 28.7733 65.1097 28.7104C65.1366 28.6027 65.1455 28.4949 65.1455 28.3871C65.1455 27.9381 64.9665 27.4532 64.7426 26.9144L64.671 26.7258C64.3487 25.9445 64.0353 25.1542 63.713 24.3729C63.5966 24.0855 63.4354 23.6994 63.4892 23.2683C63.525 22.936 63.6682 22.6666 63.8115 22.4331C64.0353 22.056 64.286 21.6968 64.5546 21.3555L62.6207 22.2984C61.2866 27.2197 62.0924 31.2788 65.0023 34.3771C67.169 36.676 69.7924 37.61 70.0252 37.6819M30.066 57.1873L68.6821 38.3284C67.5988 37.8345 65.8171 36.8377 64.2233 35.1584C60.5704 31.2968 60.5077 26.5821 61.3224 22.9091L22.9212 41.6602C22.9212 41.6602 22.9212 41.741 22.9033 41.7769C21.5066 46.5545 22.2139 50.4789 25.0163 53.4514C27.1293 55.6965 29.6989 56.5407 29.7258 56.5497C29.9855 56.6395 30.1377 56.9089 30.066 57.1783M23.7002 60.3035L29.3587 57.5465C28.9469 57.4118 26.4399 56.4868 24.2911 54.2237C20.7008 50.443 20.8261 45.7732 21.6946 42.2798L16.4031 44.8662C16.4031 44.8662 16.4031 44.8841 16.4031 44.8931C14.9706 49.8054 15.6958 53.8466 18.5788 56.9089C20.7455 59.2168 23.3957 60.0879 23.4226 60.0969C23.539 60.1328 23.6375 60.2136 23.7002 60.3124M10.476 65.7995C11.7294 65.7995 12.9919 65.5211 14.1916 64.9373L22.5094 60.8782C21.5424 60.4741 19.5726 59.5042 17.8357 57.6632C14.1827 53.8106 14.2633 49.06 15.1407 45.4678L6.74238 49.5719C5.54262 50.1646 4.52193 50.9908 3.71612 52.0505C1.73742 54.6368 1.39718 58.0673 2.81183 60.9949C4.28914 64.0303 7.32435 65.7995 10.4849 65.7995M71.6189 15.9224C69.2731 15.9224 67.1601 17.5568 66.1125 18.5267C66.1036 18.5357 66.0857 18.5536 66.0767 18.5626C65.5664 18.7242 65.0739 18.9218 64.5994 19.1553L62.0029 20.4215L61.5552 20.6371L61.3314 20.7448L5.8918 47.8207C4.41449 48.5391 3.16101 49.5629 2.16718 50.8651C-0.259199 54.0441 -0.680006 58.2559 1.06591 61.8481C2.80287 65.4313 6.50064 67.7482 10.4939 67.7482C12.0876 67.7482 13.6186 67.389 15.0601 66.6885L73.7766 38.0231C73.9199 37.9513 74.0632 37.8794 74.1975 37.8076L74.287 37.7537C74.8958 37.619 75.4867 37.3675 76.0419 36.9814C77.5998 35.9127 78.7279 34.0628 79.4889 31.3237C79.8113 30.1473 80.053 28.917 80.2142 27.5699C80.3574 26.3755 80.438 25.2081 79.9008 23.9598C79.3815 22.7654 78.513 21.8943 77.6714 21.0502C76.8477 20.215 76.0598 19.4337 75.7106 18.4189C75.6837 18.3201 75.6479 18.2124 75.6031 18.1226C75.5226 17.9429 75.4062 17.7813 75.2629 17.6556C74.278 16.524 73.0335 15.9313 71.6368 15.9313L71.6189 15.9224ZM68.9687 19.5953C69.9267 18.9039 70.822 18.5357 71.5652 18.5357C72.1919 18.5357 72.7381 18.8051 73.2215 19.3439C73.7229 20.7897 74.7168 21.7955 75.6748 22.7744C75.9613 23.0708 76.2657 23.3761 76.5433 23.6814C77.1969 24.4088 77.5371 25.0105 77.6535 25.6302C77.7609 26.2139 77.6535 26.9323 77.5371 27.6238C77.5192 27.7585 77.4923 27.9022 77.4744 28.0369C77.2416 29.6085 76.8477 31.6201 75.8628 33.2904C75.254 34.3232 74.4034 35.0326 73.5976 35.1943C73.4812 35.2122 73.3648 35.2302 73.2484 35.2302C72.8813 35.2302 72.5142 35.1135 72.1471 34.88C71.5025 34.4758 70.9563 33.9101 70.3833 33.3084C69.7028 32.5989 68.9955 31.8626 68.0554 31.3327L68.0106 31.4046L67.9301 31.3417L67.9569 31.2788L67.7062 31.18L67.5988 31.1351C67.4555 31.0813 67.3123 31.0184 67.178 30.9645L67.1064 30.9376C66.6139 30.7669 66.5154 30.6861 66.4975 30.5963V30.5424H66.4796C66.4796 30.5514 66.4796 30.5604 66.4796 30.5784V30.5424V30.5245V30.4886V30.4616V30.4796V30.4437L66.4886 30.4257C66.4975 30.1922 66.587 29.8959 66.6766 29.6085C66.7393 29.4019 66.8019 29.1954 66.8467 29.0068C67.1959 27.3993 66.5781 26.142 65.9782 24.9297L65.8887 24.7501L65.8439 24.6513C65.638 24.2382 65.441 23.8431 65.45 23.5377V23.4569L65.4679 23.412C65.4858 23.3402 65.5126 23.2683 65.5664 23.1875C65.8887 22.6846 66.2826 22.2086 66.6587 21.7686C67.178 21.1669 68.0017 20.2958 68.9776 19.5953H68.9687ZM23.6375 42.2529L60.2212 24.3909C59.6302 28.8631 60.7942 32.7606 63.6235 35.7421C64.6889 36.8646 65.826 37.6998 66.8377 38.3015L30.4779 56.0557C30.3346 55.93 30.1735 55.8312 29.9765 55.7684C29.9496 55.7684 27.5591 54.9601 25.6162 52.8946C23.0824 50.2005 22.4109 46.6173 23.6285 42.2529H23.6375ZM64.0532 31.656C62.9788 29.6713 62.6117 27.3634 62.9699 24.7501L63.3638 25.72L63.901 27.0401L63.9727 27.2287C64.1517 27.6687 64.3129 28.0908 64.3129 28.3782C64.3129 28.4231 64.3129 28.468 64.295 28.5129C64.295 28.5398 64.2771 28.5757 64.2592 28.6117L64.3397 28.6386L64.3129 28.7374L64.2323 28.7194C64.1965 28.8451 64.1696 28.9798 64.1338 29.1056C63.9279 29.8599 63.6861 30.758 64.0622 31.656H64.0532ZM69.9894 36.7658C69.2373 36.4605 67.2765 35.5625 65.6201 33.7933C65.1903 33.3353 64.8053 32.8504 64.474 32.3385C64.9933 32.9761 65.6828 33.2455 66.2826 33.479C66.6318 33.6137 66.9631 33.7484 67.2138 33.928C67.3749 34.0448 67.5361 34.1795 67.7062 34.3322L67.751 34.3681C67.9927 34.5657 68.2255 34.8081 68.512 35.1135L68.521 35.1314L68.8164 35.4637C69.1925 35.8858 69.5864 36.3258 70.052 36.7299L69.9894 36.7658ZM17.1104 45.4409L20.5486 43.7616C20.0382 47.1023 20.3695 51.2961 23.6912 54.7895C24.9536 56.1186 26.3235 57.0077 27.38 57.5644L23.7897 59.3156C23.7897 59.3156 23.7181 59.2887 23.6822 59.2797C23.5927 59.2527 21.1663 58.4176 19.1876 56.3162C16.5911 53.5502 15.8928 49.8952 17.1104 45.4319V45.4409ZM10.476 64.9643C7.54818 64.9643 4.82635 63.267 3.55496 60.6357C2.27462 57.9955 2.58799 54.9062 4.36972 52.5713C5.09495 51.6194 6.01715 50.8651 7.10052 50.3352L13.9857 46.9676C13.4754 50.3801 13.8245 54.6638 17.2179 58.2469C18.355 59.4503 19.5816 60.3035 20.6023 60.8782L13.8245 64.192C12.768 64.7038 11.6399 64.9643 10.476 64.9643Z" fill="#ED2024"/>
</svg>
