<svg width="121" height="79" viewBox="0 0 121 79" fill="none" xmlns="http://www.w3.org/2000/svg">
<path d="M78.3138 70.0108C77.9109 70.0108 77.508 69.9839 77.1051 69.921L15.9711 60.8418C13.8044 60.5186 11.8973 59.3691 10.5901 57.6089C9.28294 55.8398 8.73678 53.6755 9.05911 51.5022L14.4312 15.1496C15.0221 11.1444 18.505 8.12695 22.534 8.12695C22.9369 8.12695 23.3398 8.1539 23.7427 8.21676L84.8767 17.2959C89.3534 17.9605 92.4513 22.1543 91.7887 26.6355L86.4167 62.9882C85.8258 66.9934 82.3428 70.0108 78.3049 70.0108H78.3138ZM22.543 10.7403C19.7943 10.7403 17.4216 12.7968 17.0187 15.5268L11.6466 51.8794C11.199 54.9417 13.312 57.7975 16.3561 58.2465L77.4901 67.3257C77.7587 67.3706 78.0363 67.3886 78.3138 67.3886C81.0625 67.3886 83.4441 65.3321 83.847 62.602L89.2191 26.2494C89.6667 23.1871 87.5537 20.3313 84.5006 19.8823L23.3667 10.8031C23.0981 10.7582 22.8205 10.7403 22.543 10.7403Z" fill="#F1BFD9"/>
<path d="M22.5429 8.71978C22.91 8.71978 23.286 8.74672 23.6621 8.8006L84.796 17.8798C88.9504 18.4994 91.8245 22.3879 91.2067 26.5459L85.8346 62.8985C85.2795 66.6792 82.0205 69.4093 78.3138 69.4093C77.9467 69.4093 77.5706 69.3823 77.1946 69.3285L16.0606 60.2493C11.9062 59.6296 9.03219 55.7411 9.64998 51.5832L15.022 15.2306C15.5771 11.4498 18.8362 8.71978 22.5429 8.71978ZM78.3138 67.9904C81.3311 67.9904 83.9723 65.7722 84.429 62.7009L89.801 26.3483C90.3024 22.9627 87.9656 19.8016 84.5901 19.3077L23.4562 10.2285C23.1517 10.1836 22.8473 10.1567 22.5429 10.1567C19.5346 10.1567 16.8843 12.3748 16.4277 15.4551L11.0557 51.8077C10.5543 55.1933 12.8911 58.3544 16.2666 58.8483L77.4005 67.9275C77.7049 67.9724 78.0094 67.9993 78.3138 67.9993M22.5429 7.53437C18.2184 7.53437 14.4848 10.7673 13.8491 15.0599L8.47708 51.4126C7.76976 56.2261 11.0915 60.7163 15.8816 61.4257L77.0155 70.5049C77.4453 70.5677 77.875 70.6037 78.3138 70.6037C82.6383 70.6037 86.3718 67.3707 87.0075 63.0781L92.3796 26.7255C92.7198 24.3996 92.1379 22.0736 90.7411 20.1788C89.3444 18.2839 87.294 17.0536 84.9662 16.7034L23.8322 7.62418C23.4024 7.56131 22.9727 7.52539 22.5429 7.52539V7.53437ZM78.3138 66.805C78.072 66.805 77.8213 66.787 77.5796 66.7511L16.4456 57.6719C15.1295 57.4743 13.9655 56.7739 13.1597 55.6962C12.3629 54.6186 12.0316 53.2984 12.2286 51.9783L17.6006 15.6257C17.9588 13.183 20.0897 11.3421 22.5429 11.3421C22.7847 11.3421 23.0353 11.36 23.2771 11.3959L84.411 20.4751C85.7272 20.6727 86.9001 21.3732 87.697 22.4508C88.4938 23.5284 88.8251 24.8486 88.6281 26.1687L83.256 62.5213C82.8979 64.964 80.767 66.805 78.3138 66.805Z" fill="#ED174B"/>
<path d="M83.6589 77.5455C83.2023 77.5455 82.7367 77.5096 82.2801 77.4468L8.83521 66.5356C3.52583 65.7453 -0.127178 60.5816 0.696536 55.0317L7.44742 9.34845C8.1816 4.36434 12.3718 0.601562 17.1888 0.601562C17.6454 0.601562 18.111 0.637485 18.5586 0.700347L92.0035 11.6115C97.3129 12.4018 100.966 17.5655 100.142 23.1154L93.3913 68.7986C92.6571 73.7828 88.4669 77.5455 83.65 77.5455H83.6589ZM17.1708 3.57407C13.7864 3.57407 10.8318 6.23226 10.3125 9.76156L3.56164 55.4448C3.28409 57.3486 3.7228 59.2435 4.80617 60.7881C5.88953 62.3238 7.47428 63.3116 9.27392 63.5721L82.7188 74.4832C83.0322 74.5281 83.3635 74.5551 83.6768 74.5551C87.0612 74.5551 90.0159 71.8969 90.5352 68.3676L97.2861 22.6843C97.868 18.7599 95.2984 15.1049 91.5738 14.5571L18.1288 3.64591C17.8155 3.60101 17.4842 3.57407 17.1708 3.57407Z" fill="#F1BFD9"/>
<path d="M17.1977 1.18542C17.6275 1.18542 18.0572 1.21236 18.487 1.2842L91.9319 12.1954C96.919 12.9407 100.348 17.7991 99.5781 23.0257L92.8272 68.709C92.1199 73.4865 88.1536 76.944 83.6679 76.944C83.2381 76.944 82.8084 76.9171 82.3786 76.8452L8.9337 65.934C3.94665 65.1977 0.517488 60.3303 1.29644 55.1037L8.04731 9.42044C8.75463 4.64287 12.721 1.18542 17.2067 1.18542M83.6858 75.1569C87.3299 75.1569 90.5531 72.346 91.1261 68.4575L97.877 22.7743C98.5037 18.5265 95.7192 14.5752 91.6633 13.9735L18.2184 3.06232C17.8692 3.00843 17.52 2.9815 17.1708 2.9815C13.5268 2.9815 10.3036 5.79236 9.73056 9.68087L2.97967 55.3641C2.35293 59.6118 5.13745 63.5632 9.19335 64.1649L82.6383 75.0761C82.9875 75.13 83.3366 75.1569 83.6858 75.1569ZM17.1977 0C12.0853 0 7.65336 3.97832 6.87441 9.24981L0.123526 54.9331C-0.297285 57.7709 0.36527 60.5907 1.98584 62.8897C3.61536 65.2066 6.02383 66.7064 8.75462 67.1105L82.1995 78.0216C82.683 78.0935 83.1755 78.1294 83.659 78.1294C88.7714 78.1294 93.2123 74.1511 93.9912 68.8796L100.742 23.1964C101.611 17.3142 97.7337 11.8541 92.102 11.0189L18.6571 0.107774C18.1736 0.0359309 17.6812 0 17.1977 0ZM83.6858 73.9715C83.3993 73.9715 83.1038 73.9535 82.8084 73.9086L9.36346 62.9975C7.72499 62.755 6.28348 61.848 5.2986 60.456C4.30477 59.0461 3.89292 57.2949 4.15257 55.5437L10.9035 9.86048C11.378 6.61856 14.0819 4.17589 17.1708 4.17589C17.4574 4.17589 17.7528 4.19384 18.0483 4.23875L91.4932 15.1499C94.9044 15.6528 97.2413 19.0025 96.7131 22.6037L89.9622 68.2869C89.4876 71.5288 86.7837 73.9715 83.6858 73.9715Z" fill="#ED174B"/>
<path d="M99.6229 58.3813C99.4976 58.3813 99.3722 58.3813 99.2468 58.3543L94.1702 57.5999C93.8748 57.555 93.5883 57.4563 93.3197 57.3126C93.2122 57.2587 93.1316 57.1689 93.0779 57.0522L92.7198 56.3247C92.6661 56.217 92.6482 56.0912 92.6661 55.9745L95.0656 39.702C95.0835 39.5853 95.1372 39.4775 95.2178 39.3877L95.764 38.795C95.8445 38.7052 95.952 38.6424 96.0684 38.6244C96.2475 38.5795 96.4265 38.5615 96.6145 38.5615C96.7399 38.5615 96.8652 38.5705 96.9906 38.5885L102.067 39.3428C102.739 39.4416 103.339 39.8008 103.75 40.3486C104.162 40.8964 104.323 41.5789 104.225 42.2525L102.166 56.1811C101.978 57.4293 100.894 58.3723 99.6318 58.3723L99.6229 58.3813ZM99.6318 55.768L101.637 41.8753L97.4741 41.3005L95.4327 55.1393L99.6408 55.768H99.6318Z" fill="#F1BFD9"/>
<path d="M96.6145 39.1544C96.713 39.1544 96.8026 39.1544 96.901 39.1723L101.978 39.9267C103.052 40.0883 103.795 41.0941 103.634 42.1718L101.575 56.1003C101.431 57.0792 100.59 57.7887 99.6318 57.7887C99.5333 57.7887 99.4438 57.7887 99.3453 57.7707L94.2687 57.0164C94.0359 56.9804 93.8211 56.9086 93.6151 56.7918L93.257 56.0644L95.6565 39.792L96.2027 39.1993C96.337 39.1723 96.4802 39.1544 96.6145 39.1544ZM99.6229 56.3608C99.8915 56.3608 100.124 56.1632 100.16 55.8938L102.219 41.9652C102.264 41.6689 102.058 41.3905 101.763 41.3456L96.9727 40.6361L94.7522 55.6424L99.5423 56.3518C99.5423 56.3518 99.596 56.3518 99.6229 56.3518M96.6145 37.969C96.3907 37.969 96.1579 37.9959 95.9341 38.0408C95.7013 38.0947 95.4864 38.2204 95.3252 38.391L94.7791 38.9837C94.6179 39.1633 94.5105 39.3789 94.4747 39.6123L92.0751 55.8848C92.0393 56.1273 92.0751 56.3698 92.1826 56.5853L92.5407 57.3127C92.6482 57.5282 92.8183 57.7078 93.0332 57.8246C93.3555 58.0042 93.7136 58.1209 94.0807 58.1748L99.1573 58.9292C99.3095 58.9561 99.4707 58.9651 99.6229 58.9651C101.172 58.9651 102.515 57.8066 102.739 56.271L104.798 42.3424C105.049 40.6182 103.858 39.0107 102.139 38.7502L97.0622 37.9959C96.91 37.9689 96.7578 37.96 96.6056 37.96L96.6145 37.969ZM96.0952 54.6455L97.9665 41.9832L100.957 42.4232L99.0857 55.0856L96.0952 54.6455Z" fill="#ED174B"/>
<path d="M35.2836 58.8126C35.2209 58.8126 35.1582 58.8126 35.0956 58.7946C34.3882 58.6868 33.8958 58.0223 33.9943 57.3128L39.8946 17.3411C39.9841 16.7035 40.5392 16.2275 41.1839 16.2275C41.2466 16.2275 41.3092 16.2275 41.3719 16.2455C41.7211 16.2994 42.0255 16.479 42.2314 16.7574C42.4374 17.0358 42.5269 17.386 42.4732 17.7273L36.5729 57.699C36.4833 58.3366 35.9282 58.8126 35.2836 58.8126Z" fill="#F1BFD9"/>
<path d="M41.1839 16.8202C41.1839 16.8202 41.2555 16.8202 41.2914 16.8202C41.6764 16.8741 41.945 17.2423 41.8912 17.6284L35.9909 57.6001C35.9372 57.9593 35.6328 58.2108 35.2836 58.2108C35.2478 58.2108 35.212 58.2108 35.1762 58.2108C34.7912 58.1569 34.5226 57.7887 34.5763 57.4026L40.4766 17.4308C40.5303 17.0716 40.8347 16.8202 41.1839 16.8202ZM41.1839 15.6348C40.2527 15.6348 39.4469 16.3352 39.3126 17.2602L33.4123 57.2319C33.3407 57.7348 33.4661 58.2377 33.7615 58.6419C34.0659 59.046 34.5047 59.3154 35.006 59.3872C35.0956 59.4052 35.1941 59.4052 35.2836 59.4052C36.2148 59.4052 37.0206 58.7047 37.1549 57.7797L43.0552 17.808C43.1268 17.3051 43.0015 16.8022 42.706 16.3981C42.4016 15.994 41.9628 15.7246 41.4615 15.6527C41.3719 15.6348 41.2734 15.6348 41.1839 15.6348Z" fill="#ED174B"/>
<path d="M59.6906 61.5877C59.628 61.5877 59.5653 61.5877 59.5026 61.5698C58.7953 61.462 58.3028 60.7974 58.4013 60.088L64.1226 21.3645C64.2121 20.7269 64.7672 20.251 65.4118 20.251C65.4745 20.251 65.5372 20.251 65.5999 20.2689C66.3072 20.3767 66.7996 21.0412 66.7011 21.7507L60.9799 60.4742C60.8904 61.1118 60.3353 61.5877 59.6906 61.5877Z" fill="#F1BFD9"/>
<path d="M65.4029 20.8436C65.4029 20.8436 65.4745 20.8436 65.5104 20.8436C65.8954 20.8975 66.1639 21.2657 66.1102 21.6519L60.389 60.3753C60.3353 60.7345 60.0309 60.986 59.6817 60.986C59.6459 60.986 59.61 60.986 59.5742 60.986C59.1892 60.9321 58.9206 60.5639 58.9743 60.1777L64.6956 21.4543C64.7493 21.0951 65.0537 20.8436 65.4029 20.8436ZM65.4029 19.6582C64.4718 19.6582 63.6659 20.3587 63.5316 21.2837L57.8104 60.0071C57.7388 60.51 57.8641 61.0129 58.1596 61.417C58.464 61.8211 58.9027 62.0906 59.4041 62.1624C59.4937 62.1804 59.5921 62.1804 59.6817 62.1804C60.6128 62.1804 61.4186 61.4799 61.5529 60.5549L67.2742 21.8315C67.3458 21.3286 67.2205 20.8257 66.925 20.4215C66.6206 20.0174 66.1819 19.748 65.6805 19.6762C65.5909 19.6582 65.4925 19.6582 65.4029 19.6582Z" fill="#ED174B"/>
<path d="M20.3583 46.5365L19.5077 45.5846V45.405C19.4898 45.0906 19.3376 37.7896 25.8378 31.3776C25.1752 31.1171 24.3336 30.8837 23.3845 30.8837C22.1579 30.8837 21.0029 31.2698 19.9464 32.0421L19.6778 32.2397L17.9946 31.2159L19.3734 21.8673L21.2536 21.3555L22.7847 23.2503C23.492 22.9001 24.7634 22.4151 26.3213 22.4151C26.4914 22.4151 26.6704 22.4152 26.8406 22.4331C28.6402 22.5588 30.2428 23.3311 31.6217 24.7321C32.6692 24.3639 33.4571 24.1843 34.0122 24.1843C34.9523 24.1843 35.2657 24.6872 35.409 25.0554L35.4806 25.3607C35.6059 27.8483 34.0122 30.4975 32.1678 33.5598C29.8579 37.3944 27.2434 41.732 27.7986 46.0964L27.8254 46.3389L26.6615 47.4794L20.3404 46.5365H20.3583ZM25.3274 44.8302C25.3453 40.2412 27.8702 36.0384 30.1175 32.3026C31.3262 30.2999 32.4723 28.3961 32.911 26.8515C32.5349 26.9682 32.1141 27.1119 31.7202 27.2646L31.568 27.3184L30.4577 27.0311L30.3592 26.9053C29.2938 25.6301 28.0582 24.9386 26.6794 24.8309C26.563 24.8309 26.4466 24.8219 26.3391 24.8219C24.8171 24.8219 23.5546 25.5313 23.3308 25.7289L23.1696 25.8726L21.7192 25.7559L21.3252 25.2619L20.788 28.89C21.6117 28.6116 22.4623 28.4679 23.3398 28.4679C26.3123 28.4679 28.5327 30.0575 28.6223 30.1293L28.8193 30.273L28.873 31.8715L28.6939 32.0242C25.0857 35.1044 23.4382 38.5619 22.6951 40.9237C22.2474 42.3426 22.0594 43.546 21.9788 44.3183L25.3274 44.8122V44.8302Z" fill="#FCCBB5"/>
<path d="M21.0835 21.9123L22.6682 23.87C23.474 23.412 24.8081 22.9001 26.3302 22.9001C26.4913 22.9001 26.6525 22.9001 26.8137 22.9181C28.5865 23.0438 30.1533 23.8431 31.4963 25.2889C32.7408 24.8309 33.5198 24.6693 34.0301 24.6693C34.6569 24.6693 34.8538 24.9297 34.9702 25.235L35.024 25.4685C35.1314 27.7226 33.5735 30.309 31.7649 33.3084C29.4191 37.2059 26.7599 41.6332 27.333 46.1594L26.5182 46.9586L20.6179 46.0785L20.0091 45.396C20.0001 45.0727 19.8479 37.619 26.7152 31.234C25.981 30.8568 24.7902 30.3898 23.3935 30.3898C22.2474 30.3898 20.9581 30.7041 19.6688 31.6381L18.5497 30.9555L19.83 22.2536L21.0924 21.9123M20.1702 29.6803C21.2715 29.1595 22.3459 28.9709 23.3397 28.9709C26.1601 28.9709 28.2999 30.5155 28.3358 30.5335L28.3716 31.656C24.6738 34.8171 22.9816 38.3644 22.2206 40.7801C21.6565 42.5492 21.4953 43.9861 21.4506 44.7494L25.8377 45.405C25.6229 40.7352 28.2283 36.4067 30.5472 32.563C31.9798 30.1832 33.3407 27.9202 33.5735 26.169C33.0721 26.2768 32.2842 26.5282 31.55 26.8066L30.7442 26.6001C29.5892 25.2171 28.2373 24.4627 26.7152 24.346C26.5898 24.337 26.4645 24.328 26.3391 24.328C24.7007 24.328 23.3129 25.0824 22.9995 25.3608L21.9699 25.2799L21.0029 24.0766L20.1792 29.6803M21.4506 20.7808L20.8238 20.9514L19.5614 21.2927L18.9347 21.4633L18.8362 22.1099L17.5558 30.8119L17.4573 31.4674L18.0214 31.8087L19.1406 32.4912L19.7047 32.8325L20.2419 32.4463C21.2088 31.7458 22.2743 31.3866 23.3845 31.3866C23.9396 31.3866 24.4589 31.4764 24.9245 31.6021C18.8451 38.0321 18.9973 45.1176 19.0063 45.4319V45.7912L19.257 46.0606L19.8658 46.7431L20.1076 47.0125L20.4657 47.0664L26.366 47.9464L26.8495 48.0183L27.1987 47.677L28.0134 46.8778L28.3626 46.5365L28.2999 46.0426C27.7717 41.8488 30.3324 37.5921 32.5976 33.8293C34.4867 30.6951 36.1163 27.992 35.9909 25.4326V25.3518L35.973 25.271L35.9193 25.0375L35.9014 24.9567L35.8745 24.8848C35.5612 24.0945 34.9344 23.6994 34.0122 23.6994C33.4482 23.6994 32.714 23.8521 31.747 24.1754C30.3324 22.8283 28.6939 22.0829 26.8763 21.9572C26.6883 21.9392 26.5003 21.9392 26.3212 21.9392C24.9066 21.9392 23.7068 22.3164 22.9279 22.6577L21.8445 21.3196L21.4416 20.8167L21.4506 20.7808ZM23.3397 26.3935L23.6531 26.1061C23.859 25.9355 25.0051 25.3249 26.3302 25.3249C26.4287 25.3249 26.5361 25.3248 26.6346 25.3338C27.8791 25.4236 28.9983 26.0612 29.9742 27.2287L30.1802 27.4712L30.4846 27.552L31.2904 27.7585L31.5948 27.8393L31.8903 27.7226C31.9529 27.6957 32.0246 27.6687 32.0962 27.6418C31.55 28.935 30.6368 30.4527 29.6877 32.0332C27.5031 35.6703 25.0409 39.7474 24.835 44.2376L22.516 43.8963C22.6145 43.1689 22.8025 42.19 23.1517 41.0765C23.8769 38.7775 25.4886 35.4188 29.0073 32.4104L29.3743 32.0961L29.3564 31.6201L29.3206 30.4976L29.3027 30.0126L28.9177 29.7252C28.8192 29.6534 26.4824 27.9651 23.3397 27.9651C22.6772 27.9651 22.0236 28.0369 21.3879 28.1896L21.6744 26.2319L21.8893 26.2498L22.9189 26.3307L23.3397 26.3666V26.3935Z" fill="#EF512A"/>
<path d="M45.025 50.2006L44.1744 49.2486V49.069C44.1565 48.7547 44.0043 41.4536 50.5045 35.0417C49.842 34.7812 49.0003 34.5477 48.0513 34.5477C46.8246 34.5477 45.6697 34.9339 44.6132 35.7062L44.3445 35.9038L42.6613 34.88L44.0401 25.5314L45.9204 25.0195L47.4514 26.9144C48.1587 26.5642 49.4301 26.0792 50.988 26.0792C51.1581 26.0792 51.3372 26.0792 51.5073 26.0972C53.3069 26.2229 54.9096 26.9952 56.2884 28.3962C57.336 28.028 58.1239 27.8484 58.679 27.8484C59.6191 27.8484 59.9325 28.3513 60.0757 28.7195L60.1473 29.0338C60.2727 31.5213 58.679 34.1706 56.8346 37.2329C54.5246 41.0675 51.9102 45.405 52.4653 49.7695L52.4922 50.012L51.3282 51.1525L45.0071 50.2095L45.025 50.2006ZM49.9942 48.4943C50.0121 43.9053 52.5369 39.7025 54.7842 35.9666C55.993 33.964 57.139 32.0602 57.5777 30.5155C57.1927 30.6323 56.7809 30.776 56.3869 30.9286L56.2347 30.9825L55.1245 30.6951L55.026 30.5694C53.9605 29.2942 52.725 28.6027 51.3461 28.495C51.2297 28.495 51.1133 28.486 51.0059 28.486C49.4838 28.486 48.2214 29.1954 47.9975 29.393L47.8364 29.5367L46.3859 29.4199L45.992 28.926L45.4548 32.5541C46.2785 32.2757 47.1291 32.132 48.0065 32.132C51.0238 32.132 53.2711 33.7844 53.298 33.7934L53.486 33.9371L53.5397 35.5356L53.3607 35.6882C49.7524 38.7685 48.105 42.226 47.3619 44.5878C46.9142 46.0067 46.7262 47.2101 46.6456 47.9824L49.9942 48.4763V48.4943Z" fill="#FCCBB5"/>
<path d="M45.7502 25.5764L47.326 27.5341C48.1318 27.0761 49.4659 26.5642 50.988 26.5642C51.1491 26.5642 51.3103 26.5642 51.4715 26.5822C53.2442 26.7079 54.8111 27.5071 56.1541 28.953C57.3986 28.495 58.1776 28.3333 58.6879 28.3333C59.3147 28.3333 59.5116 28.5938 59.628 28.8991L59.6817 29.1326C59.7892 31.3867 58.2313 33.973 56.4227 36.9725C54.0769 40.87 51.4088 45.2973 51.9908 49.8234L51.176 50.6227L45.2757 49.7426L44.6669 49.0601C44.6579 48.7368 44.5057 41.2831 51.373 34.898C50.6388 34.5208 49.448 34.0539 48.0512 34.0539C46.9052 34.0539 45.6159 34.3682 44.3266 35.3021L43.2075 34.6196L44.4878 25.9176L45.7502 25.5764ZM44.837 33.3534C45.9382 32.8325 47.0127 32.6439 48.0065 32.6439C50.8268 32.6439 52.9667 34.1886 53.0025 34.2065L53.0383 35.3291C49.3405 38.4902 47.6484 42.0374 46.8873 44.4531C46.3232 46.2223 46.1621 47.6591 46.1173 48.4225L50.5045 49.078C50.2896 44.4082 52.8951 40.0797 55.214 36.2361C56.6465 33.8563 58.0075 31.5932 58.2403 29.842C57.7389 29.9498 56.951 30.2013 56.2168 30.4796L55.411 30.2731C54.256 28.8901 52.904 28.1358 51.3819 28.019C51.2566 28.01 51.1312 28.0011 51.0059 28.0011C49.3674 28.0011 47.9796 28.7554 47.6663 29.0338L46.6366 28.953L45.6696 27.7496L44.8459 33.3534M46.1173 24.4448L45.4906 24.6155L44.2281 24.9567L43.6014 25.1273L43.5029 25.7739L42.2226 34.4759L42.1241 35.1315L42.6882 35.4727L43.8073 36.1553L44.3714 36.4965L44.9086 36.1104C45.8756 35.4099 46.941 35.0507 48.0602 35.0507C48.6153 35.0507 49.1346 35.1405 49.6002 35.2662C43.5208 41.6962 43.673 48.7817 43.682 49.096V49.4552L43.9327 49.7246L44.5415 50.4071L44.7833 50.6766L45.1414 50.7304L51.0417 51.6105L51.5252 51.6824L51.8744 51.3411L52.6891 50.5419L53.0383 50.2006L52.9756 49.7067C52.4474 45.5128 55.0081 41.2561 57.2733 37.4933C59.1624 34.3592 60.792 31.6561 60.6666 29.0967V29.0159L60.6487 28.935L60.595 28.7015L60.5771 28.6207L60.5502 28.5489C60.2369 27.7586 59.6101 27.3635 58.6879 27.3635C58.1239 27.3635 57.3897 27.5161 56.4227 27.8394C55.0081 26.4924 53.3696 25.747 51.552 25.6213C51.364 25.6033 51.176 25.6033 50.9969 25.6033C49.5823 25.6033 48.3825 25.9805 47.6036 26.3217L46.5202 24.9837L46.1173 24.4808V24.4448ZM48.0065 30.0576L48.3199 29.7702C48.5258 29.5996 49.6718 28.9889 50.9969 28.9889C51.0954 28.9889 51.2029 28.9889 51.3013 28.9979C52.5459 29.0877 53.665 29.7253 54.641 30.8928L54.8469 31.1352L55.1513 31.216L55.9571 31.4226L56.2615 31.5034L56.557 31.3867C56.6197 31.3597 56.6913 31.3328 56.7629 31.3058C56.2168 32.599 55.3035 34.1257 54.3545 35.6973C52.1698 39.3343 49.7166 43.4114 49.5017 47.9016L47.1828 47.5604C47.2813 46.8329 47.4693 45.8541 47.8185 44.7405C48.5437 42.4415 50.1553 39.0829 53.674 36.0744L54.0411 35.7601L54.0232 35.2842L53.9874 34.1616L53.9695 33.6767L53.5845 33.3893C53.486 33.3175 51.1491 31.6291 48.0065 31.6291C47.3439 31.6291 46.6903 31.701 46.0546 31.8536L46.3412 29.8959L46.556 29.9139L47.5857 29.9947L48.0065 30.0306V30.0576Z" fill="#EF512A"/>
<path d="M69.6916 53.8729L68.8411 52.921V52.7414C68.8232 52.4271 68.6709 45.126 75.1711 38.714C74.5086 38.4536 73.667 38.2201 72.7179 38.2201C71.4913 38.2201 70.3363 38.6062 69.2798 39.3786L69.0112 39.5761L67.3279 38.5524L68.7067 29.2038L70.587 28.6919L72.118 30.5868C72.8253 30.2365 74.0967 29.7516 75.6546 29.7516C75.8247 29.7516 76.0038 29.7516 76.1739 29.7695C77.9736 29.8953 79.5762 30.6676 80.9551 32.0685C82.0026 31.7003 82.7905 31.5207 83.3456 31.5207C84.2857 31.5207 84.5991 32.0236 84.7423 32.3918L84.814 32.6971C84.9393 35.1847 83.3456 37.8339 81.5012 40.8962C79.1912 44.7309 76.5768 49.0684 77.1319 53.4329L77.1588 53.6753L75.9948 54.8158L69.6737 53.8729H69.6916ZM74.6608 52.1576C74.6787 47.5687 77.2035 43.3658 79.4509 39.63C80.6596 37.6274 81.8056 35.7235 82.2443 34.1789C81.8683 34.2957 81.4475 34.4393 81.0535 34.592L80.9013 34.6459L79.7911 34.3585L79.6926 34.2328C78.6272 32.9576 77.3916 32.2661 76.0127 32.1583C75.8964 32.1583 75.78 32.1493 75.6725 32.1493C74.1505 32.1493 72.888 32.8588 72.6642 33.0564L72.503 33.2L71.0526 33.0833L70.6586 32.5894L70.1214 36.2175C70.9451 35.9391 71.7957 35.7954 72.6731 35.7954C75.6457 35.7954 77.8661 37.3849 77.9556 37.4568L78.1526 37.6004L78.2063 39.1989L78.0273 39.3516C74.419 42.4319 72.7716 45.8893 72.0285 48.2512C71.5808 49.6701 71.3928 50.8735 71.3122 51.6458L74.6608 52.1397V52.1576Z" fill="#FCCBB5"/>
<path d="M70.4169 29.2399L71.9927 31.1977C72.7985 30.7397 74.1326 30.2278 75.6546 30.2278C75.8158 30.2278 75.977 30.2278 76.1381 30.2457C77.9109 30.3715 79.4778 31.1707 80.8208 32.6166C82.0653 32.1586 82.8442 31.9969 83.3546 31.9969C83.9813 31.9969 84.1783 32.2573 84.2947 32.5627L84.3484 32.7962C84.4558 35.0502 82.898 37.6366 81.0983 40.636C78.7525 44.5335 76.0844 48.9609 76.6664 53.487L75.8516 54.2862L69.9513 53.4062L69.3425 52.7237C69.3335 52.4004 69.1813 44.9466 76.0486 38.5616C75.3144 38.1844 74.1236 37.7174 72.7269 37.7174C71.5808 37.7174 70.2916 38.0317 69.0023 38.9657L67.8831 38.2832L69.1724 29.5812L70.4348 29.2399M69.5036 37.0169C70.6049 36.4961 71.6793 36.3075 72.6732 36.3075C75.4935 36.3075 77.6333 37.8521 77.6692 37.8701L77.705 38.9926C74.0072 42.1537 72.315 45.701 71.554 48.1167C70.9899 49.8858 70.8287 51.3227 70.784 52.086L75.1712 52.7416C74.9563 48.0718 77.5617 43.7433 79.8807 39.8997C81.3132 37.5199 82.6741 35.2568 82.9069 33.5056C82.4055 33.6134 81.6176 33.8648 80.8834 34.1432L80.0776 33.9367C78.9226 32.5537 77.5707 31.7993 76.0486 31.6826C75.9232 31.6736 75.7979 31.6646 75.6726 31.6646C74.0341 31.6646 72.6463 32.419 72.3329 32.6974L71.3033 32.6166L70.3363 31.4132L69.5126 37.0169M70.784 28.1084L70.1573 28.279L68.8948 28.6203L68.2681 28.7909L68.1696 29.4375L66.8803 38.1395L66.7818 38.7951L67.3459 39.1363L68.465 39.8188L69.0291 40.1601L69.5663 39.7739C70.5333 39.0735 71.5987 38.7142 72.7179 38.7142C73.273 38.7142 73.7923 38.804 74.2579 38.9298C68.1785 45.3597 68.3308 52.4453 68.3397 52.7596V53.1188L68.5904 53.3882L69.1992 54.0707L69.441 54.3401L69.7991 54.394L75.6994 55.2741L76.1829 55.3459L76.5321 55.0047L77.3469 54.2054L77.696 53.8642L77.6333 53.3702C77.1051 49.1854 79.6658 44.9197 81.931 41.1569C83.8202 38.0227 85.4497 35.3197 85.3244 32.7602V32.6794L85.3064 32.5986L85.2617 32.3651L85.2438 32.2843L85.2169 32.2035C84.9035 31.4132 84.2768 31.0181 83.3546 31.0181C82.7905 31.0181 82.0563 31.1707 81.0894 31.494C79.6747 30.147 78.0363 29.4016 76.2187 29.2759C76.0307 29.2579 75.8427 29.2579 75.6636 29.2579C74.249 29.2579 73.0492 29.6351 72.2703 29.9763L71.1869 28.6382L70.784 28.1353V28.1084ZM72.6732 33.7211L72.9865 33.4338C73.1925 33.2632 74.3385 32.6525 75.6636 32.6525C75.7621 32.6525 75.8695 32.6525 75.968 32.6615C77.2125 32.7513 78.3317 33.3889 79.3077 34.5563L79.5136 34.7988L79.818 34.8796L80.6238 35.0862L80.9282 35.167L81.2237 35.0503C81.2863 35.0233 81.358 34.9964 81.4296 34.9694C80.8835 36.2626 79.9702 37.7893 79.0211 39.3608C76.8365 42.9979 74.3833 47.075 74.1684 51.5652L71.8494 51.2239C71.9479 50.4965 72.1359 49.5177 72.4851 48.4041C73.2104 46.1051 74.822 42.7464 78.3407 39.738L78.7078 39.4237L78.6899 38.9477L78.654 37.8252L78.6361 37.3492L78.2511 37.0618C78.2511 37.0618 75.8337 35.3017 72.6732 35.3017C72.0106 35.3017 71.357 35.3735 70.7213 35.5262L71.0078 33.5685L71.2227 33.5864L72.2524 33.6673L72.6732 33.7032V33.7211Z" fill="#EF512A"/>
<path d="M103.195 51.2242C102.658 51.2242 102.21 51.1703 101.924 51.1344C101.664 51.0985 101.503 51.0625 101.476 51.0536C101.163 50.9817 100.903 50.7841 100.733 50.5147C100.563 50.2363 100.509 49.913 100.581 49.5987C100.706 49.0509 101.199 48.6648 101.763 48.6648C101.852 48.6648 101.942 48.6737 102.031 48.6917C102.031 48.6917 102.524 48.7995 103.195 48.7995C103.867 48.7995 104.888 48.6827 105.702 48.1259C106.553 47.5422 107.09 46.5454 107.296 45.1624L110.322 24.6602C110.412 24.0675 110.922 23.6274 111.513 23.6274C111.576 23.6274 111.629 23.6274 111.692 23.6364C112.355 23.7352 112.811 24.3548 112.713 25.0104L109.687 45.5127C109.382 47.5961 108.496 49.1497 107.054 50.1286C105.729 51.0266 104.225 51.2152 103.195 51.2152V51.2242Z" fill="#FCCBB5"/>
<path d="M111.513 24.1303C111.513 24.1303 111.585 24.1303 111.621 24.1303C112.006 24.1842 112.274 24.5524 112.22 24.9386L109.194 45.4408C108.908 47.3806 108.093 48.8264 106.777 49.7244C105.586 50.5327 104.225 50.7302 103.195 50.7302C102.703 50.7302 102.282 50.6853 101.996 50.6404C101.763 50.6045 101.611 50.5686 101.593 50.5686C101.208 50.4788 100.975 50.0926 101.064 49.7065C101.145 49.3742 101.44 49.1587 101.763 49.1587C101.817 49.1587 101.87 49.1587 101.924 49.1766C101.933 49.1766 102.47 49.3024 103.204 49.3024C104.019 49.3024 105.093 49.1587 105.989 48.539C106.965 47.8745 107.565 46.7609 107.797 45.2342L110.824 24.732C110.877 24.3728 111.182 24.1213 111.531 24.1213M111.513 23.1335C110.671 23.1335 109.955 23.7621 109.83 24.5883L106.804 45.0906C106.625 46.3298 106.159 47.2189 105.425 47.7128C104.717 48.1978 103.822 48.2966 103.195 48.2966C102.569 48.2966 102.139 48.1978 102.139 48.1978C102.014 48.1708 101.888 48.1529 101.763 48.1529C100.966 48.1529 100.285 48.6917 100.106 49.473C99.999 49.913 100.08 50.371 100.312 50.7662C100.554 51.1523 100.93 51.4307 101.369 51.5295C101.405 51.5295 101.575 51.5744 101.861 51.6193C102.166 51.6642 102.64 51.7181 103.204 51.7181C104.306 51.7181 105.917 51.5115 107.341 50.5417C108.899 49.482 109.857 47.8116 110.188 45.5845L113.214 25.0822C113.277 24.6332 113.169 24.1842 112.901 23.816C112.632 23.4478 112.229 23.2143 111.782 23.1425C111.701 23.1335 111.612 23.1245 111.531 23.1245L111.513 23.1335Z" fill="#EF512A"/>
<path d="M112.444 26.1239C112.077 26.1239 111.71 26.0969 111.343 26.0431C109.364 25.7467 107.618 24.696 106.419 23.0795C105.219 21.4631 104.726 19.4784 105.022 17.4937C105.559 13.8297 108.755 11.0728 112.435 11.0728C112.802 11.0728 113.169 11.0997 113.536 11.1536C117.628 11.7643 120.466 15.5989 119.858 19.7029C119.32 23.3669 116.124 26.1239 112.444 26.1239ZM112.435 13.4885C109.937 13.4885 107.77 15.3564 107.403 17.844C107.206 19.191 107.538 20.5381 108.352 21.6337C109.167 22.7293 110.349 23.4388 111.692 23.6453C111.943 23.6812 112.193 23.6992 112.444 23.6992C114.942 23.6992 117.109 21.8313 117.476 19.3437C117.673 17.9966 117.342 16.6496 116.527 15.554C115.712 14.4584 114.53 13.7489 113.187 13.5424C112.937 13.5064 112.686 13.4885 112.435 13.4885Z" fill="#FCCBB5"/>
<path d="M112.435 11.5666C112.775 11.5666 113.116 11.5936 113.465 11.6475C117.288 12.2132 119.938 15.7964 119.374 19.631C118.855 23.1154 115.864 25.6299 112.444 25.6299C112.104 25.6299 111.764 25.603 111.415 25.5491C107.591 24.9834 104.941 21.4002 105.505 17.5656C106.025 14.0812 109.015 11.5666 112.435 11.5666ZM112.444 24.1931C115.166 24.1931 117.557 22.1905 117.959 19.4155C118.407 16.3622 116.303 13.5064 113.259 13.0574C112.981 13.0125 112.704 12.9945 112.435 12.9945C109.713 12.9945 107.323 14.9972 106.92 17.7721C106.472 20.8254 108.576 23.6812 111.62 24.1302C111.898 24.1751 112.167 24.1931 112.444 24.1931ZM112.435 10.5698C108.505 10.5698 105.102 13.5154 104.529 17.4129C103.885 21.7863 106.911 25.8724 111.271 26.528C111.656 26.5819 112.059 26.6178 112.444 26.6178C116.375 26.6178 119.777 23.6722 120.35 19.7747C120.995 15.4013 117.968 11.3152 113.608 10.6596C113.214 10.6058 112.82 10.5698 112.435 10.5698ZM112.444 23.2052C112.22 23.2052 111.997 23.1873 111.764 23.1514C110.555 22.9718 109.481 22.3252 108.755 21.3373C108.021 20.3495 107.717 19.1371 107.896 17.9158C108.227 15.6707 110.179 13.9824 112.435 13.9824C112.659 13.9824 112.892 14.0003 113.116 14.0363C114.324 14.2159 115.399 14.8625 116.124 15.8503C116.849 16.8381 117.163 18.0505 116.984 19.2718C116.652 21.5169 114.7 23.2052 112.444 23.2052Z" fill="#EF512A"/>
</svg>
