<svg width="71" height="66" viewBox="0 0 71 66" fill="none" xmlns="http://www.w3.org/2000/svg">
<path d="M54.5166 64.7305C54.4181 64.7305 54.3286 64.7125 54.2301 64.6855C42.9309 61.1652 37.8722 56.8906 35.616 53.936L33.8163 51.6999C32.348 52.58 30.8617 53.469 30.7363 53.5499C27.8712 55.6333 22.2575 58.3813 11.8536 59.6206C11.8357 59.6206 11.764 59.6206 11.7461 59.6206C11.4148 59.6206 11.1015 59.441 10.9314 59.1626C10.7344 58.8483 10.7433 58.4352 10.9493 58.1299C11.1462 57.8335 15.614 51.2329 24.6659 48.009C17.2883 46.3745 3.40154 42.4052 0.500629 35.2209C0.393188 34.9425 0.411101 34.6282 0.563309 34.3677C0.715517 34.1073 0.984123 33.9367 1.27959 33.9008C1.28854 33.9008 2.36294 33.784 4.10886 33.784C8.01255 33.784 15.2559 34.3678 22.159 38.0407C17.6106 32.0508 11.2806 21.7054 10.3584 9.60881C10.3315 9.22266 10.5374 8.85446 10.8866 8.67485C11.0209 8.61199 11.1642 8.57607 11.3164 8.57607C11.5492 8.57607 11.773 8.65689 11.9431 8.80956C12.0684 8.91732 23.9228 19.2807 30.5304 31.7275C30.217 25.0371 31.7212 18.0683 33.1269 13.183C35.1235 6.25913 37.532 1.18521 37.6305 0.969676C37.7916 0.637401 38.1319 0.421875 38.49 0.421875C38.9645 0.457797 39.3048 0.736186 39.4122 1.11336L40.0031 3.18783C43.9785 15.6526 42.8682 26.4291 40.9074 33.8648C49.6639 22.8279 63.2104 14.7815 63.3537 14.7007C63.4969 14.6109 63.667 14.566 63.8371 14.566C64.0431 14.566 64.249 14.6378 64.4191 14.7636C64.7325 14.997 64.8668 15.3922 64.7683 15.7694C61.6704 27.4978 53.5676 36.5141 48.0075 41.57C51.365 40.5103 55.0091 39.9715 58.868 39.9715C64.9026 39.9715 69.254 41.2916 69.2898 41.3096C69.5763 41.3994 69.8001 41.6149 69.9075 41.8933C70.015 42.1717 69.9792 42.486 69.818 42.7375C65.6636 49.2662 51.2934 50.6402 43.7367 50.9006C52.0455 55.7231 55.2508 63.0332 55.3851 63.3565C55.5284 63.6977 55.4657 64.1018 55.215 64.3802C55.0359 64.5778 54.7763 64.6945 54.5077 64.6945L54.5166 64.7305ZM34.0402 49.4907C34.3267 49.4907 34.6042 49.6254 34.7833 49.8499L37.0575 52.6698C40.5582 57.3037 47.8195 60.4468 52.5021 62.0992C50.6756 59.1446 46.5839 53.8732 39.3495 50.9186C38.9198 50.739 38.678 50.29 38.7765 49.832C38.866 49.3919 39.26 49.0686 39.7166 49.0686C39.7614 49.0686 40.0031 49.0686 40.406 49.0686C43.9785 49.0686 61.6525 48.7633 67.3379 42.8273C65.6994 42.4681 62.6105 41.9203 58.859 41.9203C52.3768 41.9203 46.6645 43.4828 41.8744 46.5541C41.7222 46.6529 41.5431 46.7068 41.3551 46.7068C41.0328 46.7068 40.7373 46.5452 40.5582 46.2847C40.2717 45.8537 40.3792 45.261 40.8 44.9646C44.641 42.2436 57.2922 32.41 62.1808 17.7361C56.9609 21.1486 44.068 30.3535 38.302 41.2557C38.1319 41.57 37.8095 41.7676 37.4604 41.7676C37.3171 41.7676 37.1649 41.7317 37.0395 41.6688C36.574 41.4353 36.377 40.8785 36.5919 40.4026C38.4094 36.4422 43.88 22.2173 38.302 4.22058C35.8846 10.0578 30.4588 25.073 33.0821 36.6847C33.1985 37.2056 33.4671 38.1036 33.682 38.831C33.8342 39.3429 33.9596 39.7739 34.0222 40.0254C34.1476 40.5283 33.8611 41.0402 33.3597 41.1839C33.2702 41.2108 33.1896 41.2198 33.1 41.2198C32.6792 41.2198 32.3121 40.9504 32.1868 40.5552C32.0346 40.0883 31.5332 38.7502 31.2825 38.1036L31.1661 37.8072C27.0117 26.6267 16.769 16.0567 12.534 12.0066C14.6829 27.3181 25.3285 39.307 28.6144 42.6836C28.9725 43.0518 28.9725 43.6535 28.6144 44.0217C28.4353 44.2103 28.1936 44.309 27.9339 44.309C27.6922 44.309 27.4594 44.2192 27.2803 44.0486C19.5535 36.8104 9.46301 35.7238 4.12677 35.7238C3.67014 35.7238 3.26723 35.7238 2.91805 35.7418C7.93197 43.3661 28.7218 46.8774 28.9367 46.9134C29.3933 46.9852 29.7246 47.3803 29.7425 47.8383C29.7515 48.3053 29.4291 48.7094 28.9815 48.7992C21.3263 50.3888 16.3482 54.8341 14.0113 57.4024C22.5171 56.1003 27.1908 53.7654 29.6261 51.9963C29.8141 51.8616 31.8555 50.6402 33.5477 49.6344C33.6999 49.5446 33.8611 49.4997 34.0402 49.4997V49.4907Z" fill="#DAE0CE"/>
<path d="M38.499 0.898039C38.499 0.898039 38.5258 0.898039 38.5437 0.898039C38.7586 0.916 38.9287 1.05969 38.9914 1.26623L39.5823 3.34071C44.077 17.413 41.946 29.321 39.8151 36.1012C48.3567 24.1752 63.4253 15.2128 63.5954 15.114C63.676 15.0691 63.7655 15.0422 63.8551 15.0422C63.9625 15.0422 64.0699 15.0781 64.1595 15.1499C64.3206 15.2756 64.3923 15.4912 64.3475 15.6887C61.0079 28.3331 51.9201 37.7625 45.9661 42.8185C50.4786 41.0134 55.027 40.4567 58.877 40.4567C64.7952 40.4567 69.0928 41.7498 69.1734 41.7768C69.3256 41.8217 69.451 41.9384 69.5047 42.0911C69.5584 42.2438 69.5405 42.4054 69.4599 42.5401C65.0459 49.482 48.3298 50.4339 42.0714 50.5416C51.3382 55.2384 54.8479 63.222 55.0001 63.5812C55.0807 63.7608 55.0449 63.9763 54.9106 64.12C54.8121 64.2278 54.6778 64.2906 54.5346 64.2906C54.4808 64.2906 54.4361 64.2906 54.3823 64.2637C43.2085 60.7793 38.2125 56.5854 35.992 53.6668C35.992 53.6578 35.9741 53.6489 35.9652 53.6399L33.9417 51.1254C32.5629 51.9516 30.6647 53.0831 30.5125 53.1909C27.6832 55.2474 22.1411 57.9594 11.8357 59.1898C11.8178 59.1898 11.7999 59.1898 11.782 59.1898C11.6029 59.1898 11.4417 59.1 11.3432 58.9473C11.2358 58.7767 11.2448 58.5611 11.3522 58.3995C11.5671 58.0762 16.4646 50.856 26.4298 47.9373C20.2967 46.6891 4.02829 42.7107 0.948316 35.0774C0.885642 34.9337 0.903557 34.7631 0.984138 34.6284C1.06472 34.4937 1.20797 34.4039 1.36018 34.3769C1.39599 34.3769 2.43458 34.2602 4.13573 34.2602C8.33489 34.2602 16.5899 34.9427 23.9944 39.6394C19.0611 33.5867 11.8267 22.6485 10.8419 9.60902C10.8239 9.40247 10.9403 9.2049 11.1194 9.1151C11.191 9.07918 11.2716 9.06121 11.3522 9.06121C11.4686 9.06121 11.5939 9.10612 11.6835 9.18694C11.8267 9.31267 24.9345 20.7986 31.193 34.0177C30.3693 26.8334 31.9719 18.9756 33.5925 13.3538C35.5891 6.412 38.0513 1.25725 38.0692 1.21235C38.1587 1.03274 38.3378 0.924979 38.5258 0.924979M33.109 40.762C32.8941 40.762 32.6882 40.6273 32.6255 40.4028C32.4733 39.9268 31.9809 38.6247 31.7123 37.9332L31.5959 37.6368C27.0655 25.4414 15.3812 14.0004 11.9521 10.8124C13.698 26.8334 24.854 39.4329 28.31 42.9802C28.5069 43.1777 28.5069 43.492 28.31 43.6986C28.2115 43.7974 28.0772 43.8513 27.9429 43.8513C27.8175 43.8513 27.6922 43.8063 27.5937 43.7165C19.6073 36.2269 9.0243 35.275 4.13573 35.275C3.29411 35.275 2.62261 35.3019 2.16598 35.3289C6.5263 43.5998 28.6502 47.3177 28.874 47.3536C29.1158 47.3895 29.2948 47.6051 29.3038 47.8475C29.3038 48.09 29.1426 48.3055 28.9009 48.3594C20.0728 50.2004 14.7366 55.7772 12.9011 58.0133C22.2217 56.7471 27.2803 54.2595 29.9037 52.3557C30.1007 52.221 32.9299 50.5327 33.7895 50.0118C33.8701 49.9669 33.9596 49.94 34.0491 49.94C34.2013 49.94 34.3446 50.0028 34.4431 50.1285L36.7172 52.9484C36.7172 52.9484 36.7441 52.9843 36.762 53.0023C40.4956 57.9505 48.4194 61.2193 53.5139 62.9076C52.1171 60.3662 47.8732 53.9093 39.5376 50.4967C39.3137 50.4069 39.1794 50.1645 39.2332 49.922C39.2779 49.6885 39.4928 49.5179 39.7345 49.5179H39.7435C39.7435 49.5179 40.0031 49.5179 40.424 49.5179C44.2471 49.5179 62.9687 49.1676 68.1796 42.5581C66.756 42.2078 63.2731 41.4714 58.877 41.4714C53.7735 41.4714 47.4434 42.4593 41.6506 46.1772C41.561 46.2311 41.4715 46.258 41.373 46.258C41.2119 46.258 41.0507 46.1772 40.9522 46.0335C40.8 45.8 40.8537 45.4947 41.0776 45.333C45.1156 42.4683 58.3845 32.1229 63.0045 16.6856C58.868 19.3078 44.2113 29.1773 37.926 41.0494C37.8364 41.22 37.6574 41.3188 37.4783 41.3188C37.4067 41.3188 37.3261 41.3008 37.2544 41.2649C37.0038 41.1392 36.9053 40.8428 37.0217 40.5914C38.875 36.5681 44.4709 22.002 38.6154 3.63706L38.4005 2.89169C36.386 7.54353 29.8142 24.1303 32.6703 36.7837C32.7867 37.3135 33.0553 38.2295 33.2791 38.9569C33.4224 39.4509 33.5477 39.8819 33.6104 40.1244C33.682 40.3938 33.5209 40.6632 33.2523 40.744C33.2075 40.753 33.1627 40.762 33.109 40.762ZM38.499 0C37.9618 0 37.4693 0.314313 37.2365 0.799254C37.2097 0.853137 34.7206 6.07074 32.7061 13.0844C31.4168 17.5567 30.0469 23.7711 30.0469 29.9406C23.2871 18.1583 12.3639 8.60321 12.2475 8.49545C11.9968 8.27094 11.6656 8.15419 11.3253 8.15419C11.1104 8.15419 10.8866 8.20808 10.6986 8.30686C10.1882 8.56729 9.88383 9.09714 9.9286 9.67188C10.7792 20.9243 16.2676 30.6591 20.7085 36.8376C14.2442 33.8561 7.75292 33.3532 4.11784 33.3532C2.3182 33.3532 1.25273 33.4789 1.24378 33.4789C0.814017 33.5328 0.420068 33.7842 0.196232 34.1614C-0.0276035 34.5386 -0.0634226 34.9966 0.106692 35.4097C2.90016 42.3246 15.4618 46.3119 23.1528 48.1349C14.8888 51.5564 10.7792 57.6182 10.5912 57.8966C10.2867 58.3546 10.2778 58.9473 10.5643 59.4143C10.815 59.8274 11.2806 60.0878 11.7641 60.0878C11.8178 60.0878 11.8715 60.0878 11.9252 60.0878C22.4276 58.8305 28.113 56.0466 31.0318 53.9273C31.1393 53.8554 32.2674 53.1819 33.7268 52.3018L35.2668 54.2146C35.2668 54.2146 35.2847 54.2326 35.2936 54.2505C37.5947 57.259 42.725 61.5875 54.1048 65.1348C54.2391 65.1797 54.3823 65.1976 54.5256 65.1976C54.9195 65.1976 55.3046 65.027 55.5732 64.7307C55.9402 64.3265 56.0387 63.7338 55.8238 63.2309C55.6895 62.9166 52.7528 56.2083 45.2499 51.3409C53.1468 50.9458 66.2188 49.3293 70.2209 43.034C70.4537 42.6658 70.5074 42.1989 70.3552 41.7947C70.203 41.3816 69.8628 41.0583 69.451 40.9326C69.4062 40.9236 65.019 39.5766 58.8949 39.5766C55.6716 39.5766 52.5917 39.9448 49.6997 40.6812C55.1881 35.4187 62.3509 26.8424 65.2339 15.9312C65.3772 15.3744 65.1802 14.7907 64.7236 14.4494C64.4818 14.2609 64.1774 14.1621 63.873 14.1621C63.6223 14.1621 63.3805 14.2249 63.1656 14.3596C63.0313 14.4405 50.6398 21.7954 41.8476 32.1139C43.5129 24.732 44.1486 14.6291 40.4687 3.08925L39.8868 1.04173C39.7256 0.484941 39.2332 0.071842 38.6512 0.0269401C38.6243 0.0269401 38.5617 0.0269401 38.5348 0.0269401L38.499 0ZM33.109 41.66C33.2433 41.66 33.3687 41.6421 33.494 41.6062C34.2282 41.3996 34.658 40.6453 34.4699 39.9089C34.4073 39.6664 34.2819 39.2353 34.1387 38.7414L34.1207 38.6965C33.9059 37.9781 33.6462 37.089 33.5298 36.5861C31.0945 25.8096 35.6876 12.0247 38.2483 5.56784C43.1637 22.8461 37.9618 36.3796 36.1979 40.2052C35.8756 40.9057 36.1621 41.7139 36.8515 42.0552C37.0485 42.154 37.2634 42.1989 37.4783 42.1989C37.9976 42.1989 38.4721 41.9115 38.7228 41.4535C44.068 31.3505 55.609 22.7024 61.3392 18.8409C56.2088 32.6886 44.265 41.9743 40.5672 44.5876C39.9494 45.0277 39.7883 45.8988 40.2091 46.5274C40.4687 46.9136 40.9074 47.1471 41.373 47.1471C41.6416 47.1471 41.9013 47.0662 42.1341 46.9225C46.8525 43.8962 52.4842 42.3605 58.877 42.3605C62.0196 42.3605 64.6877 42.7467 66.4157 43.0789C63.9983 45.1175 59.638 46.6801 53.6392 47.614C47.9538 48.5121 42.5011 48.6019 40.424 48.6019C40.03 48.6019 39.7972 48.6019 39.7614 48.6019C39.063 48.6019 38.49 49.0778 38.3557 49.7244C38.2214 50.389 38.5706 51.0535 39.1973 51.314C45.4737 53.8823 49.3505 58.2199 51.4098 61.2014C46.8167 59.4771 40.5762 56.5405 37.4872 52.4455C37.4604 52.4096 37.4335 52.3736 37.4067 52.3467L35.1504 49.5538C34.8818 49.2215 34.4878 49.0329 34.0581 49.0329C33.8074 49.0329 33.5567 49.1048 33.3418 49.2305C30.8796 50.6943 29.5545 51.4936 29.3933 51.6103C27.1192 53.2627 22.8753 55.409 15.2828 56.7291C17.8434 54.1787 22.4455 50.6045 29.0889 49.2215C29.7515 49.0868 30.226 48.4941 30.2081 47.8116C30.1902 47.1291 29.6978 46.5633 29.0262 46.4466C23.3498 45.5126 8.54977 41.9294 3.81341 36.1461C3.92085 36.1461 4.0283 36.1461 4.14469 36.1461C9.40931 36.1461 19.3745 37.2147 26.9938 44.3452C27.2535 44.5876 27.5937 44.7224 27.9518 44.7224C28.3368 44.7224 28.686 44.5697 28.9546 44.3003C29.4829 43.7614 29.4829 42.8724 28.9546 42.3336C25.7941 39.0827 15.7394 27.7763 13.2056 13.2281C17.8434 17.7902 26.9312 27.6057 30.7632 37.9242L30.8796 38.2295C31.1214 38.8671 31.6317 40.1962 31.775 40.6542C31.963 41.238 32.5002 41.6331 33.109 41.6331V41.66Z" fill="#38B14A"/>
<path d="M31.4526 63.9314C31.2288 63.9314 31.0139 63.8506 30.8348 63.7069C30.5573 63.4824 30.4409 63.0962 30.5215 62.737C30.5483 62.6292 30.5841 62.5304 30.6468 62.4406C30.9333 61.6593 32.6703 56.1813 33.0643 50.7841C33.1001 50.2812 33.5209 49.895 34.0223 49.895C34.6132 49.9399 35.0161 50.3979 34.9713 50.9278C34.7385 54.1068 34.0581 57.2859 33.5209 59.3873C33.2075 60.6266 32.921 61.5965 32.733 62.1982C32.339 63.4734 32.2763 63.6709 31.8376 63.8595C31.7212 63.9134 31.5959 63.9314 31.4616 63.9314H31.4526Z" fill="#DAE0CE"/>
<path d="M34.0133 50.3531C34.0133 50.3531 34.0402 50.3531 34.0491 50.3531C34.3267 50.3711 34.5415 50.6225 34.5236 50.9009C34.2908 54.053 33.6104 57.1962 33.0821 59.2796C32.7688 60.5099 32.4823 61.4708 32.3032 62.0635C31.9092 63.3388 31.8913 63.3477 31.6585 63.4465C31.5959 63.4735 31.5242 63.4914 31.4616 63.4914C31.3452 63.4914 31.2288 63.4465 31.1303 63.3747C30.987 63.249 30.9244 63.0424 30.9602 62.8538C30.9691 62.7999 30.996 62.7461 31.0228 62.6922C31.3183 61.9109 33.1 56.3161 33.5029 50.8291C33.5209 50.5597 33.7447 50.3531 34.0133 50.3531ZM34.0133 49.4551C33.2791 49.4551 32.6613 50.0298 32.6076 50.7572C32.2316 55.912 30.5573 61.3272 30.2081 62.306C30.1544 62.4138 30.1096 62.5305 30.0827 62.6473C29.9664 63.1592 30.1454 63.7159 30.5483 64.0572C30.799 64.2637 31.1213 64.3805 31.4437 64.3805C31.6317 64.3805 31.8197 64.3446 31.9898 64.2727C32.6255 64.0033 32.733 63.6441 33.1448 62.333C33.3328 61.7313 33.6193 60.7524 33.9417 59.5041C34.4789 57.3848 35.1683 54.1877 35.4011 50.9728C35.4548 50.2005 34.8728 49.5179 34.1028 49.4641C34.0849 49.4641 34.0222 49.4641 34.0043 49.4641L34.0133 49.4551Z" fill="#38B14A"/>
</svg>
