<svg width="274" height="274" viewBox="0 0 274 274" fill="none" xmlns="http://www.w3.org/2000/svg">
<path d="M136.636 223.66C89.0559 223.66 50.0259 184.95 49.6359 137.37C49.2359 89.3899 87.9459 50.0299 135.926 49.6299H136.666C184.246 49.6299 223.266 88.3399 223.666 135.92C224.066 183.9 185.356 223.26 137.376 223.66H136.636ZM136.006 60.2399C93.8759 60.5899 59.8959 95.1499 60.2459 137.28C60.5959 179.06 94.8659 213.04 136.636 213.04H137.286C179.416 212.69 213.396 178.13 213.046 136C212.696 94.2199 178.426 60.2399 136.656 60.2399H136.006Z" fill="#F1BFD9"/>
<path d="M136.656 51.97C183.026 51.97 220.926 89.49 221.316 135.94C221.706 182.63 184.036 220.93 137.356 221.32C137.116 221.32 136.876 221.32 136.636 221.32C90.2662 221.32 52.3662 183.8 51.9762 137.35C51.5862 90.66 89.2562 52.36 135.936 51.97C136.176 51.97 136.416 51.97 136.656 51.97ZM136.636 215.38C136.856 215.38 137.076 215.38 137.306 215.38C180.726 215.02 215.746 179.4 215.386 135.98C215.026 92.79 179.776 57.89 136.656 57.89C136.436 57.89 136.216 57.89 135.986 57.89C92.5662 58.25 57.5362 93.87 57.9062 137.29C58.2662 180.48 93.5262 215.38 136.636 215.38ZM136.666 47.29C136.416 47.29 136.156 47.29 135.906 47.29C112.076 47.49 89.7262 56.98 72.9662 74.02C56.2162 91.06 47.0962 113.56 47.2962 137.39C47.4962 161.09 56.8962 183.35 73.7662 200.08C90.6262 216.8 112.956 226 136.636 226C136.886 226 137.146 226 137.396 226C186.666 225.59 226.416 185.17 226.006 135.9C225.806 112.2 216.406 89.94 199.536 73.21C182.676 56.49 160.346 47.29 136.676 47.29H136.666ZM136.636 210.7C96.1462 210.7 62.9262 177.75 62.5862 137.26C62.4262 117.51 69.9762 98.86 83.8662 84.74C97.7562 70.62 116.276 62.75 136.026 62.59C136.236 62.59 136.446 62.59 136.656 62.59C177.146 62.59 210.366 95.54 210.706 136.03C210.866 155.78 203.316 174.43 189.426 188.55C175.536 202.67 157.016 210.54 137.266 210.7C137.056 210.7 136.846 210.7 136.636 210.7Z" fill="#ED174B"/>
<path d="M136.636 270.94C123.426 270.94 110.356 269.01 97.7962 265.2C97.5762 265.15 97.4062 265.09 97.2762 265.03C70.7162 256.85 46.8363 240.18 29.9162 218.05C29.8362 217.98 29.7462 217.9 29.6462 217.8C29.2862 217.41 29.0762 217.02 28.9362 216.72C12.2062 194.3 3.03625 167.67 2.41625 139.67C2.39625 139.58 2.37625 139.48 2.36625 139.38C2.33625 139.08 2.36625 138.81 2.38625 138.65C2.38625 138.58 2.38625 138.49 2.37625 138.4C2.37625 138.19 2.35625 137.98 2.35625 137.78C2.12625 110.02 10.3662 83.2801 26.1862 60.4301C26.2362 60.2901 26.2962 60.1301 26.3962 59.9701C26.6662 59.5001 26.9762 59.1601 27.2862 58.8701C43.5462 36.0701 66.0163 19.1601 92.2962 9.94012C92.3662 9.90012 92.4563 9.85012 92.5462 9.81012C92.8662 9.67012 93.1562 9.61012 93.3262 9.58012C106.966 4.92012 121.166 2.49012 135.536 2.37012H136.666C149.876 2.37012 162.946 4.29012 175.506 8.10012H175.526C175.736 8.14012 175.906 8.21012 176.036 8.27012C202.596 16.4501 226.466 33.1101 243.396 55.2501C243.486 55.3301 243.586 55.4201 243.686 55.5301C244.026 55.9001 244.226 56.2901 244.376 56.5801C261.106 79.0101 270.266 105.65 270.896 133.64C270.916 133.73 270.936 133.82 270.946 133.93C270.976 134.24 270.946 134.51 270.926 134.68C270.926 134.75 270.926 134.84 270.936 134.93C270.936 135.14 270.956 135.35 270.956 135.56C271.186 163.32 262.946 190.05 247.126 212.91C247.076 213.05 247.006 213.22 246.906 213.39C246.686 213.78 246.406 214.04 246.226 214.2C229.956 237.14 207.416 254.15 181.026 263.41C180.956 263.45 180.866 263.5 180.776 263.54C180.466 263.68 180.186 263.74 180.016 263.76C166.366 268.43 152.156 270.85 137.786 270.97H136.656L136.636 270.94ZM105.086 256.21C115.416 258.94 126.026 260.33 136.656 260.33H137.686C149.106 260.23 160.406 258.57 171.316 255.38L161.026 232.4C159.826 229.73 161.026 226.58 163.696 225.39C164.386 225.08 165.116 224.93 165.866 224.93C167.956 224.93 169.856 226.16 170.716 228.07L181.406 251.95C202.346 243.8 220.596 230.16 234.426 212.31L212.646 199.8C210.106 198.34 209.236 195.09 210.686 192.55C211.626 190.91 213.396 189.89 215.286 189.89C216.206 189.89 217.126 190.13 217.926 190.6L240.576 203.62C252.796 184.71 259.566 162.95 260.236 140.4L235.236 143.08C235.046 143.1 234.886 143.11 234.716 143.11C231.956 143.11 229.686 141.07 229.396 138.37C229.246 136.96 229.646 135.58 230.546 134.47C231.436 133.37 232.706 132.68 234.106 132.52L260.096 129.74C258.846 107.23 251.516 85.6601 238.796 67.0601L220.176 83.9001C219.206 84.7701 217.966 85.2601 216.666 85.2701C215.126 85.2701 213.686 84.6301 212.686 83.5201C210.726 81.3501 210.896 77.9901 213.066 76.0201L232.416 58.5201C218.116 41.0301 199.526 27.8601 178.396 20.2601L173.216 44.8701C172.706 47.2901 170.536 49.0601 168.066 49.0801C167.656 49.0801 167.296 49.0401 166.926 48.9701C164.066 48.3701 162.226 45.5501 162.826 42.6801L168.216 17.0801C157.886 14.3501 147.276 12.9601 136.646 12.9601H135.616C124.206 13.0601 112.906 14.7201 101.996 17.9101L112.286 40.8901C112.866 42.1801 112.906 43.6301 112.396 44.9501C111.886 46.2701 110.896 47.3201 109.606 47.9001C108.936 48.2001 108.216 48.3601 107.486 48.3601C105.356 48.3601 103.456 47.1301 102.596 45.2201L91.9062 21.3401C70.9662 29.4901 52.7162 43.1301 38.8862 60.9801L60.6662 73.4901C61.8962 74.2001 62.7762 75.3401 63.1462 76.7101C63.5162 78.0801 63.3262 79.5101 62.6262 80.7401C61.6962 82.3601 59.9463 83.3901 58.0662 83.4001C57.0962 83.4001 56.1862 83.1601 55.3762 82.6901L32.7262 69.6701C20.5062 88.5801 13.7362 110.34 13.0662 132.89L38.0662 130.21C38.2562 130.19 38.4463 130.18 38.6362 130.18C41.3563 130.18 43.6262 132.22 43.9162 134.92C44.2262 137.83 42.1162 140.45 39.2062 140.76L13.2162 143.55C14.4662 166.06 21.7962 187.63 34.5162 206.23L53.1362 189.39C54.1162 188.51 55.3762 188.02 56.6962 188.02C58.1962 188.02 59.6263 188.66 60.6362 189.77C61.5863 190.82 62.0662 192.18 61.9963 193.6C61.9263 195.02 61.3062 196.32 60.2562 197.27L40.9062 214.77C55.1963 232.27 73.7962 245.43 94.9362 253.03L100.116 228.42C100.626 225.98 102.816 224.21 105.316 224.21C105.676 224.21 106.046 224.25 106.406 224.32C109.276 224.92 111.116 227.74 110.516 230.61L105.126 256.21H105.086Z" fill="#F1BFD9"/>
<path d="M136.666 4.68C149.986 4.68 162.866 6.67 175.006 10.37H175.026C175.076 10.38 175.106 10.41 175.156 10.43C201.926 18.62 225.126 35.11 241.706 56.91C241.766 56.97 241.846 56.99 241.906 57.06C242.096 57.27 242.206 57.52 242.326 57.77C258.296 79.11 267.946 105.43 268.526 133.98C268.526 134.04 268.576 134.09 268.576 134.15C268.586 134.28 268.546 134.4 268.546 134.52C268.546 134.86 268.576 135.2 268.586 135.55C268.826 163.88 260.036 190.2 244.966 211.85C244.916 211.96 244.916 212.08 244.856 212.19C244.756 212.37 244.576 212.46 244.436 212.61C228.676 234.91 206.196 252.13 179.926 261.28C179.876 261.31 179.846 261.35 179.786 261.38C179.656 261.44 179.526 261.43 179.396 261.47C166.306 265.96 152.316 268.49 137.736 268.61C137.366 268.61 136.996 268.61 136.616 268.61C123.296 268.61 110.426 266.62 98.2964 262.93C98.2764 262.93 98.2564 262.93 98.2364 262.93C98.1864 262.92 98.1464 262.89 98.1064 262.87C71.3364 254.68 48.1364 238.19 31.5464 216.38C31.4864 216.32 31.4064 216.3 31.3564 216.24C31.1664 216.03 31.0564 215.78 30.9364 215.53C14.9764 194.19 5.31638 167.88 4.73638 139.33C4.72638 139.27 4.68638 139.22 4.68638 139.16C4.67638 139.03 4.71638 138.91 4.71638 138.79C4.71638 138.45 4.68638 138.11 4.68638 137.76C4.44638 109.43 13.2364 83.11 28.3064 61.46C28.3564 61.35 28.3564 61.23 28.4164 61.12C28.5764 60.84 28.8064 60.62 29.0364 60.42C44.7864 38.26 67.1864 21.15 93.3464 12.04C93.3964 12.01 93.4264 11.96 93.4864 11.94C93.6264 11.88 93.7664 11.89 93.9064 11.85C106.986 7.36 120.976 4.83 135.546 4.71C135.916 4.71 136.286 4.71 136.656 4.71M107.436 46.03C106.306 46.03 105.216 45.38 104.726 44.28L93.1364 18.38C69.9064 26.95 49.8964 42.17 35.4064 61.7L59.4864 75.54C60.9064 76.36 61.3964 78.17 60.5764 79.59C60.0364 80.54 59.0464 81.07 58.0264 81.08H58.0064C57.5064 81.08 56.9964 80.95 56.5264 80.69L31.9664 66.58C18.6864 86.36 10.8864 110.07 10.6564 135.54L38.2964 132.58C38.4064 132.57 38.5064 132.56 38.6164 132.56C40.1164 132.56 41.3964 133.69 41.5664 135.21C41.7364 136.84 40.5664 138.3 38.9364 138.47L10.7564 141.49C11.7264 166.91 20.2264 190.38 34.0964 209.78L54.6864 191.16C55.2564 190.65 55.9664 190.39 56.6764 190.39C57.4864 190.39 58.2964 190.72 58.8764 191.37C59.9764 192.59 59.8764 194.46 58.6664 195.56L37.6764 214.54C52.7264 233.63 73.1664 248.25 96.6564 256.14L102.386 228.93C102.676 227.53 103.916 226.58 105.296 226.58C105.496 226.58 105.696 226.6 105.906 226.64C107.506 226.98 108.536 228.55 108.196 230.15L102.356 257.9C113.276 261 124.776 262.68 136.666 262.68C137.016 262.68 137.366 262.68 137.716 262.68C150.546 262.57 162.906 260.53 174.546 256.86L163.176 231.45C162.506 229.96 163.176 228.2 164.666 227.53C165.056 227.35 165.476 227.27 165.876 227.27C167.006 227.27 168.096 227.92 168.586 229.02L180.176 254.92C203.406 246.35 223.406 231.14 237.906 211.6L213.826 197.76C212.406 196.94 211.916 195.13 212.736 193.71C213.286 192.76 214.286 192.22 215.306 192.22C215.806 192.22 216.316 192.35 216.786 192.62L241.346 206.74C254.626 186.96 262.426 163.25 262.656 137.78L235.016 140.74C234.916 140.75 234.816 140.76 234.726 140.76H234.706C233.206 140.76 231.926 139.63 231.766 138.11C231.586 136.48 232.766 135.02 234.396 134.85L262.576 131.83C261.606 106.41 253.106 82.94 239.236 63.55L218.646 82.17C218.086 82.68 217.386 82.93 216.686 82.94H216.666C215.856 82.94 215.046 82.61 214.466 81.96C213.366 80.75 213.466 78.87 214.676 77.77L235.666 58.79C220.616 39.7 200.176 25.08 176.686 17.19L170.956 44.4C170.666 45.79 169.446 46.74 168.076 46.76H168.056C167.856 46.76 167.646 46.74 167.446 46.7C165.846 46.36 164.816 44.79 165.156 43.19L170.996 15.44C160.076 12.34 148.576 10.66 136.686 10.66C136.336 10.66 135.986 10.66 135.636 10.66C122.806 10.77 110.446 12.81 98.8064 16.48L110.176 41.89C110.846 43.38 110.176 45.14 108.686 45.81C108.296 45.98 107.896 46.07 107.496 46.07H107.476M136.666 0C136.286 0 135.896 0 135.516 0C120.946 0.12 106.556 2.57 92.7264 7.28C92.4364 7.34 92.0264 7.44 91.5864 7.64C91.5064 7.68 91.4164 7.72 91.3364 7.76C64.7364 17.14 41.9864 34.26 25.4964 57.31C25.1264 57.68 24.7264 58.15 24.3764 58.76C24.2664 58.95 24.1764 59.13 24.1064 59.3C8.10638 82.51 -0.223617 109.63 0.00638259 137.78C0.00638259 138.02 0.0163826 138.26 0.0263826 138.49V138.55C-0.00361741 138.85 -0.0136174 139.22 0.0263826 139.64C0.0263826 139.73 0.0463826 139.82 0.0663826 139.91C0.746383 168.25 10.0264 195.22 26.9264 217.95C27.1264 218.33 27.4264 218.83 27.8864 219.34C27.9864 219.45 28.0864 219.55 28.1864 219.64C45.3964 242.06 69.6264 258.95 96.4864 267.23C96.7164 267.32 96.9564 267.4 97.2064 267.45C109.966 271.3 123.226 273.26 136.636 273.26C137.026 273.26 137.406 273.26 137.796 273.26C152.366 273.14 166.766 270.69 180.596 265.98C180.886 265.92 181.296 265.82 181.736 265.62C181.816 265.58 181.896 265.55 181.976 265.5C208.676 256.09 231.476 238.89 247.986 215.71C248.266 215.44 248.626 215.04 248.936 214.5C249.046 214.31 249.136 214.13 249.206 213.96C265.196 190.75 273.526 163.63 273.296 135.48C273.296 135.24 273.286 135 273.276 134.76V134.7C273.306 134.4 273.316 134.03 273.276 133.6C273.276 133.51 273.256 133.42 273.236 133.33C272.556 104.99 263.286 78.02 246.376 55.28C246.176 54.9 245.876 54.39 245.416 53.88C245.316 53.77 245.216 53.67 245.126 53.58C227.916 31.16 203.696 14.28 176.826 6C176.586 5.91 176.346 5.83 176.106 5.77C163.326 1.95 150.066 0 136.666 0ZM105.236 19.43C115.136 16.77 125.336 15.39 135.636 15.3C135.976 15.3 136.306 15.3 136.646 15.3C146.336 15.3 156.006 16.47 165.456 18.79L160.536 42.19C159.666 46.32 162.316 50.38 166.446 51.25C166.966 51.36 167.496 51.41 168.026 51.41C168.026 51.41 168.066 51.41 168.076 51.41C171.646 51.38 174.766 48.83 175.506 45.34L180.126 23.39C199.126 30.7 215.936 42.65 229.186 58.28L211.496 74.27C208.366 77.1 208.126 81.94 210.956 85.07C212.406 86.67 214.476 87.59 216.626 87.59C216.646 87.59 216.686 87.59 216.706 87.59C218.566 87.57 220.366 86.87 221.756 85.62L238.366 70.6C249.516 87.71 256.116 107.25 257.626 127.63L233.866 130.18C231.836 130.4 230.006 131.39 228.726 132.98C227.446 134.57 226.856 136.57 227.076 138.6C227.496 142.49 230.766 145.43 234.676 145.43C234.696 145.43 234.736 145.43 234.756 145.43C235.006 145.43 235.256 145.41 235.506 145.39L257.796 143C256.736 163.43 250.576 183.11 239.806 200.46L219.096 188.56C217.936 187.89 216.616 187.54 215.286 187.54C212.556 187.54 210.016 189.01 208.656 191.38C206.556 195.03 207.816 199.72 211.476 201.82L230.896 212.98C218.006 228.88 201.466 241.2 182.616 248.94L172.846 227.11C171.616 224.36 168.876 222.59 165.866 222.59C164.786 222.59 163.726 222.82 162.736 223.26C158.886 224.98 157.156 229.51 158.886 233.36L168.066 253.86C158.166 256.52 147.966 257.9 137.666 257.99C137.326 257.99 136.996 257.99 136.656 257.99C126.966 257.99 117.296 256.82 107.846 254.5L112.766 231.1C113.636 226.97 110.986 222.91 106.856 222.04C106.336 221.93 105.806 221.88 105.286 221.88C101.686 221.88 98.5364 224.43 97.7964 227.95L93.1764 249.9C74.1764 242.59 57.3664 230.64 44.1164 215.01L61.8064 199.02C63.3264 197.65 64.2164 195.77 64.3164 193.73C64.4164 191.69 63.7164 189.73 62.3464 188.22C60.8964 186.62 58.8364 185.7 56.6764 185.7C54.7764 185.7 52.9564 186.4 51.5464 187.68L34.9364 202.7C23.7864 185.59 17.1864 166.05 15.6764 145.67L39.4364 143.12C41.4664 142.9 43.2964 141.91 44.5764 140.32C45.8564 138.73 46.4464 136.74 46.2264 134.7C45.8064 130.8 42.5364 127.87 38.6264 127.87C38.3564 127.87 38.0864 127.88 37.8164 127.91L15.5064 130.3C16.5664 109.87 22.7264 90.19 33.4964 72.84L54.2064 84.74C55.3664 85.41 56.6764 85.76 58.0164 85.76C58.0164 85.76 58.0564 85.76 58.0664 85.76C60.7864 85.74 63.3064 84.27 64.6464 81.92C65.6664 80.15 65.9264 78.09 65.3964 76.12C64.8664 74.15 63.5964 72.5 61.8264 71.48L42.4064 60.32C55.2964 44.42 71.8364 32.1 90.6864 24.36L100.456 46.19C101.686 48.94 104.426 50.71 107.436 50.71C107.456 50.71 107.496 50.71 107.516 50.71C108.566 50.71 109.596 50.48 110.566 50.04C112.426 49.21 113.856 47.7 114.586 45.79C115.316 43.88 115.256 41.8 114.416 39.94L105.236 19.44V19.43Z" fill="#ED174B"/>
<path d="M135.398 203.64C132.498 203.64 130.118 201.28 130.088 198.38L129.998 188.16C118.318 185.31 109.228 174.53 104.878 158.22C104.518 156.85 104.708 155.42 105.418 154.19C106.128 152.96 107.278 152.09 108.648 151.72C109.098 151.6 109.558 151.54 110.018 151.54C112.418 151.54 114.528 153.16 115.148 155.48C119.018 169.99 126.738 178.32 136.338 178.32C136.888 178.32 137.458 178.29 138.018 178.24C146.508 177.45 154.438 170.48 154.978 163.32C155.548 155.8 147.668 149.43 133.338 145.86C106.388 139.14 103.588 125.93 104.318 118.65C105.408 107.75 116.378 97.2699 129.218 94.4899L129.118 82.2899C129.108 80.8699 129.648 79.5399 130.638 78.5199C131.628 77.5099 132.958 76.9499 134.378 76.9399C137.328 76.9399 139.708 79.2999 139.728 82.1999L139.828 94.1299C150.688 95.8999 158.568 104.65 161.118 117.96C161.388 119.35 161.098 120.76 160.298 121.94C159.498 123.11 158.298 123.91 156.908 124.17C156.578 124.23 156.238 124.26 155.908 124.26C153.368 124.26 151.178 122.45 150.698 119.95C149.338 112.85 145.618 104.38 135.648 104.38C135.368 104.38 135.088 104.38 134.808 104.4C125.478 104.82 115.608 112.39 114.878 119.69C113.938 129.04 129.268 133.9 135.908 135.55C164.098 142.57 166.038 157.86 165.558 164.11C164.658 175.96 153.628 186.64 140.618 188.59L140.698 198.26C140.718 201.19 138.358 203.59 135.438 203.61H135.398V203.64Z" fill="#F1BFD9"/>
<path d="M134.437 79.2798C136.067 79.2798 137.387 80.5898 137.397 82.2198L137.517 96.2098C148.427 97.0398 156.287 105.12 158.837 118.4C159.147 120.01 158.087 121.56 156.477 121.87C156.287 121.91 156.097 121.92 155.917 121.92C154.527 121.92 153.277 120.93 153.007 119.51C150.847 108.22 144.707 102.04 135.657 102.04C135.347 102.04 135.027 102.04 134.707 102.06C124.167 102.53 113.407 110.99 112.557 119.46C111.757 127.44 119.847 133.96 135.347 137.82C144.157 140.02 164.527 146.96 163.227 163.93C162.367 175.18 151.407 185.29 138.777 186.46C138.607 186.48 138.437 186.47 138.267 186.49L138.367 198.29C138.377 199.93 137.067 201.27 135.427 201.28H135.397C133.767 201.28 132.447 199.97 132.437 198.34L132.337 186.22C120.727 184.31 111.547 174.07 107.157 157.59C106.737 156.01 107.677 154.38 109.257 153.96C109.517 153.89 109.767 153.86 110.027 153.86C111.337 153.86 112.537 154.74 112.887 156.06C117.077 171.79 125.567 180.64 136.337 180.64C136.967 180.64 137.597 180.61 138.237 180.55C147.947 179.65 156.677 171.83 157.317 163.48C157.987 154.7 149.457 147.45 133.907 143.57C108.667 137.28 105.997 125.39 106.647 118.86C107.697 108.37 119.197 98.2798 131.577 96.4198L131.457 82.2498C131.447 80.6098 132.757 79.2698 134.397 79.2598H134.427M134.437 74.5998C134.437 74.5998 134.387 74.5998 134.367 74.5998C130.157 74.6398 126.757 78.0898 126.787 82.3098L126.877 92.6599C113.917 96.2299 103.137 107.1 101.997 118.41C101.597 122.4 102.137 128.39 106.947 134.28C111.997 140.45 120.687 145.11 132.777 148.12C145.687 151.34 153.117 156.95 152.647 163.13C152.177 169.24 145.247 175.21 137.807 175.9C137.307 175.95 136.817 175.97 136.337 175.97C131.367 175.97 122.307 173.23 117.407 154.87C116.517 151.53 113.477 149.19 110.017 149.19C109.357 149.19 108.687 149.28 108.047 149.45C103.967 150.54 101.537 154.73 102.627 158.81C106.987 175.17 115.997 186.27 127.677 189.93L127.747 198.39C127.777 202.57 131.217 205.97 135.397 205.97C135.407 205.97 135.447 205.97 135.467 205.97C137.507 205.95 139.417 205.14 140.847 203.68C142.277 202.22 143.057 200.3 143.037 198.25L142.977 190.54C148.727 189.3 154.167 186.49 158.587 182.42C164.087 177.35 167.387 170.91 167.897 164.29C168.587 155.29 164.377 147.4 155.727 141.47C149.277 137.05 141.707 134.58 136.477 133.27C123.897 130.13 116.697 125.14 117.217 119.92C117.777 114.32 126.057 107.13 134.917 106.73C135.167 106.72 135.417 106.71 135.657 106.71C142.377 106.71 146.667 111.31 148.407 120.38C149.097 123.98 152.257 126.59 155.917 126.59C156.397 126.59 156.887 126.54 157.367 126.45C161.507 125.66 164.227 121.64 163.437 117.5C160.837 103.95 153.027 94.7799 142.167 92.1898L142.087 82.1698C142.057 77.9898 138.617 74.5898 134.437 74.5898V74.5998Z" fill="#ED174B"/>
</svg>
