<svg width="43" height="29" viewBox="0 0 43 29" fill="none" xmlns="http://www.w3.org/2000/svg">
<path d="M18.9529 26.9139C18.6656 26.9139 18.4061 26.8861 18.1374 26.8305C17.6184 26.7286 17.1086 26.5803 16.6082 26.432C15.7463 26.1818 14.9492 25.9408 14.1522 25.9408C14.0781 25.9408 14.0132 25.9408 13.939 25.9408C13.6795 25.9501 13.42 25.9779 13.1513 25.9964C12.7528 26.0335 12.3542 26.0613 11.9465 26.0613C11.8074 26.0613 11.6592 26.0613 11.5201 26.0428C10.7416 25.9779 10.0558 25.7184 9.37927 25.4681C8.99002 25.3199 8.62857 25.1901 8.26712 25.0974C7.813 24.9584 7.32181 24.9584 6.80281 24.9584C5.92236 24.9584 4.9307 24.9584 4.04099 24.3189C3.93904 24.2448 3.81856 24.1614 3.69808 24.078C3.3459 23.8185 3.0586 23.6053 2.75276 23.4941C2.57667 23.42 2.40985 23.3829 2.23376 23.3273C1.84451 23.2253 1.40892 23.1141 1.03821 22.799C0.593353 22.4376 0.333853 21.8722 0.324585 21.242C0.324585 20.6211 0.56555 20.0557 1.01041 19.6943C1.36258 19.3884 1.77037 19.166 2.16889 18.9529C2.35424 18.8509 2.52106 18.7582 2.67862 18.6655C3.5776 18.2022 4.18928 17.4607 4.84729 16.673L5.1624 16.293C5.36629 16.052 5.57945 15.8389 5.77408 15.6257C6.34868 15.0233 6.86768 14.4672 7.19205 13.7907C7.36814 13.457 7.57204 13.1141 7.8408 12.8083C8.10957 12.5024 8.39688 12.2707 8.67491 12.0483C9.02709 11.761 9.34219 11.5015 9.52755 11.1864L9.66657 10.9732C9.889 10.6118 10.0929 10.2967 10.3895 10.0001C10.7138 9.66647 11.1031 9.41624 11.446 9.18455C11.8445 8.92505 12.2152 8.68409 12.4377 8.36898C12.623 8.13728 12.762 7.89632 12.9196 7.64608C13.2162 7.16416 13.522 6.6637 13.9946 6.28371C14.2078 6.10763 14.4488 5.97788 14.6619 5.86666C14.8936 5.74618 15.0883 5.64423 15.1531 5.52375C15.218 5.42181 15.2551 5.22718 15.2829 5.03255C15.3292 4.76379 15.3848 4.45795 15.5331 4.17065C15.9224 3.40142 16.6545 3.05851 17.2384 2.78047C17.433 2.68779 17.6091 2.60438 17.7667 2.5117C18.471 2.14099 19.1012 1.7332 19.7685 1.29762L20.408 0.880562C20.788 0.639598 21.2606 0.352295 21.8167 0.352295C22.5674 0.380098 23.0493 0.862026 23.3644 1.17713L24.6527 2.46536C25.1809 2.99363 25.737 3.54043 26.1819 4.15211C26.3487 4.38381 26.5155 4.6155 26.6731 4.8472C26.9974 5.31986 27.2569 5.70911 27.5628 6.07055C27.8779 6.44127 28.2208 6.79345 28.5544 7.14562L29.1012 7.72023C29.6202 8.26703 30.1114 8.8509 30.5841 9.41624C30.9455 9.85183 31.307 10.2782 31.6777 10.6859C31.9835 11.0381 32.3079 11.3903 32.6323 11.7517C32.7528 11.8908 32.8547 12.002 32.9752 12.1225C33.3552 12.5302 33.7908 12.9936 34.0317 13.6146C34.1429 13.8926 34.1985 14.1799 34.2449 14.4394C34.282 14.6618 34.319 14.875 34.3839 14.9862C34.5229 15.2364 34.9122 15.4033 35.3107 15.5701C35.4868 15.6442 35.6629 15.7184 35.8297 15.8018C36.2375 15.9871 36.5433 16.1725 36.8213 16.3857C37.2662 16.7286 37.5906 17.1642 37.8964 17.5812C38.1096 17.8685 38.2949 18.1187 38.4988 18.3226C38.8788 18.7212 39.3515 19.0363 39.8427 19.3699C40.2504 19.6479 40.7138 19.9538 41.1309 20.3245C41.5757 20.7137 41.7982 21.2049 41.7796 21.7517C41.7518 22.419 41.3533 23.1048 40.7138 23.5775C40.0836 24.0502 39.3329 24.0965 38.7305 24.1336C38.6008 24.1336 38.4896 24.1521 38.3691 24.1614C37.8593 24.2077 37.433 24.3004 37.0438 24.4579C36.8306 24.5414 36.6267 24.634 36.4043 24.736C35.876 24.9862 35.2736 25.2643 34.5878 25.3199C34.4858 25.3199 34.3746 25.3291 34.2727 25.3291C33.8 25.3291 33.3552 25.255 32.9196 25.1808C32.5211 25.116 32.1503 25.0511 31.8074 25.0511C31.6962 25.0511 31.585 25.0511 31.4738 25.0696C30.9085 25.1901 30.3431 25.4589 29.7407 25.7462C29.4163 25.9037 29.092 26.052 28.7676 26.1818L28.6564 26.2281C28.091 26.4876 27.5072 26.7471 26.8677 26.7749C26.1633 26.7749 25.5794 26.6174 25.0234 26.4598C24.6805 26.3671 24.4024 26.293 24.1337 26.2374C23.8649 26.1818 23.6517 26.154 23.4386 26.154C23.0957 26.154 22.7528 26.2096 22.345 26.3022L20.3617 26.71C19.9724 26.7934 19.4905 26.8861 18.9807 26.8861L18.9529 26.9139ZM14.1522 24.4394C15.1624 24.4394 16.1077 24.7175 17.016 24.9862C17.5257 25.1345 17.9891 25.2735 18.4432 25.3662C18.61 25.4033 18.7769 25.4218 18.9529 25.4218C19.2402 25.4218 19.5646 25.3755 20.0187 25.2735L22.0021 24.8657C22.4098 24.7731 22.901 24.6804 23.4108 24.6804C23.7351 24.6804 24.0595 24.7174 24.3932 24.7916C24.7083 24.8472 25.0419 24.9399 25.357 25.0326C25.8668 25.1716 26.3487 25.3013 26.7843 25.3013C27.1364 25.2921 27.5628 25.0974 28.0169 24.8935L28.1466 24.8379C28.4617 24.7082 28.7583 24.5692 29.0456 24.4301C29.7314 24.1058 30.408 23.7814 31.1772 23.6238C31.4089 23.5868 31.5943 23.5775 31.7796 23.5775C32.2523 23.5775 32.6971 23.6516 33.1327 23.7258C33.522 23.7907 33.8927 23.8555 34.2449 23.8555C34.3098 23.8555 34.3746 23.8555 34.4395 23.8555C34.8473 23.8277 35.2736 23.6238 35.7277 23.4107C35.9687 23.2995 36.2097 23.1883 36.4506 23.0956C36.9696 22.8824 37.5442 22.7527 38.193 22.6971C38.3227 22.6878 38.4525 22.6785 38.5915 22.6693C39.0642 22.6415 39.4997 22.6136 39.787 22.4005C40.0929 22.1781 40.2412 21.8908 40.2412 21.7239C40.2412 21.6591 40.2319 21.5942 40.1207 21.5015C39.7592 21.1679 39.3793 20.9176 38.9715 20.6489C38.4154 20.2782 37.8593 19.8982 37.3774 19.3977C37.1086 19.1289 36.8769 18.8138 36.6545 18.5173C36.3858 18.1558 36.1355 17.8129 35.8482 17.5997C35.6629 17.4515 35.4497 17.331 35.1346 17.1827C34.9863 17.1086 34.8473 17.0437 34.699 16.9881C34.1151 16.7378 33.4108 16.4413 33.0215 15.7462C32.8362 15.4125 32.7713 15.0511 32.7157 14.736C32.6786 14.5321 32.6415 14.3375 32.5859 14.1984C32.4377 13.837 32.1504 13.5219 31.8352 13.1883C31.7055 13.0492 31.5757 12.9102 31.4553 12.7712C31.1402 12.419 30.8158 12.0576 30.5007 11.7054C30.13 11.2976 29.7685 10.862 29.4256 10.4542C28.9344 9.87037 28.4618 9.30503 27.9613 8.77676L27.4423 8.23923C27.0901 7.86851 26.7194 7.48853 26.3765 7.08075C26.015 6.66369 25.7092 6.21884 25.4219 5.78325C25.2458 5.52375 25.0883 5.29205 24.9307 5.06963C24.5415 4.54136 24.0595 4.05943 23.5498 3.55897L22.2894 2.28927C22.1411 2.14099 21.8816 1.88149 21.7796 1.88149C21.6499 1.88149 21.3626 2.05758 21.205 2.15952L20.6119 2.53951C19.8797 3.01217 19.1939 3.46629 18.4617 3.84627C18.2764 3.95749 18.054 4.05943 17.8408 4.16138C17.3959 4.37454 16.9882 4.56916 16.8213 4.88427C16.775 4.97695 16.7472 5.15304 16.7101 5.31986C16.6545 5.6257 16.5896 5.99641 16.3765 6.33005C16.0984 6.79345 15.6629 7.03441 15.3014 7.21976C15.1439 7.30318 14.9956 7.38659 14.8936 7.47C14.6063 7.70169 14.3839 8.07241 14.1429 8.46166C13.9576 8.75823 13.7815 9.04553 13.5869 9.29576C13.2069 9.81476 12.7064 10.1484 12.2245 10.4635C11.9187 10.6674 11.6313 10.8528 11.4089 11.0752C11.2328 11.2513 11.0845 11.4922 10.9177 11.7425L10.7602 11.9927C10.4543 12.521 9.99094 12.901 9.58316 13.2346C9.33293 13.4385 9.1105 13.6238 8.92514 13.8277C8.75832 14.0224 8.61004 14.2726 8.48955 14.495C8.08177 15.3662 7.45156 16.0335 6.83988 16.673C6.64525 16.8769 6.44136 17.09 6.256 17.3032L5.95943 17.6554C5.23654 18.5265 4.49511 19.4255 3.38297 19.9908C3.22542 20.0928 3.0308 20.1947 2.84544 20.2967C2.50253 20.482 2.17815 20.6674 1.93719 20.8713C1.84451 20.9454 1.78891 21.103 1.78891 21.2605C1.78891 21.4274 1.85378 21.5849 1.95573 21.6683C2.07621 21.7703 2.33571 21.8352 2.57667 21.9C2.80837 21.9556 3.04006 22.0205 3.27176 22.1225C3.75369 22.3078 4.13367 22.5858 4.51365 22.8639C4.66193 22.9658 4.76388 23.0492 4.87509 23.1234C5.38483 23.4941 6.03358 23.4941 6.78427 23.4941C7.38668 23.4941 8.00763 23.4941 8.63784 23.6887C9.06416 23.7999 9.49975 23.9575 9.889 24.1058C10.4914 24.3282 11.0567 24.5414 11.6128 24.5877C11.7148 24.5877 11.8167 24.597 11.9187 24.597C12.2708 24.597 12.6415 24.5692 12.9937 24.5321C13.2718 24.5043 13.5591 24.4858 13.8371 24.4672C13.9298 24.4672 14.0225 24.4672 14.1244 24.4672L14.1522 24.4394Z" fill="#CCDEE2"/>
<path d="M21.7982 0.695088C21.7982 0.695088 21.8352 0.695088 21.8538 0.695088C22.4006 0.713624 22.8084 1.12141 23.1142 1.41798L23.1327 1.43651C23.3366 1.64041 23.5405 1.8443 23.7444 2.04819L23.9668 2.27062C24.1059 2.41891 24.2541 2.55792 24.3932 2.69694C24.9122 3.21594 25.459 3.75347 25.8853 4.34662C26.0706 4.59685 26.2375 4.84708 26.4043 5.09731C26.6916 5.52363 26.9604 5.92215 27.2847 6.29286C27.6091 6.67284 27.9613 7.04356 28.3042 7.405C28.4803 7.59036 28.6564 7.76645 28.8232 7.95181C29.3422 8.49861 29.8334 9.08248 30.3061 9.64782C30.6582 10.0649 31.0197 10.5005 31.3904 10.9082C31.6962 11.2512 32.0206 11.6126 32.345 11.974C32.4562 12.1038 32.5674 12.2243 32.6879 12.354C33.0679 12.7525 33.4571 13.1696 33.6795 13.7349C33.7815 13.9852 33.8278 14.2447 33.8742 14.5042C33.9205 14.7544 33.9576 14.9861 34.0503 15.1529C34.2449 15.5051 34.6805 15.6905 35.1439 15.8851C35.3107 15.9592 35.4775 16.0241 35.6443 16.1075C36.0336 16.2836 36.3209 16.4597 36.5711 16.6543C36.9789 16.9694 37.294 17.3957 37.5998 17.8035C37.8037 18.0816 38.0076 18.3503 38.2208 18.5728C38.6193 18.9991 39.1012 19.3234 39.6202 19.6664C40.0373 19.9537 40.4821 20.241 40.8621 20.5931C40.8621 20.5931 40.8621 20.5931 40.8714 20.6024C41.2236 20.9175 41.3997 21.3068 41.3904 21.7516C41.3719 22.317 41.0197 22.9008 40.4636 23.3179C39.9075 23.7257 39.2403 23.772 38.6564 23.8091C38.5266 23.8091 38.4061 23.8276 38.2857 23.8369C37.7481 23.8832 37.2847 23.9852 36.8677 24.152C36.6453 24.2354 36.4414 24.3373 36.2189 24.4393C35.6907 24.6895 35.1439 24.949 34.5229 24.9954C34.421 24.9954 34.3283 25.0046 34.2263 25.0046C33.7815 25.0046 33.3459 24.9305 32.9289 24.8563C32.5303 24.7915 32.1411 24.7173 31.7704 24.7173C31.6406 24.7173 31.5201 24.7173 31.3904 24.7451C30.7694 24.8749 30.1856 25.1529 29.5646 25.4495C29.2588 25.5978 28.9344 25.7461 28.61 25.8758L28.4896 25.9314C27.952 26.1724 27.4052 26.4226 26.8213 26.4411C26.8028 26.4411 26.7843 26.4411 26.7565 26.4411C26.1541 26.4411 25.5794 26.2743 25.0326 26.126C24.7268 26.0426 24.4302 25.9592 24.1429 25.9036C24.1429 25.9036 24.1337 25.9036 24.1244 25.9036C23.8556 25.848 23.6239 25.8202 23.383 25.8202C23.0215 25.8202 22.6601 25.8758 22.2152 25.9778L20.2412 26.3855C19.8241 26.4782 19.3885 26.5524 18.9251 26.5524C18.6842 26.5524 18.4339 26.5338 18.1837 26.4782C17.674 26.3763 17.1643 26.228 16.6638 26.0797C15.7926 25.8202 14.9678 25.5792 14.1244 25.5792C14.0503 25.5792 13.9668 25.5792 13.8927 25.5792C13.6332 25.5885 13.3644 25.6163 13.0957 25.6348C12.7157 25.6719 12.3172 25.6997 11.9187 25.6997C11.7796 25.6997 11.6499 25.6997 11.5109 25.6905C10.788 25.6348 10.1114 25.3753 9.47194 25.1344C9.07342 24.9861 8.70271 24.8471 8.32273 24.7451C8.32273 24.7451 8.31346 24.7451 8.3042 24.7451C7.83154 24.6061 7.3218 24.5968 6.775 24.5968C5.90382 24.5968 5.01411 24.5968 4.21708 24.0222C4.0966 23.9388 3.96685 23.8462 3.8371 23.7535C3.50345 23.5125 3.19762 23.2808 2.84544 23.1511C2.84544 23.1511 2.84544 23.1511 2.8269 23.1511C2.66935 23.0862 2.48399 23.0306 2.28937 22.9842C1.91865 22.8823 1.53867 22.7896 1.22357 22.5301C0.852852 22.2335 0.639692 21.7609 0.630424 21.2326C0.630424 20.7136 0.834315 20.2502 1.18649 19.9444C1.52014 19.6571 1.90938 19.4439 2.28937 19.24C2.47472 19.1381 2.65081 19.0454 2.80837 18.9435C2.81763 18.9435 2.8269 18.9342 2.83617 18.9249C3.74442 18.4615 4.3839 17.6923 5.06045 16.8675C5.1624 16.747 5.26434 16.6172 5.37556 16.4968C5.57945 16.2651 5.79261 16.0426 5.98723 15.8295C6.56184 15.2178 7.10865 14.6432 7.45156 13.9203C7.45156 13.9203 7.45155 13.9018 7.46082 13.9018C7.60911 13.6237 7.79447 13.2993 8.0447 13.012C8.28566 12.734 8.56369 12.5116 8.83246 12.2892C9.19391 11.9926 9.54609 11.7145 9.75925 11.3346C9.75925 11.3346 9.75925 11.3253 9.76852 11.316C9.81486 11.2419 9.87046 11.1585 9.9168 11.0843C10.1022 10.7878 10.2968 10.4819 10.5655 10.2132C10.8621 9.90732 11.2236 9.67563 11.5665 9.44393C11.9835 9.16589 12.382 8.90639 12.6415 8.54495C12.6415 8.54495 12.6415 8.53568 12.6508 8.52641C12.8176 8.31325 12.9752 8.06302 13.1327 7.80352C13.4108 7.34013 13.7073 6.86747 14.1337 6.52456C14.319 6.36701 14.5415 6.25579 14.7453 6.14458C15.0141 6.00556 15.2551 5.87581 15.3663 5.67192C15.459 5.52363 15.496 5.3012 15.5424 5.06951C15.5887 4.81001 15.6351 4.55051 15.7648 4.30028C16.1077 3.64226 16.7472 3.32715 17.3125 3.05839C17.5072 2.96571 17.6925 2.87303 17.8593 2.77108C17.8593 2.77108 17.8686 2.77108 17.8779 2.76182C18.5637 2.40964 19.2032 1.99259 19.8797 1.54773C20.0929 1.40871 20.2968 1.26969 20.5099 1.13994L20.547 1.11214C20.8714 0.908247 21.2699 0.658016 21.7333 0.658016M11.9465 24.912C12.3079 24.912 12.6879 24.8749 13.0493 24.8471C13.3181 24.8193 13.6054 24.8007 13.8834 24.7915C13.9761 24.7915 14.0595 24.7915 14.1522 24.7915C15.1161 24.7915 16.0336 25.0602 16.9233 25.329C17.4237 25.4773 17.8964 25.6163 18.3691 25.709C18.5637 25.7461 18.7491 25.7646 18.9437 25.7646C19.3051 25.7646 19.6758 25.6997 20.0836 25.6163L22.0577 25.2085C22.5489 25.0973 22.9659 25.0324 23.4015 25.0324C23.6981 25.0324 23.9854 25.0602 24.3098 25.1344C24.6341 25.19 24.9492 25.2827 25.2551 25.3661C25.7833 25.5144 26.2931 25.6534 26.775 25.6534C26.775 25.6534 26.7935 25.6534 26.8028 25.6534C27.2106 25.6348 27.6647 25.431 28.1466 25.2178L28.2764 25.1622C28.2764 25.1622 28.2857 25.1622 28.2949 25.1622C28.6008 25.0417 28.9159 24.8934 29.2124 24.7451C29.8519 24.4393 30.5099 24.1335 31.2328 23.9759H31.2514C31.4275 23.9481 31.5943 23.9388 31.7611 23.9388C32.206 23.9388 32.6323 24.013 33.0586 24.0871C33.4571 24.152 33.8464 24.2261 34.2171 24.2261C34.2912 24.2261 34.3654 24.2261 34.4488 24.2261C34.9122 24.1891 35.3756 23.9759 35.8575 23.7535C36.0799 23.6515 36.3209 23.5403 36.5526 23.4476C37.0438 23.253 37.5813 23.1233 38.2022 23.0769C38.332 23.0677 38.4617 23.0584 38.5915 23.0491C39.1105 23.012 39.6017 22.9842 39.9631 22.7155C40.3153 22.456 40.547 22.0945 40.5563 21.7794C40.5563 21.5848 40.4821 21.4272 40.3153 21.279C40.3153 21.279 40.2968 21.2697 40.2968 21.2604H40.2875C39.9446 20.9361 39.5554 20.6766 39.1383 20.3985C38.61 20.0463 38.0632 19.6756 37.6091 19.1937C37.3496 18.9342 37.1272 18.6376 36.914 18.3411C36.636 17.9611 36.3672 17.5996 36.0428 17.3494C35.8389 17.1826 35.598 17.0436 35.2643 16.8953C35.2643 16.8953 35.2551 16.8953 35.2458 16.8953C35.1068 16.8211 34.9492 16.7563 34.7917 16.6914C34.2449 16.4597 33.6332 16.2002 33.2996 15.5978C33.142 15.3197 33.0864 15.0046 33.0308 14.6988C32.9937 14.4764 32.9567 14.2725 32.8825 14.0964C32.7157 13.6701 32.3913 13.3272 32.0577 12.9657C31.9372 12.836 31.8167 12.7062 31.6962 12.5672C31.3719 12.2057 31.0475 11.8536 30.7416 11.5014C30.3617 11.0751 29.9909 10.6395 29.6388 10.2224C29.1754 9.66636 28.6934 9.09175 28.1837 8.56348C28.0076 8.37813 27.8408 8.20204 27.6647 8.01668C27.3125 7.64597 26.9511 7.27525 26.6082 6.87674C26.256 6.47822 25.9594 6.03336 25.6721 5.60704C25.5053 5.36608 25.3385 5.11585 25.1717 4.88415C24.7731 4.33735 24.282 3.84615 23.7537 3.32715C23.6147 3.18814 23.4664 3.03985 23.3274 2.90083L23.1049 2.67841C22.901 2.47451 22.6972 2.27062 22.4933 2.06673L22.4747 2.04819C22.2523 1.82576 21.9928 1.56626 21.7611 1.557C21.7611 1.557 21.7518 1.557 21.7426 1.557C21.5201 1.557 21.2421 1.73308 20.9919 1.88137L20.9548 1.90917C20.7416 2.03892 20.5377 2.17794 20.3246 2.31696C19.6666 2.74328 18.9807 3.18814 18.2671 3.56812C18.0725 3.67933 17.8593 3.78128 17.6647 3.88322C17.1735 4.11492 16.7009 4.34662 16.497 4.7544C16.4321 4.89342 16.395 5.08804 16.3579 5.29194C16.3023 5.57924 16.2467 5.89434 16.0706 6.17238C15.8389 6.56163 15.459 6.76552 15.1253 6.94161C14.9492 7.03429 14.7824 7.1177 14.6527 7.22892C14.3283 7.48842 14.0873 7.88693 13.8278 8.30399C13.661 8.57275 13.4942 8.85078 13.2903 9.10102C12.9381 9.58294 12.4655 9.89805 12.0021 10.1946C11.6777 10.4078 11.3718 10.6024 11.1309 10.8526C10.927 11.0565 10.7694 11.316 10.5934 11.5848C10.547 11.6682 10.4914 11.7424 10.4451 11.8258C10.1578 12.317 9.74071 12.6599 9.33293 12.9935C9.08269 13.1974 8.84173 13.392 8.6471 13.6237C8.45248 13.8462 8.29493 14.1149 8.16518 14.3559C7.76666 15.1993 7.15498 15.8387 6.56184 16.4689C6.36722 16.6728 6.16332 16.886 5.9687 17.1084C5.86675 17.2289 5.76481 17.3494 5.67213 17.4699C4.97704 18.3133 4.25415 19.1844 3.20688 19.722C3.03079 19.8332 2.84544 19.9351 2.66008 20.0371C2.29863 20.2317 1.96499 20.4263 1.68696 20.658C1.51087 20.8063 1.41819 21.0473 1.41819 21.3068C1.41819 21.5848 1.5294 21.835 1.70549 21.974C1.88158 22.1223 2.15962 22.1965 2.45619 22.2706C2.66935 22.3262 2.89178 22.3818 3.10494 22.4745C3.54979 22.6413 3.92051 22.9194 4.28195 23.1789C4.40243 23.2715 4.52292 23.355 4.6434 23.4384C5.23654 23.8647 5.9687 23.8647 6.73793 23.8647C7.31254 23.8647 7.91495 23.8647 8.49882 24.0408C8.91587 24.152 9.33292 24.3003 9.72217 24.4486C10.3431 24.6803 10.927 24.9027 11.5387 24.949C11.6499 24.949 11.7611 24.9583 11.8816 24.9583M21.7982 0.0185343C21.1402 0.0185343 20.6026 0.352177 20.2504 0.574605L20.2134 0.602409C19.9909 0.741427 19.7778 0.880443 19.5739 1.01946C18.9066 1.45505 18.2857 1.86283 17.6276 2.19648C17.6184 2.19648 17.5813 2.22428 17.572 2.22428C17.4237 2.31696 17.2569 2.3911 17.0716 2.47451C16.4692 2.76182 15.6536 3.15107 15.2087 4.01297C15.0419 4.35588 14.977 4.68026 14.9307 4.96756C14.9122 5.08804 14.8751 5.2734 14.8473 5.32901C14.801 5.38461 14.6156 5.48656 14.4858 5.55144C14.2542 5.67192 13.9946 5.81094 13.7444 6.01483C13.244 6.42261 12.901 6.96942 12.6045 7.46061C12.4562 7.70158 12.3172 7.93327 12.1689 8.11863C12.1689 8.11863 12.1411 8.14643 12.1411 8.1557C11.9465 8.42447 11.6221 8.63763 11.2421 8.88786C10.8807 9.11955 10.4821 9.38832 10.13 9.74977C9.81485 10.0741 9.59243 10.4263 9.3978 10.7322L9.24952 10.9546C9.24952 10.9546 9.23098 10.9917 9.22171 11.0009C9.06416 11.2697 8.77686 11.5014 8.45248 11.7702C8.17445 11.9926 7.85934 12.2521 7.5813 12.5765C7.28473 12.9194 7.08084 13.2808 6.90475 13.5867C6.90475 13.5959 6.87695 13.633 6.87695 13.6423C6.58038 14.2725 6.09845 14.7822 5.54238 15.3661C5.33849 15.5885 5.12533 15.8109 4.91217 16.0519L4.58779 16.4411C3.92978 17.2382 3.35517 17.924 2.57667 18.3225C2.55813 18.3225 2.5118 18.3596 2.50253 18.3689C2.34498 18.4615 2.18742 18.5542 2.0206 18.6469C1.62208 18.8693 1.1865 19.1103 0.797246 19.4347C0.287515 19.861 -0.00905688 20.5283 0.000210956 21.2419C0.000210956 21.974 0.315317 22.6321 0.843584 23.0584C1.26064 23.4106 1.7611 23.5403 2.15962 23.6423C2.32644 23.6886 2.49326 23.7257 2.61374 23.7813C2.91031 23.8925 3.17908 24.0871 3.48492 24.3095C3.62394 24.4115 3.75368 24.5042 3.88343 24.5968C4.83802 25.2827 5.89456 25.2827 6.82134 25.2919C7.34034 25.2919 7.7852 25.2919 8.15591 25.4124C8.16518 25.4124 8.19298 25.4217 8.21152 25.431C8.54516 25.5144 8.90661 25.6534 9.28659 25.7924C9.9446 26.0426 10.6953 26.3207 11.5109 26.3855C11.6684 26.3948 11.826 26.4041 11.9743 26.4041C12.4006 26.4041 12.8084 26.367 13.2069 26.3299C13.4757 26.3021 13.7259 26.2836 13.9761 26.2743C14.0503 26.2743 14.1151 26.2743 14.18 26.2743C14.9214 26.2743 15.6999 26.506 16.5155 26.747C17.0345 26.8953 17.5535 27.0528 18.1003 27.164C18.3691 27.2196 18.6656 27.2567 18.9715 27.2567C19.5183 27.2567 20.0095 27.164 20.4265 27.0714L22.3913 26.6728C22.7898 26.5894 23.1142 26.5246 23.4293 26.5246C23.6239 26.5246 23.8093 26.5431 24.0225 26.5894C24.319 26.645 24.5971 26.7192 24.8936 26.8026L25.1161 26.1631L24.9307 26.8211C25.4868 26.9787 26.117 27.1455 26.7935 27.1455H26.8677C27.5906 27.1177 28.2301 26.8304 28.8047 26.5709L28.9251 26.5153C29.2402 26.3855 29.5646 26.2373 29.8797 26.0797C30.4729 25.8017 31.0197 25.5422 31.5665 25.4217C31.6128 25.4217 31.7148 25.4124 31.8074 25.4124C32.1225 25.4124 32.4747 25.4773 32.8454 25.5422C33.2996 25.6163 33.763 25.6997 34.2634 25.6997C34.3839 25.6997 34.4951 25.6997 34.6156 25.6812C35.3478 25.6256 35.9872 25.329 36.5433 25.0695C36.7565 24.9676 36.9511 24.8749 37.155 24.8007C37.5164 24.6525 37.9149 24.569 38.3876 24.5227C38.5081 24.5134 38.6286 24.5042 38.7398 24.4949C39.3885 24.4486 40.2041 24.4022 40.9177 23.874C41.6406 23.3457 42.0947 22.5579 42.1225 21.7887C42.1411 21.1492 41.8816 20.5468 41.3718 20.1112C40.9363 19.722 40.4821 19.4069 40.0373 19.1103C39.5554 18.7859 39.1012 18.4801 38.7583 18.1094C38.5637 17.9055 38.3783 17.6645 38.1837 17.405C37.8686 16.9787 37.5072 16.4968 37.0252 16.126C36.7379 15.8943 36.4043 15.6997 35.9687 15.4958C35.8204 15.4217 35.6351 15.3383 35.459 15.2641C35.1346 15.1251 34.7731 14.9768 34.6897 14.8193C34.6527 14.7544 34.6156 14.532 34.5878 14.393C34.5414 14.1149 34.4858 13.7998 34.3561 13.4847C34.0873 12.8082 33.6332 12.3262 33.2347 11.8999C33.1235 11.7794 33.0123 11.6682 32.9103 11.5385C32.5767 11.1677 32.2523 10.8063 31.9465 10.4634C31.5757 10.0463 31.2236 9.62929 30.8714 9.21223C30.3895 8.63763 29.889 8.04448 29.3607 7.47914C29.1939 7.29379 29.0085 7.10843 28.8325 6.92308C28.4895 6.5709 28.1466 6.20945 27.8408 5.84801C27.5442 5.5051 27.2847 5.12512 27.0067 4.71733C26.8306 4.45783 26.6545 4.19833 26.4692 3.9481C26.0058 3.30862 25.4497 2.75255 24.9029 2.21501C24.7639 2.076 24.6249 1.93698 24.4858 1.79796L24.2542 1.56626L24.1893 1.50139L23.6332 0.945318C23.2718 0.59314 22.7157 0.0370714 21.9001 0H21.8167L21.7982 0.0185343ZM3.59613 20.2595C4.75461 19.6571 5.55165 18.6932 6.256 17.8499L6.55257 17.4884C6.72866 17.2938 6.91402 17.0899 7.10864 16.8953C7.72032 16.2558 8.39688 15.5329 8.84173 14.5968C8.92514 14.4393 9.06416 14.1983 9.22171 14.0222C9.37927 13.8462 9.58316 13.6793 9.82412 13.4847C10.2597 13.1325 10.7416 12.734 11.0938 12.1316C11.1309 12.076 11.1865 11.9926 11.2328 11.9092C11.3904 11.6589 11.5294 11.4458 11.6777 11.2882C11.863 11.0936 12.1411 10.9175 12.4377 10.7229C12.9288 10.3985 13.4849 10.0371 13.902 9.4532C14.1059 9.1937 14.2912 8.89713 14.4673 8.60982C14.6897 8.23911 14.9029 7.8962 15.1346 7.71084C15.218 7.6367 15.357 7.56256 15.496 7.49768C15.8668 7.30306 16.3858 7.03429 16.7101 6.46895C16.9418 6.1075 17.016 5.69045 17.0716 5.36608C17.0901 5.2456 17.1272 5.06024 17.155 5.00463C17.2569 4.80074 17.6276 4.62465 18.0076 4.43929C18.2208 4.33735 18.4432 4.22614 18.6656 4.09639C19.3793 3.72567 20.0744 3.27155 20.7416 2.83596C20.9641 2.68767 21.168 2.55792 21.3626 2.43744C21.4738 2.37257 21.6406 2.26135 21.7518 2.21501C21.8352 2.27989 21.965 2.40964 22.0391 2.48378L22.6694 3.11399L22.8918 3.33642C23.0308 3.47544 23.1791 3.62372 23.3181 3.76274C23.8186 4.26321 24.3005 4.73587 24.6619 5.23633C24.8288 5.46803 24.9956 5.70899 25.1531 5.94068C25.4497 6.38554 25.7648 6.83967 26.1355 7.27525C26.4784 7.68304 26.8491 8.07229 27.2106 8.443C27.3774 8.61909 27.5535 8.79518 27.7203 8.98054C28.2208 9.5088 28.6934 10.0649 29.1476 10.6117C29.509 11.0473 29.8797 11.4829 30.269 11.9092C30.5748 12.2521 30.8992 12.6228 31.2236 12.975C31.3348 13.1047 31.4645 13.2437 31.5943 13.3828C31.9001 13.7071 32.1596 13.9944 32.2801 14.291C32.3264 14.4022 32.3542 14.5783 32.3913 14.7637C32.4562 15.1066 32.5211 15.4958 32.7342 15.8758C33.1791 16.6821 33.9761 17.0158 34.5507 17.2567C34.699 17.3216 34.838 17.3772 34.9585 17.4421C35.2736 17.5904 35.4775 17.7016 35.6351 17.8313C35.8946 18.0259 36.1355 18.3503 36.3858 18.6932C36.6174 18.9991 36.8584 19.3234 37.1457 19.62C37.6462 20.1483 38.2208 20.5375 38.7769 20.9082C39.1754 21.177 39.5368 21.418 39.8427 21.696C39.8519 21.7053 39.8705 21.7238 39.8797 21.7331C39.8519 21.8072 39.7592 21.9648 39.5739 22.1038C39.37 22.2521 38.9807 22.2799 38.5637 22.3077C38.4247 22.3077 38.2857 22.3262 38.1466 22.3355C37.4701 22.3911 36.8584 22.5301 36.3023 22.7525C36.0614 22.8452 35.8111 22.9657 35.5702 23.0769C35.1439 23.2808 34.7453 23.4662 34.4024 23.494C34.3376 23.494 34.282 23.494 34.2263 23.494C33.9112 23.494 33.5591 23.4291 33.1791 23.3642C32.7342 23.2901 32.2708 23.2067 31.7704 23.2067C31.5572 23.2067 31.3533 23.2252 31.1587 23.253C31.1494 23.253 31.1124 23.253 31.1031 23.2623C30.2968 23.4291 29.5924 23.7627 28.9251 24.0778C28.6286 24.2169 28.332 24.3559 28.0447 24.4764L27.8686 24.5505C27.4701 24.7359 27.053 24.9212 26.7843 24.9305C26.3857 24.9305 25.9224 24.8007 25.4404 24.671C25.1161 24.5783 24.7824 24.4856 24.4302 24.4208C24.0966 24.3466 23.7444 24.3095 23.3922 24.3095C22.8454 24.3095 22.3357 24.4022 21.9001 24.5042L19.9353 24.9027C19.4905 25.0046 19.1939 25.0417 18.9344 25.0417C18.7769 25.0417 18.6378 25.0232 18.4988 24.9954C18.0354 24.9027 17.5813 24.7729 17.0994 24.6246C16.1633 24.3466 15.1902 24.0593 14.1337 24.0593C14.0317 24.0593 13.9298 24.0593 13.8278 24.0593C13.5498 24.0686 13.2532 24.0964 12.9752 24.1242C12.623 24.152 12.2616 24.1891 11.9279 24.1891C11.826 24.1891 11.7333 24.1891 11.6314 24.1798C11.1309 24.1335 10.5841 23.9388 10.0095 23.7164C9.59243 23.5588 9.1661 23.4013 8.71198 23.2808C8.06323 23.0862 7.38668 23.0862 6.78427 23.0769C6.09845 23.0769 5.49604 23.0769 5.07899 22.7711C4.94924 22.6784 4.83802 22.595 4.71754 22.5116C4.33756 22.2335 3.91124 21.9277 3.38297 21.7238C3.14201 21.6219 2.89178 21.557 2.66935 21.5014C2.49326 21.455 2.24303 21.3902 2.17815 21.3346C2.15962 21.3253 2.13181 21.2697 2.13181 21.177C2.13181 21.1029 2.15962 21.0565 2.15962 21.0473C2.38204 20.8619 2.68788 20.6858 3.01226 20.5097C3.19762 20.4078 3.38297 20.3058 3.55906 20.1946L3.59613 20.2595Z" fill="#296CB5"/>
<path d="M18.1466 7.51632C17.952 7.51632 17.7667 7.44218 17.6276 7.30316C17.3311 7.01586 17.3218 6.54319 17.6091 6.23736L18.7305 5.07888C18.9251 4.87498 19.2588 4.53207 19.7778 4.4672H19.8427C19.9446 4.41159 20.0558 4.38379 20.1763 4.38379C20.3616 4.38379 20.547 4.45793 20.6768 4.57841C20.825 4.71743 20.9085 4.90279 20.9177 5.09741C20.9177 5.3013 20.8528 5.48666 20.7231 5.63495C20.4636 5.92225 20.1207 5.94079 19.9724 5.95005C19.9446 5.95932 19.8427 6.07054 19.7963 6.11688L18.6749 7.27536C18.5359 7.42364 18.3413 7.50705 18.1374 7.50705L18.1466 7.51632Z" fill="#CCDEE2"/>
<path d="M20.1855 4.73586C20.2875 4.73586 20.3802 4.77293 20.4636 4.84707C20.6304 4.99536 20.6397 5.25486 20.4914 5.43095C20.3246 5.6163 20.0929 5.63484 19.9724 5.63484C19.9539 5.63484 19.9353 5.63484 19.9168 5.63484C19.8148 5.64411 19.6665 5.80166 19.5646 5.90361L18.4432 7.06209C18.3598 7.1455 18.2578 7.18257 18.1466 7.18257C18.0354 7.18257 17.9427 7.1455 17.8593 7.07136C17.6925 6.9138 17.6925 6.6543 17.8501 6.48748L18.9715 5.329C19.1475 5.14364 19.4163 4.86561 19.8148 4.81927C19.8519 4.81927 19.8797 4.81927 19.9168 4.81927C19.9168 4.81927 19.9353 4.81927 19.9446 4.81927C20.0187 4.77293 20.0929 4.74513 20.1763 4.74513M20.1855 4.05004C20.0373 4.05004 19.8982 4.07784 19.7592 4.13345C19.7592 4.13345 19.75 4.13345 19.7407 4.13345C19.1012 4.20759 18.7027 4.62464 18.4895 4.84707L17.3681 6.00555C16.9511 6.44114 16.9603 7.12696 17.3959 7.54401C17.5998 7.73864 17.8686 7.84985 18.1559 7.84985C18.4432 7.84985 18.7305 7.72937 18.9437 7.51621L20.0651 6.35773C20.0651 6.35773 20.1114 6.31139 20.1299 6.28359C20.3524 6.26506 20.7045 6.18164 20.9918 5.86654C21.3996 5.42168 21.3626 4.73586 20.9177 4.32808C20.7138 4.14272 20.4543 4.04077 20.1855 4.04077V4.05004Z" fill="#296CB5"/>
<path d="M15.116 15.5051C15.0326 15.5051 14.9399 15.4866 14.8565 15.4588C14.1058 15.1807 13.8371 14.3466 14.0039 13.6979C14.1522 13.1233 14.56 12.7247 14.8565 12.4745L15.0326 12.3262C15.2458 12.1501 15.4126 12.0204 15.5146 11.8814C15.7926 11.5199 15.8111 10.936 15.8111 10.2688C15.8111 9.85171 16.1448 9.51807 16.5618 9.51807C16.9789 9.51807 17.3125 9.85171 17.3125 10.2688C17.3125 11.0009 17.3125 11.9926 16.7101 12.7896C16.4969 13.0677 16.2374 13.2808 16.0057 13.4569L15.8204 13.6052C15.6072 13.7813 15.4867 13.9296 15.4589 14.05C15.4589 14.0593 15.4589 14.0686 15.4589 14.0686C15.7926 14.2354 15.9594 14.6339 15.8297 14.9954C15.7184 15.2919 15.4404 15.4866 15.1253 15.4866L15.116 15.5051Z" fill="#CCDEE2"/>
<path d="M16.5619 9.87015C16.7843 9.87015 16.9697 10.0555 16.9697 10.2779C16.9697 10.9545 16.9697 11.8905 16.4321 12.5949C16.2375 12.8451 16.0151 13.0305 15.7834 13.2066C15.7185 13.2622 15.6536 13.3085 15.598 13.3641C15.32 13.5958 15.1717 13.7904 15.1254 13.9851C15.0883 14.1426 15.1532 14.3372 15.2551 14.3743C15.4683 14.4485 15.5795 14.6894 15.4961 14.9026C15.4312 15.0694 15.2736 15.1714 15.1068 15.1714C15.0605 15.1714 15.0141 15.1714 14.9678 15.1435C14.4025 14.9397 14.1986 14.2909 14.3283 13.7812C14.4488 13.2992 14.8103 12.9563 15.0698 12.7339C15.1346 12.6783 15.2088 12.6227 15.2736 12.5671C15.4683 12.4095 15.6536 12.2705 15.7834 12.0944C16.1263 11.6496 16.1541 11.0101 16.1541 10.2779C16.1541 10.0555 16.3394 9.87015 16.5619 9.87015ZM16.5619 9.18433C16.2653 9.18433 15.9965 9.29554 15.7926 9.5087C15.5888 9.7126 15.4775 9.99063 15.4775 10.2779C15.4775 10.8618 15.459 11.3993 15.2458 11.6774C15.1624 11.7793 15.0141 11.8998 14.8566 12.0296C14.7824 12.0852 14.7083 12.15 14.6342 12.2056C14.3005 12.4837 13.8464 12.9285 13.6703 13.6051C13.4664 14.4021 13.8093 15.4309 14.7361 15.7645C14.8566 15.8108 14.9863 15.8294 15.1068 15.8294C15.5609 15.8294 15.978 15.5421 16.1263 15.1157C16.2746 14.7172 16.1726 14.2816 15.8946 13.9943C15.9317 13.9573 15.9687 13.9202 16.0243 13.8739C16.0799 13.8275 16.1356 13.7812 16.1912 13.7348C16.4414 13.5309 16.7194 13.3178 16.9604 13.0027C17.6462 12.113 17.6369 11.0008 17.6369 10.2687C17.6369 9.66626 17.1457 9.18433 16.5433 9.18433H16.5619Z" fill="#296CB5"/>
<path d="M20.3153 16.9047C20.0836 16.9047 19.8705 16.8028 19.7222 16.6174C19.6017 16.4598 19.5461 16.2652 19.5647 16.0613C19.5925 15.8667 19.6944 15.6813 19.852 15.5609L20.7787 14.838C20.9085 14.736 21.0753 14.6804 21.2421 14.6804C21.4738 14.6804 21.687 14.7824 21.8353 14.9677C22.0948 15.2921 22.0299 15.7648 21.7055 16.0243L20.7787 16.7471C20.649 16.8491 20.4822 16.9047 20.3153 16.9047Z" fill="#CCDEE2"/>
<path d="M21.2514 15.014C21.3718 15.014 21.4923 15.0696 21.5757 15.1715C21.7148 15.3476 21.687 15.6071 21.5016 15.7461L20.5748 16.469C20.5007 16.5246 20.408 16.5524 20.3246 16.5524C20.2041 16.5524 20.0836 16.4968 20.0002 16.3949C19.8612 16.2188 19.889 15.9593 20.0744 15.8203L21.0011 15.0974C21.0753 15.0418 21.168 15.014 21.2514 15.014ZM21.2514 14.3374C21.0104 14.3374 20.7694 14.4208 20.5841 14.5691L19.6573 15.292C19.1846 15.6627 19.1012 16.3485 19.4719 16.8212C19.6758 17.09 19.9909 17.2382 20.3338 17.2382C20.5748 17.2382 20.8158 17.1548 21.0011 17.0065L21.9279 16.2836C22.4006 15.9129 22.484 15.2271 22.1133 14.7545C21.9094 14.4857 21.5943 14.3374 21.2514 14.3374Z" fill="#296CB5"/>
<path d="M26.9696 13.6794C26.6174 13.6794 26.2745 13.5404 26.0243 13.2995C25.876 13.1604 25.8019 12.9751 25.7926 12.7712C25.7926 12.5673 25.8667 12.3819 25.9965 12.2336C26.1355 12.0854 26.3394 12.002 26.534 12.002C26.7101 12.002 26.8769 12.0576 27.0067 12.178C27.433 12.1966 27.7296 12.4746 27.7759 12.8361C27.8037 13.0307 27.7389 13.2253 27.6184 13.3829C27.4979 13.5404 27.3125 13.6424 27.1179 13.6609C27.0716 13.6609 27.016 13.6609 26.9696 13.6609V13.6794Z" fill="#CCDEE2"/>
<path d="M26.5433 12.354C26.6453 12.354 26.7472 12.3911 26.8306 12.4652C26.8677 12.5023 26.9233 12.5208 26.9789 12.5208C26.9789 12.5208 26.9882 12.5208 26.9974 12.5208C27.016 12.5208 27.0252 12.5208 27.0438 12.5208C27.2477 12.5208 27.4238 12.6784 27.4516 12.8823C27.4794 13.1047 27.3125 13.3086 27.0901 13.3364C27.053 13.3364 27.016 13.3364 26.9789 13.3364C26.7194 13.3364 26.4599 13.2345 26.2653 13.0491C26.0985 12.8916 26.0985 12.6321 26.256 12.4652C26.3394 12.3818 26.4414 12.3355 26.5526 12.3355M26.5433 11.6682C26.2467 11.6682 25.9594 11.7887 25.7555 12.0018C25.5516 12.215 25.4497 12.493 25.4497 12.7803C25.4497 13.0676 25.5795 13.3457 25.7833 13.5403C26.0984 13.8369 26.5248 14.013 26.9696 14.013C27.0345 14.013 27.0994 14.013 27.1643 14.0037C27.4516 13.9666 27.7111 13.8276 27.8964 13.5959C28.0818 13.3642 28.1559 13.0862 28.1281 12.7896C28.0725 12.2706 27.6462 11.8721 27.1365 11.8258C26.9604 11.7145 26.7565 11.6589 26.5526 11.6589L26.5433 11.6682Z" fill="#296CB5"/>
<path d="M30.343 18.7489C30.204 18.7489 30.0743 18.7119 29.9538 18.6377C29.268 18.2207 28.6656 17.6461 28.23 16.9788C28.1188 16.812 28.0817 16.6081 28.1188 16.4135C28.1558 16.2188 28.2763 16.052 28.4431 15.9408C28.5636 15.8574 28.7119 15.8203 28.8509 15.8203C29.1012 15.8203 29.3421 15.9501 29.4811 16.1632C29.7962 16.6452 30.2226 17.0622 30.723 17.3588C31.0752 17.5719 31.1957 18.0353 30.9825 18.3875C30.8435 18.6192 30.6025 18.7489 30.3338 18.7489H30.343Z" fill="#CCDEE2"/>
<path d="M28.8602 16.1631C28.99 16.1631 29.129 16.228 29.2031 16.3485C29.5461 16.8767 30.0187 17.3216 30.5563 17.646C30.7509 17.7665 30.8158 18.0167 30.6953 18.2113C30.6211 18.3411 30.4821 18.4059 30.3431 18.4059C30.269 18.4059 30.1948 18.3874 30.1299 18.3503C29.4812 17.9611 28.9251 17.4235 28.5173 16.7933C28.3968 16.608 28.4432 16.3485 28.6378 16.228C28.7027 16.1817 28.7861 16.1631 28.8602 16.1631ZM28.8602 15.4866C28.6471 15.4866 28.4432 15.5514 28.2671 15.6627C28.0261 15.8202 27.8593 16.0704 27.7944 16.3485C27.7388 16.6358 27.7944 16.9231 27.952 17.164C28.4154 17.8777 29.0549 18.4893 29.787 18.9249C29.9538 19.0269 30.1485 19.0825 30.3524 19.0825C30.7323 19.0825 31.0938 18.8786 31.2884 18.5542C31.5942 18.0352 31.4274 17.3679 30.9177 17.0621C30.4636 16.7933 30.0743 16.4133 29.787 15.9685C29.5831 15.6627 29.2402 15.4773 28.8788 15.4773L28.8602 15.4866Z" fill="#296CB5"/>
<path d="M25.218 22.799C24.9214 22.799 24.6434 22.6229 24.5322 22.3449C24.458 22.1595 24.4487 21.9556 24.5322 21.7703C24.6063 21.5849 24.7453 21.4366 24.9307 21.3625C25.357 21.1864 25.7926 21.0752 26.2467 21.0474C26.6916 21.0474 27.0159 21.3532 27.0437 21.7425C27.053 21.9371 26.9974 22.1317 26.8584 22.2893C26.7286 22.4375 26.5433 22.5302 26.3394 22.5488C26.0521 22.5673 25.774 22.6414 25.5053 22.7526C25.4126 22.7897 25.3107 22.8175 25.2087 22.8175L25.218 22.799Z" fill="#CCDEE2"/>
<path d="M26.2931 21.3809C26.5062 21.3809 26.6823 21.5477 26.7009 21.7609C26.7194 21.9833 26.5433 22.1872 26.3209 22.1965C25.9965 22.215 25.6814 22.2984 25.3756 22.4282C25.32 22.4467 25.2644 22.4652 25.218 22.4652C25.0605 22.4652 24.9029 22.3725 24.838 22.215C24.7454 22.0111 24.838 21.7609 25.0512 21.6775C25.4404 21.5106 25.839 21.418 26.256 21.3809C26.2653 21.3809 26.2745 21.3809 26.2838 21.3809M26.2931 20.6951C26.2931 20.6951 26.2282 20.6951 26.2097 20.6951C25.7185 20.7321 25.2366 20.8434 24.7824 21.038C24.5137 21.1492 24.3098 21.3624 24.1985 21.6311C24.0873 21.8999 24.0966 22.1965 24.2078 22.4652C24.3746 22.8637 24.7732 23.1232 25.2087 23.1232C25.357 23.1232 25.5053 23.0954 25.6351 23.0398C25.8668 22.9379 26.1077 22.8823 26.358 22.8637C26.6453 22.8452 26.914 22.7155 27.1087 22.493C27.3033 22.2706 27.396 21.9926 27.3774 21.7053C27.3403 21.1399 26.8584 20.6951 26.2931 20.6951Z" fill="#296CB5"/>
<path d="M34.3283 21.6961C34.0502 21.6961 33.8 21.5478 33.6703 21.2976C33.5776 21.1215 33.559 20.9176 33.6147 20.723C33.6703 20.5284 33.8 20.3708 33.9761 20.2781C34.18 20.1669 34.421 20.1113 34.6526 20.1113C34.7824 20.1113 34.9029 20.1299 35.0234 20.1577C35.218 20.2133 35.3755 20.3338 35.4775 20.5098C35.5794 20.6859 35.6072 20.8898 35.5516 21.0845C35.4682 21.4088 35.1624 21.6405 34.8287 21.6405C34.7639 21.6405 34.699 21.6405 34.6341 21.6127C34.5692 21.6683 34.4488 21.6961 34.319 21.6961H34.3283Z" fill="#CCDEE2"/>
<path d="M34.6527 20.4541C34.7453 20.4541 34.8473 20.4634 34.94 20.4912C35.1624 20.5468 35.2922 20.7785 35.2273 20.9917C35.1809 21.177 35.0141 21.2975 34.8288 21.2975C34.7917 21.2975 34.7546 21.2975 34.7175 21.279C34.6897 21.279 34.6712 21.2697 34.6434 21.2697C34.5971 21.2697 34.5507 21.279 34.5044 21.3068C34.4395 21.3439 34.3746 21.3531 34.3098 21.3531C34.1615 21.3531 34.0225 21.2697 33.9483 21.14C33.8371 20.9361 33.9205 20.6951 34.1151 20.5839C34.2727 20.5005 34.458 20.4541 34.6341 20.4541M34.6527 19.7776C34.3561 19.7776 34.0688 19.8517 33.8093 19.9907C33.281 20.2781 33.0771 20.9361 33.3644 21.4643C33.5498 21.8165 33.9205 22.0389 34.3283 22.0389C34.458 22.0389 34.5785 22.0204 34.699 21.9741C34.7453 21.9741 34.7917 21.9741 34.8288 21.9741C35.32 21.9741 35.7555 21.6404 35.8853 21.1678C35.9594 20.8897 35.9224 20.5932 35.7741 20.3429C35.6258 20.0927 35.3941 19.9073 35.1161 19.8332C34.9678 19.7961 34.8102 19.7776 34.6527 19.7776Z" fill="#296CB5"/>
<path d="M13.596 22.2058C13.5219 22.2058 13.4385 22.1965 13.3643 22.1687C13.1697 22.1038 13.0122 21.9741 12.9288 21.7887C12.8361 21.6126 12.8268 21.4087 12.8917 21.2141C13.0678 20.6951 13.2809 20.1854 13.5404 19.6942C13.6702 19.4439 13.9297 19.2957 14.2077 19.2957C14.3282 19.2957 14.4487 19.3235 14.5599 19.3791C14.736 19.4717 14.8657 19.6293 14.9306 19.8239C14.9955 20.0185 14.9677 20.2224 14.875 20.3985C14.6618 20.8063 14.4765 21.2419 14.3282 21.6868C14.2262 21.9926 13.9389 22.1965 13.6146 22.1965L13.596 22.2058Z" fill="#CCDEE2"/>
<path d="M14.1892 19.6477C14.2541 19.6477 14.319 19.6663 14.3839 19.6941C14.5877 19.796 14.6619 20.0463 14.5599 20.2501C14.3375 20.6765 14.1429 21.1306 13.9853 21.594C13.9297 21.7701 13.7722 21.872 13.5961 21.872C13.5497 21.872 13.5127 21.872 13.4663 21.8535C13.2532 21.7793 13.1327 21.5476 13.2068 21.3345C13.3737 20.834 13.5868 20.3428 13.8278 19.8702C13.9019 19.7311 14.0409 19.6477 14.1892 19.6477ZM14.1892 18.9712C13.7814 18.9712 13.4107 19.1936 13.2254 19.5551C12.9566 20.0555 12.7342 20.5838 12.5581 21.1213C12.3727 21.6959 12.6786 22.3076 13.2532 22.5022C13.3644 22.5393 13.4756 22.5578 13.5961 22.5578C14.0687 22.5578 14.4858 22.2613 14.6341 21.8071C14.7731 21.3808 14.9492 20.9638 15.1624 20.5653C15.3014 20.3058 15.3292 20.0092 15.2365 19.7311C15.1531 19.4531 14.9585 19.2214 14.699 19.0917C14.5414 19.0083 14.3653 18.9619 14.1892 18.9619V18.9712Z" fill="#296CB5"/>
<path d="M10.4544 23.7907C10.2505 23.7907 10.0466 23.7073 9.90757 23.5498C9.56466 23.1791 9.44418 22.6415 9.5832 22.1596C9.67588 21.8445 9.97245 21.6221 10.3061 21.6221C10.3802 21.6221 10.4544 21.6313 10.5193 21.6499C10.7139 21.7055 10.8714 21.8352 10.9641 22.0113C11.0568 22.1874 11.0753 22.3913 11.0197 22.5859C11.1402 22.6693 11.2143 22.864 11.2051 23.0586C11.2051 23.2625 11.1124 23.4478 10.9641 23.5776C10.8251 23.7073 10.649 23.7815 10.4544 23.7815V23.7907Z" fill="#CCDEE2"/>
<path d="M10.3061 21.9742C10.3061 21.9742 10.3802 21.9741 10.4266 21.9927C10.6397 22.0576 10.7695 22.2893 10.7046 22.5024C10.6768 22.5951 10.7046 22.697 10.7695 22.7712C10.927 22.938 10.9177 23.1975 10.7509 23.3551C10.6675 23.4292 10.5748 23.4663 10.4729 23.4663C10.3617 23.4663 10.2505 23.4199 10.1671 23.3365C9.90755 23.0585 9.81488 22.6414 9.91682 22.28C9.97243 22.1039 10.13 21.9834 10.3061 21.9834M10.3061 21.2883C9.82414 21.2883 9.39782 21.6127 9.25881 22.0668C9.08272 22.6692 9.231 23.318 9.65732 23.7814C9.86122 24.0038 10.1578 24.1336 10.4544 24.1336C10.7324 24.1336 10.9919 24.0316 11.1958 23.8463C11.4089 23.6516 11.5294 23.3829 11.548 23.0863C11.548 22.8731 11.5016 22.66 11.3904 22.4746C11.4368 21.9741 11.1216 21.483 10.6212 21.3347C10.5192 21.3069 10.4173 21.2883 10.3061 21.2883Z" fill="#296CB5"/>
<path d="M34.7082 27.4514C34.5507 27.4514 34.4024 27.4236 34.2541 27.3773C34.0595 27.3124 33.9112 27.1826 33.8185 26.9973C33.7258 26.8119 33.7166 26.6173 33.7815 26.4227C33.8834 26.1168 34.1707 25.913 34.4951 25.913C34.5785 25.913 34.6619 25.9222 34.736 25.95C34.8102 25.8481 34.9863 25.7832 35.1624 25.7832C35.3848 25.7832 35.5887 25.8759 35.737 26.0427C35.8667 26.191 35.9316 26.3856 35.9131 26.5895C35.8945 26.7934 35.8018 26.9695 35.6536 27.0992C35.3941 27.3217 35.0604 27.4421 34.7082 27.4421V27.4514Z" fill="#CCDEE2"/>
<path d="M35.1624 26.126C35.2736 26.126 35.3941 26.1724 35.4775 26.265C35.6258 26.4411 35.6072 26.7006 35.4312 26.8396C35.2365 27.0065 34.9678 27.0991 34.7083 27.0991C34.5878 27.0991 34.4766 27.0806 34.3654 27.0435C34.1522 26.9694 34.0317 26.7377 34.1059 26.5245C34.1615 26.3577 34.319 26.2465 34.4951 26.2465C34.5414 26.2465 34.5878 26.2465 34.6248 26.265C34.6527 26.265 34.6805 26.2743 34.7083 26.2743C34.7731 26.2743 34.8473 26.2558 34.8936 26.2094C34.9678 26.1446 35.0697 26.1075 35.1624 26.1075M35.1624 25.4495C34.977 25.4495 34.7917 25.4958 34.6341 25.5885C34.5878 25.5885 34.5414 25.5885 34.4951 25.5885C34.0317 25.5885 33.6147 25.885 33.4664 26.3299C33.3737 26.6079 33.3922 26.9045 33.522 27.164C33.6517 27.4235 33.8742 27.6181 34.1522 27.7108C34.3376 27.7757 34.5229 27.8035 34.7175 27.8035C35.1439 27.8035 35.5609 27.6552 35.8853 27.3772C36.1077 27.1918 36.2375 26.923 36.2653 26.6357C36.2838 26.3484 36.1911 26.0611 36.0058 25.8387C35.8019 25.5977 35.496 25.4587 35.1809 25.4587L35.1624 25.4495Z" fill="#296CB5"/>
<path d="M2.76212 26.5802C2.66017 26.5802 2.55823 26.5616 2.46555 26.5153C2.37287 26.5246 2.308 26.5338 2.25239 26.5338C1.90948 26.5338 1.61291 26.3021 1.52023 25.9685C1.41828 25.57 1.66852 25.1622 2.06703 25.0603C2.18751 25.0325 2.31727 25.0139 2.43775 25.0139C2.65091 25.0139 2.86407 25.0603 3.04943 25.1437C3.23478 25.2178 3.3738 25.3661 3.44794 25.5514C3.52208 25.7368 3.52208 25.9407 3.44794 26.1261C3.32746 26.4041 3.05869 26.5802 2.76212 26.5802Z" fill="#CCDEE2"/>
<path d="M2.44697 25.3475C2.61379 25.3475 2.77135 25.3845 2.9289 25.4494C3.13279 25.5421 3.23474 25.783 3.14206 25.9869C3.07719 26.1445 2.91963 26.2372 2.76208 26.2372C2.70647 26.2372 2.65087 26.2279 2.59526 26.2001C2.54892 26.1816 2.49331 26.1723 2.43771 26.1723C2.4099 26.1723 2.37283 26.1723 2.34503 26.1816C2.30795 26.1816 2.28015 26.1908 2.24308 26.1908C2.05772 26.1908 1.8909 26.0703 1.84456 25.8757C1.78895 25.6533 1.9187 25.4309 2.14113 25.3753C2.23381 25.3474 2.33576 25.3382 2.43771 25.3382M2.44697 24.6709C2.28942 24.6709 2.14113 24.6894 1.99285 24.7265C1.40897 24.8748 1.0568 25.4679 1.19582 26.0518C1.3163 26.5337 1.75189 26.8766 2.25235 26.8766C2.30796 26.8766 2.36356 26.8766 2.41917 26.8674C2.53038 26.9044 2.6416 26.923 2.76208 26.923C3.19767 26.923 3.58692 26.6635 3.763 26.265C3.87422 25.9962 3.88349 25.6996 3.77227 25.4309C3.66106 25.1621 3.45717 24.9489 3.1884 24.8285C2.94744 24.7265 2.69721 24.6709 2.43771 24.6709H2.44697Z" fill="#296CB5"/>
<path d="M7.92429 28.276C7.59991 28.276 7.27554 28.276 6.95117 28.2575C6.74727 28.2575 6.56191 28.1648 6.43217 28.0165C6.30242 27.8682 6.22827 27.6829 6.22827 27.479C6.24681 27.0712 6.57118 26.7561 6.97897 26.7561C7.31261 26.7654 7.61845 26.7746 7.92429 26.7746C8.39695 26.7746 8.86961 26.7654 9.34227 26.7375C9.77786 26.7375 10.1115 27.0527 10.13 27.4419C10.1393 27.6458 10.0744 27.8312 9.93541 27.9794C9.80566 28.1277 9.6203 28.2204 9.41641 28.2297C8.91595 28.2575 8.41549 28.2667 7.91502 28.2667L7.92429 28.276Z" fill="#CCDEE2"/>
<path d="M9.38859 27.0806C9.60175 27.0806 9.78711 27.2474 9.79638 27.4698C9.80564 27.6923 9.63882 27.8869 9.40713 27.9054C8.91593 27.9332 8.42474 27.9425 7.92427 27.9425C7.5999 27.9425 7.27552 27.9425 6.96042 27.9239C6.73799 27.9239 6.55263 27.7293 6.5619 27.4976C6.5619 27.2752 6.74726 27.0991 6.96969 27.0991C6.96969 27.0991 6.97895 27.0991 6.98822 27.0991C7.29406 27.1084 7.60917 27.1176 7.92427 27.1176C8.4062 27.1176 8.88813 27.1084 9.36079 27.0806C9.36079 27.0806 9.37932 27.0806 9.38859 27.0806ZM9.38859 26.3948C9.38859 26.3948 9.34225 26.3948 9.32371 26.3948C8.86032 26.4226 8.39693 26.4318 7.92427 26.4318C7.61843 26.4318 7.32186 26.4318 7.01602 26.4133C6.38581 26.4133 5.91315 26.8767 5.88535 27.4606C5.87608 27.7479 5.97803 28.0259 6.17265 28.2391C6.36728 28.4522 6.63604 28.5727 6.93261 28.582C7.25699 28.5912 7.59063 28.6005 7.92427 28.6005C8.42474 28.6005 8.94373 28.582 9.4442 28.5542C9.7315 28.5356 10.0003 28.4059 10.1949 28.1927C10.3895 27.9796 10.4915 27.6923 10.4729 27.4049C10.4451 26.8303 9.9632 26.3762 9.38859 26.3762V26.3948Z" fill="#296CB5"/>
</svg>
