<svg width="109" height="109" viewBox="0 0 109 109" fill="none" xmlns="http://www.w3.org/2000/svg">
<mask id="path-1-inside-1_1165_15110" fill="white">
<path d="M73.6885 0C77.5544 0.000101054 80.6885 3.13407 80.6885 7V27.4521H101.14C105.006 27.4521 108.14 30.5862 108.14 34.4521V73.6875C108.14 77.5535 105.006 80.6875 101.14 80.6875H80.6885V101.14C80.6885 105.006 77.5544 108.14 73.6885 108.14H34.4531C30.5871 108.14 27.4531 105.006 27.4531 101.14V80.6875H7C3.13402 80.6875 1.49569e-05 77.5535 0 73.6875V34.4521C5.89797e-06 30.5862 3.13401 27.4521 7 27.4521H27.4531V7C27.4531 3.13401 30.5871 0 34.4531 0H73.6885Z"/>
</mask>
<path d="M73.6885 0C77.5544 0.000101054 80.6885 3.13407 80.6885 7V27.4521H101.14C105.006 27.4521 108.14 30.5862 108.14 34.4521V73.6875C108.14 77.5535 105.006 80.6875 101.14 80.6875H80.6885V101.14C80.6885 105.006 77.5544 108.14 73.6885 108.14H34.4531C30.5871 108.14 27.4531 105.006 27.4531 101.14V80.6875H7C3.13402 80.6875 1.49569e-05 77.5535 0 73.6875V34.4521C5.89797e-06 30.5862 3.13401 27.4521 7 27.4521H27.4531V7C27.4531 3.13401 30.5871 0 34.4531 0H73.6885Z" fill="white"/>
<path d="M73.6885 0L73.6886 -4H73.6885V0ZM80.6885 27.4521H76.6885V31.4521H80.6885V27.4521ZM101.14 27.4521V23.4521V23.4521V27.4521ZM108.14 34.4521H112.14V34.4521L108.14 34.4521ZM108.14 73.6875L112.14 73.6875V73.6875H108.14ZM101.14 80.6875V84.6875V84.6875V80.6875ZM80.6885 80.6875V76.6875H76.6885V80.6875H80.6885ZM80.6885 101.14H84.6885V101.14H80.6885ZM73.6885 108.14V112.14H73.6886L73.6885 108.14ZM27.4531 80.6875H31.4531V76.6875H27.4531V80.6875ZM7 80.6875V84.6875V84.6875V80.6875ZM0 73.6875H-4V73.6875L0 73.6875ZM0 34.4521L-4 34.4521V34.4521H0ZM7 27.4521V31.4521V31.4521V27.4521ZM27.4531 27.4521V31.4521H31.4531V27.4521H27.4531ZM27.4531 7L23.4531 7V7H27.4531ZM73.6885 0L73.6884 4C75.3453 4.00004 76.6885 5.34331 76.6885 7H80.6885H84.6885C84.6885 0.924826 79.7634 -3.99984 73.6886 -4L73.6885 0ZM80.6885 7H76.6885V27.4521H80.6885H84.6885V7H80.6885ZM80.6885 27.4521V31.4521H101.14V27.4521V23.4521H80.6885V27.4521ZM101.14 27.4521V31.4521C102.796 31.4521 104.14 32.7953 104.14 34.4522L108.14 34.4521L112.14 34.4521C112.14 28.377 107.215 23.4521 101.14 23.4521V27.4521ZM108.14 34.4521H104.14V73.6875H108.14H112.14V34.4521H108.14ZM108.14 73.6875L104.14 73.6875C104.14 75.3444 102.796 76.6875 101.14 76.6875V80.6875V84.6875C107.215 84.6875 112.14 79.7626 112.14 73.6875L108.14 73.6875ZM101.14 80.6875V76.6875H80.6885V80.6875V84.6875H101.14V80.6875ZM80.6885 80.6875H76.6885V101.14H80.6885H84.6885V80.6875H80.6885ZM80.6885 101.14H76.6885C76.6885 102.796 75.3453 104.14 73.6884 104.14L73.6885 108.14L73.6886 112.14C79.7634 112.139 84.6885 107.215 84.6885 101.14H80.6885ZM73.6885 108.14V104.14H34.4531V108.14V112.14H73.6885V108.14ZM34.4531 108.14V104.14C32.7963 104.14 31.4531 102.797 31.4531 101.14H27.4531H23.4531C23.4531 107.215 28.378 112.14 34.4531 112.14V108.14ZM27.4531 101.14H31.4531V80.6875H27.4531H23.4531V101.14H27.4531ZM27.4531 80.6875V76.6875H7V80.6875V84.6875H27.4531V80.6875ZM7 80.6875V76.6875C5.34317 76.6875 4.00001 75.3444 4 73.6875L0 73.6875L-4 73.6875C-3.99998 79.7626 0.924862 84.6875 7 84.6875V80.6875ZM0 73.6875H4V34.4521H0H-4V73.6875H0ZM0 34.4521L4 34.4522C4 32.7953 5.34316 31.4521 7 31.4521V27.4521V23.4521C0.924865 23.4521 -3.99999 28.377 -4 34.4521L0 34.4521ZM7 27.4521V31.4521H27.4531V27.4521V23.4521H7V27.4521ZM27.4531 27.4521H31.4531V7H27.4531H23.4531V27.4521H27.4531ZM27.4531 7L31.4531 7C31.4531 5.34315 32.7963 4 34.4531 4V0V-4C28.378 -4 23.4531 0.924868 23.4531 7L27.4531 7ZM34.4531 0V4H73.6885V0V-4H34.4531V0Z" fill="#23577A" mask="url(#path-1-inside-1_1165_15110)"/>
</svg>
