<svg width="141" height="141" viewBox="0 0 141 141" fill="none" xmlns="http://www.w3.org/2000/svg">
<g clip-path="url(#clip0_1165_15109)">
<path d="M72.1214 140.367C70.1607 140.367 68.5441 139.017 68.1912 137.082L59.9386 91.7366L40.9935 106.346C40.3748 106.826 39.6515 107.074 38.8933 107.074C38.0262 107.074 37.1896 106.734 36.5404 106.115C35.2855 104.926 35.0982 103.105 36.0829 101.684L49.6948 82.0113L3.98769 76.1029C1.98337 75.8459 0.549847 74.2555 0.49756 72.2337C0.445274 70.2163 1.79601 68.5519 3.7829 68.1902L49.1284 59.9377L34.5187 40.9925C33.4642 39.6244 33.5601 37.7943 34.7496 36.5395C35.4119 35.8423 36.2877 35.4589 37.2201 35.4589C37.9129 35.4589 38.5927 35.6767 39.1809 36.0863L58.8493 49.6982L64.7577 3.9911C65.0148 1.98679 66.6095 0.553263 68.6269 0.500977H68.7402C70.7009 0.500977 72.3175 1.85171 72.6704 3.78631L80.923 49.1318L99.8681 34.5264C100.487 34.0515 101.214 33.7988 101.968 33.7988C102.835 33.7988 103.668 34.1386 104.321 34.7574C105.572 35.9469 105.763 37.7725 104.779 39.193L91.1668 58.8615L136.874 64.7698C138.878 65.0269 140.312 66.6173 140.364 68.639C140.416 70.6564 139.066 72.3209 137.079 72.6825L91.7332 80.9351L106.343 99.8802C107.397 101.248 107.302 103.078 106.112 104.333C105.45 105.03 104.574 105.414 103.641 105.414C102.949 105.414 102.269 105.196 101.681 104.791L82.0079 91.1789L76.0995 136.89C75.8381 138.895 74.2477 140.328 72.2303 140.38H72.117L72.1214 140.367ZM61.3939 85.8326C61.6554 85.8326 61.9081 85.8805 62.1521 85.972C62.8362 86.2334 63.3416 86.8435 63.4723 87.5624L72.0909 134.934L78.2607 87.1833C78.3566 86.4557 78.8271 85.8239 79.4981 85.5232C79.7683 85.4012 80.0602 85.3402 80.3565 85.3402C80.7879 85.3402 81.2018 85.4709 81.5591 85.7149L99.8638 98.3813L86.2693 80.7521C85.8205 80.1726 85.7072 79.3883 85.9686 78.7042C86.23 78.0201 86.84 77.5147 87.5633 77.384L134.935 68.7654L87.1799 62.5956C86.4523 62.5041 85.8205 62.0291 85.5198 61.3581C85.2235 60.6915 85.2976 59.8985 85.7115 59.2972L98.3779 40.9925L80.7487 54.5827C80.3827 54.8659 79.9208 55.0227 79.4589 55.0227C79.1975 55.0227 78.9448 54.9748 78.7008 54.8833C78.0211 54.6219 77.5113 54.0119 77.3805 53.2929L68.762 5.92135L62.5922 53.672C62.4963 54.3997 62.0257 55.0315 61.3547 55.3321C61.0846 55.4541 60.7926 55.5151 60.4964 55.5151C60.065 55.5151 59.6511 55.3844 59.2938 55.1404L40.9891 42.474L54.5836 60.1033C55.0324 60.6828 55.1457 61.4671 54.8843 62.1511C54.6228 62.8352 54.0128 63.3407 53.2895 63.4714L5.91357 72.0899L53.6686 78.2598C54.3963 78.3512 55.0324 78.8262 55.3287 79.4972C55.625 80.1638 55.5509 80.9569 55.137 81.5582L42.4706 99.8628L60.0998 86.2683C60.4571 85.9938 60.8841 85.8413 61.3373 85.8282H61.3939V85.8326Z" fill="#FEDCBB"/>
<path d="M68.7423 0.997801C70.4634 0.997801 71.8708 2.16989 72.1845 3.87792L80.5808 50.0251L100.171 34.9187C100.716 34.5004 101.343 34.2912 101.966 34.2912C102.685 34.2912 103.4 34.5658 103.975 35.1104C105.047 36.13 105.208 37.6855 104.367 38.9012L90.2887 59.245L136.806 65.2579C138.562 65.4845 139.817 66.8788 139.861 68.6435C139.904 70.4125 138.723 71.8678 136.985 72.1815L90.8377 80.5779L105.944 100.168C106.846 101.336 106.763 102.9 105.748 103.972C105.169 104.582 104.41 104.9 103.639 104.9C103.064 104.9 102.48 104.726 101.962 104.364L81.6179 90.2858L75.6049 136.808C75.3783 138.559 73.984 139.819 72.2194 139.862C72.1845 139.862 72.154 139.862 72.1191 139.862C70.398 139.862 68.9863 138.69 68.6769 136.982L60.2806 90.8304L40.6906 105.937C40.1459 106.355 39.5185 106.564 38.8954 106.564C38.1765 106.564 37.4619 106.29 36.8867 105.745C35.8149 104.73 35.6537 103.17 36.4946 101.954L50.5727 81.6105L4.05516 75.5976C2.30357 75.371 1.04433 73.9767 1.00076 72.212C0.957187 70.443 2.13799 68.9877 3.87652 68.674L50.0237 60.2776L34.9173 40.6876C34.0153 39.5199 34.0981 37.9557 35.1134 36.8838C35.6929 36.2694 36.451 35.9557 37.2222 35.9557C37.7974 35.9557 38.3813 36.1343 38.8998 36.4916L59.2436 50.5698L65.2565 4.04785C65.4831 2.29189 66.8774 1.03702 68.6421 0.993444C68.6769 0.993444 68.7075 0.993444 68.7423 0.993444M60.5028 55.0229C60.1804 55.0229 59.858 54.927 59.5834 54.7353L38.6471 40.2432L54.1936 60.4084C54.5378 60.8528 54.6249 61.4454 54.4202 61.9726C54.2197 62.4998 53.7579 62.8789 53.2045 62.9791L4.44731 71.8504C4.35581 71.8678 4.21202 71.894 4.22074 72.1336C4.22509 72.3733 4.36888 72.3907 4.46474 72.4038L53.6141 78.7566C54.1718 78.8263 54.6554 79.1879 54.882 79.7021C55.1129 80.2162 55.0563 80.8132 54.7339 81.275L40.2418 102.211L60.407 86.6649C60.6815 86.4514 61.0126 86.3381 61.3525 86.3294C61.3655 86.3294 61.3786 86.3294 61.396 86.3294C61.5921 86.3294 61.7882 86.3643 61.9756 86.4383C62.5028 86.6388 62.8819 87.1006 62.9864 87.654L71.8577 136.411C71.8751 136.503 71.9013 136.642 72.1235 136.642C72.1279 136.642 72.1322 136.642 72.1366 136.642C72.3762 136.638 72.3936 136.494 72.4067 136.398L78.7595 87.2488C78.8336 86.6911 79.1909 86.2118 79.705 85.9808C79.9142 85.885 80.1408 85.8414 80.363 85.8414C80.6854 85.8414 81.0079 85.9373 81.2824 86.129L102.219 100.621L86.6722 80.4559C86.328 80.0115 86.2409 79.4189 86.4456 78.8916C86.6461 78.3644 87.1079 77.9854 87.6613 77.8851L136.418 69.0139C136.51 68.9964 136.654 68.9703 136.645 68.7306C136.641 68.491 136.497 68.4736 136.401 68.4605L87.2517 62.1077C86.694 62.038 86.2104 61.6763 85.9838 61.1622C85.7529 60.648 85.8095 60.0511 86.1319 59.5892L100.624 38.6528L80.4588 54.1993C80.1713 54.4216 79.8227 54.5348 79.4741 54.5348C79.278 54.5348 79.082 54.5 78.8946 54.4259C78.3674 54.2255 77.9883 53.7636 77.8837 53.2103L69.0125 4.45307C68.995 4.36157 68.9689 4.22214 68.7467 4.22214C68.7423 4.22214 68.7379 4.22214 68.7336 4.22214C68.4939 4.22649 68.4765 4.37028 68.4634 4.46614L62.1106 53.6155C62.0366 54.1732 61.6793 54.6525 61.1651 54.8834C60.956 54.9749 60.7337 55.0229 60.5072 55.0229M68.7423 0C68.7031 0 68.6595 0 68.6203 0C66.3502 0.0566437 64.5637 1.67317 64.2718 3.92149L58.468 48.8182L39.4706 35.6725C38.7952 35.2063 38.0196 34.9579 37.2222 34.9579C36.1547 34.9579 35.1482 35.398 34.3901 36.1953C33.0263 37.6289 32.9173 39.7247 34.1286 41.2933L48.2373 59.5892L3.69787 67.6936C1.46262 68.1076 -0.0580428 69.9724 -0.00139903 72.2469C0.0552447 74.517 1.67177 76.3078 3.92445 76.5954L48.8211 82.3992L35.6711 101.397C34.5469 103.022 34.7604 105.113 36.1983 106.473C36.939 107.179 37.8976 107.566 38.8911 107.566C39.7581 107.566 40.586 107.279 41.2962 106.734L59.5922 92.6256L67.6966 137.165C68.0931 139.339 69.9144 140.86 72.1191 140.86C72.1584 140.86 72.2019 140.86 72.2455 140.86C74.5156 140.803 76.3021 139.187 76.594 136.938L82.3978 92.0374L101.395 105.187C102.071 105.654 102.846 105.902 103.639 105.902C104.707 105.902 105.713 105.462 106.471 104.665C107.835 103.231 107.94 101.131 106.733 99.5666L92.6242 81.2707L137.164 73.1663C139.399 72.7611 140.915 70.8918 140.858 68.6217C140.802 66.3516 139.185 64.5608 136.933 64.2732L92.0359 58.4694L105.186 39.472C106.31 37.8424 106.097 35.7553 104.663 34.3915C103.918 33.6856 102.964 33.2978 101.97 33.2978C101.103 33.2978 100.275 33.5854 99.5696 34.13L81.2736 48.2387L73.1692 3.69927C72.7727 1.52502 70.9558 0.00435721 68.7467 0.00435721L68.7423 0ZM60.5028 56.0163C60.8688 56.0163 61.2261 55.9422 61.566 55.7897C62.3895 55.4237 62.9777 54.6394 63.091 53.7418L68.8512 9.16321L76.899 53.3845C77.0602 54.2734 77.6877 55.0272 78.5286 55.354C78.8292 55.4673 79.143 55.5283 79.4654 55.5283C80.0406 55.5283 80.6026 55.3366 81.0601 54.9836L96.1535 43.3455L85.3084 59.0184C84.7943 59.7635 84.7028 60.7352 85.0688 61.563C85.4348 62.3909 86.2234 62.9748 87.121 63.0924L131.7 68.8526L87.4739 76.9004C86.5851 77.0616 85.8313 77.6847 85.5045 78.53C85.1821 79.3753 85.3215 80.3426 85.8749 81.0572L97.513 96.1506L81.8401 85.3055C81.4044 85.0005 80.8902 84.8392 80.3543 84.8392C79.9883 84.8392 79.6266 84.9133 79.2911 85.0658C78.4676 85.4318 77.8794 86.2161 77.7661 87.1137L72.0059 131.692L63.9581 87.471C63.7969 86.5821 63.1694 85.8283 62.3285 85.5015C62.0278 85.3883 61.7141 85.3273 61.3917 85.3273H61.3263C60.7686 85.3403 60.2414 85.532 59.797 85.8719L44.7036 97.51L55.5487 81.8371C56.0628 81.092 56.1543 80.1204 55.7883 79.2925C55.4223 78.4646 54.6337 77.8808 53.7361 77.7631L9.15746 72.0029L53.3831 63.9551C54.272 63.7939 55.0258 63.1708 55.3526 62.3255C55.675 61.4802 55.5356 60.5129 54.9822 59.7984L43.3441 44.705L59.017 55.5501C59.4527 55.8551 59.9669 56.0163 60.5028 56.0163Z" fill="#ED2024"/>
</g>
<defs>
<clipPath id="clip0_1165_15109">
<rect width="140.864" height="140.864" fill="white"/>
</clipPath>
</defs>
</svg>
