<svg width="166" height="420" viewBox="0 0 166 420" fill="none" xmlns="http://www.w3.org/2000/svg">
<path d="M41.4812 211.77C41.0212 211.77 40.5712 211.59 40.2412 211.26C39.9112 210.93 39.7212 210.49 39.7212 210.02L39.7012 203.12C39.7012 202.15 40.4812 201.37 41.4512 201.36L129.681 201.15C130.651 201.15 131.431 201.93 131.431 202.9L131.451 209.8C131.451 210.26 131.271 210.71 130.941 211.04C130.611 211.37 130.171 211.56 129.701 211.56L41.4712 211.77H41.4812Z" fill="#CCDEE2"/>
<path d="M129.691 202.9L129.711 209.8L41.4809 210.01L41.4609 203.11L129.691 202.9ZM129.691 199.4L41.4609 199.61C40.5309 199.61 39.6409 199.98 38.9809 200.64C38.3209 201.3 37.9609 202.19 37.9609 203.12L37.9809 210.02C37.9809 211.95 39.5509 213.52 41.4909 213.52L129.721 213.31C131.661 213.31 133.221 211.73 133.221 209.8L133.201 202.9C133.201 201.97 132.831 201.08 132.171 200.42C131.511 199.77 130.621 199.4 129.701 199.4H129.691Z" fill="#296CB5"/>
<path d="M38.5417 195.14C38.0817 195.14 37.6317 194.96 37.3017 194.63C36.9717 194.3 36.7817 193.86 36.7817 193.39L36.7617 186.49C36.7617 185.52 37.5417 184.74 38.5117 184.73L126.742 184.52C127.712 184.52 128.492 185.3 128.492 186.27L128.512 193.17C128.512 193.63 128.332 194.08 128.002 194.41C127.672 194.74 127.232 194.93 126.762 194.93L38.5317 195.14H38.5417Z" fill="#CCDEE2"/>
<path d="M126.751 186.27L126.771 193.17L38.5415 193.38L38.5215 186.48L126.751 186.27ZM126.751 182.76L38.5215 182.97C36.5815 182.97 35.0215 184.55 35.0215 186.48L35.0415 193.38C35.0415 194.31 35.4115 195.2 36.0715 195.86C36.7315 196.51 37.6215 196.88 38.5415 196.88L126.771 196.67C128.711 196.67 130.271 195.09 130.271 193.16L130.251 186.26C130.251 185.33 129.881 184.44 129.221 183.78C128.561 183.13 127.671 182.76 126.751 182.76Z" fill="#296CB5"/>
<path d="M41.4011 178.49C40.9411 178.49 40.4911 178.31 40.1611 177.98C39.8311 177.65 39.6411 177.21 39.6411 176.74L39.6211 169.84C39.6211 168.87 40.4011 168.09 41.3711 168.08L129.601 167.87C130.571 167.87 131.351 168.65 131.351 169.62L131.371 176.52C131.371 176.98 131.191 177.43 130.861 177.76C130.531 178.09 130.091 178.28 129.621 178.28L41.3911 178.49H41.4011Z" fill="#CCDEE2"/>
<path d="M129.611 169.62L129.631 176.52L41.4009 176.73L41.3809 169.83L129.611 169.62ZM129.611 166.12L41.3809 166.33C39.4409 166.33 37.8809 167.91 37.8809 169.84L37.9009 176.74C37.9009 177.67 38.2709 178.56 38.9309 179.22C39.5909 179.87 40.4809 180.24 41.4009 180.24L129.631 180.03C131.571 180.03 133.131 178.45 133.131 176.52L133.111 169.62C133.111 168.69 132.741 167.8 132.081 167.14C131.421 166.49 130.531 166.12 129.611 166.12Z" fill="#296CB5"/>
<path d="M44.2602 161.84C43.2902 161.84 42.5102 161.06 42.5102 160.09L42.4902 153.19C42.4902 152.73 42.6702 152.28 43.0002 151.95C43.3302 151.62 43.7702 151.43 44.2402 151.43L132.47 151.22C132.93 151.22 133.38 151.4 133.71 151.73C134.04 152.06 134.23 152.5 134.23 152.97L134.25 159.87C134.25 160.84 133.47 161.62 132.5 161.63L44.2702 161.84H44.2602Z" fill="#CCDEE2"/>
<path d="M132.47 152.98L132.49 159.88L44.2602 160.09L44.2402 153.19L132.47 152.98ZM132.47 149.47L44.2402 149.68C42.3002 149.68 40.7402 151.26 40.7402 153.19L40.7602 160.09C40.7602 161.02 41.1302 161.91 41.7902 162.57C42.4502 163.22 43.3402 163.59 44.2602 163.59L132.49 163.38C134.43 163.38 135.99 161.8 135.99 159.87L135.97 152.97C135.97 152.04 135.6 151.15 134.94 150.49C134.28 149.84 133.39 149.47 132.47 149.47Z" fill="#296CB5"/>
<path d="M47.1098 145.2C46.1398 145.2 45.3598 144.42 45.3598 143.45L45.3398 136.55C45.3398 136.09 45.5198 135.64 45.8498 135.31C46.1798 134.98 46.6198 134.79 47.0898 134.79L135.32 134.58C135.78 134.58 136.23 134.76 136.56 135.09C136.89 135.42 137.08 135.86 137.08 136.33L137.1 143.23C137.1 144.2 136.32 144.98 135.35 144.99L47.1198 145.2H47.1098Z" fill="#CCDEE2"/>
<path d="M135.32 136.33L135.34 143.23L47.1098 143.44L47.0898 136.54L135.32 136.33ZM135.32 132.82L47.0898 133.03C45.1498 133.03 43.5898 134.61 43.5898 136.54L43.6098 143.44C43.6098 144.37 43.9798 145.26 44.6398 145.92C45.2998 146.57 46.1898 146.94 47.1098 146.94L135.34 146.73C137.28 146.73 138.84 145.15 138.84 143.22L138.82 136.32C138.82 135.39 138.45 134.5 137.79 133.84C137.13 133.19 136.24 132.82 135.32 132.82Z" fill="#296CB5"/>
<path d="M41.6699 415.44C34.9999 415.37 29.6399 409.89 29.7099 403.23L29.8299 391.48C29.8999 384.88 35.3199 379.52 41.9199 379.52C41.9299 379.52 52.2699 379.63 52.2699 379.63L52.5299 354.46L15.4199 354.07C12.1999 354.04 9.16993 352.75 6.90993 350.44C4.64993 348.13 3.41993 345.08 3.45993 341.86L3.57993 330.11C3.64993 323.51 9.06993 318.15 15.6699 318.15C15.6799 318.15 28.7499 318.29 28.7499 318.29L30.6899 132.41C30.7599 125.81 36.1799 120.45 42.7799 120.45C42.7899 120.45 54.9799 120.58 54.9799 120.58L55.2199 97.8997C55.2899 91.2997 60.7099 85.9397 67.2999 85.9397C67.3099 85.9397 78.7199 86.0597 78.7199 86.0597L79.5099 10.2997C79.5499 6.52973 82.6399 3.46973 86.4099 3.46973C88.3299 3.48973 90.0499 4.21973 91.3399 5.53973C92.6299 6.85973 93.3299 8.59973 93.3099 10.4397L92.5199 86.1997L103.81 86.3197C107.03 86.3497 110.06 87.6397 112.32 89.9497C114.58 92.2597 115.81 95.3097 115.77 98.5297L115.53 121.21L127.6 121.34C134.27 121.41 139.63 126.89 139.56 133.55L137.62 319.43L150.57 319.57C153.8 319.6 156.82 320.89 159.08 323.2C161.34 325.51 162.57 328.56 162.53 331.78L162.41 343.53C162.34 350.13 156.92 355.49 150.32 355.49L113.08 355.1L112.82 380.27L123.04 380.38C129.71 380.45 135.07 385.93 135 392.59L134.88 404.34C134.81 410.94 129.39 416.3 122.8 416.3C122.79 416.3 41.6599 415.46 41.6599 415.46L41.6699 415.44ZM121.11 402.46L121.2 394.14L43.6199 393.33L43.5299 401.65L121.11 402.46ZM99.0299 380.11L99.2899 354.94L66.3299 354.6L66.0699 379.77L99.0299 380.11ZM148.64 341.65L148.73 333.33L17.3699 331.96L17.2799 340.28L148.64 341.65ZM123.83 319.27L125.75 135.11L44.4699 134.26L44.1299 166.74L85.1599 167.17C88.9599 167.21 92.0299 170.34 91.9899 174.14C91.9499 177.91 88.8599 180.97 85.0899 180.97L43.9899 180.54L43.7699 201.95L84.4099 202.37C86.2499 202.39 87.9799 203.12 89.2699 204.44C90.5599 205.76 91.2599 207.5 91.2399 209.34C91.1999 213.11 88.1099 216.17 84.3399 216.17L43.6299 215.75L43.4099 237.16L84.0499 237.58C85.8899 237.6 87.6199 238.33 88.9099 239.65C90.1999 240.97 90.8999 242.71 90.8799 244.55C90.8399 248.32 87.7499 251.38 83.9799 251.38L43.2599 250.96L43.0399 272.37L83.6799 272.79C85.5199 272.81 87.2499 273.54 88.5399 274.86C89.8299 276.18 90.5299 277.92 90.5099 279.76C90.4699 283.53 87.3799 286.59 83.6099 286.59L42.8999 286.17L42.5599 318.43L123.84 319.28L123.83 319.27ZM101.73 121.05L101.95 100.08L68.9899 99.7397L68.7699 120.7L101.73 121.04V121.05Z" fill="#F1BFD9"/>
<path d="M86.4007 6.9C86.4007 6.9 86.4208 6.9 86.4408 6.9C88.3508 6.92 89.8707 8.48 89.8507 10.39L89.0307 89.6L103.771 89.75C108.531 89.8 112.371 93.72 112.321 98.48L112.071 122.87C112.071 123.46 112.001 124.04 111.881 124.6L127.581 124.76C132.341 124.81 136.181 128.73 136.131 133.49L134.181 321.08C134.181 321.67 134.111 322.25 133.991 322.81L150.571 322.98C155.331 323.03 159.171 326.94 159.121 331.71L159.001 343.46C158.951 348.19 155.091 352.01 150.361 352.01C150.331 352.01 150.301 352.01 150.271 352.01L109.531 351.59C109.641 352.15 109.691 352.73 109.691 353.33L109.391 381.93C109.391 382.52 109.321 383.1 109.201 383.66L123.051 383.8C127.811 383.85 131.651 387.76 131.601 392.53L131.481 404.28C131.431 409.01 127.571 412.83 122.841 412.83C122.811 412.83 122.781 412.83 122.751 412.83L41.7407 411.99C36.9808 411.94 33.1407 408.03 33.1907 403.26L33.3107 391.51C33.3607 386.78 37.2207 382.96 41.9507 382.96C41.9807 382.96 42.0107 382.96 42.0407 382.96L55.8907 383.1C55.7807 382.54 55.7307 381.96 55.7307 381.36L56.0307 352.76C56.0307 352.17 56.1007 351.59 56.2207 351.03L15.4807 350.61C10.7207 350.56 6.88075 346.65 6.93075 341.88L7.05075 330.13C7.10075 325.4 10.9607 321.58 15.6907 321.58C15.7207 321.58 15.7507 321.58 15.7807 321.58L32.3607 321.75C32.2507 321.19 32.2007 320.61 32.2007 320.01L34.1507 132.42C34.2007 127.69 38.0607 123.87 42.7907 123.87C42.8207 123.87 42.8507 123.87 42.8807 123.87L58.5807 124.03C58.4707 123.47 58.4207 122.89 58.4207 122.29L58.6707 97.9C58.7207 93.17 62.5807 89.35 67.3107 89.35C67.3407 89.35 67.3708 89.35 67.4007 89.35L82.1407 89.5L82.9607 10.29C82.9807 8.4 84.5208 6.88 86.4108 6.88M103.421 124.52C104.371 124.52 105.151 123.75 105.161 122.8L105.411 98.41C105.411 97.45 104.651 96.67 103.691 96.66L67.3008 96.28H67.2807C66.3307 96.28 65.5508 97.05 65.5407 98L65.2907 122.39C65.2807 123.35 66.0508 124.13 67.0107 124.14L103.401 124.52H103.421ZM85.0807 177.51C85.0807 177.51 85.0607 177.51 85.0407 177.51L40.5607 177.05L40.2707 205.36L84.3607 205.82C86.2708 205.84 87.7907 207.4 87.7707 209.31C87.7507 211.2 86.2107 212.72 84.3207 212.72C84.3107 212.72 84.3007 212.72 84.2807 212.72L40.1907 212.26L39.9007 240.57L83.9907 241.03C85.9007 241.05 87.4207 242.61 87.4007 244.52C87.3808 246.41 85.8407 247.93 83.9507 247.93C83.9407 247.93 83.9307 247.93 83.9108 247.93L39.8207 247.47L39.5307 275.78L83.6208 276.24C85.5308 276.26 87.0507 277.82 87.0307 279.73C87.0107 281.62 85.4707 283.14 83.5807 283.14C83.5707 283.14 83.5607 283.14 83.5407 283.14L39.4507 282.68L39.0607 320.1C39.0508 321.06 39.8207 321.84 40.7807 321.85L125.491 322.73H125.511C126.461 322.73 127.241 321.96 127.251 321.01L129.201 133.42C129.201 132.46 128.441 131.68 127.481 131.67L103.321 131.42L66.9307 131.04L42.7707 130.79H42.7507C41.8007 130.79 41.0207 131.56 41.0107 132.51L40.6207 170.15L85.1007 170.61C87.0107 170.63 88.5307 172.19 88.5107 174.1C88.4908 175.99 86.9507 177.51 85.0607 177.51M150.331 345.12C151.281 345.12 152.061 344.35 152.071 343.4L152.191 331.65C152.191 330.69 151.431 329.91 150.471 329.9L125.431 329.64L40.7207 328.76L15.6807 328.5H15.6607C14.7107 328.5 13.9307 329.27 13.9207 330.22L13.8007 341.97C13.7907 342.93 14.5607 343.71 15.5207 343.72L64.7207 344.23L101.111 344.61L150.311 345.12H150.331ZM100.721 383.57C101.671 383.57 102.451 382.8 102.461 381.85L102.761 353.25C102.771 352.29 102.001 351.51 101.041 351.5L64.6507 351.12H64.6307C63.6807 351.12 62.9007 351.89 62.8907 352.84L62.5907 381.44C62.5807 382.4 63.3507 383.18 64.3107 383.19L100.701 383.57H100.721ZM122.811 405.93C123.761 405.93 124.541 405.16 124.551 404.21L124.671 392.46C124.671 391.5 123.911 390.72 122.951 390.71L100.641 390.48L64.2507 390.1L41.9407 389.87H41.9207C40.9707 389.87 40.1907 390.64 40.1807 391.59L40.0607 403.34C40.0607 404.3 40.8207 405.08 41.7807 405.09L122.791 405.93H122.811ZM86.4007 0C80.7507 0 76.1107 4.6 76.0508 10.24L75.3008 82.55L67.4607 82.47H67.3008C58.8208 82.47 51.8507 89.37 51.7607 97.85L51.5607 117.08L42.9407 116.99H42.7807C34.3007 116.99 27.3307 123.89 27.2407 132.37L25.3407 314.8L15.8407 314.7H15.6807C7.20075 314.7 0.230746 321.6 0.140746 330.08L0.00074586 341.82C-0.0392541 345.97 1.53075 349.88 4.44075 352.85C7.35075 355.82 11.2307 357.48 15.3807 357.52L49.0407 357.87L48.8507 376.14L42.0807 376.07H41.9207C33.4407 376.07 26.4707 382.97 26.3807 391.45L26.2607 403.2C26.1707 411.77 33.0707 418.81 41.6407 418.9L122.651 419.74H122.811C131.291 419.74 138.261 412.84 138.351 404.36L138.471 392.61C138.511 388.46 136.941 384.55 134.031 381.58C131.121 378.61 127.241 376.95 123.091 376.91L116.321 376.84L116.511 358.57L150.171 358.92H150.331C158.811 358.92 165.781 352.02 165.871 343.54L165.991 331.79C166.081 323.22 159.181 316.18 150.611 316.09L141.111 315.99L143.011 133.56C143.051 129.41 141.481 125.5 138.571 122.53C135.661 119.56 131.781 117.91 127.631 117.86L119.011 117.77L119.211 98.54C119.301 89.97 112.401 82.93 103.831 82.84L95.9907 82.76L96.7407 10.45C96.8107 4.75 92.2107 0.06 86.5007 0C86.4808 0 86.4207 0 86.3907 0H86.4007ZM72.2507 117.29L72.4007 103.23L98.4607 103.5L98.3107 117.56L72.2507 117.29ZM47.6107 163.32L47.8807 137.75L66.8807 137.95L103.271 138.33L122.271 138.53L120.421 315.79L46.0407 315.02L46.3007 289.66L83.4907 290.05C83.4907 290.05 83.5707 290.05 83.6007 290.05C89.2507 290.05 93.8907 285.45 93.9507 279.81C93.9807 277.05 92.9307 274.43 90.9907 272.46C89.0607 270.48 86.4707 269.38 83.7007 269.35L46.5107 268.96L46.6607 254.45L83.8507 254.84C83.8507 254.84 83.9307 254.84 83.9607 254.84C89.6107 254.84 94.2507 250.24 94.3107 244.6C94.3407 241.84 93.2907 239.22 91.3507 237.25C89.4107 235.28 86.8307 234.17 84.0607 234.14L46.8707 233.75L47.0207 219.24L84.2107 219.63C84.2107 219.63 84.2907 219.63 84.3207 219.63C89.9707 219.63 94.6107 215.03 94.6707 209.39C94.7007 206.63 93.6507 204.01 91.7107 202.04C89.7807 200.06 87.1907 198.96 84.4207 198.93L47.2307 198.54L47.3807 184.03L84.9607 184.42C84.9607 184.42 85.0407 184.42 85.0707 184.42C90.7207 184.42 95.3607 179.82 95.4207 174.18C95.4507 171.42 94.4007 168.8 92.4607 166.83C90.5307 164.85 87.9407 163.75 85.1707 163.72L47.5907 163.33L47.6107 163.32ZM20.7607 336.87V335.45L40.6507 335.66L125.361 336.54L145.241 336.75V338.17L101.191 337.71L64.8008 337.33L20.7607 336.87ZM69.5508 376.35L69.7407 358.08L95.8008 358.35L95.6107 376.62L69.5508 376.35ZM47.0107 398.24V396.82L64.1707 397L100.561 397.38L117.711 397.56V398.98L47.0107 398.24Z" fill="#ED174B"/>
</svg>
