<svg width="150" height="412" viewBox="0 0 150 412" fill="none" xmlns="http://www.w3.org/2000/svg">
<path d="M51.1741 89.4893H97.5841V128.849L49.4141 127.669L51.1741 89.4893Z" fill="#E5EAF6"/>
<path d="M26.0039 213.179H123.494L123.894 121.609H51.1739H26.8439L26.0039 213.179Z" fill="#E5EAF6"/>
<path d="M123.304 128.659V320.119C123.304 323.049 120.934 325.419 118.024 325.419H31.5539C28.6239 325.419 26.2539 323.049 26.2539 320.119V128.659C26.2539 125.739 28.6239 123.359 31.5539 123.359C31.5539 123.359 50.9239 120.989 50.9239 118.059V93.1691C50.9239 90.2391 53.2939 87.8691 56.2039 87.8691H93.3539C96.2839 87.8691 98.6539 90.2391 98.6539 93.1691V118.059C98.6539 120.989 118.024 123.359 118.024 123.359C120.944 123.359 123.304 125.739 123.304 128.659Z" stroke="black" stroke-width="7.04" stroke-miterlimit="10" stroke-linecap="round"/>
<path d="M93.3638 347.999H56.2138C53.2922 347.999 50.9238 350.367 50.9238 353.289V382.479C50.9238 385.401 53.2922 387.769 56.2138 387.769H93.3638C96.2854 387.769 98.6538 385.401 98.6538 382.479V353.289C98.6538 350.367 96.2854 347.999 93.3638 347.999Z" fill="black" stroke="black" stroke-width="1.41" stroke-miterlimit="10"/>
<path d="M143.575 325.419H5.99508C3.07349 325.419 0.705078 327.787 0.705078 330.709V342.709C0.705078 345.631 3.07349 347.999 5.99508 347.999H143.575C146.497 347.999 148.865 345.631 148.865 342.709V330.709C148.865 327.787 146.497 325.419 143.575 325.419Z" fill="black" stroke="black" stroke-width="1.41" stroke-miterlimit="10"/>
<path d="M116.134 387.77H33.4443C30.5227 387.77 28.1543 390.138 28.1543 393.06V405.06C28.1543 407.981 30.5227 410.349 33.4443 410.349H116.134C119.056 410.349 121.424 407.981 121.424 405.06V393.06C121.424 390.138 119.056 387.77 116.134 387.77Z" fill="black" stroke="black" stroke-width="1.41" stroke-miterlimit="10"/>
<path d="M74.7852 87.8896V3.51953" stroke="black" stroke-width="7.04" stroke-miterlimit="10" stroke-linecap="round"/>
<path d="M26.2656 206.539H74.7856" stroke="black" stroke-width="7.04" stroke-miterlimit="10" stroke-linecap="round"/>
<path d="M26.6543 170.6H75.1843" stroke="black" stroke-width="7.04" stroke-miterlimit="10" stroke-linecap="round"/>
<path d="M26.2656 242.469H74.7856" stroke="black" stroke-width="7.04" stroke-miterlimit="10" stroke-linecap="round"/>
<path d="M26.2656 278.409H74.7856" stroke="black" stroke-width="7.04" stroke-miterlimit="10" stroke-linecap="round"/>
</svg>
