<?xml version="1.0" encoding="utf-8"?>
<!-- Generator: Adobe Illustrator 28.2.0, SVG Export Plug-In . SVG Version: 6.00 Build 0)  -->
<svg version="1.1" id="Layer_2_00000085209700517788850040000017475185922557232309_"
	 xmlns="http://www.w3.org/2000/svg" xmlns:xlink="http://www.w3.org/1999/xlink" x="0px" y="0px" viewBox="0 0 85.4 152.9"
	 style="enable-background:new 0 0 85.4 152.9;" xml:space="preserve">
<style type="text/css">
	.st0{fill:#231F20;}
	.st1{fill:#FFFFFF;}
</style>
<g id="Layer_1-2">
	<path class="st0" d="M66.2,73.3c-0.2,0-0.5-0.1-0.7-0.2c-2.2-0.4-4.4-0.8-6.7-1c-0.4,0-0.7-0.1-1.1-0.1c-0.6,0-1.2-0.1-1.7-0.1h0
		c-0.2,0-0.4,0-0.6,0h0c-0.3,0-0.5,0-0.8,0c-1.5,0.9-3.1,1.5-4.8,1.9c1.7,0,3.4,0.1,5.1,0.2c2.7,0.2,5.5,0.4,8.2,0.8
		c1.2,0.2,2.4,0.4,3.6,0.7c0-0.3,0-0.7,0-1c0-0.1,0-0.2,0.1-0.3c0-0.1,0.1-0.2,0.2-0.2c0,0,0.1-0.1,0.1-0.1c0.1-0.1,0.2-0.2,0.3-0.2
		C67,73.5,66.6,73.4,66.2,73.3z M66.2,73.3c-0.2,0-0.5-0.1-0.7-0.2c-2.2-0.4-4.4-0.8-6.7-1c-0.4,0-0.7-0.1-1.1-0.1
		c-0.6,0-1.2-0.1-1.7-0.1h0c-0.2,0-0.4,0-0.6,0h0c-0.3,0-0.5,0-0.8,0c-1.5,0.9-3.1,1.5-4.8,1.9c1.7,0,3.4,0.1,5.1,0.2
		c2.7,0.2,5.5,0.4,8.2,0.8c1.2,0.2,2.4,0.4,3.6,0.7c0-0.3,0-0.7,0-1c0-0.1,0-0.2,0.1-0.3c0-0.1,0.1-0.2,0.2-0.2c0,0,0.1-0.1,0.1-0.1
		c0.1-0.1,0.2-0.2,0.3-0.2C67,73.5,66.6,73.4,66.2,73.3z M66.2,73.3c-0.2,0-0.5-0.1-0.7-0.2c-2.2-0.4-4.4-0.8-6.7-1
		c-0.4,0-0.7-0.1-1.1-0.1c-0.6,0-1.2-0.1-1.7-0.1h0c-0.2,0-0.4,0-0.6,0h0c-0.3,0-0.5,0-0.8,0c-1.5,0.9-3.1,1.5-4.8,1.9
		c1.7,0,3.4,0.1,5.1,0.2c2.7,0.2,5.5,0.4,8.2,0.8c1.2,0.2,2.4,0.4,3.6,0.7c0-0.3,0-0.7,0-1c0-0.1,0-0.2,0.1-0.3
		c0-0.1,0.1-0.2,0.2-0.2c0,0,0.1-0.1,0.1-0.1c0.1-0.1,0.2-0.2,0.3-0.2C67,73.5,66.6,73.4,66.2,73.3z M66.2,73.3
		c-0.2,0-0.5-0.1-0.7-0.2c-2.2-0.4-4.4-0.8-6.7-1c-0.4,0-0.7-0.1-1.1-0.1c-0.6,0-1.2-0.1-1.7-0.1h0c-0.2,0-0.4,0-0.6,0h0
		c-0.3,0-0.5,0-0.8,0c-1.5,0.9-3.1,1.5-4.8,1.9c1.7,0,3.4,0.1,5.1,0.2c2.7,0.2,5.5,0.4,8.2,0.8c1.2,0.2,2.4,0.4,3.6,0.7
		c0-0.3,0-0.7,0-1c0-0.1,0-0.2,0.1-0.3c0-0.1,0.1-0.2,0.2-0.2c0,0,0.1-0.1,0.1-0.1c0.1-0.1,0.2-0.2,0.3-0.2
		C67,73.5,66.6,73.4,66.2,73.3z M66.2,73.3c-0.2,0-0.5-0.1-0.7-0.2c-2.2-0.4-4.4-0.8-6.7-1c-0.4,0-0.7-0.1-1.1-0.1
		c-0.6,0-1.2-0.1-1.7-0.1h0c-0.2,0-0.4,0-0.6,0h0c-0.3,0-0.5,0-0.8,0c-1.5,0.9-3.1,1.5-4.8,1.9c1.7,0,3.4,0.1,5.1,0.2
		c2.7,0.2,5.5,0.4,8.2,0.8c1.2,0.2,2.4,0.4,3.6,0.7c0-0.3,0-0.7,0-1c0-0.1,0-0.2,0.1-0.3c0-0.1,0.1-0.2,0.2-0.2c0,0,0.1-0.1,0.1-0.1
		c0.1-0.1,0.2-0.2,0.3-0.2C67,73.5,66.6,73.4,66.2,73.3z M66.2,73.3c-0.2,0-0.5-0.1-0.7-0.2c-2.2-0.4-4.4-0.8-6.7-1
		c-0.4,0-0.7-0.1-1.1-0.1c-0.9,0.7-1.8,1.3-2.8,1.9c2.7,0.2,5.5,0.4,8.2,0.8c1.2,0.2,2.4,0.4,3.6,0.7c0-0.3,0-0.7,0-1
		c0-0.1,0-0.2,0.1-0.3c0-0.1,0.1-0.2,0.2-0.2c0,0,0.1-0.1,0.1-0.1c0.1-0.1,0.2-0.2,0.3-0.2C67,73.5,66.6,73.4,66.2,73.3z M66.2,73.3
		c-0.2,0-0.5-0.1-0.7-0.2c-2.2-0.4-4.4-0.8-6.7-1c-0.4,0-0.7-0.1-1.1-0.1c-0.6,0-1.2-0.1-1.7-0.1h0c-0.2,0-0.4,0-0.6,0h0
		c-0.3,0-0.5,0-0.8,0c-1.2-0.1-2.4-0.1-3.6-0.2c-5.4-0.2-10.8,0.1-16.1,0.6c-1.1,0.1-2.2,0.2-3.2,0.4c0.1,0.2,0.2,0.4,0.2,0.7
		c0,0,0,0.1,0,0.2c0,0.1-0.1,0.3-0.1,0.4c0,0,0,0.1,0,0.1c0,0.1,0,0.1-0.1,0.2c0,0,0,0.1,0,0.1c0,0.1,0,0.1-0.1,0.2v0
		c0.1,0,0.2,0.1,0.2,0.1c0.1,0,0.2,0.1,0.2,0.1c0,0,0,0,0.1,0c0.8-0.1,1.5-0.2,2.3-0.2c0.6-0.1,1.2-0.1,1.7-0.2
		c4.6-0.4,9.2-0.6,13.8-0.5c1.7,0,3.4,0.1,5.1,0.2c2.7,0.2,5.5,0.4,8.2,0.8c1.2,0.2,2.4,0.4,3.6,0.7h0c0-0.3,0-0.7,0-1
		c0-0.1,0-0.2,0.1-0.3c0-0.1,0.1-0.2,0.2-0.2c0,0,0.1-0.1,0.1-0.1c0.1-0.1,0.2-0.2,0.3-0.2C67,73.5,66.6,73.4,66.2,73.3z M66.2,73.3
		c-0.2,0-0.5-0.1-0.7-0.2c-2.2-0.4-4.4-0.8-6.7-1c-0.4,0-0.7-0.1-1.1-0.1c-0.6,0-1.2-0.1-1.7-0.1h0c-0.2,0-0.4,0-0.6,0h0
		c-0.3,0-0.5,0-0.8,0c-1.2-0.1-2.4-0.1-3.6-0.2c-5.4-0.2-10.8,0.1-16.1,0.6c-1.1,0.1-2.2,0.2-3.2,0.4c0.1,0.2,0.2,0.4,0.2,0.7
		c0,0,0,0.1,0,0.2c0,0.1-0.1,0.3-0.1,0.4c0,0,0,0.1,0,0.1c0,0.1,0,0.1-0.1,0.2c0,0,0,0.1,0,0.1c0,0.1,0,0.1-0.1,0.2v0
		c0.1,0,0.2,0.1,0.2,0.1c0.1,0,0.2,0.1,0.2,0.1c0,0,0,0,0.1,0c0.8-0.1,1.5-0.2,2.3-0.2c0.6-0.1,1.2-0.1,1.7-0.2
		c4.6-0.4,9.2-0.6,13.8-0.5c1.7,0,3.4,0.1,5.1,0.2c2.7,0.2,5.5,0.4,8.2,0.8c1.2,0.2,2.4,0.4,3.6,0.7h0c0-0.3,0-0.7,0-1
		c0-0.1,0-0.2,0.1-0.3c0-0.1,0.1-0.2,0.2-0.2c0,0,0.1-0.1,0.1-0.1c0.1-0.1,0.2-0.2,0.3-0.2C67,73.5,66.6,73.4,66.2,73.3z M66.2,73.3
		c-0.2,0-0.5-0.1-0.7-0.2c-2.2-0.4-4.4-0.8-6.7-1c-0.4,0-0.7-0.1-1.1-0.1c-0.6,0-1.2-0.1-1.7-0.1h0c-0.2,0-0.4,0-0.6,0h0
		c-0.3,0-0.5,0-0.8,0c-1.2-0.1-2.4-0.1-3.6-0.2c-5.4-0.2-10.8,0.1-16.1,0.6c-1.1,0.1-2.2,0.2-3.2,0.4c0.1,0.2,0.2,0.4,0.2,0.7
		c0,0,0,0.1,0,0.2c0,0.1-0.1,0.3-0.1,0.4c0,0,0,0.1,0,0.1c0,0.1,0,0.1-0.1,0.2c0,0,0,0.1,0,0.1c0,0.1,0,0.1-0.1,0.2v0
		c0.1,0,0.2,0.1,0.2,0.1c0.1,0,0.2,0.1,0.2,0.1c0,0,0,0,0.1,0c0.8-0.1,1.5-0.2,2.3-0.2c0.6-0.1,1.2-0.1,1.7-0.2
		c4.6-0.4,9.2-0.6,13.8-0.5c1.7,0,3.4,0.1,5.1,0.2c2.7,0.2,5.5,0.4,8.2,0.8c1.2,0.2,2.4,0.4,3.6,0.7h0c0-0.3,0-0.7,0-1
		c0-0.1,0-0.2,0.1-0.3c0-0.1,0.1-0.2,0.2-0.2c0,0,0.1-0.1,0.1-0.1c0.1-0.1,0.2-0.2,0.3-0.2C67,73.5,66.6,73.4,66.2,73.3z M71.9,75.7
		c-0.7-0.6-1.6-1.1-2.4-1.4c-0.7-0.3-1.4-0.5-2.1-0.7h0c-0.4-0.1-0.8-0.2-1.2-0.3c-0.2,0-0.5-0.1-0.7-0.2c-2.2-0.4-4.4-0.8-6.7-1
		c-0.4,0-0.7-0.1-1.1-0.1c-0.6,0-1.2-0.1-1.7-0.1h0c-0.2,0-0.4,0-0.6,0h0c-0.3,0-0.5,0-0.8,0c-1.2-0.1-2.4-0.1-3.6-0.2
		c-5.4-0.2-10.8,0.1-16.1,0.6c-1.1,0.1-2.2,0.2-3.2,0.4c0,0-0.1,0-0.1,0c-0.3,0-0.6,0.1-0.9,0.1c-0.3,0-0.7,0.1-1,0.1c0,0,0,0-0.1,0
		h0c-0.1,0-0.3,0-0.5,0.1c-0.2,0-0.4,0.1-0.7,0.1c-0.6,0.1-1.2,0.2-1.8,0.3c-0.1,0-0.2,0-0.3,0c-0.8,0.1-1.6,0.3-2.4,0.5h0
		c-0.1,0-0.3,0-0.4,0.1c-0.6,0.1-1.1,0.2-1.7,0.4c-1.8,0.4-3.6,1-5.4,1.6c-0.7,0.2-1.4,0.5-2,0.8c-0.6,0.3-1.2,0.5-1.7,0.8
		c-1.3,0.7-3.1,1.7-4,3c0,0,0,0,0,0c-0.7-1.1-2.4-0.1-1.7,1c1.1,1.8,2.5,3.2,4.2,4.3l0,0c0.9,0.6,1.8,1.1,2.7,1.5
		c0.3,0.1,0.6,0.2,0.9,0.4c0.3,0.1,0.7,0.3,1.1,0.4c4.4,1.5,9.4,1.9,13.5,2.2c3.4,0.2,6.8,0.4,10.2,0.5c0,0,0,0,0,0
		c1.4,0,2.9,0,4.3,0c6.5-0.3,12.9-1.3,19.2-3c2.6-0.7,5.2-1.4,7.6-2.6c0.2-0.1,0.5-0.3,0.7-0.4c0,0,0,0,0,0c1.4-0.8,2.6-1.9,3-3.5
		C74.7,79.2,73.4,77,71.9,75.7z M68.9,83.7c-2.4,1.1-5,1.7-7.5,2.4c-1,0.3-2,0.5-3,0.7c0,0,0,0,0,0c0,0,0,0,0,0
		c-1.2,0.3-2.4,0.5-3.7,0.7c0,0-0.1,0-0.1,0c-3.3,0.6-6.8,1-10.2,1.2c-4.4,0.2-8.8,0-13.2-0.2c-4.3-0.2-8.7-0.6-12.9-1.7
		c-2-0.5-4-1.2-5.8-2.3c0-0.4-0.2-0.9-0.7-1c-0.3-0.1-1.1-0.3-1.6-0.7c-0.1-0.1-0.2-0.2-0.3-0.3c0-0.1-0.1-0.1-0.1-0.2
		c0-0.5,0.7-1,1-1.3c1.3-1.1,2.9-1.9,4.4-2.5c2.5-1,5.2-1.8,7.9-2.4c0.9-0.2,1.8-0.4,2.8-0.6c0.8-0.2,1.6-0.3,2.5-0.4
		c0.7-0.1,1.5-0.2,2.2-0.3c0.2,0,0.4-0.1,0.6-0.1c0.2,0,0.4-0.1,0.6-0.1c0,0,0,0,0.1,0c0.8-0.1,1.5-0.2,2.3-0.2
		c0.6-0.1,1.2-0.1,1.7-0.2c4.6-0.4,9.2-0.6,13.8-0.5c1.7,0,3.4,0.1,5.1,0.2c2.7,0.2,5.5,0.4,8.2,0.8c1.2,0.2,2.4,0.4,3.6,0.7h0
		c0.7,0.2,1.4,0.4,2,0.7c0.1,0,0.1,0,0.2,0.1c1.6,0.7,3.6,2.3,3.5,4.3C72.2,82.1,70.2,83.1,68.9,83.7z M66.2,73.3
		c-0.2,0-0.5-0.1-0.7-0.2c-2.2-0.4-4.4-0.8-6.7-1c-0.4,0-0.7-0.1-1.1-0.1c-0.6,0-1.2-0.1-1.7-0.1h0c-0.2,0-0.4,0-0.6,0h0
		c-0.3,0-0.5,0-0.8,0c-1.2-0.1-2.4-0.1-3.6-0.2c-5.4-0.2-10.8,0.1-16.1,0.6c-1.1,0.1-2.2,0.2-3.2,0.4c0.1,0.2,0.2,0.4,0.2,0.7
		c0,0,0,0.1,0,0.2c0,0.1-0.1,0.3-0.1,0.4c0,0,0,0.1,0,0.1c0,0.1,0,0.1-0.1,0.2c0,0,0,0.1,0,0.1c0,0.1,0,0.1-0.1,0.2v0
		c0.1,0,0.2,0.1,0.2,0.1c0.1,0,0.2,0.1,0.2,0.1c0,0,0,0,0.1,0c0.8-0.1,1.5-0.2,2.3-0.2c0.6-0.1,1.2-0.1,1.7-0.2
		c4.6-0.4,9.2-0.6,13.8-0.5c1.7,0,3.4,0.1,5.1,0.2c2.7,0.2,5.5,0.4,8.2,0.8c1.2,0.2,2.4,0.4,3.6,0.7h0c0-0.3,0-0.7,0-1
		c0-0.1,0-0.2,0.1-0.3c0-0.1,0.1-0.2,0.2-0.2c0,0,0.1-0.1,0.1-0.1c0.1-0.1,0.2-0.2,0.3-0.2C67,73.5,66.6,73.4,66.2,73.3z M66.2,73.3
		c-0.2,0-0.5-0.1-0.7-0.2c-2.2-0.4-4.4-0.8-6.7-1c-0.4,0-0.7-0.1-1.1-0.1c-0.6,0-1.2-0.1-1.7-0.1h0c-0.2,0-0.4,0-0.6,0h0
		c-0.3,0-0.5,0-0.8,0c-1.2-0.1-2.4-0.1-3.6-0.2c-5.4-0.2-10.8,0.1-16.1,0.6c-1.1,0.1-2.2,0.2-3.2,0.4c0.1,0.2,0.2,0.4,0.2,0.7
		c0,0,0,0.1,0,0.2c0,0.1-0.1,0.3-0.1,0.4c0,0,0,0.1,0,0.1c0,0.1,0,0.1-0.1,0.2c0,0,0,0.1,0,0.1c0,0.1,0,0.1-0.1,0.2v0
		c0.1,0,0.2,0.1,0.2,0.1c0.1,0,0.2,0.1,0.2,0.1c0,0,0,0,0.1,0c0.8-0.1,1.5-0.2,2.3-0.2c0.6-0.1,1.2-0.1,1.7-0.2
		c4.6-0.4,9.2-0.6,13.8-0.5c1.7,0,3.4,0.1,5.1,0.2c2.7,0.2,5.5,0.4,8.2,0.8c1.2,0.2,2.4,0.4,3.6,0.7h0c0-0.3,0-0.7,0-1
		c0-0.1,0-0.2,0.1-0.3c0-0.1,0.1-0.2,0.2-0.2c0,0,0.1-0.1,0.1-0.1c0.1-0.1,0.2-0.2,0.3-0.2C67,73.5,66.6,73.4,66.2,73.3z M33.7,74
		c-0.5-0.3-1.3-0.5-2-0.6c0,0,0,0.1,0,0.2c0,0.1-0.1,0.3-0.1,0.4c0,0,0,0.1,0,0.1c0,0.1,0,0.1-0.1,0.2c0,0.1-0.1,0.2-0.1,0.2v0
		c0.1,0,0.2,0.1,0.2,0.1c0.1,0,0.2,0.1,0.2,0.1c0,0,0,0,0.1,0c0.8-0.1,1.5-0.2,2.3-0.2C34.1,74.2,33.9,74.1,33.7,74z M66.7,74.4
		c0,0.3,0,0.7,0,1h0C66.7,75.1,66.7,74.8,66.7,74.4c0-0.1,0-0.2,0.1-0.3C66.7,74.2,66.7,74.3,66.7,74.4z M66.2,73.3
		c-0.2,0-0.5-0.1-0.7-0.2c-2.2-0.4-4.4-0.8-6.7-1c-0.4,0-0.7-0.1-1.1-0.1c-0.9,0.7-1.8,1.3-2.8,1.9c2.7,0.2,5.5,0.4,8.2,0.8
		c1.2,0.2,2.4,0.4,3.6,0.7c0-0.3,0-0.7,0-1c0-0.1,0-0.2,0.1-0.3c0-0.1,0.1-0.2,0.2-0.2c0,0,0.1-0.1,0.1-0.1c0.1-0.1,0.2-0.2,0.3-0.2
		C67,73.5,66.6,73.4,66.2,73.3z M66.2,73.3c-0.2,0-0.5-0.1-0.7-0.2c-2.2-0.4-4.4-0.8-6.7-1c-0.4,0-0.7-0.1-1.1-0.1
		c-0.6,0-1.2-0.1-1.7-0.1h0c-0.2,0-0.4,0-0.6,0h0c-0.3,0-0.5,0-0.8,0c-1.5,0.9-3.1,1.5-4.8,1.9c1.7,0,3.4,0.1,5.1,0.2
		c2.7,0.2,5.5,0.4,8.2,0.8c1.2,0.2,2.4,0.4,3.6,0.7c0-0.3,0-0.7,0-1c0-0.1,0-0.2,0.1-0.3c0-0.1,0.1-0.2,0.2-0.2c0,0,0.1-0.1,0.1-0.1
		c0.1-0.1,0.2-0.2,0.3-0.2C67,73.5,66.6,73.4,66.2,73.3z M66.2,73.3c-0.2,0-0.5-0.1-0.7-0.2c-2.2-0.4-4.4-0.8-6.7-1
		c-0.4,0-0.7-0.1-1.1-0.1c-0.6,0-1.2-0.1-1.7-0.1h0c-0.2,0-0.4,0-0.6,0h0c-0.3,0-0.5,0-0.8,0c-1.5,0.9-3.1,1.5-4.8,1.9
		c1.7,0,3.4,0.1,5.1,0.2c2.7,0.2,5.5,0.4,8.2,0.8c1.2,0.2,2.4,0.4,3.6,0.7c0-0.3,0-0.7,0-1c0-0.1,0-0.2,0.1-0.3
		c0-0.1,0.1-0.2,0.2-0.2c0,0,0.1-0.1,0.1-0.1c0.1-0.1,0.2-0.2,0.3-0.2C67,73.5,66.6,73.4,66.2,73.3z M66.2,73.3
		c-0.2,0-0.5-0.1-0.7-0.2c-2.2-0.4-4.4-0.8-6.7-1c-0.4,0-0.7-0.1-1.1-0.1c-0.6,0-1.2-0.1-1.7-0.1h0c-0.2,0-0.4,0-0.6,0h0
		c-0.3,0-0.5,0-0.8,0c-1.5,0.9-3.1,1.5-4.8,1.9c1.7,0,3.4,0.1,5.1,0.2c2.7,0.2,5.5,0.4,8.2,0.8c1.2,0.2,2.4,0.4,3.6,0.7
		c0-0.3,0-0.7,0-1c0-0.1,0-0.2,0.1-0.3c0-0.1,0.1-0.2,0.2-0.2c0,0,0.1-0.1,0.1-0.1c0.1-0.1,0.2-0.2,0.3-0.2
		C67,73.5,66.6,73.4,66.2,73.3z M66.2,73.3c-0.2,0-0.5-0.1-0.7-0.2c-2.2-0.4-4.4-0.8-6.7-1c-0.4,0-0.7-0.1-1.1-0.1
		c-0.6,0-1.2-0.1-1.7-0.1h0c-0.2,0-0.4,0-0.6,0h0c-0.3,0-0.5,0-0.8,0c-1.5,0.9-3.1,1.5-4.8,1.9c1.7,0,3.4,0.1,5.1,0.2
		c2.7,0.2,5.5,0.4,8.2,0.8c1.2,0.2,2.4,0.4,3.6,0.7c0-0.3,0-0.7,0-1c0-0.1,0-0.2,0.1-0.3c0-0.1,0.1-0.2,0.2-0.2c0,0,0.1-0.1,0.1-0.1
		c0.1-0.1,0.2-0.2,0.3-0.2C67,73.5,66.6,73.4,66.2,73.3z"/>
	<path class="st1" d="M68.9,76.2c-0.1,0-0.1,0-0.2-0.1c0,0.1,0,0.1-0.1,0.2c-0.4,1-2,0.9-2-0.3v-0.6h0c-1.2-0.3-2.4-0.5-3.6-0.7
		c-2.7-0.4-5.4-0.6-8.2-0.8c-1.7-0.1-3.4-0.2-5.1-0.2c-4.6-0.1-9.2,0.1-13.8,0.5c-0.6,0-1.2,0.1-1.7,0.2c-0.8,0.1-1.5,0.2-2.3,0.2
		c0,0-0.1,0-0.1,0c-0.2,0-0.4,0-0.6,0.1c-1.5,2.8-5.6,3.2-8.1,1.4c-2.7,0.6-5.3,1.4-7.9,2.4c-1.5,0.6-3.1,1.4-4.4,2.5
		c-0.3,0.2-1,0.8-1,1.3c0,0.1,0,0.1,0.1,0.2c0.1,0.1,0.2,0.2,0.3,0.3c0.5,0.4,1.3,0.5,1.6,0.7c0.5,0.2,0.7,0.6,0.7,1
		c1.8,1,3.8,1.8,5.8,2.3c4.2,1.1,8.5,1.5,12.9,1.7c4.4,0.2,8.8,0.5,13.2,0.2c3.4-0.2,6.8-0.6,10.2-1.2c0,0,0.1,0,0.1,0
		c1.2-0.3,2.4-0.6,3.7-0.7c0,0,0,0,0,0c0,0,0,0,0,0c1-0.2,2-0.5,3-0.7c2.5-0.7,5.1-1.3,7.5-2.4c1.3-0.6,3.3-1.6,3.4-3.2
		C72.4,78.5,70.5,76.9,68.9,76.2z M56.2,83.6c-6.1,3.9-13.8,3.3-20.7,3.2c-2.5,0-5.5,0.3-7.5-1.4c-1.1-0.9-1.5-2-1.6-3.3
		c-0.3,0.3-0.7,0.5-1.2,0.2c-0.9-0.5-1.7-1.4-1.3-2.6c0.4-0.9,1.5-1.4,2.4-1.8c1.4-0.5,2.8-0.9,4.3-1.2c0.3-0.1,0.7-0.1,1-0.2
		c0.2,0,0.4-0.1,0.6-0.1c0.7-0.1,1.4-0.2,2.1-0.3c1.9-0.3,3.8-0.5,5.7-0.4c1.7,0.1,3.5,0.3,5.2,0.6c1.6,0.3,3.2,0.6,4.8,1.1
		c2.5,0.8,5.8,2,6.7,4.9C56.8,82.9,56.6,83.3,56.2,83.6z"/>
	<path class="st0" d="M56.7,82.4c-0.8-2.8-4.1-4.1-6.7-4.9c-1.6-0.5-3.2-0.8-4.8-1.1c-1.7-0.3-3.5-0.5-5.2-0.6
		c-1.9-0.1-3.8,0.1-5.7,0.4c-0.7,0.1-1.4,0.2-2.1,0.3c-0.2,0-0.4,0.1-0.6,0.1c-0.3,0.1-0.7,0.1-1,0.2c-1.5,0.3-2.9,0.6-4.3,1.2
		c-0.9,0.3-2,0.8-2.4,1.8c-0.5,1.1,0.4,2,1.3,2.6c0.5,0.3,0.9,0.1,1.2-0.2c0.1,1.3,0.5,2.4,1.6,3.3c2.1,1.7,5.1,1.3,7.5,1.4
		c6.9,0.1,14.6,0.7,20.7-3.2C56.6,83.3,56.8,82.9,56.7,82.4z M47.1,84.6C47,84.6,47,84.6,47.1,84.6c-3,0.4-6,0.3-9,0.3
		c-0.2,0-0.5,0-0.7,0c-2.3,0-5.1,0.3-7.3-0.5c-0.7-0.3-1.2-0.7-1.5-1.3c-0.3-0.6-0.3-1.3-0.3-2.1c0.1-0.5,0.2-1.1,0.3-1.6v-0.1
		c1.2-0.3,2.5-0.6,3.7-0.8h0c0.3,0,0.6-0.1,0.9-0.1c0.6-0.1,1.2-0.2,1.7-0.2c3.8-0.5,7.7-0.2,11.4,0.6c0,0,0,0,0,0
		c0.4,0.1,0.8,0.2,1.3,0.3c0.7,0.2,1.7,0.4,2.6,0.7c0.3,0.1,0.7,0.2,1,0.4c0.7,0.3,1.4,0.6,2,1.1c0.5,0.3,0.8,0.7,1.1,1.2
		C52.1,83.6,49.6,84.3,47.1,84.6z"/>
	<path class="st1" d="M51.3,80.1c-0.1,0.1-0.3,0.1-0.4,0.2c-0.2,0.1-0.5,0.2-0.7,0.2c0-0.2,0-0.4,0-0.5c0-0.1,0-0.2,0-0.2
		C50.6,79.8,51,79.9,51.3,80.1z"/>
	<path class="st1" d="M54.4,82.3c-2.3,1.3-4.8,2-7.4,2.3c1.9-0.7,3.7-1.7,5.3-2.8c0.3-0.2,0.6-0.4,0.9-0.6
		C53.8,81.5,54.2,81.9,54.4,82.3z"/>
	<path class="st1" d="M38.1,84.9c-0.2,0-0.5,0-0.7,0c-2.3,0-5.1,0.3-7.3-0.5c-0.7-0.3-1.2-0.7-1.5-1.3c0.1,0,0.3,0,0.4-0.1
		c0.2,0.3,0.6,0.5,1,0.3c0.3-0.1,0.6-0.3,0.9-0.4c1.4,1.1,3.3,1.5,5,1.7c0.6,0.1,1.2,0.1,1.9,0.2C38,84.7,38,84.8,38.1,84.9
		C38.1,84.8,38.1,84.9,38.1,84.9z"/>
	<path class="st1" d="M32.3,78.5c-0.2,0.1-0.4,0.3-0.6,0.4c-0.4-0.2-0.8-0.2-1.1,0.1c-0.8,0.6-1.5,1.3-2.3,1.9
		c0.1-0.5,0.2-1.1,0.3-1.6v-0.1C29.9,79,31.1,78.7,32.3,78.5z"/>
	<path class="st1" d="M46.4,78.7c-0.6,0.4-1.1,0.8-1.7,1.2c0-0.6-0.6-1.2-1.2-1c-0.9,0.2-1.8,0.7-2.7,1c0.1-0.1,0.1-0.2,0.2-0.3
		c0.3-0.7-0.2-1.8-1.1-1.5c-1,0.4-1.9,1-2.8,1.5h0c-0.1,0-0.3,0-0.4,0c0.1-0.6-0.4-1.4-1.2-1.3c-0.5,0.1-1,0.3-1.5,0.5
		c-0.1-0.3-0.4-0.5-0.6-0.6c0.6-0.1,1.2-0.2,1.7-0.2C38.8,77.6,42.6,77.9,46.4,78.7z"/>
	<path class="st0" d="M65.4,106.8c-1.6,2.5-3.1,5.3-5.1,7.6c-1.8,2.1-4.1,3.2-6.7,3.6c-0.4,0.1-0.9,0.1-1.3,0.1c-0.2,0-0.5,0-0.7,0
		c-3.6,0.2-7.3-0.2-10.9-0.3c-3.6-0.1-7.1-0.1-10.7-0.3c-0.7,0-1.4-0.1-2-0.1h0c-2.5-0.2-4.9-0.8-6.8-2.5c-1.8-1.6-2.8-3.8-3.5-6
		c-2-5.5-3.4-11.4-3.8-17.3c-0.1-1.2-0.2-2.5-0.2-3.8c0-0.1,0-0.2,0.1-0.4c0.1-0.3,0.4-0.5,0.7-0.6c0.6-0.1,1.2,0.2,1.2,0.9
		c0,0.1,0,0.3,0,0.4c0,0.4,0,0.9,0,1.3c0,0.9,0.1,1.8,0.2,2.7c0.5,5.9,1.9,11.8,4.1,17.2c0.7,1.8,1.7,3.6,3.4,4.7
		c1.5,1,3.2,1.3,5,1.4c0.7,0,1.3,0.1,2,0.1c0.4,0,0.8,0,1.2,0c4,0.2,8,0.2,11.9,0.4c2.7,0.1,5.5,0.4,8.2,0.3c0.7,0,1.3-0.1,2-0.2
		c3.1-0.5,5.1-2.4,6.7-4.8c1.5-2.3,2.9-4.6,4.4-6.9c2.6-4.3,6-10.1,4.7-15.3c-0.1-0.3-0.2-0.6-0.3-0.9c-0.4-1.2,1.5-1.7,1.9-0.5
		c0,0,0,0.1,0.1,0.2C73.3,94.2,68.8,101.6,65.4,106.8z"/>
	<path class="st1" d="M62,143.6c0,1.5-1.8,2.4-2.9,2.9c-3.4,1.7-7.4,2.9-11.1,3.6c-5,1-10.2,1-15.2,0.1c-3.5-0.6-7.2-1.7-10.5-3.3
		c-1.1-0.5-2.9-1.4-3.3-2.6c-0.4-1.3,1.1-3.2,1.7-4.2c1.1-1.7,2.4-3.4,3.3-5.2c1.3-2.5,2.1-5.2,2.9-7.9c0.7-2.2,1.3-4.5,2-6.7
		c0.3-0.9,0.7-1.8,1-2.8c3.6,0.2,7.1,0.2,10.7,0.3c3.6,0.1,7.3,0.5,10.9,0.3c0.1,1.2,0.2,2.3,0.3,3.5c0.2,2,0.2,3.9,0.5,5.8
		c0.4,2.3,1.2,4.5,2.2,6.5c1.1,2.1,2.3,4.4,4.1,6C59.8,140.9,62,142.1,62,143.6z"/>
	<path class="st0" d="M63.5,145.5c-1.6,2.7-5.3,3.6-8,4.6c-9.1,3.4-19.2,3.7-28.4,0.8c-3-0.9-6.5-1.9-8.8-4.2
		c-2.7-2.6-0.5-5.8,1.2-8.3c1-1.5,2.2-3,3-4.7c1.2-2.5,2-5.2,2.8-7.9c0.6-2,1.2-4,1.8-6c0.2-0.7,0.6-1.6,0.9-2.4
		c0.2-0.7,0.4-1.3,0.3-2c0.7,0,1.3,0.1,2,0.1c0,0.6-0.1,1.3-0.3,2c-0.3,1-0.7,1.9-1,2.8c-0.7,2.2-1.4,4.5-2,6.7
		c-0.8,2.7-1.6,5.4-2.9,7.9c-0.9,1.8-2.2,3.5-3.3,5.2c-0.7,1-2.2,2.9-1.7,4.2c0.4,1.3,2.2,2.1,3.3,2.6c3.2,1.6,6.9,2.7,10.5,3.3
		c5,0.9,10.2,0.8,15.2-0.1c3.8-0.7,7.7-1.9,11.1-3.6c1.1-0.6,2.8-1.5,2.9-2.9c0-1.5-2.2-2.7-3.2-3.6c-1.7-1.6-3-3.9-4.1-6
		c-1.1-2.1-1.8-4.2-2.2-6.5c-0.3-1.9-0.4-3.9-0.5-5.8c-0.1-1.2-0.3-2.3-0.3-3.5c0-0.1,0-0.2,0-0.4c0-0.4,0-1,0-1.6
		c0.7,0,1.3-0.1,2-0.2c0,0.7,0,1.4,0,1.7c0,0.1,0,0.2,0,0.3c0.1,1.3,0.3,2.6,0.4,3.9c0.2,2.5,0.3,5,1,7.4c0.9,2.9,2.5,5.7,4.3,8.2
		C61.1,139.9,65.6,141.9,63.5,145.5z"/>
	<path class="st0" d="M14.3,22.9c-1,0.1-1.9,0.2-2.9,0.3C12.4,23,13.4,22.9,14.3,22.9z"/>
	<path class="st0" d="M15,77.5c-0.2-0.2-0.5-0.4-0.7-0.7c-1.3-1.2-2.5-2.4-4-3.5c-1-0.8-2.2-1.3-3.2-2c-2.1-1.4-2.1-3.5-2-5.9
		c0.2-4.5,0.2-9,0.3-13.5c0-3.6,0.2-7.1,0.4-10.7v0c0,0,0,0,0,0c0-0.8,0.1-1.5,0.1-2.3c0-0.1,0-0.3,0-0.4c0-0.5,0.1-1.1,0.1-1.7
		c0-0.1,0-0.3,0-0.4v0c0-0.5,0-1.1,0-1.7v-0.3h0.1c0.1,0,0.2,0,0.2,0c0.3,0,0.6,0,0.9,0c0.2,0,0.3,0,0.5,0c0.1,0,0.1,0,0.2,0h0
		c0,0.4,0,0.8,0,1.2c0,0.3,0,0.6,0,0.8c0,0.5,0,1-0.1,1.5c0,0.5,0,1-0.1,1.5c0,0.8-0.1,1.6-0.2,2.5c-0.1,0.9-0.1,1.8-0.2,2.7
		c-0.1,1.7-0.1,3.4-0.2,5.2v0c0,0.3,0,0.6,0,0.9c0,1.7,0,3.4,0,5c0,2.6-0.2,5.2-0.2,7.8c0,0.3,0,0.5,0,0.8C7,65.3,7,66,7,66.8
		c0,0.8,0,1.8,0.6,2.5c0.2,0.2,0.5,0.4,0.8,0.6c0.4,0.2,0.8,0.4,1.1,0.6c0.4,0.2,0.8,0.5,1.1,0.7c2.1,1.4,3.9,3.1,5.7,4.8
		c0,0,0,0.1,0.1,0.1C17.3,77,15.9,78.4,15,77.5z"/>
	<path class="st0" d="M18.5,22.5c-0.2,0.7-0.5,1.4-0.7,2.1h0c-0.6,0.1-1.2,0.1-1.8,0.2h0c-0.1,0-0.2,0-0.3,0
		c0.2-0.7,0.5-1.4,0.7-2.1c0,0,0.1,0,0.1,0c0.3,0,0.6,0,0.9-0.1C17.8,22.6,18.1,22.6,18.5,22.5L18.5,22.5z"/>
	<path class="st0" d="M78.6,20.6c-1.1,0-2.1,0-3.2,0c-0.9-0.2-1.9-0.2-2.8-0.1c-1.1,0-2.3,0.1-3.5,0.2c0,0-0.1,0-0.1,0
		c-0.1,0-0.3,0-0.4,0c-0.6,0-1.1,0.1-1.7,0.1c-0.1-0.5-0.2-1-0.3-1.5c0-0.2-0.1-0.4-0.1-0.6c0.6,0,1.1-0.1,1.7-0.1
		c0.1,0,0.2,0,0.4,0c1.6-0.1,3.1-0.2,4.6-0.2c0.7,0,1.3,0,2,0.1C76.6,18.9,77.8,19.4,78.6,20.6z"/>
	<path class="st0" d="M79.7,28.5c0,0.7-0.1,1.4-0.2,2.1c-0.3,3.2-0.9,6.5-0.9,9.7c0,3.9,0,7.7-0.2,11.6c-0.2,3.4-0.2,7-1.5,10.2
		c-1.8,4.5-5.4,7.8-7.5,12.1c-0.3,0.6-0.6,1.2-0.8,1.8c0,0.1,0,0.1-0.1,0.2c-0.4,1-2,0.9-2-0.3v-0.6c0-0.3,0-0.7,0-1
		c0-0.1,0-0.2,0.1-0.3c0-0.1,0.1-0.2,0.2-0.2c0,0,0.1-0.1,0.1-0.1c0.1-0.1,0.2-0.2,0.3-0.2h0c0.1,0,0.2-0.1,0.3-0.1
		c0.8-1.5,1.8-3,2.8-4.4c1.3-1.9,2.7-3.7,3.8-5.7c0.5-0.9,0.9-1.8,1.2-2.7c0.1-0.2,0.1-0.4,0.2-0.6c0.6-2.2,0.8-4.7,0.9-7
		c0-1.3,0.1-2.5,0.1-3.8v0c0.1-2.8,0-5.5,0.1-8.2v0c0-0.9,0-1.9,0.1-2.8c0-0.8,0.1-1.6,0.2-2.5v0c0-0.3,0.1-0.6,0.1-0.9
		c0.2-1.3,0.4-2.7,0.5-4.1c0.1-0.7,0.2-1.4,0.2-2.1C78.4,28.6,79.1,28.6,79.7,28.5z"/>
	<path class="st0" d="M18.6,22.5L18.6,22.5c-0.7,0.1-1.4,0.1-2.1,0.2c0,0-0.1,0-0.1,0c0,0,0,0,0,0.1c-0.2,0.7-0.5,1.4-0.7,2.1
		c0.1,0,0.2,0,0.3,0c0,0.2-0.1,0.3-0.1,0.5c0,0,0,0,0,0.1c-0.2,0.7-0.3,1.5-0.5,2.2c-0.1,0.5-0.2,1.1-0.3,1.6
		c-0.2,0.9-0.3,1.8-0.5,2.7c0,0.2-0.1,0.4-0.1,0.6c-0.1,0.5-0.1,0.9-0.2,1.4c0,0.1,0,0.2,0,0.2c0.3,0,0.5,0,0.8-0.1h0
		c0-0.1,0-0.2,0-0.2c0.2-0.7,0.3-1.3,0.5-2c0.3-1.3,0.7-2.5,1.1-3.7c0.1-0.3,0.2-0.6,0.3-0.8c0.3-0.8,0.6-1.7,0.8-2.6
		C18,23.9,18.3,23.2,18.6,22.5L18.6,22.5c0.2,0,0.3,0,0.5,0C18.9,22.5,18.7,22.5,18.6,22.5z M18.5,22.5c0-0.1,0-0.1,0.1-0.2
		c0.2-0.6,0.5-1.2,0.7-1.9h-0.2c-0.7,0.1-1.3,0.1-2,0.2c0,0-0.1,0-0.1,0c-2.7,0.2-5.4,0.5-8.2,0.7c-2.6,0.2-5.8,0.5-7.8,2.5
		c-0.8,0.8-0.9,1.8-1,2.9c0,0.4,0,0.8,0,1.2C0,28.1,0,28.3,0,28.4c0.1,1.8-0.1,3.8,0.5,5.5C1.3,36.1,4,36.5,6,36.6h0
		c0.2,0,0.4,0,0.6,0h0.1c0.4,0,0.9,0,1.3,0c0-0.3,0-0.5,0-0.8c0-0.4,0-0.8,0-1.2v0c0,0-0.1,0-0.2,0h0c-0.2,0-0.4,0-0.6,0
		c-0.3,0-0.6,0-0.9,0H6c-1,0-2.4-0.1-3.1-0.7c0,0-0.1-0.1-0.1-0.1c-0.6-0.6-0.6-1.9-0.6-2.8c0-0.2,0-0.3,0-0.5
		c0.2-0.1,0.4-0.4,0.5-0.6c0.2-0.7-0.4-1.4-0.6-2.1c-0.1-0.7,0-1.9,0.5-2.5c1.4-1.7,4.4-1.7,6.3-1.9c0.8-0.1,1.7-0.2,2.5-0.2h0.1
		c1-0.1,1.9-0.2,2.9-0.3h0c0,0,0.1,0,0.1,0c0.6,0,1.3-0.1,1.9-0.2c0,0,0,0,0,0.1c-0.2,0.7-0.5,1.4-0.7,2.1h0c0.1,0,0.2,0,0.3,0
		c0,0.2-0.1,0.3-0.1,0.5c0,0,0,0,0,0.1c-0.2,0.7-0.3,1.5-0.5,2.2c-0.1,0.5-0.2,1.1-0.3,1.6c-0.2,0.9-0.3,1.8-0.5,2.7
		c0,0.2-0.1,0.4-0.1,0.6c-0.1,0.5-0.1,0.9-0.2,1.4c0,0.1,0,0.2,0,0.2h0c0.3,0,0.5,0,0.8-0.1c0-0.1,0-0.2,0-0.2h0
		c0.2-0.7,0.3-1.3,0.5-2c0.3-1.3,0.7-2.5,1.1-3.7c0.1-0.3,0.2-0.6,0.3-0.8c0.3-0.8,0.5-1.7,0.8-2.6h0C18,23.9,18.3,23.2,18.5,22.5
		L18.5,22.5c0.2,0,0.3,0,0.5,0C18.9,22.5,18.7,22.5,18.5,22.5L18.5,22.5z M84.6,20.8c-1.2-1.9-4-2.1-6.1-2.2c-1.1,0-2.1,0-3.2,0
		c-2.2,0.1-4.3,0.4-6.5,0.6c-0.1,0-0.3,0-0.4,0c-0.3,0-0.5,0-0.8,0.1c-0.3,0-0.6,0-0.9,0.1c0.1,0.5,0.2,1,0.3,1.5
		c0,0.2,0,0.3,0.1,0.5c0.2,1.2,0.2,2.5,0.3,3.8c0,0.4,0,0.8,0,1.2v0.1c0,0.9,0,1.8,0,2.7c0,0.7,0,1.4,0,2.1c0.2,0,0.5,0,0.7-0.1h0
		c0.4,0,0.8-0.1,1.2-0.1c0.2,0,0.5,0,0.7,0h0c0.7-0.1,1.4-0.1,2.1-0.2c1.7-0.1,3.4-0.1,5.2-0.1h0c0.7,0,1.4,0,2-0.1
		c1.1-0.1,2.2-0.2,3.2-0.5c1.8-0.4,2.5-1.7,2.6-3.4C85.4,24.9,85.7,22.4,84.6,20.8z M83.3,26.5c0,0.5,0,1.2-0.4,1.5
		c-0.6,0.5-2.2,0.4-2.9,0.5c-0.1,0-0.2,0-0.3,0c-0.7,0-1.3,0.1-2,0.1h0c-1.1,0-2.3,0-3.4,0.1c-1.5,0.1-3,0.1-4.5,0.2
		c-0.1,0-0.3,0-0.4,0v-2.4c-0.1-0.5-0.1-0.9-0.2-1.3c-0.2-1.5-0.3-3-0.6-4.5c0.1,0,0.3,0,0.4,0c0,0,0.1,0,0.1,0
		c1.2-0.1,2.3-0.2,3.5-0.2c0.8,0,1.9-0.1,2.8,0.1c1-0.1,2.1-0.1,3.2,0c0.3,0,0.6,0,0.9,0.1c1,0.1,2.4,0.2,3.2,0.9
		c0.6,0.5,0.6,1.3,0.7,2C83.4,24.5,83.4,25.5,83.3,26.5z M69.3,25.2c-0.2-1.5-0.3-3-0.6-4.5c-0.6,0-1.1,0.1-1.7,0.1
		c0,0.2,0,0.3,0.1,0.5c0.2,1.2,0.2,2.5,0.3,3.8c0,0.4,0,0.8,0,1.2v0.1c0,0.9,0,1.8,0,2.7l0.4,0h0c0.5,0,1.1-0.1,1.6-0.1v-2.4
		C69.4,26.1,69.3,25.7,69.3,25.2z"/>
	<path class="st1" d="M83.3,26.5c0,0.5,0,1.2-0.4,1.5c-0.6,0.5-2.2,0.4-2.9,0.5c-0.1,0-0.2,0-0.3,0c-0.7,0-1.3,0.1-2,0.1h0
		c-1.1,0-2.3,0-3.4,0.1c-1.5,0.1-3,0.1-4.5,0.2c-0.1-0.5-0.2-1.1-0.3-1.7v0c0-0.2-0.1-0.4-0.1-0.7c-0.1-0.5-0.1-0.9-0.2-1.3
		c-0.2-1.5-0.3-3-0.6-4.5c0.1,0,0.3,0,0.4,0c0,0,0.1,0,0.1,0c1.2-0.1,2.3-0.2,3.5-0.2c0.8,0,1.9-0.1,2.8,0.1c1-0.1,2.1-0.1,3.2,0
		c0.3,0,0.6,0,0.9,0.1c1,0.1,2.4,0.2,3.2,0.9c0.6,0.5,0.6,1.3,0.7,2C83.4,24.5,83.4,25.5,83.3,26.5z"/>
	<path class="st0" d="M31.5,76.6c0,0,0.1,0,0.1,0c0.2,0,0.3-0.1,0.5-0.2C32,76.6,31.7,76.6,31.5,76.6z M71.2,37.7
		c-0.1-1.6-0.3-3.3-0.6-4.9c-0.1-0.6-0.2-1.3-0.3-1.9h0c-0.1-0.7-0.3-1.3-0.4-2c-0.1-0.5-0.2-1.1-0.3-1.7v0c0-0.2-0.1-0.4-0.1-0.7
		c-0.1-0.5-0.1-0.9-0.2-1.3c-0.2-1.5-0.3-3-0.6-4.5c-0.1-0.5-0.2-1-0.2-1.5c0-0.2-0.1-0.4-0.1-0.6c-0.1-0.4-0.2-0.8-0.2-1.1
		c0-0.2-0.1-0.3-0.1-0.5c-0.1-0.5-0.3-1-0.4-1.5c-0.1-0.2-0.1-0.4-0.2-0.5c-0.1-0.2-0.1-0.3-0.2-0.5c-1.4-3.4-3.8-6.5-6.6-8.9
		c-6.2-5.4-14.2-6.8-22.1-4.9c-7,1.7-13.9,5.5-17.9,11.6C19,15,17.9,17.8,17,20.7v0c-0.1,0.4-0.2,0.8-0.3,1.2
		c-0.1,0.3-0.1,0.6-0.2,0.9c0,0,0,0,0,0.1c0,0.2-0.1,0.3-0.1,0.5c-0.1,0.5-0.3,1.1-0.4,1.6c0,0.2-0.1,0.3-0.1,0.5c0,0,0,0,0,0.1
		c-0.2,0.7-0.3,1.5-0.5,2.2c-0.1,0.5-0.2,1.1-0.3,1.6c-0.2,0.9-0.3,1.8-0.5,2.7c0,0.2-0.1,0.4-0.1,0.6c-0.1,0.5-0.1,0.9-0.2,1.4
		c0,0.1,0,0.2,0,0.2c-0.1,0.4-0.1,0.8-0.2,1.3c-0.1,0.6-0.1,1.2-0.2,1.8c-0.1,0.7-0.1,1.4-0.2,2.1c-0.2,3.1-0.1,6.1,0,9.2v0
		c0,0,0,0,0,0c0,1.2,0.1,2.4,0.2,3.6c0,0,0,0,0,0c0.1,2.6,0.4,5.2,1.2,7.7c0.9,2.8,2.4,5.3,4.5,7.4c-0.4,0.5-0.4,1.2,0.3,1.6
		c1.4,0.6,2.9,1.3,4.2,2.2c0.9,0.7,1.7,1.6,2.5,2.4c0.2,0.2,0.5,0.5,0.7,0.7c0.3,0.3,0.7,0.6,1,0.9c0,0,0,0,0,0
		c0.1,0,0.1,0.1,0.2,0.1c0.7-0.1,1.5-0.2,2.2-0.3c0.2,0,0.4-0.1,0.6-0.1c0.2,0,0.4-0.1,0.6-0.1c-0.1,0-0.2,0-0.2-0.1
		c-0.1,0-0.2,0-0.2-0.1c0,0,0,0-0.1,0c-0.8-0.3-1.5-0.8-2.1-1.3c-0.1,0-0.1-0.1-0.2-0.1c-0.1-0.1-0.2-0.2-0.3-0.3
		c0.2,0.1,0.5,0.1,0.8,0.2h0c0,0,0,0,0,0c0.3,0.1,0.6,0.1,0.8,0.2c0.4,0.1,0.9,0.1,1.4,0.2c0.7,0.1,1.4,0.3,2,0.6
		c0.2,0.1,0.4,0.2,0.5,0.4c0.6-0.1,1.2-0.1,1.7-0.2c0.1-0.2,0.2-0.5,0-0.8c0,0-0.1-0.1-0.1-0.2c-0.3-0.4-0.6-0.7-1-0.9
		c-1.7-1.1-4.3-1-6.2-1.5c-3.4-0.9-6.3-3.3-8.6-6c-2.4-2.8-3.6-6.2-4-9.8c-0.4-3.7-0.5-7.5-0.6-11.2c0-1.7,0-3.3,0.2-5
		c0.1-0.7,0.1-1.4,0.2-2.1c0.1-1,0.2-2,0.4-3c0.1-0.7,0.2-1.3,0.4-2c0.1-0.4,0.1-0.8,0.2-1.2c0.2-1.2,0.5-2.3,0.7-3.5
		c0.1-0.7,0.3-1.5,0.5-2.2c0,0,0,0,0,0c0.2-0.7,0.3-1.4,0.5-2.1c0-0.1,0-0.2,0.1-0.2v0c0-0.1,0-0.1,0-0.2c0.2-0.6,0.3-1.2,0.5-1.8v0
		c0.1-0.5,0.3-0.9,0.5-1.4c2.2-6.3,6.6-11,12.6-13.9c6.9-3.4,15.5-4.7,22.6-1.1c3.2,1.7,6,4.2,8.2,7.1c1,1.4,1.8,2.8,2.4,4.3
		c0.1,0.2,0.1,0.4,0.2,0.5c0.2,0.5,0.3,1,0.5,1.5c0,0.2,0.1,0.3,0.1,0.5c0.3,1.2,0.5,2.5,0.7,3.8c0.2,1.3,0.3,2.6,0.5,3.9
		c0,0.2,0.1,0.5,0.1,0.8c0,0,0,0,0,0.1c0.1,0.4,0.1,0.8,0.2,1.2c0,0.2,0,0.3,0.1,0.5c0.1,0.3,0.1,0.6,0.2,0.9c0.1,0.7,0.3,1.4,0.4,2
		c0.2,0.9,0.4,1.9,0.5,2.8c0,0.1,0,0.3,0.1,0.4c0.3,1.7,0.5,3.5,0.4,5.2c-0.1,1.5-0.4,3.1-0.7,4.6c-0.1,0.4-0.2,0.8-0.3,1.2
		c-0.5,2-1.1,4-1.4,6.1c-0.3,2.1-0.4,4.2-0.8,6.2c-0.1,0.4-0.1,0.7-0.2,1.1c-0.3,1.3-0.6,2.5-1.1,3.8v0c-0.8,2-1.9,3.9-3.4,5.5
		c-0.5,0.6-1.1,1.1-1.7,1.5c-1.3,1-2.7,1.7-4.2,2.3h0C55.2,72,55.2,72,55,72c0.3,0,0.6-0.1,0.9-0.1h0c1.4-0.1,2.8-0.2,4.2-0.3
		c0.9-0.7,1.8-1.4,2.5-2.2c0.6-0.6,1.1-1.3,1.6-2c0.4-0.6,0.8-1.3,1.2-2c0.1-0.1,0.1-0.3,0.2-0.4c0.3-0.6,0.6-1.2,0.8-1.8
		c0.2-0.6,0.4-1.2,0.6-1.8c0.1-0.3,0.2-0.6,0.2-0.9c0.2-0.6,0.3-1.3,0.4-1.9c0.1-0.7,0.2-1.3,0.3-2c0.1-0.7,0.2-1.4,0.3-2.1
		c0.1-0.8,0.2-1.5,0.3-2.3c0.2-1.4,0.5-2.8,0.9-4.1c0.3-1.3,0.7-2.5,0.9-3.8c0.4-1.6,0.6-3.1,0.7-4.7C71.2,38.9,71.2,38.3,71.2,37.7
		z M17,27.2L17,27.2c-0.5,0.1-1.1,0.2-1.6,0.4c-0.1,0.5-0.2,1.1-0.3,1.6c-0.2,0.9-0.3,1.8-0.5,2.7c0,0.2-0.1,0.4-0.1,0.6
		c-0.1,0.5-0.1,0.9-0.2,1.4c0,0.1,0,0.2,0,0.2c-0.1,0.4-0.1,0.8-0.2,1.3c-0.1,0.6-0.1,1.2-0.2,1.8c0.7-0.1,1.4-0.3,2-0.4
		c0.1-1,0.2-2,0.4-3c0.1-0.7,0.2-1.3,0.4-2c0.1-0.4,0.1-0.8,0.2-1.2c0.2-1.2,0.5-2.3,0.7-3.5C17.3,27.1,17.2,27.2,17,27.2z"/>
	<path class="st1" d="M16.4,22.8c-0.2,0.7-0.5,1.4-0.7,2.1h0c0.1,0,0.2,0,0.3,0c0,0.2-0.1,0.3-0.1,0.5c0,0,0,0,0,0.1
		c-0.2,0.7-0.3,1.5-0.5,2.2c-0.1,0.5-0.2,1.1-0.3,1.6c-0.2,0.9-0.3,1.8-0.5,2.7c-1.4,0-2.7,0.2-4.1,0.3c-2.4,0.3-4.8,0.7-7.2,1.4
		c-0.2,0.1-0.3,0.1-0.4,0.3c0,0-0.1-0.1-0.1-0.1c-0.6-0.6-0.6-1.9-0.6-2.8c0-0.2,0-0.3,0-0.5c0.2-0.1,0.4-0.4,0.5-0.6
		c0.2-0.7-0.4-1.4-0.6-2.1c-0.1-0.7,0-1.9,0.5-2.5c1.4-1.7,4.4-1.7,6.3-1.9c0.8-0.1,1.7-0.2,2.5-0.2h0.1c1-0.1,1.9-0.2,2.9-0.3h0
		c0,0,0.1,0,0.1,0C15.1,22.8,15.8,22.8,16.4,22.8C16.4,22.7,16.4,22.7,16.4,22.8z"/>
	<path class="st0" d="M17.8,33.8c-0.5,0-1,0-1.5,0c-0.4,0-0.8,0-1.2,0h0c-0.3,0-0.6,0-0.8,0h0c-2.1,0.1-4.3,0.3-6.4,0.7h0
		c0,0,0,0,0,0c-0.6,0.1-1.2,0.2-1.8,0.4c-0.7,0.2-1.5,0.4-2.2,0.6c-1,0.3-1.6-1-1-1.7c0.1-0.1,0.2-0.2,0.4-0.3
		c2.3-0.7,4.7-1.1,7.2-1.4c1.3-0.2,2.7-0.3,4.1-0.3c0.3,0,0.7,0,1,0c0,0,0,0,0,0c0.3,0,0.7,0,1,0c0.4,0,0.8,0,1.2,0l0,0
		C19.1,31.8,19.1,33.8,17.8,33.8z"/>
	<path class="st1" d="M39.4,90.8c-0.1,0-0.1,0-0.2,0c-3.7,0-7.4,0-11.1,0c0,0,0,0,0,0c-2.8-0.4-5.5-0.9-8.2-1.3
		c-0.7-0.1-1.2,0.5-1.2,1c-0.1,0-0.3-0.1-0.5-0.1c-0.8-0.3-1.7-0.6-2.5-0.9c0-0.5,0-0.9,0-1.3c4.4,1.5,9.4,1.9,13.5,2.2
		C32.5,90.6,36,90.8,39.4,90.8z"/>
	<path class="st1" d="M64.7,104.3c-1.4,2.3-2.8,4.7-4.4,6.9c-1.7,2.5-3.7,4.4-6.7,4.8c-0.6,0.1-1.3,0.2-2,0.2
		c-2.7,0.1-5.5-0.2-8.2-0.3c-4-0.1-8-0.2-11.9-0.4c-0.4,0-0.8,0-1.2,0l-2-0.1c-1.8-0.1-3.5-0.4-5-1.4c-1.7-1.1-2.7-2.9-3.4-4.7
		c-2.2-5.4-3.5-11.3-4.1-17.2c1,0.3,2.1,0.5,3.1,0.6c0.5,0.1,0.9,0.2,1.4,0.4c0.3,0.1,0.6,0,0.8-0.2c1.4,0.1,2.9,0.1,4.3,0
		c0.4,0,0.6-0.2,0.8-0.4c2.7,0.5,5.5,0.9,8.3,1.1c0.5,0,0.9-0.4,0.9-0.8h1.8c0.2,0.3,0.6,0.5,1,0.5c1.2-0.2,2.4-0.3,3.7-0.5
		c0.6,0,0.9-0.4,0.9-0.9c1.4-0.2,2.9-0.3,4.3-0.4c0.2,0.2,0.5,0.4,0.8,0.4c0.1,0,0.3,0,0.4,0c0,0,0.1,0,0.1,0
		c4.4,0.2,8.8-0.5,13-1.8c0.3,0.3,0.7,0.5,1.2,0.2c0.1-0.1,0.3-0.2,0.4-0.2c0,0.5,0.3,0.9,0.9,0.9c1.9-0.1,3.6-0.9,5.2-2.1
		C70.7,94.2,67.3,100,64.7,104.3z"/>
	<path class="st0" d="M72,87.1c-0.3,0.2-0.6,0.4-1,0.5c-0.1,0-0.2,0.1-0.3,0.1c-0.4,0.4-0.9,0.8-1.4,1.2c-1.5,1.2-3.2,2-5.2,2.1
		c-0.6,0-0.9-0.4-0.9-0.9c-0.1,0.1-0.3,0.2-0.4,0.2c-0.5,0.2-0.9,0.1-1.2-0.2c-4.2,1.3-8.6,2-13,1.8c0,0-0.1,0-0.1,0
		c-0.1,0-0.3,0-0.4,0c-0.3,0-0.6-0.2-0.8-0.4c-1.5,0-2.9,0.2-4.3,0.4c-0.1,0.4-0.4,0.8-0.9,0.9c-1.2,0.1-2.5,0.2-3.7,0.5
		c-0.4,0.1-0.8-0.1-1-0.5h-1.8c-0.1,0.5-0.4,0.8-0.9,0.8c-2.8-0.2-5.5-0.7-8.3-1.1c-0.2,0.2-0.4,0.4-0.8,0.4c-1.4,0-2.8,0-4.3,0
		c-0.2,0.2-0.5,0.2-0.8,0.2c-0.5-0.1-0.9-0.2-1.4-0.4c-1.1-0.1-2.1-0.3-3.1-0.6c-0.7-0.2-1.4-0.4-2-0.6c-0.1,0-0.2-0.1-0.2-0.1
		c-0.5-0.2-0.7-0.6-0.7-0.9c-1.3-0.6-2.7-1.2-4-1.7c-0.6-0.3-0.6-0.9-0.3-1.4c-0.5-0.3-0.9-0.6-1.4-0.9c-1.1-0.7-0.2-2.3,1-1.7
		c0.9,0.4,1.8,0.8,2.7,1.1l0,0c0,0,0,0,0,0c-0.3-0.8,0.9-1.8,1.7-1c0.6,0.6,1.2,1.2,1.7,1.9c0,0,0.1,0.1,0.1,0.1
		c0.2,0.2,0.2,0.5,0.1,0.8c-0.1,0.2-0.2,0.4-0.4,0.6c0.3,0.2,0.4,0.4,0.4,0.7c0.4,0.2,0.8,0.3,1.1,0.5c0.8,0.3,1.7,0.6,2.5,0.9
		c0.2,0,0.3,0.1,0.5,0.1c0.1-0.5,0.5-1.1,1.2-1c2.8,0.4,5.5,0.9,8.2,1.3c0,0,0,0,0,0c3.7,0,7.4,0,11.1,0c0.1,0,0.1,0,0.2,0
		c0,0,0,0,0,0c3.1-1,6.4-1.2,9.6-1.3c0.4-0.1,0.7-0.3,1.1-0.4c0.8-0.3,1.5-0.6,2.3-0.8c0.7-0.3,1.4-0.6,2.1-0.8c0,0,0.1,0,0.1,0
		c1.2-0.3,2.4-0.6,3.7-0.7c0,0,0,0,0,0c0,0,0,0,0,0c2.2-0.3,4.5-0.4,6.7-0.5c0.2,0,0.3,0,0.5,0.1c1.8-0.8,3.6-1.4,5.6-1.6
		c0,0,0,0,0,0c0.1,0,0.1,0,0.2,0c0.7-0.1,1.1,0.6,1,1.2h0C72.5,86.4,72.4,86.9,72,87.1z"/>
	<path class="st0" d="M77.5,55.3L77.5,55.3c-0.2-0.8-0.6-1.6-1.1-2.2c-0.3-0.4-0.7-0.7-1.1-0.9c0.5-0.9,0.9-1.9,1.2-2.9
		c0.1-0.2,0.2-0.4,0.2-0.7c0.7-2.5,1-5.2-0.2-7.6v0c-0.1-0.2-0.2-0.4-0.3-0.5c-0.2-0.4-0.6-0.5-1-0.5c0.2-0.7,0.5-1.3,0.7-2
		c0.1-0.5,0.2-0.9,0.3-1.4c0-0.2,0.1-0.4,0.2-0.6c0.2-0.1,0.3-0.2,0.4-0.3v0c0.2-0.3,0.3-0.6,0.1-0.9c0,0,0-0.1,0-0.1
		c-0.3-0.6-1-0.9-1.6-0.6c-0.6,0.3-0.7,1-0.9,1.6c-0.3,0.9-0.6,1.8-0.9,2.8c-0.8-2-1.7-3.9-3.1-5.6l0,0c-0.6-0.7-1.6-0.1-1.7,0.7
		c0,0.3,0,0.5,0,0.8c-0.2,3.3-0.7,6.6-0.3,9.8c0.1,1.1,0.4,2.2,0.7,3.3c0.1,0.3,0.2,0.5,0.4,0.6c0.9,0.9,2.8-0.2,3.5-1
		c1-1.1,1.5-2.5,2.2-3.8c0.5,2.7-0.5,5.7-1.8,8.1c-1.5-0.3-3,0.1-4.1,1.4c-0.3,0.4-0.7,1-1,1.8c-0.3,0.7-0.4,1.5-0.3,2.1
		c0.1,0.5,0.4,0.9,0.9,1.1c1.4,0.7,3.2-1,4-2c0.5-0.6,1-1.3,1.5-2c0.5,0.4,0.9,1,1.1,1.7c0.4,2.2-1.7,3.6-3.5,4.5
		c-1.2-0.8-2.7-1.3-4.2-1.4c-0.7,0-1.3,0-2,0.1c-0.6,0.1-1.1,0.3-1.6,0.5c-0.3,0.1-0.5,0.5-0.5,0.9c0,1.1,0.4,1.9,1,2.4v0
		c0.5,0.4,1.1,0.7,1.8,0.8c1.5,0.2,3.4-0.2,4.8-0.7c0.1,0,0.3-0.1,0.4-0.2c0.4,0.6,0.7,1.3,0.6,2.2c-0.1,1.6-1.4,2.4-2.8,2.7
		c-0.3,0.1-0.6,0.1-1,0.1c-0.5-1-1.6-1.8-3-1.9c-0.2,0-0.4,0-0.6,0c-0.6,0-1.2,0.6-1,1.3c0.1,0.3,0.2,0.5,0.4,0.7
		c0.6,0.9,1.5,1.5,2.5,1.8c-0.1,0.6-0.5,1.2-1.2,1.6c-1.7,1.1-4.2,1.1-6.1,1c-0.3,0-0.6,0.1-0.8,0.3c-0.4,0.6-0.2,1.6,0.8,1.7
		c1.8,0.1,4,0,5.9-0.7c1.2-0.4,2.2-1.1,2.8-2.2c0.3-0.5,0.5-1,0.6-1.5c0.5,0,1.1-0.1,1.6-0.3c1.8-0.6,3.4-1.9,3.8-3.7
		c0.1-0.7,0.1-1.4,0-2c-0.1-0.7-0.4-1.3-0.7-1.8c0.7-0.4,1.5-0.9,2.1-1.5C77,58.9,77.9,57.3,77.5,55.3z M72.2,45
		c-0.2,0.3-0.4,0.7-0.7,0.9c-0.1,0.1-0.3,0.2-0.4,0.2c-0.1-0.2-0.1-0.4-0.2-0.5c-0.1-0.4-0.2-0.9-0.3-1.3c-0.5-2.5-0.2-5.1,0.1-7.7
		c0.2,0.4,0.4,0.8,0.6,1.2c0.7,1.5,1.2,3,1.6,4.6c0.1,0.3,0.3,0.4,0.5,0.6C72.9,43.6,72.6,44.3,72.2,45z M70.6,55.3
		c0,0-0.2,0.1-0.4,0.2c0.1-0.3,0.1-0.6,0.2-0.8c0.4-0.8,1.1-1.3,1.9-1.4C71.9,54.1,71.3,54.8,70.6,55.3z M67.1,61.5
		c-0.6,0-1-0.2-1.3-0.7c0.5-0.1,1-0.2,1.5-0.2c0.8,0,1.6,0.2,2.4,0.4C68.9,61.4,67.9,61.6,67.1,61.5z"/>
	<path class="st1" d="M70.4,69.1c-1,1.4-2,2.8-2.8,4.4c-0.1,0-0.2,0-0.3,0.1h0c-0.4-0.1-0.8-0.2-1.2-0.3c-0.2,0-0.5-0.1-0.7-0.2
		c1.2-0.4,2.2-1.1,2.8-2.2c0.3-0.5,0.5-1,0.6-1.5C69.4,69.4,69.9,69.3,70.4,69.1z"/>
	<path class="st1" d="M66.8,69.2c-0.1,0.6-0.5,1.2-1.2,1.6c-1.7,1.1-4.2,1.1-6.1,1c-0.3,0-0.6,0.1-0.8,0.3c-0.4,0-0.7-0.1-1.1-0.1
		c-0.6,0-1.2-0.1-1.7-0.1c1.4-0.1,2.8-0.2,4.2-0.3c0.9-0.7,1.8-1.4,2.5-2.2c0.6-0.6,1.1-1.3,1.6-2C64.9,68.4,65.8,69,66.8,69.2z"/>
	<path class="st1" d="M75.6,60.1c-0.1,0.2-0.1,0.4-0.2,0.6c-0.3,0.9-0.7,1.8-1.2,2.7c-0.1-0.7-0.4-1.3-0.7-1.8
		C74.2,61.1,75,60.7,75.6,60.1z"/>
	<path class="st1" d="M72.3,64.6c-0.1,1.6-1.4,2.4-2.8,2.7c-0.3,0.1-0.6,0.1-1,0.1c-0.5-1-1.6-1.8-3-1.9c0.1-0.1,0.1-0.3,0.2-0.4
		c0.3-0.6,0.6-1.2,0.8-1.8c1.5,0.2,3.4-0.2,4.8-0.7c0.1,0,0.3-0.1,0.4-0.2C72.1,63,72.3,63.7,72.3,64.6z"/>
	<path class="st1" d="M69.7,61.1c-0.9,0.3-1.8,0.5-2.6,0.5c0.1-0.3,0.2-0.6,0.2-0.9C68.1,60.6,69,60.8,69.7,61.1z"/>
	<path class="st1" d="M72.4,53.4c-0.5,0.7-1,1.4-1.7,2c0,0-0.2,0.1-0.4,0.2c0.1-0.3,0.1-0.6,0.2-0.8C70.9,53.9,71.6,53.5,72.4,53.4z
		"/>
	<path class="st1" d="M76.6,49.2L76.6,49.2c0,1.3,0,2.5-0.1,3.8c-0.3-0.4-0.7-0.7-1.1-0.9C75.9,51.2,76.3,50.2,76.6,49.2z"/>
	<path class="st1" d="M72,60.1c-1.2-0.8-2.7-1.3-4.2-1.4c0.1-0.7,0.2-1.3,0.3-2c0.1,0.5,0.4,0.9,0.9,1.1c1.4,0.7,3.2-1,4-2
		c0.5-0.6,1-1.3,1.5-2c0.5,0.4,0.9,1,1.1,1.7C76,57.7,73.8,59.2,72,60.1z"/>
	<path class="st1" d="M73.5,51.4c-1.5-0.3-3,0.1-4.1,1.4c-0.3,0.4-0.7,1-1,1.8c0.1-0.8,0.2-1.5,0.3-2.3c0.2-1.4,0.5-2.8,0.9-4.1
		c0.9,0.9,2.8-0.2,3.5-1c1-1.1,1.5-2.5,2.2-3.8C75.8,45.9,74.7,49,73.5,51.4z"/>
	<path class="st1" d="M76.9,35.7c-0.1,0.8-0.2,1.6-0.2,2.5c-0.1,0.9-0.1,1.9-0.1,2.8c-0.1-0.2-0.2-0.4-0.3-0.5
		c-0.2-0.4-0.6-0.5-1-0.5c0.2-0.7,0.5-1.3,0.7-2c0.1-0.5,0.2-0.9,0.3-1.4c0-0.2,0.1-0.4,0.2-0.6C76.7,36,76.8,35.9,76.9,35.7z"/>
	<path class="st1" d="M73.2,42.9c-0.3,0.7-0.7,1.4-1.1,2.1c-0.2,0.3-0.4,0.7-0.7,0.9c-0.1,0.1-0.3,0.2-0.4,0.2
		c-0.1-0.2-0.1-0.4-0.2-0.5c-0.1-0.4-0.2-0.9-0.3-1.3c0.4-1.6,0.6-3.1,0.7-4.7c0-0.6,0-1.2,0-1.8c0.7,1.5,1.2,3,1.6,4.6
		C72.8,42.6,73,42.8,73.2,42.9z"/>
	<path class="st1" d="M77.5,30.7c-0.1,1.4-0.3,2.7-0.5,4.1c0,0,0-0.1,0-0.1c-0.3-0.6-1-0.9-1.6-0.6c-0.6,0.3-0.7,1-0.9,1.6
		c-0.3,0.9-0.6,1.8-0.9,2.8c-0.8-2-1.7-3.9-3.1-5.6l0,0c-0.1-0.6-0.2-1.3-0.3-1.9h0c0.7-0.1,1.4-0.1,2.1-0.2
		C74,30.7,75.8,30.7,77.5,30.7L77.5,30.7z"/>
	<path class="st1" d="M68.5,44.2c-0.1,0.4-0.2,0.8-0.3,1.2c-0.5,2-1.1,4-1.4,6.1c-0.3,2.1-0.4,4.2-0.8,6.2c-0.1,0.4-0.1,0.7-0.2,1.1
		c-0.6,0.1-1.1,0.3-1.6,0.5c-0.3,0.1-0.5,0.5-0.5,0.9c0,1.1,0.4,1.9,1,2.4v0c-0.8,2-1.9,3.9-3.4,5.5c-0.5,0.6-1.1,1.1-1.7,1.5
		c-1.3,1-2.7,1.7-4.2,2.3h0c-0.3,0-0.5,0-0.8,0c-1.2-0.1-2.4-0.1-3.6-0.2c-5.4-0.2-10.8,0.1-16.1,0.6c-1.7-1.1-4.3-1-6.2-1.5
		c-3.4-0.9-6.3-3.3-8.6-6c-2.4-2.8-3.6-6.2-4-9.8c-0.4-3.7-0.5-7.5-0.6-11.2c0-1.7,0-3.3,0.2-5c0.1-0.7,0.1-1.4,0.2-2.1
		c0.1-1,0.2-2,0.4-3c0.5,0,1,0,1.5,0c1.3,0,1.3-2,0-2l0,0c-0.4,0-0.8,0-1.2,0c0.1-0.4,0.1-0.8,0.2-1.2c0.2-1.2,0.5-2.3,0.7-3.5
		c0.1-0.7,0.3-1.5,0.5-2.2c0,0,0,0,0,0c0.2-0.7,0.3-1.4,0.5-2.1c0-0.1,0-0.2,0.1-0.2h0c0.2,0,0.3,0,0.5-0.1c-0.2,0-0.3,0-0.5,0h0
		c0-0.1,0-0.1,0.1-0.2c0.2-0.6,0.5-1.2,0.7-1.9h-0.2c0.1-0.5,0.3-0.9,0.5-1.4c2.2-6.3,6.6-11,12.6-13.9c6.9-3.4,15.5-4.7,22.6-1.1
		c3.2,1.7,6,4.2,8.2,7.1c1,1.4,1.8,2.8,2.4,4.3c0.1,0.2,0.1,0.4,0.2,0.5c0.2,0.5,0.3,1,0.5,1.5c0,0.2,0.1,0.3,0.1,0.5
		c0.3,1.2,0.5,2.5,0.7,3.8c0.2,1.3,0.3,2.6,0.5,3.9c0,0.2,0.1,0.5,0.1,0.8c0,0,0,0,0,0.1c0,0.9,0,1.8,0,2.7c0,0.7,0,1.4,0,2.1
		c0.2,0,0.5,0,0.7-0.1c0.2,0.9,0.4,1.9,0.5,2.8c0,0.1,0,0.3,0.1,0.4C68.6,37.7,68.1,40.9,68.5,44.2z"/>
	<path class="st1" d="M26.5,73.4c-0.1,0-0.2,0-0.3,0c-0.8,0.1-1.6,0.3-2.4,0.5h0c-0.3-0.4-0.6-0.9-0.7-1.5c-0.1-0.5-0.8-0.8-1.2-0.7
		c-0.9,0.2-1.7,0.6-2.6,0.8c-0.6,0.2-2.1,0.8-2.7,0.4c-0.6-0.4-0.4-1.8-0.4-2.4c0-0.9-0.1-1.8-0.6-2.6c-0.2-0.4-0.7-0.6-1.1-0.5
		c-1.4,0.4-2.7,1.2-4.1,1.6c0.5-2.1,1.4-4,0.6-6.2c-0.1-0.3-0.4-0.6-0.7-0.7c1-1.8,1.6-3.6,0.7-5.7c1.2-1.3,2.3-2.8,2.8-4.5
		c0.1,2.6,0.4,5.2,1.2,7.7c0.9,2.8,2.4,5.3,4.5,7.4c-0.4,0.5-0.4,1.2,0.3,1.6c1.4,0.6,2.9,1.3,4.2,2.2
		C24.9,71.7,25.7,72.6,26.5,73.4z"/>
	<path class="st1" d="M9.6,58.2c0.4,2-1.4,3.9-2.5,5.4c0,0,0,0.1-0.1,0.1c0.1-2.6,0.2-5.2,0.2-7.8c0-1.7,0-3.4,0-5
		c0.2,0.5,0.8,0.8,1.4,0.5c1.1-0.6,2.1-1.1,3.3-1.3c0.4,2.6-2.2,5-3.8,6.7c-0.7,0.8,0.2,2.3,1.2,1.6C9.5,58.2,9.5,58.2,9.6,58.2z"/>
	<path class="st1" d="M10.7,44.5c-0.4,2-2,3.7-3.2,5.2c-0.1,0.1-0.1,0.2-0.1,0.2c0-1.7,0.1-3.5,0.2-5.2c0-0.9,0.1-1.8,0.2-2.7
		c0.5-0.2,1-0.5,1.6-0.7c0.2,0,0.5,0.1,0.7,0.3C10.8,42.4,10.9,43.6,10.7,44.5z"/>
	<path class="st1" d="M8.4,69.9c-0.3-0.2-0.6-0.3-0.8-0.6C6.9,68.6,7,67.6,7,66.8C7,66,7,65.3,7,64.5c0.3,0.5,1.1,0.7,1.6,0.3
		c0.2-0.2,0.5-0.3,0.7-0.4C9.6,66.3,8.6,68.1,8.4,69.9z"/>
	<path class="st1" d="M14.2,34.1L14.2,34.1c0,0.4-0.1,0.8-0.2,1.3c-0.1,0.6-0.1,1.2-0.2,1.8c-0.1,0.7-0.1,1.4-0.2,2.1
		c-0.2,3.1-0.1,6.1,0,9.2v0c-0.2-0.3-0.5-0.7-0.9-0.6c-0.5,0-1,0.1-1.5,0.2c1.1-1.7,1.9-3.7,1.3-5.7c-0.2-0.8-0.6-1.5-1.2-2.1
		c1.4-0.8,2.4-1.9,2.3-3.4c-0.1-1.7-1.8-2.5-3.3-2.3c-0.9,0.2-1.7,0.6-2.5,1c0-0.4,0-0.8,0-1.2h0v0c0,0-0.1,0-0.2,0
		c2.1-0.4,4.2-0.6,6.4-0.7C14.2,33.9,14.2,34,14.2,34.1z"/>
	<path class="st1" d="M11.6,37.5c-0.5,0.9-1.9,1.5-2.7,1.9c0,0-0.1,0-0.1,0.1c-0.3,0-0.6,0.1-0.9,0.2c0-0.5,0.1-1,0.1-1.5
		c0.6-0.4,1.2-0.8,1.9-1.1C10.4,36.8,12.2,36.2,11.6,37.5z"/>
	<path class="st1" d="M21.7,74.4c-1.8,0.4-3.6,1-5.4,1.6c-1.8-1.7-3.6-3.5-5.7-4.8c1.3-0.4,2.4-1,3.7-1.5c0.4,1.8-0.5,4.1,1.6,5.1
		c1.7,0.8,3.8-0.2,5.7-0.8C21.6,74.1,21.6,74.2,21.7,74.4z"/>
	<path class="st0" d="M31.8,73.4c0,0,0,0.1,0,0.2c0,0.1-0.1,0.3-0.1,0.4c0,0,0,0.1,0,0.1c0,0.1,0,0.1-0.1,0.2h0c0,0,0,0.1,0,0.1
		c0,0.1,0,0.1-0.1,0.2v0c0,0.1-0.1,0.2-0.1,0.2c-1.5,2.8-5.6,3.2-8.1,1.4c-0.6-0.4-1.2-1-1.5-1.7c-0.1-0.1-0.1-0.3-0.2-0.4
		c-1.8,0.7-3.9,1.6-5.7,0.8c-2.1-1-1.2-3.3-1.6-5.1c-1.2,0.5-2.4,1.1-3.7,1.5c-0.3,0.1-0.7,0.2-1,0.2c-0.6,0.1-1.3-0.2-1.3-1
		c0-0.2,0-0.4,0.1-0.6c0.3-1.8,1.2-3.6,1-5.4c-0.3,0.1-0.5,0.2-0.7,0.4C8.1,65.3,7.3,65,7,64.5c-0.1-0.2-0.2-0.5,0-0.8
		c0,0,0-0.1,0.1-0.1c1.1-1.5,2.8-3.5,2.5-5.4c0,0-0.1,0-0.1,0.1c-1,0.7-1.9-0.8-1.2-1.6C9.8,55,12.4,52.5,12,50
		c-1.2,0.2-2.3,0.8-3.3,1.3c-0.6,0.3-1.2,0-1.4-0.5c-0.1-0.3-0.1-0.6,0-0.9v0c0-0.1,0.1-0.2,0.1-0.2c1.3-1.5,2.8-3.2,3.2-5.2
		c0.2-0.9,0.1-2.2-0.7-2.8c-0.2-0.2-0.5-0.3-0.7-0.3c-0.6,0.3-1.2,0.5-1.6,0.7c-0.1,0.1-0.3,0.1-0.4,0.2c-0.7,0.3-1.6-0.3-1.6-0.9v0
		c0,0,0,0,0,0c0-0.2,0.1-0.4,0.3-0.6c0.1-0.1,0.1-0.1,0.2-0.2c0.5-0.4,1-0.7,1.6-0.9c0.3-0.1,0.6-0.2,0.9-0.2c0,0,0.1,0,0.1-0.1
		c0.8-0.4,2.3-1,2.7-1.9c0.6-1.2-1.2-0.7-1.8-0.5c-0.7,0.3-1.3,0.7-1.9,1.1c-0.3,0.2-0.6,0.4-1,0.6c-0.4,0.2-0.8,0.2-1.1-0.1
		C5.4,38.3,5.2,37.4,6,37c0,0,0,0,0,0c0.2-0.1,0.4-0.3,0.7-0.4C7.1,36.3,7.5,36,8,35.7c0,0,0,0,0,0c0.8-0.5,1.6-0.9,2.5-1
		c1.5-0.3,3.2,0.6,3.3,2.3c0.1,1.5-1,2.5-2.3,3.4c0.6,0.6,1,1.3,1.2,2.1c0.5,2-0.2,4-1.3,5.7c0.5-0.1,1-0.2,1.5-0.2
		c0.4,0,0.7,0.3,0.9,0.6c0,0,0,0,0,0c0,0,0,0.1,0,0.1c0.5,1.2,0.5,2.4,0.1,3.5c0,0,0,0,0,0c-0.5,1.6-1.6,3.1-2.8,4.5
		c1,2.1,0.4,3.9-0.7,5.7c0.3,0.1,0.6,0.4,0.7,0.7c0.8,2.2-0.2,4.1-0.6,6.2c1.4-0.5,2.7-1.3,4.1-1.6c0.4-0.1,0.9,0.1,1.1,0.5
		c0.5,0.8,0.5,1.7,0.6,2.6c0,0.6-0.2,2,0.4,2.4c0.6,0.4,2.1-0.2,2.7-0.4c0.9-0.3,1.7-0.6,2.6-0.8c0.5-0.1,1.1,0.2,1.2,0.7
		c0.1,0.6,0.3,1.1,0.7,1.5h0c1,1.3,3,1.7,4.4,1.1c0,0,0,0,0,0c0.1-0.1,0.3-0.2,0.4-0.2c-0.2-0.4-0.2-1,0.3-1.4
		c0.1-0.1,0.2-0.1,0.3-0.2c0.1-0.1,0.2-0.1,0.3-0.2c0,0,0,0,0,0c0.2-0.1,0.3-0.2,0.5-0.4l0,0c0.5-0.5,1.2-0.3,1.5,0.1
		C31.7,72.9,31.8,73.1,31.8,73.4z"/>
	<path class="st0" d="M52.4,79.3L52.4,79.3c-0.2,0.2-0.5,0.4-0.8,0.6c-0.1,0.1-0.2,0.1-0.3,0.2c-0.1,0.1-0.3,0.1-0.4,0.2
		c-0.2,0.1-0.5,0.2-0.7,0.2c0-0.2,0-0.4,0-0.5c0-0.1,0-0.2,0-0.2c0-0.7-0.8-1.4-1.5-0.9c-0.1,0-0.1,0.1-0.2,0.1
		c-0.1-0.8-1.1-1.1-1.7-0.6c-0.2,0.1-0.3,0.3-0.5,0.4c0,0,0,0,0,0c-0.6,0.4-1.1,0.8-1.7,1.2c0-0.6-0.6-1.2-1.2-1
		c-0.9,0.2-1.8,0.7-2.7,1c0.1-0.1,0.1-0.2,0.2-0.3c0.3-0.7-0.2-1.8-1.1-1.5c-1,0.4-1.9,1-2.8,1.5h0c-0.1,0-0.3,0-0.4,0
		c0.1-0.6-0.4-1.4-1.2-1.3c-0.5,0.1-1,0.3-1.5,0.5c-0.1-0.3-0.4-0.5-0.6-0.6c-0.2-0.1-0.5-0.1-0.8,0.1c0,0,0,0-0.1,0h0
		c-0.2,0.1-0.4,0.3-0.6,0.4c-0.4-0.2-0.8-0.2-1.1,0.1c-0.8,0.6-1.5,1.3-2.3,1.9c-0.1,0.1-0.3,0.2-0.4,0.4C27.3,82,27.9,83,28.6,83
		c0.1,0,0.3,0,0.4-0.1c0.2,0.3,0.6,0.5,1,0.3c0.3-0.1,0.6-0.3,0.9-0.4c1.4,1.1,3.3,1.5,5,1.7c0.6,0.1,1.2,0.1,1.9,0.2
		c0.1,0,0.1,0.1,0.2,0.1c0,0,0,0,0,0c2.4,1.4,5.6,0.9,8.1,0c0.3-0.1,0.5-0.2,0.8-0.3c0,0,0,0,0,0c1.9-0.7,3.7-1.7,5.3-2.8
		c0.3-0.2,0.6-0.4,0.9-0.6c0.2-0.1,0.3-0.3,0.5-0.5C54.7,79.7,53.4,78.4,52.4,79.3z M43.2,83.2c0.7-0.4,1.4-0.8,2.1-1.3
		c0,0.1,0,0.1-0.1,0.2c-0.1,0.4,0,0.7,0.2,0.9c-0.8,0.2-1.6,0.4-2.4,0.5C43.1,83.5,43.2,83.4,43.2,83.2z M40.4,82.2
		c0.1,0.1,0.2,0.2,0.3,0.2v0c-0.7,0.2-1.4,0.2-2.1,0.2c0-0.1,0-0.2,0-0.3C39.2,82.5,39.8,82.4,40.4,82.2z"/>
	<path class="st1" d="M40.7,82.5L40.7,82.5c-0.7,0.2-1.4,0.2-2.1,0.2c0-0.1,0-0.2,0-0.3c0.6,0,1.2-0.1,1.8-0.2
		C40.5,82.3,40.6,82.4,40.7,82.5z"/>
	<path class="st1" d="M45.4,83.1c-0.8,0.2-1.6,0.4-2.4,0.5c0.1-0.1,0.1-0.2,0.1-0.4c0.7-0.4,1.4-0.8,2.1-1.3c0,0.1,0,0.1-0.1,0.2
		C45.1,82.6,45.2,82.9,45.4,83.1z"/>
</g>
</svg>
