<?xml version="1.0" encoding="UTF-8"?>
<svg id="Layer_2" xmlns="http://www.w3.org/2000/svg" version="1.1" viewBox="0 0 69.9 48.7">
  <!-- Generator: Adobe Illustrator 30.1.0, SVG Export Plug-In . SVG Version: 2.1.1 Build 136)  -->
  <path d="M66.6,26.6c0-.2-.3-.4-.5-.4-.2,0-.4,0-.6,0,0-.4,0-.8,0-1.1,0-.6,0-1.2,0-1.8v-2.9c.2,0,.2,0,.3,0,.6,0,.6-1,0-1,0,0-.1,0-.2,0,0-.5-.8-.5-1,0-15.6-.5-31.3-.6-46.9-.4-4.5,0-9.1.1-13.6.2-.3,0-.6,0-.6.5,0,2.2,0,4.3-.1,6.5-.3,0-.5,0-.8,0-.6,0-.6,1,0,1,.3,0,.5,0,.8,0h0c0,.6.9.6,1,0,15.9.2,31.7.3,47.6.2,4.2,0,8.4,0,12.7-.1.2.3.4.5.8.5.6,0,1.2-.5,1-1.2ZM16.8,26.3c-4,0-8.1,0-12.1-.1.1-2,.2-4,.1-6,15.8-.4,31.7-.4,47.6-.1,4.2,0,8.3.2,12.5.3,0,1.9-.2,3.9-.1,5.8,0,0,0,0,0,0-15.9.2-31.9.2-47.8,0Z"/>
</svg>