<?xml version="1.0" encoding="UTF-8"?>
<svg id="Layer_2" data-name="Layer 2" xmlns="http://www.w3.org/2000/svg" viewBox="0 0 189.06 192.54">
  <defs>
    <style>
      .cls-1 {
        fill: #231f20;
      }
    </style>
  </defs>
  <g id="Layer_1-2" data-name="Layer 1">
    <path class="cls-1" d="M89.95,112.11c-5.99.27-12.15.33-18.1-.42-1.99-.25-3.44-.94-4.24-2.84-.76-1.77-.87-3.8-1.01-5.7-.43-6-.85-11.99-1.28-17.99-.22-3.04-.43-6.08-.65-9.12-.1-1.4-.2-2.79-.3-4.19-.09-1.31-.51-3.02-.23-4.32.12-.57.26-.58.76-.63.9-.1,1.8.15,2.66.36,2.85.71,5.71,1.39,8.6,1.95,5.75,1.12,11.58,1.89,17.43,2.32s11.59.49,17.39.19c.25-.01,2.48-.06,2.47-.05-.08.25-.29-.44-.36-.42-.11.03-.18.55-.23.69-.25.76-.54,1.51-.81,2.27-1.02,2.85-2.05,5.7-3.07,8.56s-1.99,5.99-3.2,8.88c-.36.87-.81,1.85-1.65,2.34-1.02.6-2.49.51-3.61.38-4.32-.48-8.53-3.48-10.2-7.53-.51-1.25-1.66-2.14-3.08-1.75-1.18.32-2.26,1.82-1.75,3.08,2.11,5.13,6.35,9.07,11.72,10.61,2.7.77,5.94,1.04,8.58-.07,2.84-1.19,4.12-3.85,5.12-6.58,1.2-3.29,2.36-6.59,3.55-9.88.55-1.54,1.11-3.08,1.66-4.63.58-1.62,1.31-3.26,1.74-4.92.91-3.57-1.56-6.04-5.04-6.06-3.23-.02-6.47.28-9.71.26-6.6-.04-13.22-.51-19.75-1.5-3.3-.5-6.58-1.11-9.84-1.84-2.77-.62-5.75-1.8-8.62-1.66-3.26.15-5.56,2.34-5.76,5.63-.09,1.51.14,3.06.24,4.56.13,1.81.26,3.61.39,5.42.49,6.9.98,13.8,1.47,20.7.4,5.68-.11,14.08,5.83,17.22,3.21,1.7,7.48,1.52,11.01,1.68,3.95.18,7.91.17,11.86-.02,3.2-.15,3.22-5.15,0-5h0v.02Z"/>
    <path class="cls-1" d="M92.13,69.29c-1.93-18.16-6.2-36.02-12.87-53.02-1.9-4.84-3.98-9.61-6.23-14.3l-2.16,3.76c5.86.19,11.72.39,17.58.58,1.36.05,2.73.07,4.09.14.99.05,1.05.1,1.32,1.03.8,2.84,1.45,5.73,2.17,8.59,2.91,11.5,5.92,22.99,8.71,34.52,1.52,6.3,2.73,12.67,2.3,19.18-.18,2.8,4.3,3.41,4.91.66,2.52-11.38,4.24-22.95,5.1-34.58.44-5.86.66-11.75.66-17.63,0-2.9-.05-5.8-.16-8.7-.04-1.2-.18-2.42-.13-3.62.01-.24,0-.74.14-.89-.26.29.21.09.49.09,5.95-.02,11.9.22,17.85.33,1.41.03,2.82.05,4.22.08.75.01,2.63-.3,3.2.31.39.41.35,1.51.39,2.04.11,1.35.18,2.69.23,4.04.38,10.23-.79,20.47-3.44,30.35-2.97,11.07-7.76,21.57-14.19,31.06-1.81,2.67,2.52,5.18,4.32,2.52,12.44-18.36,18.95-40.7,18.35-62.87-.07-2.59.02-5.49-.66-8-.84-3.06-3.34-4.3-6.33-4.43-6.41-.27-12.85-.24-19.26-.36-2.78-.05-6.58-.81-8.76,1.35-1.97,1.95-1.53,5.02-1.44,7.51.24,6.2.24,12.41,0,18.6-.56,13.95-2.37,27.82-5.39,41.46l4.91.66c.41-6.27-.63-12.52-2.03-18.62s-3.03-12.17-4.57-18.25c-1.57-6.22-3.14-12.43-4.71-18.65-.74-2.91-1.27-5.98-2.27-8.81-.45-1.28-1.19-2.49-2.4-3.18-1.28-.73-2.75-.79-4.19-.84-7-.24-14-.46-21-.69-2.03-.07-2.94,2.14-2.16,3.76,7.61,15.85,13.07,32.7,16.26,49.98.91,4.91,1.62,9.85,2.15,14.81.14,1.34,1.05,2.5,2.5,2.5,1.24,0,2.64-1.15,2.5-2.5h0v.03Z"/>
    <path class="cls-1" d="M130.56,75.5c2.79-5.69,6.63-13.53,13.82-14.15,2.25-.19,4.52.17,6.75.47,2.44.33,4.87.66,7.31.98s4.87.66,7.31.98c1.22.16,2.44.33,3.65.49.81.11,2.5.14,2.96.49l-.9-.9c-.21-.3.14-.88-.27.05-.27.6-.55,1.19-.82,1.79-.55,1.19-1.1,2.39-1.65,3.58-1.07,2.31-2.13,4.62-3.2,6.94s-2.12,4.66-3.22,6.98c-.86,1.81-1.79,3.75-3.41,5.01-2.92,2.28-7.15,2.14-10.65,2.05-1.18-.03-3.38.13-4.24-.87-.93-1.09-.55-3.61-.32-4.9.74-4.17,3.19-7.9,6.83-10.09,2.75-1.66.24-5.98-2.52-4.32-3.74,2.25-6.52,5.66-8.14,9.69-1.49,3.72-2.46,9.6.41,12.91,2.71,3.12,8.09,2.75,11.83,2.55,4.38-.23,8.84-1.41,11.74-4.93,1.48-1.8,2.46-3.87,3.43-5.97,1.13-2.46,2.27-4.92,3.4-7.38s2.2-4.77,3.3-7.16c.55-1.19,1.11-2.38,1.65-3.58s1.02-2.41.7-3.74c-.68-2.81-3.78-2.78-6.07-3.09-2.68-.36-5.36-.72-8.04-1.08s-5.2-.7-7.8-1.05-5.3-.83-7.96-.94c-4.92-.2-9.36,1.7-12.78,5.2-3.21,3.27-5.42,7.38-7.42,11.45-.59,1.21-.33,2.7.9,3.42,1.1.64,2.82.32,3.42-.9h0v.02Z"/>
    <path class="cls-1" d="M171.89,73.41c3.45.75,6.9,1.49,10.35,2.26.6.13,1.31.31,1.63.48.12.06.24.13.35.21.15.09.15.1,0,.01,0-.15-.16-.32-.16-.5,0-.64.25-.52-.28-.03-.25.23-.52.45-.79.67-.53.44-1.07.88-1.62,1.3-4.96,3.8-10.52,6.87-16.39,9.01-1.27.46-2.12,1.7-1.75,3.08.34,1.22,1.8,2.21,3.08,1.75,7.32-2.67,14.08-6.52,20.08-11.48,1.58-1.31,3.09-2.95,2.57-5.2-.45-1.9-2.07-3.02-3.79-3.68s-3.73-.91-5.57-1.31l-6.37-1.39c-1.32-.29-2.7.39-3.08,1.75-.34,1.25.42,2.79,1.75,3.08h-.01Z"/>
    <path class="cls-1" d="M177.79,87.7c4.48,11.86-2.23,24.69-11.75,31.93-12.12,9.22-28.63,9.7-43.19,9.03-3.81-.18-7.83-.89-11.62-.38-4.04.54-6.47,3.28-8.23,6.75-3.09,6.1-6.75,11.67-11.43,16.67-9.58,10.22-21.91,17.64-34.93,22.64-15.62,6-32.17,8.97-48.63,11.57-2.07.33-4.15.65-6.22.97-2.6.4-2.15,4.15,0,4.82,8.62,2.7,17.29-1.58,24.48-6.06,7.89-4.92,15.58-10.16,23.12-15.6,6.95-5.01,14.08-10.05,20.09-16.19,2.85-2.91,5.45-6.13,7.51-9.65,1.72-2.93,3-6.1,4.32-9.22,2.46-5.81,5.26-13.04,11.66-15.02,3.06-.95,1.76-5.77-1.33-4.82-6.35,1.96-10.12,7.38-12.81,13.14-2.88,6.17-5,12.61-9.3,18.01-5.03,6.31-11.54,11.26-17.99,16.04-7.43,5.5-15.04,10.77-22.79,15.81-7.26,4.72-16.46,11.63-25.64,8.76v4.82c16.86-2.61,33.85-5.25,50.05-10.8,14.07-4.82,27.48-11.91,38.4-22.13,5.2-4.87,9.78-10.47,13.35-16.64.9-1.55,1.68-3.16,2.5-4.75.66-1.29,1.38-2.74,2.64-3.55,1.42-.92,3.35-.74,4.96-.64,1.96.12,3.91.26,5.87.37,15.39.83,32.64.51,45.94-8.37,11.06-7.38,19.32-20.67,17.04-34.3-.26-1.55-.68-3.06-1.24-4.52-.48-1.26-1.69-2.13-3.08-1.75-1.21.33-2.23,1.81-1.75,3.08h0v-.02Z"/>
  </g>
</svg>