<svg width="371" height="387" viewBox="0 0 371 387" fill="none" xmlns="http://www.w3.org/2000/svg">
<path d="M344.716 254.533C344.716 250.39 344.792 246.285 344.355 242.162C343.918 237.981 343.215 233.838 342.949 229.657C342.474 221.923 342.93 214.075 341.297 206.454C339.701 198.986 335.104 193.095 331.894 186.311C329.025 180.21 325.853 175.041 319.698 171.868C314.114 168.998 307.978 167.839 301.748 167.782C293.465 167.706 285.183 168.105 276.958 169.036C268.847 169.968 261.249 171.773 253.575 174.585C247.249 176.904 241.55 179.184 238.663 185.759C237.39 188.629 236.877 191.707 236.44 194.805C235.947 198.34 235.282 201.874 235.149 205.447C234.845 213.656 235.282 221.923 235.149 230.151C235.016 238.095 236.972 245.563 237.96 253.393C238.093 254.457 238.207 255.502 238.321 256.566C238.131 256.775 237.96 256.984 237.827 257.231C237.181 258.334 237.77 259.379 238.663 259.816C238.853 261.526 239.043 263.255 239.347 264.966C239.689 266.885 240.012 268.823 240.354 270.762C240.733 272.947 240.714 275.152 240.98 277.356C241.208 279.18 241.531 281.024 241.93 282.81C242.234 284.159 242.937 285.565 242.823 286.953C242.823 287.01 242.842 287.048 242.842 287.105C242.443 286.459 242.063 285.774 241.721 285.09C240.98 283.589 240.771 282.05 240.202 280.511C239.708 279.199 238.72 278.154 238.245 276.824C237.713 275.304 237.922 273.555 237.58 271.959C237.447 271.351 236.858 270.762 236.25 270.629C236.08 270.591 235.909 270.553 235.719 270.515C233.591 270.078 232.565 272.909 234.047 273.897C234.18 275.171 234.142 276.463 234.522 277.717C235.035 279.427 236.345 280.739 236.82 282.449C237.713 285.66 239.024 288.492 241.075 291.152C243.184 293.908 245.748 295.903 248.408 298.108C251.295 300.502 254.144 302.859 257.127 305.139C262.996 309.624 268.581 314.223 275.761 316.408C282.6 318.498 289.742 318.27 296.733 317.149C300.266 316.579 303.932 315.781 307.199 314.261C310.353 312.797 312.955 310.327 315.633 308.161C321.256 303.6 325.739 297.918 330.944 292.958C332.198 291.761 333.052 290.316 333.945 288.853C335.009 287.105 336.244 285.565 337.497 283.95C339.511 281.347 341.088 278.268 342.569 275.342C344.127 272.263 345.058 269.318 344.982 265.84C344.887 262.058 344.773 258.296 344.773 254.514L344.716 254.533ZM239.271 201.209C240.126 195.242 240.297 188.097 244.571 183.403C246.736 181.009 249.889 179.925 252.834 178.842C256.158 177.626 259.482 176.41 262.882 175.422C270.405 173.236 278.288 172.495 286.076 171.982C293.029 171.526 300.494 170.861 307.427 171.887C312.955 172.704 318.958 174.737 322.947 178.804C325.245 181.142 326.689 184.201 328.076 187.109C329.519 190.168 331.077 193.095 332.805 195.983C334.724 199.214 336.396 202.463 337.307 206.131C338.219 209.799 338.561 213.58 338.713 217.343C339.036 224.773 339.283 232.033 340.214 239.425C340.632 242.713 340.765 246 340.803 249.269C338.998 248.547 337.06 248.11 335.18 247.692C331.362 246.817 327.563 245.829 323.726 245.05C320.002 244.29 316.165 243.663 312.366 243.511C308.434 243.359 304.578 244.271 300.646 244.404C296.562 244.537 292.478 244.404 288.394 244.404C284.955 244.404 281.935 245.012 278.592 245.772C275.23 246.532 271.924 246.228 268.6 247.426C266.852 248.053 265.105 248.775 263.281 249.193C261.363 249.63 259.349 249.402 257.431 249.877C255.322 250.409 253.309 251.378 251.2 251.948C249.206 252.499 247.211 252.956 245.235 253.564C244.191 253.887 242.994 254.134 241.835 254.476C241.55 251.587 241.17 248.68 240.657 245.829C240.012 242.181 239.024 238.608 238.91 234.883C238.777 231.235 238.986 227.567 238.986 223.899C238.986 216.431 238.226 208.583 239.29 201.152L239.271 201.209ZM340.081 271.655C338.846 274.543 337.193 277.413 335.522 280.073C334.667 281.423 333.603 282.582 332.653 283.855C331.476 285.413 330.602 287.143 329.5 288.739C328.626 289.993 327.487 290.867 326.366 291.894C325.112 293.053 324.124 294.478 322.947 295.713C318.312 300.673 313.487 305.652 307.845 309.491C302.298 313.272 294.149 314.185 287.615 314.261C280.909 314.356 274.375 312.645 268.676 309.054C262.54 305.196 256.88 300.35 251.352 295.694C248.788 293.547 246.128 291.647 244.077 288.948C244.001 288.853 243.944 288.739 243.868 288.625C244.95 289.005 246.47 288.416 246.584 286.915C246.774 284.311 245.425 281.309 244.988 278.743C244.381 275.152 244.286 271.522 243.659 267.93C243.108 264.719 242.576 261.545 242.234 258.315C243.165 257.991 244.343 257.839 244.988 257.668C247.268 257.022 249.528 256.395 251.808 255.768C254.049 255.16 256.215 254.096 258.475 253.564C260.394 253.108 262.389 253.317 264.326 252.88C266.568 252.366 268.638 251.378 270.823 250.694C272.969 250.029 275.078 250.124 277.281 249.877C278.934 249.687 280.529 249.212 282.144 248.832C284.234 248.338 286.285 248.243 288.413 248.243C293.067 248.224 297.777 248.49 302.412 248.129C307.218 247.749 311.663 247.102 316.488 247.711C321.123 248.281 325.644 249.383 330.184 250.466C333.641 251.283 337.744 251.682 340.86 253.564C340.86 256.414 340.86 259.246 340.955 262.115C341.069 265.46 341.448 268.538 340.1 271.693L340.081 271.655Z" fill="black"/>
<path d="M317.893 281.973C317.418 278.477 315.272 275.531 311.416 274.353C307.636 273.194 302.317 273.232 298.423 273.726C291.508 274.619 284.632 275.037 277.774 276.31C274.431 276.918 271.221 277.812 267.916 278.61C265.218 279.256 261.837 279.294 259.463 280.681C259.444 280.681 259.425 280.719 259.406 280.719C258.855 280.89 258.38 281.27 258.228 281.973C258.019 282.962 257.031 283.646 256.746 284.653C256.537 285.337 256.556 286.097 256.594 286.8C256.708 289.024 257.601 291.019 258.95 292.881C261.438 296.283 264.705 299.494 268.751 301.49C273.709 303.941 278.971 304.036 284.518 304.036C287.215 304.036 289.932 304.112 292.572 303.618C295.402 303.086 298.157 301.965 300.778 300.901C309.649 297.309 319.223 291.855 317.893 281.992V281.973ZM312.1 289.043C310.143 292.197 306.325 294.136 302.849 295.77C298.841 297.67 294.282 299.78 289.704 300.16C285.24 300.521 279.807 300.673 275.438 299.761C271.088 298.848 267.574 296.473 264.781 293.47C263.243 291.836 261.476 289.879 261.039 287.731C260.868 286.952 260.773 286.04 261.134 285.318C261.324 284.957 261.552 284.634 261.761 284.33C262.217 284.197 262.578 283.893 262.806 283.494C264.193 283.057 265.883 282.943 267.232 282.676C269.663 282.182 272.019 281.441 274.45 280.89C279.313 279.788 284.385 278.8 289.4 278.458C293.864 278.154 298.366 277.374 302.83 277.413C305.679 277.432 309.63 277.013 311.929 278.876C314.949 281.308 313.866 286.268 312.157 289.043H312.1Z" fill="black"/>
<path d="M278.154 287.048C278.059 286.725 277.907 286.44 277.66 286.212C277.527 286.117 277.413 286.022 277.28 285.908C276.976 285.737 276.672 285.642 276.331 285.642H275.704C275.438 285.642 275.191 285.68 274.963 285.813C274.735 285.889 274.526 286.022 274.355 286.212C274.165 286.383 274.032 286.592 273.956 286.82C273.842 287.048 273.785 287.295 273.785 287.561C273.804 287.732 273.823 287.903 273.861 288.074C273.956 288.397 274.108 288.682 274.355 288.91C274.488 289.005 274.602 289.1 274.735 289.214C275.039 289.385 275.343 289.48 275.685 289.48H276.312C276.578 289.48 276.824 289.442 277.052 289.309C277.28 289.233 277.489 289.1 277.66 288.91C277.85 288.739 277.983 288.53 278.059 288.302C278.173 288.074 278.23 287.827 278.23 287.561L278.154 287.048Z" fill="black"/>
<path d="M283.226 293.395C283.131 293.072 282.979 292.787 282.733 292.559C282.6 292.464 282.486 292.369 282.353 292.255C282.049 292.084 281.745 291.989 281.403 291.989H280.776C280.51 291.989 280.263 292.027 280.035 292.16C279.807 292.236 279.598 292.369 279.427 292.559C279.237 292.73 279.104 292.939 279.028 293.167C278.914 293.395 278.857 293.642 278.857 293.908L278.933 294.421C279.028 294.744 279.18 295.029 279.427 295.257C279.56 295.353 279.674 295.448 279.807 295.562C280.111 295.733 280.415 295.828 280.757 295.828H281.384C281.65 295.828 281.897 295.79 282.125 295.657C282.353 295.581 282.562 295.448 282.733 295.257C282.922 295.086 283.055 294.877 283.131 294.649C283.245 294.421 283.302 294.174 283.302 293.908C283.283 293.737 283.264 293.566 283.226 293.395Z" fill="black"/>
<path d="M298.233 285.337C298.138 285.204 298.043 285.09 297.929 284.957C297.701 284.729 297.416 284.558 297.093 284.462C296.922 284.443 296.751 284.424 296.581 284.386C296.239 284.386 295.916 284.481 295.631 284.653C295.213 284.862 294.795 285.071 294.358 285.28C294.13 285.394 293.959 285.565 293.826 285.774C293.655 285.964 293.541 286.173 293.484 286.42C293.408 286.667 293.389 286.933 293.446 287.18C293.446 287.427 293.541 287.674 293.674 287.883C293.769 288.016 293.864 288.13 293.978 288.263C294.206 288.491 294.491 288.662 294.814 288.757C294.985 288.776 295.156 288.795 295.327 288.833C295.669 288.833 295.992 288.738 296.277 288.567C296.694 288.358 297.112 288.149 297.549 287.94C297.777 287.826 297.948 287.655 298.081 287.446C298.252 287.256 298.366 287.047 298.423 286.8C298.499 286.553 298.518 286.287 298.461 286.04C298.461 285.793 298.366 285.546 298.233 285.337Z" fill="black"/>
<path d="M287.557 283.665C287.481 283.437 287.348 283.228 287.158 283.057C286.987 282.867 286.778 282.734 286.55 282.658C286.322 282.544 286.075 282.487 285.809 282.487C285.638 282.506 285.467 282.525 285.296 282.563C284.973 282.658 284.688 282.81 284.461 283.057C284.366 283.19 284.271 283.304 284.157 283.437C283.986 283.741 283.891 284.045 283.891 284.387V285.014C283.891 285.28 283.929 285.527 284.062 285.755C284.138 285.983 284.271 286.192 284.461 286.364C284.631 286.554 284.84 286.687 285.068 286.763C285.296 286.877 285.543 286.934 285.809 286.934C285.98 286.915 286.151 286.896 286.322 286.858C286.645 286.763 286.93 286.611 287.158 286.364C287.253 286.23 287.348 286.116 287.462 285.983C287.633 285.679 287.728 285.375 287.728 285.033V284.406C287.728 284.14 287.69 283.893 287.557 283.665Z" fill="black"/>
<path d="M293.997 292.122C293.902 291.799 293.75 291.514 293.503 291.286C293.37 291.191 293.256 291.096 293.123 290.982C292.819 290.811 292.515 290.716 292.173 290.716H291.546C291.281 290.716 291.034 290.754 290.806 290.887C290.578 290.963 290.369 291.096 290.198 291.286C290.008 291.457 289.875 291.666 289.799 291.894C289.685 292.122 289.628 292.369 289.628 292.635C289.647 292.806 289.666 292.977 289.704 293.148C289.799 293.471 289.951 293.756 290.198 293.984C290.331 294.079 290.445 294.174 290.578 294.288C290.882 294.459 291.186 294.554 291.527 294.554H292.154C292.42 294.554 292.667 294.516 292.895 294.383C293.123 294.307 293.332 294.174 293.503 293.984C293.693 293.813 293.826 293.604 293.902 293.376C294.016 293.148 294.073 292.901 294.073 292.635L293.997 292.122Z" fill="black"/>
<path d="M370.151 230.93C369.657 225.304 369.98 219.546 370.018 213.902C370.094 203.28 370.607 192.6 370.246 181.977C369.923 172.646 368.897 162.555 364.737 154.061C360.653 145.718 351.668 143.78 343.12 143.761C332.786 143.742 322.529 144.369 312.252 145.414C311.473 145.49 310.694 145.604 309.916 145.699C309.916 145.623 309.953 145.566 309.934 145.49C309.65 141.841 309.783 138.06 308.624 134.544C308.073 132.853 307.218 131.047 305.812 129.888C304.502 128.805 302.925 128.577 301.272 128.558C300.722 128.558 300.152 128.539 299.601 128.501C300.304 124.909 300.323 121.28 300.874 117.669C301.12 116.016 301.045 114.476 300.969 112.804C300.874 110.638 301.5 108.699 302.108 106.647C302.507 105.317 302.754 103.949 302.963 102.599C304.54 102.561 305.926 102.922 307.484 103.15C308.51 103.302 309.517 102.903 309.821 101.82C309.972 101.269 309.802 100.604 309.422 100.11C310.637 99.8248 311.834 99.4067 312.917 98.8176C315.177 97.5634 315.424 94.7699 312.993 93.5157C312.005 93.0216 310.884 92.9075 309.821 92.7935C308.719 92.6795 307.655 92.4895 306.553 92.3184C305.945 92.2234 305.338 92.1474 304.73 92.0714C304.901 90.4941 304.92 88.8978 304.882 87.2825C304.825 85.0591 304.521 82.6077 303.058 80.8404C301.69 79.1871 298.955 77.9138 297.017 79.4151C294.871 81.0874 295.384 84.8121 294.966 87.1495C294.662 88.9358 294.206 90.7031 293.769 92.4705C292.762 92.6985 291.775 92.9646 290.825 93.3256C289.685 93.7627 288.545 94.2568 287.501 94.8839C286.494 95.473 284.841 96.3472 284.385 97.4874C281.536 97.4874 278.706 97.5254 275.856 97.3544C272.969 97.1643 270.139 96.7272 267.251 96.7462C264.782 96.7462 262.331 96.7842 259.881 96.7462C257.696 96.7272 255.93 97.2213 254.581 99.0077C254.201 99.5017 254.239 100.433 254.581 100.927C256.519 103.74 259.995 104.918 263.243 105.45C267.669 106.172 272.076 105.127 276.502 105.07C280.643 105.013 284.727 104.044 288.811 103.378C289.78 103.226 290.977 103.055 292.136 102.732C292.022 105.83 292.136 108.965 292.022 112.025C291.832 116.871 291.585 121.717 291.566 126.582C291.566 129.033 295.365 129.033 295.365 126.582C295.365 122.021 295.593 117.479 295.783 112.937C295.935 109.384 295.783 105.754 295.954 102.2C296.486 102.295 297.036 102.39 297.587 102.447C298.119 102.504 298.67 102.542 299.202 102.561C299.107 103.15 298.993 103.74 298.86 104.31C298.347 106.305 297.568 108.205 297.302 110.258C297.074 112.044 297.416 113.754 297.359 115.522C297.302 117.289 296.789 119.037 296.676 120.805C296.543 122.762 296.467 124.624 296.163 126.544C295.669 126.962 295.327 127.57 295.441 128.368C295.441 128.444 295.46 128.52 295.479 128.577C293.921 128.843 292.363 129.204 290.806 129.508C287.615 130.116 284.594 131.294 282.771 134.145C282.182 135.057 282.049 136.102 281.574 137.053C281.099 138.003 280.358 138.782 279.902 139.732C278.953 141.651 278.269 143.989 279.142 146.06C279.484 146.858 280.054 147.447 280.966 147.447C282.429 147.447 283.379 146.383 283.36 144.939C283.36 144.255 283.037 143.78 282.6 143.476C282.733 142.24 283.474 141.024 284.157 140.017C284.746 139.124 285.183 138.307 285.506 137.281C285.791 136.444 286.133 135.76 286.779 135.152C288.982 133.081 292.61 133.1 295.384 132.473C297.302 132.036 299.221 132.264 301.159 132.264C302.887 132.264 303.685 132.606 304.502 134.221C305.869 136.92 305.926 140.093 306.059 143.115C305.528 143.799 305.338 144.806 306.059 145.642C306.154 145.756 306.211 145.908 306.268 146.022C302.64 146.478 299.031 146.972 295.422 147.447C289.894 148.17 284.423 148.037 278.858 148.094C268.163 148.208 257.639 150.07 247.097 151.609C241.816 152.369 236.345 153.605 231.007 153.795C229.032 153.871 228.671 156.322 229.925 157.234C229.564 157.291 229.222 157.424 228.918 157.728C228.766 158.032 228.538 158.203 228.253 158.241C226.24 158.45 225.917 161.092 227.265 161.833C227.132 162.422 226.98 163.011 226.79 163.581C225.974 166.014 224.815 168.294 223.998 170.727C222.44 175.325 221.32 180.266 221.282 185.131C221.244 190.604 221.244 196.001 221.757 201.436C222.004 203.888 221.643 205.959 221.358 208.353C221.035 211.09 221.282 213.921 221.282 216.677C221.282 222.397 221.586 228.155 220.788 233.837C220.047 239.025 220.123 244.118 219.933 249.344C219.762 254.475 219.99 259.283 220.94 264.338C221.966 269.716 222.972 275.113 223.96 280.509C224.853 285.431 225.993 290.239 227.968 294.857C229.963 299.513 229.887 304.948 230.837 309.87C231.349 312.492 232.337 314.944 233.325 317.433C234.275 319.809 235.111 322.241 236.307 324.502C237.371 326.517 238.777 328.341 239.802 330.374C240.904 332.579 241.892 334.631 243.469 336.551C246.736 340.541 250.649 343.924 254.144 347.706C257.373 351.202 260.128 354.813 264.136 357.473C270.556 361.73 278.022 364.03 285.639 364.391C286.038 365.778 286 367.279 285.962 368.685C285.905 370.472 285.772 372.239 285.962 374.006C286.323 377.313 287.406 380.582 289.742 383.014C292.231 385.598 296.41 387.385 299.696 385.275C301.177 384.325 302.659 382.976 303.647 381.494C304.559 380.106 304.806 378.472 304.844 376.857C304.882 374.557 304.958 372.163 304.464 369.902C303.913 367.469 302.735 365.227 302.26 362.775C303.438 362.509 304.616 362.224 305.755 361.882C310.466 360.495 314.512 357.91 318.407 354.965C322.339 351.981 325.796 348.922 329.044 345.197C332.311 341.434 335.218 337.463 337.877 333.263C343.443 324.445 348.99 315.134 352.96 305.461C353.947 303.029 354.707 300.52 355.923 298.183C357.158 295.807 358.715 293.641 360.083 291.341C362.629 287.028 364.053 282.144 365.421 277.355C366.143 274.808 366.884 272.262 367.472 269.678C368.023 267.264 368.099 264.87 368.365 262.418C368.612 259.986 369.239 257.591 369.524 255.159C369.828 252.612 369.98 250.066 370.265 247.538C370.892 241.913 370.702 236.44 370.208 230.834L370.151 230.93ZM304.046 95.8151C304.673 95.8911 305.319 95.9671 305.926 96.0621C306.8 96.1951 307.674 96.3092 308.548 96.4232C307.237 96.7462 305.926 96.8793 304.54 96.8983C304.35 96.8983 304.084 96.9363 303.78 96.9743C303.856 96.5942 303.932 96.1951 304.027 95.8151H304.046ZM275.742 101.326C272.152 101.345 268.581 102.276 264.991 101.953C263.376 101.801 261.135 101.421 259.463 100.49C260.641 100.452 262.084 100.718 262.73 100.699C265.143 100.68 267.555 100.509 269.949 100.661C272.855 100.87 275.704 101.041 278.592 101.174C277.642 101.269 276.692 101.326 275.742 101.326ZM292.534 98.1525C292.022 98.1525 291.547 98.1335 290.996 97.9625C290.749 97.8864 290.502 97.8294 290.255 97.7534C291.072 97.3353 291.927 96.9933 292.8 96.6892C292.705 97.1643 292.61 97.6584 292.534 98.1335V98.1525ZM298.765 87.3395C298.955 86.0853 298.632 83.7669 299.278 82.6837C299.354 82.7027 299.392 82.7217 299.487 82.7597C299.62 82.8547 299.753 82.9307 299.867 83.0258C300.361 83.4438 300.57 84.09 300.741 84.6791C301.348 86.8455 301.196 89.5819 301.007 91.8244C299.924 91.8053 298.841 91.8244 297.777 91.9004C298.157 90.3801 298.537 88.8598 298.765 87.3395ZM297.967 98.7226C297.473 98.6656 296.96 98.6086 296.448 98.5136C296.391 98.5136 296.315 98.4946 296.258 98.4756C296.41 97.5824 296.581 96.7082 296.789 95.8151C297.91 95.6821 299.05 95.606 300.19 95.606C300.133 95.8341 300.076 96.0431 300.019 96.2712C298.784 96.1381 297.587 97.4304 297.967 98.7226ZM300.285 369.312C300.874 371.08 301.026 372.752 301.026 374.595C301.026 375.945 301.234 377.484 300.798 378.795C300.418 379.935 299.373 380.81 298.461 381.57C297.245 382.596 296.315 382.767 294.852 382.14C293.693 381.627 292.648 380.829 291.87 379.821C290.35 377.864 289.742 375.261 289.647 372.809C289.533 370.016 289.932 367.222 289.457 364.505C290.141 364.486 290.825 364.467 291.49 364.41C293.826 364.22 296.201 363.954 298.556 363.573C298.556 363.668 298.537 363.764 298.556 363.859C298.917 365.74 299.677 367.488 300.285 369.294V369.312ZM366.656 245.334C366.257 250.427 365.554 255.425 364.794 260.461C364.452 262.646 364.509 264.87 364.148 267.036C363.711 269.639 362.894 272.205 362.192 274.751C360.881 279.502 359.608 284.538 357.177 288.833C354.821 292.976 352.238 296.7 350.566 301.185C348.8 305.879 346.482 310.307 344.184 314.754C339.568 323.685 334.496 332.978 328.018 340.693C324.941 344.361 321.788 347.592 318.027 350.556C314.228 353.578 310.181 356.599 305.49 358.062C299.943 359.811 293.807 360.837 287.786 360.761C287.349 360.533 286.874 360.533 286.418 360.704C283.379 360.59 280.377 360.21 277.509 359.469C272.931 358.272 268.448 356.143 264.649 353.293C260.945 350.518 258.285 346.565 255.075 343.278C251.675 339.819 247.572 336.513 244.988 332.37C243.811 330.488 243.089 328.36 241.911 326.479C240.524 324.312 239.214 322.184 238.245 319.771C236.326 314.963 234.617 310.383 233.971 305.214C233.42 300.767 232.641 296.415 230.931 292.273C228.975 287.56 228.12 282.391 227.246 277.412C226.373 272.414 225.366 267.454 224.435 262.475C223.485 257.363 223.675 252.479 223.789 247.31C223.903 242.313 224.131 237.562 224.758 232.583C225.423 227.357 225.062 221.979 225.062 216.715C225.062 214.13 224.834 211.47 225.1 208.905C225.347 206.472 225.803 204.325 225.575 201.873C224.663 191.915 224.359 181.768 227.493 172.152C228.158 170.099 229.127 168.18 229.887 166.166C230.59 164.284 230.761 161.719 231.862 160.085C232.489 159.173 232.071 158.184 231.33 157.652H231.387C231.482 157.652 231.558 157.614 231.653 157.595C236.364 157.348 241.113 156.303 245.767 155.657C251.01 154.916 256.215 154.023 261.439 153.243C266.548 152.464 271.924 152.255 277.091 152.008C282.087 151.761 287.064 152.141 292.06 151.704C302.507 150.773 312.86 148.55 323.364 148.303C325.701 148.246 327.942 148.075 330.26 147.751C332.862 147.39 335.522 147.542 338.143 147.542C342.759 147.542 347.546 147.333 352.067 148.417C361.166 150.583 363.559 160.028 365.06 168.085C366.941 178.176 366.618 188.552 366.39 198.757C366.162 208.981 365.706 219.375 366.257 229.58C366.542 234.882 367.092 239.975 366.656 245.315V245.334Z" fill="black"/>
<path d="M25.9454 254.533C25.9454 250.39 25.8694 246.285 26.3063 242.162C26.7432 237.981 27.4461 233.838 27.712 229.657C28.1869 221.923 27.731 214.075 29.3646 206.454C30.9603 198.986 35.5572 193.095 38.7675 186.311C41.6358 180.21 44.8081 175.041 50.9627 171.868C56.5474 168.998 62.683 167.839 68.9136 167.782C77.1957 167.706 85.4778 168.105 93.703 169.036C101.814 169.968 109.412 171.773 117.087 174.585C123.412 176.904 129.111 179.184 131.998 185.759C133.271 188.629 133.784 191.707 134.221 194.805C134.715 198.34 135.379 201.874 135.512 205.447C135.816 213.656 135.379 221.923 135.512 230.151C135.645 238.095 133.689 245.563 132.701 253.393C132.568 254.457 132.454 255.502 132.34 256.566C132.53 256.775 132.701 256.984 132.834 257.231C133.48 258.334 132.891 259.379 131.998 259.816C131.808 261.526 131.618 263.255 131.314 264.966C130.972 266.885 130.65 268.823 130.308 270.762C129.928 272.947 129.947 275.152 129.681 277.356C129.453 279.18 129.13 281.024 128.731 282.81C128.427 284.159 127.724 285.565 127.838 286.953C127.838 287.01 127.819 287.048 127.819 287.105C128.218 286.459 128.598 285.774 128.94 285.09C129.681 283.589 129.89 282.05 130.46 280.511C130.953 279.199 131.941 278.154 132.416 276.824C132.948 275.304 132.739 273.555 133.081 271.959C133.214 271.351 133.803 270.762 134.411 270.629C134.582 270.591 134.753 270.553 134.943 270.515C137.07 270.078 138.096 272.909 136.614 273.897C136.481 275.171 136.519 276.463 136.139 277.717C135.626 279.427 134.316 280.739 133.841 282.449C132.948 285.66 131.637 288.492 129.586 291.152C127.477 293.908 124.913 295.903 122.253 298.108C119.366 300.502 116.517 302.859 113.534 305.139C107.665 309.624 102.08 314.223 94.8997 316.408C88.0612 318.498 80.9189 318.27 73.9285 317.149C70.3953 316.579 66.7291 315.781 63.4619 314.261C60.3086 312.797 57.7062 310.327 55.0278 308.161C49.4051 303.6 44.9221 297.918 39.7173 292.958C38.4636 291.761 37.6087 290.316 36.716 288.853C35.6522 287.105 34.4175 285.565 33.1638 283.95C31.1502 281.347 29.5736 278.268 28.0919 275.342C26.5343 272.263 25.6035 269.318 25.6795 265.84C25.7744 262.058 25.8884 258.296 25.8884 254.514L25.9454 254.533ZM131.39 201.209C130.536 195.242 130.365 188.097 126.091 183.403C123.925 181.009 120.772 179.925 117.827 178.842C114.503 177.626 111.179 176.41 107.779 175.422C100.256 173.236 92.3732 172.495 84.585 171.982C77.6326 171.526 70.1673 170.861 63.2339 171.887C57.7062 172.704 51.7035 174.737 47.7144 178.804C45.4159 181.142 43.9723 184.201 42.5856 187.109C41.1419 190.168 39.5843 193.095 37.8557 195.983C35.9371 199.214 34.2655 202.463 33.3537 206.131C32.4419 209.799 32.1 213.58 31.948 217.343C31.6251 224.773 31.3782 232.033 30.4474 239.425C30.0295 242.713 29.8965 246 29.8585 249.269C31.6631 248.547 33.6007 248.11 35.4812 247.692C39.2994 246.817 43.0985 245.829 46.9356 245.05C50.6588 244.29 54.4959 243.663 58.295 243.511C62.2271 243.359 66.0833 244.271 70.0154 244.404C74.0994 244.537 78.1835 244.404 82.2676 244.404C85.7058 244.404 88.7261 245.012 92.0693 245.772C95.4316 246.532 98.7368 246.228 102.061 247.426C103.809 248.053 105.556 248.775 107.38 249.193C109.298 249.63 111.312 249.402 113.23 249.877C115.339 250.409 117.353 251.378 119.461 251.948C121.456 252.499 123.45 252.956 125.426 253.564C126.47 253.887 127.667 254.134 128.826 254.476C129.111 251.587 129.491 248.68 130.004 245.829C130.65 242.181 131.637 238.608 131.751 234.883C131.884 231.235 131.675 227.567 131.675 223.899C131.675 216.431 132.435 208.583 131.371 201.152L131.39 201.209ZM30.5804 271.655C31.8151 274.543 33.4677 277.413 35.1393 280.073C35.9941 281.423 37.0579 282.582 38.0076 283.855C39.1854 285.413 40.0592 287.143 41.1609 288.739C42.0347 289.993 43.1745 290.867 44.2952 291.894C45.5489 293.053 46.5367 294.478 47.7144 295.713C52.3494 300.673 57.1743 305.652 62.816 309.491C68.3627 313.272 76.5119 314.185 83.0464 314.261C89.7519 314.356 96.2864 312.645 101.985 309.054C108.121 305.196 113.781 300.35 119.309 295.694C121.874 293.547 124.533 291.647 126.584 288.948C126.66 288.853 126.717 288.739 126.793 288.625C125.711 289.005 124.191 288.416 124.077 286.915C123.887 284.311 125.236 281.309 125.673 278.743C126.281 275.152 126.376 271.522 127.002 267.93C127.553 264.719 128.085 261.545 128.427 258.315C127.496 257.991 126.319 257.839 125.673 257.668C123.393 257.022 121.133 256.395 118.853 255.768C116.612 255.16 114.446 254.096 112.186 253.564C110.267 253.108 108.273 253.317 106.335 252.88C104.094 252.366 102.023 251.378 99.8385 250.694C97.692 250.029 95.5835 250.124 93.38 249.877C91.7274 249.687 90.1318 249.212 88.5171 248.832C86.4276 248.338 84.3761 248.243 82.2486 248.243C77.5946 248.224 72.8837 248.49 68.2488 248.129C63.4429 247.749 58.9979 247.102 54.173 247.711C49.538 248.281 45.017 249.383 40.4771 250.466C37.0199 251.283 32.9168 251.682 29.8015 253.564C29.8015 256.414 29.8015 259.246 29.7065 262.115C29.5926 265.46 29.2126 268.538 30.5613 271.693L30.5804 271.655Z" fill="black"/>
<path d="M52.7678 281.973C53.2427 278.477 55.3892 275.531 59.2453 274.353C63.0255 273.194 68.3443 273.232 72.2384 273.726C79.1528 274.619 86.0293 275.037 92.8867 276.31C96.2299 276.918 99.4402 277.812 102.745 278.61C105.443 279.256 108.824 279.294 111.199 280.681C111.218 280.681 111.237 280.719 111.256 280.719C111.806 280.89 112.281 281.27 112.433 281.973C112.642 282.962 113.63 283.646 113.915 284.653C114.124 285.337 114.105 286.097 114.067 286.8C113.953 289.024 113.06 291.019 111.711 292.881C109.223 296.283 105.956 299.494 101.91 301.49C96.9518 303.941 91.69 304.036 86.1432 304.036C83.4458 304.036 80.7295 304.112 78.0891 303.618C75.2587 303.086 72.5043 301.965 69.8829 300.901C61.012 297.309 51.4381 291.855 52.7678 281.992V281.973ZM58.5615 289.043C60.5181 292.197 64.3362 294.136 67.8124 295.77C71.8205 297.67 76.3794 299.78 80.9574 300.16C85.4214 300.521 90.8542 300.673 95.2232 299.761C99.5732 298.848 103.087 296.473 105.88 293.47C107.418 291.836 109.185 289.879 109.622 287.731C109.793 286.952 109.888 286.04 109.527 285.318C109.337 284.957 109.109 284.634 108.9 284.33C108.444 284.197 108.083 283.893 107.855 283.494C106.469 283.057 104.778 282.943 103.429 282.676C100.998 282.182 98.6424 281.441 96.2109 280.89C91.348 279.788 86.2762 278.8 81.2613 278.458C76.7973 278.154 72.2954 277.374 67.8314 277.413C64.982 277.432 61.0309 277.013 58.7325 278.876C55.7121 281.308 56.7949 286.268 58.5045 289.043H58.5615Z" fill="black"/>
<path d="M92.506 287.048C92.601 286.725 92.753 286.44 92.9999 286.212C93.1329 286.117 93.2468 286.022 93.3798 285.908C93.6837 285.737 93.9877 285.642 94.3296 285.642H94.9564C95.2224 285.642 95.4693 285.68 95.6973 285.813C95.9252 285.889 96.1342 286.022 96.3051 286.212C96.4951 286.383 96.6281 286.592 96.704 286.82C96.818 287.048 96.875 287.295 96.875 287.561C96.856 287.732 96.837 287.903 96.799 288.074C96.7041 288.397 96.5521 288.682 96.3051 288.91C96.1722 289.005 96.0582 289.1 95.9252 289.214C95.6213 289.385 95.3174 289.48 94.9754 289.48H94.3486C94.0826 289.48 93.8357 289.442 93.6077 289.309C93.3798 289.233 93.1709 289.1 92.9999 288.91C92.8099 288.739 92.677 288.53 92.601 288.302C92.487 288.074 92.43 287.827 92.43 287.561L92.506 287.048Z" fill="black"/>
<path d="M87.4347 293.395C87.5297 293.072 87.6817 292.787 87.9286 292.559C88.0616 292.464 88.1755 292.369 88.3085 292.255C88.6124 292.084 88.9164 291.989 89.2583 291.989H89.8852C90.1511 291.989 90.398 292.027 90.626 292.16C90.8539 292.236 91.0629 292.369 91.2338 292.559C91.4238 292.73 91.5568 292.939 91.6328 293.167C91.7467 293.395 91.8037 293.642 91.8037 293.908L91.7277 294.421C91.6328 294.744 91.4808 295.029 91.2338 295.257C91.1009 295.353 90.9869 295.448 90.8539 295.562C90.55 295.733 90.2461 295.828 89.9041 295.828H89.2773C89.0113 295.828 88.7644 295.79 88.5365 295.657C88.3085 295.581 88.0996 295.448 87.9286 295.257C87.7386 295.086 87.6057 294.877 87.5297 294.649C87.4157 294.421 87.3587 294.174 87.3587 293.908C87.3777 293.737 87.3967 293.566 87.4347 293.395Z" fill="black"/>
<path d="M72.428 285.337C72.523 285.204 72.618 285.09 72.7319 284.957C72.9599 284.729 73.2448 284.558 73.5677 284.462C73.7387 284.443 73.9096 284.424 74.0806 284.386C74.4225 284.386 74.7455 284.481 75.0304 284.653C75.4483 284.862 75.8662 285.071 76.3031 285.28C76.531 285.394 76.702 285.565 76.835 285.774C77.0059 285.964 77.1199 286.173 77.1769 286.42C77.2529 286.667 77.2719 286.933 77.2149 287.18C77.2149 287.427 77.1199 287.674 76.9869 287.883C76.892 288.016 76.797 288.13 76.683 288.263C76.4551 288.491 76.1702 288.662 75.8472 288.757C75.6763 288.776 75.5053 288.795 75.3343 288.833C74.9924 288.833 74.6695 288.738 74.3845 288.567C73.9666 288.358 73.5487 288.149 73.1118 287.94C72.8839 287.826 72.7129 287.655 72.58 287.446C72.409 287.256 72.295 287.047 72.238 286.8C72.162 286.553 72.143 286.287 72.2 286.04C72.2 285.793 72.295 285.546 72.428 285.337Z" fill="black"/>
<path d="M83.1043 283.665C83.1803 283.437 83.3133 283.228 83.5032 283.057C83.6742 282.867 83.8831 282.734 84.1111 282.658C84.339 282.544 84.586 282.487 84.8519 282.487C85.0229 282.506 85.1939 282.525 85.3648 282.563C85.6877 282.658 85.9727 282.81 86.2006 283.057C86.2956 283.19 86.3906 283.304 86.5046 283.437C86.6755 283.741 86.7705 284.045 86.7705 284.387V285.014C86.7705 285.28 86.7325 285.527 86.5995 285.755C86.5235 285.983 86.3906 286.192 86.2006 286.364C86.0297 286.554 85.8207 286.687 85.5928 286.763C85.3648 286.877 85.1179 286.934 84.8519 286.934C84.681 286.915 84.51 286.896 84.3391 286.858C84.0161 286.763 83.7312 286.611 83.5032 286.364C83.4083 286.23 83.3133 286.116 83.1993 285.983C83.0283 285.679 82.9334 285.375 82.9334 285.033V284.406C82.9334 284.14 82.9714 283.893 83.1043 283.665Z" fill="black"/>
<path d="M76.6642 292.122C76.7592 291.799 76.9111 291.514 77.1581 291.286C77.291 291.191 77.405 291.096 77.538 290.982C77.8419 290.811 78.1459 290.716 78.4878 290.716H79.1147C79.3806 290.716 79.6275 290.754 79.8555 290.887C80.0834 290.963 80.2924 291.096 80.4633 291.286C80.6533 291.457 80.7863 291.666 80.8622 291.894C80.9762 292.122 81.0332 292.369 81.0332 292.635C81.0142 292.806 80.9952 292.977 80.9572 293.148C80.8622 293.471 80.7103 293.756 80.4633 293.984C80.3304 294.079 80.2164 294.174 80.0834 294.288C79.7795 294.459 79.4756 294.554 79.1336 294.554H78.5068C78.2408 294.554 77.9939 294.516 77.7659 294.383C77.538 294.307 77.329 294.174 77.1581 293.984C76.9681 293.813 76.8352 293.604 76.7592 293.376C76.6452 293.148 76.5882 292.901 76.5882 292.635L76.6642 292.122Z" fill="black"/>
<path d="M0.510361 230.93C1.00425 225.305 0.681332 219.546 0.643341 213.902C0.567358 203.28 0.0544875 192.6 0.415405 181.977C0.738332 172.646 1.76408 162.555 5.92413 154.061C10.0082 145.718 18.9931 143.78 27.5412 143.761C37.8748 143.742 48.1325 144.369 58.4092 145.414C59.188 145.49 59.9668 145.604 60.7456 145.699C60.7456 145.623 60.7076 145.566 60.7266 145.49C61.0116 141.841 60.8786 138.06 62.0373 134.544C62.5882 132.853 63.443 131.047 64.8487 129.888C66.1594 128.805 67.736 128.577 69.3887 128.558C69.9395 128.558 70.5094 128.539 71.0603 128.501C70.3574 124.909 70.3385 121.28 69.7876 117.669C69.5406 116.016 69.6166 114.476 69.6926 112.804C69.7876 110.638 69.1607 108.699 68.5528 106.647C68.1539 105.317 67.907 103.949 67.698 102.599C66.1214 102.561 64.7347 102.922 63.1771 103.15C62.1513 103.302 61.1445 102.903 60.8406 101.82C60.6886 101.269 60.8596 100.604 61.2395 100.11C60.0238 99.8248 58.8271 99.4067 57.7443 98.8176C55.4838 97.5634 55.2369 94.7699 57.6683 93.5157C58.6561 93.0216 59.7768 92.9075 60.8406 92.7935C61.9424 92.6795 63.0061 92.4895 64.1079 92.3184C64.7157 92.2234 65.3236 92.1474 65.9315 92.0714C65.7605 90.4941 65.7415 88.8978 65.7795 87.2825C65.8365 85.0591 66.1404 82.6077 67.6031 80.8404C68.9708 79.1871 71.7061 77.9138 73.6437 79.4151C75.7902 81.0874 75.2773 84.8121 75.6952 87.1495C75.9992 88.9358 76.455 90.7032 76.8919 92.4705C77.8987 92.6985 78.8865 92.9646 79.8363 93.3256C80.976 93.7627 82.1158 94.2568 83.1605 94.8839C84.1673 95.473 85.8199 96.3472 86.2758 97.4874C89.1252 97.4874 91.9555 97.5254 94.8049 97.3544C97.6922 97.1643 100.523 96.7272 103.41 96.7462C105.879 96.7462 108.33 96.7843 110.78 96.7462C112.965 96.7272 114.731 97.2213 116.08 99.0077C116.46 99.5017 116.422 100.433 116.08 100.927C114.142 103.74 110.666 104.918 107.418 105.45C102.992 106.172 98.585 105.127 94.159 105.07C90.018 105.013 85.9339 104.044 81.8498 103.378C80.881 103.226 79.6843 103.055 78.5256 102.732C78.6395 105.83 78.5256 108.965 78.6396 112.025C78.8295 116.871 79.0765 121.717 79.0955 126.582C79.0955 129.033 75.2963 129.033 75.2963 126.582C75.2963 122.021 75.0684 117.479 74.8784 112.937C74.7264 109.384 74.8784 105.754 74.7075 102.2C74.1756 102.295 73.6247 102.39 73.0738 102.447C72.5419 102.504 71.9911 102.542 71.4592 102.561C71.5542 103.15 71.6681 103.74 71.8011 104.31C72.314 106.305 73.0928 108.205 73.3587 110.258C73.5867 112.044 73.2448 113.754 73.3018 115.522C73.3588 117.289 73.8716 119.037 73.9856 120.805C74.1186 122.762 74.1946 124.624 74.4985 126.544C74.9924 126.962 75.3343 127.57 75.2203 128.368C75.2203 128.444 75.2013 128.52 75.1823 128.577C76.74 128.843 78.2976 129.204 79.8553 129.508C83.0466 130.116 86.0669 131.294 87.8905 134.145C88.4793 135.057 88.6123 136.102 89.0872 137.053C89.5621 138.003 90.3029 138.782 90.7588 139.732C91.7086 141.651 92.3924 143.989 91.5186 146.06C91.1767 146.858 90.6068 147.447 89.695 147.447C88.2324 147.447 87.2826 146.383 87.3016 144.939C87.3016 144.255 87.6245 143.78 88.0614 143.476C87.9284 142.24 87.1876 141.024 86.5038 140.017C85.9149 139.124 85.478 138.307 85.1551 137.281C84.8701 136.444 84.5282 135.76 83.8824 135.152C81.6789 133.081 78.0507 133.1 75.2773 132.473C73.3588 132.036 71.4402 132.264 69.5026 132.264C67.774 132.264 66.9762 132.606 66.1594 134.221C64.7917 136.92 64.7347 140.093 64.6017 143.115C65.1336 143.799 65.3236 144.806 64.6017 145.642C64.5068 145.756 64.4498 145.908 64.3928 146.022C68.021 146.478 71.6302 146.972 75.2393 147.447C80.7671 148.17 86.2378 148.037 91.8036 148.094C102.498 148.208 113.022 150.07 123.564 151.609C128.845 152.369 134.316 153.605 139.654 153.795C141.629 153.871 141.99 156.322 140.736 157.234C141.097 157.291 141.439 157.424 141.743 157.728C141.895 158.032 142.123 158.203 142.408 158.241C144.422 158.45 144.745 161.092 143.396 161.833C143.529 162.422 143.681 163.011 143.871 163.581C144.688 166.014 145.846 168.294 146.663 170.727C148.221 175.325 149.341 180.266 149.379 185.131C149.417 190.604 149.417 196.001 148.905 201.436C148.658 203.888 149.019 205.959 149.303 208.353C149.626 211.09 149.379 213.921 149.379 216.677C149.379 222.397 149.076 228.155 149.873 233.837C150.614 239.025 150.538 244.118 150.728 249.344C150.899 254.475 150.671 259.283 149.721 264.338C148.696 269.716 147.689 275.113 146.701 280.509C145.808 285.431 144.669 290.239 142.693 294.857C140.698 299.513 140.774 304.948 139.825 309.87C139.312 312.492 138.324 314.944 137.336 317.433C136.386 319.809 135.551 322.241 134.354 324.502C133.29 326.517 131.884 328.341 130.859 330.374C129.757 332.579 128.769 334.631 127.193 336.551C123.925 340.541 120.012 343.924 116.517 347.706C113.288 351.202 110.533 354.813 106.525 357.473C100.105 361.73 92.6394 364.03 85.0221 364.391C84.6232 365.778 84.6612 367.279 84.6992 368.685C84.7562 370.472 84.8891 372.239 84.6992 374.006C84.3382 377.313 83.2555 380.582 80.919 383.014C78.4306 385.599 74.2516 387.385 70.9653 385.275C69.4836 384.325 68.002 382.976 67.0142 381.494C66.1024 380.106 65.8555 378.472 65.8175 376.857C65.7795 374.557 65.7035 372.163 66.1974 369.902C66.7483 367.469 67.926 365.227 68.4009 362.775C67.2231 362.509 66.0454 362.224 64.9057 361.882C60.1948 360.495 56.1487 357.91 52.2546 354.965C48.3225 351.981 44.8653 348.922 41.617 345.197C38.3497 341.434 35.4434 337.463 32.784 333.263C27.2183 324.445 21.6715 315.134 17.7014 305.461C16.7137 303.029 15.9538 300.52 14.7381 298.183C13.5034 295.807 11.9457 293.641 10.578 291.341C8.03263 287.028 6.60795 282.144 5.24026 277.355C4.51843 274.808 3.77763 272.262 3.18877 269.678C2.63789 267.264 2.5619 264.87 2.29596 262.418C2.04902 259.986 1.42213 257.591 1.13719 255.159C0.833261 252.612 0.681328 250.066 0.396393 247.539C-0.230464 241.914 -0.0405031 236.441 0.453384 230.834L0.510361 230.93ZM66.6153 95.8151C65.9885 95.8911 65.3426 95.9671 64.7347 96.0621C63.8609 96.1951 62.9871 96.3092 62.1133 96.4232C63.424 96.7462 64.7347 96.8793 66.1214 96.8983C66.3114 96.8983 66.5773 96.9363 66.8812 96.9743C66.8053 96.5942 66.7293 96.1951 66.6343 95.8151H66.6153ZM94.9188 101.326C98.509 101.345 102.08 102.276 105.67 101.953C107.285 101.801 109.527 101.421 111.198 100.49C110.02 100.452 108.577 100.718 107.931 100.699C105.518 100.68 103.106 100.509 100.713 100.661C97.8062 100.87 94.9568 101.041 92.0695 101.174C93.0193 101.269 93.9691 101.326 94.9188 101.326ZM78.1267 98.1525C78.6396 98.1525 79.1145 98.1335 79.6653 97.9625C79.9123 97.8865 80.1592 97.8294 80.4062 97.7534C79.5893 97.3354 78.7345 96.9933 77.8607 96.6892C77.9557 97.1643 78.0507 97.6584 78.1267 98.1335V98.1525ZM71.8961 87.3395C71.7061 86.0853 72.0291 83.7669 71.3832 82.6837C71.3072 82.7027 71.2692 82.7217 71.1743 82.7597C71.0413 82.8547 70.9083 82.9307 70.7943 83.0258C70.3005 83.4438 70.0915 84.09 69.9205 84.6791C69.3127 86.8455 69.4646 89.5819 69.6546 91.8244C70.7374 91.8054 71.8201 91.8244 72.8839 91.9004C72.5039 90.3801 72.1241 88.8598 71.8961 87.3395ZM72.6939 98.7226C73.1878 98.6656 73.7007 98.6086 74.2136 98.5136C74.2706 98.5136 74.3465 98.4946 74.4035 98.4756C74.2516 97.5824 74.0806 96.7082 73.8716 95.8151C72.7509 95.6821 71.6112 95.606 70.4714 95.606C70.5284 95.8341 70.5854 96.0431 70.6424 96.2712C71.8771 96.1381 73.0738 97.4304 72.6939 98.7226ZM70.3764 369.313C69.7876 371.08 69.6356 372.752 69.6356 374.595C69.6356 375.945 69.4267 377.484 69.8636 378.795C70.2435 379.935 71.2882 380.81 72.2 381.57C73.4157 382.596 74.3465 382.767 75.8092 382.14C76.9679 381.627 78.0127 380.829 78.7915 379.821C80.3112 377.864 80.9191 375.261 81.014 372.809C81.128 370.016 80.7291 367.222 81.204 364.505C80.5201 364.486 79.8363 364.467 79.1714 364.41C76.835 364.22 74.4605 363.954 72.1051 363.573C72.1051 363.669 72.1241 363.764 72.1051 363.859C71.7441 365.74 70.9843 367.488 70.3764 369.294V369.313ZM4.00555 245.334C4.40446 250.427 5.10733 255.425 5.86716 260.461C6.20908 262.646 6.15208 264.87 6.513 267.036C6.9499 269.64 7.76672 272.205 8.46956 274.751C9.78026 279.502 11.0529 284.538 13.4844 288.833C15.8398 292.976 18.4233 296.7 20.0949 301.185C21.8615 305.879 24.179 310.307 26.4774 314.754C31.0934 323.685 36.1652 332.978 42.6428 340.693C45.7201 344.361 48.8733 347.592 52.6345 350.556C56.4336 353.578 60.4797 356.599 65.1716 358.063C70.7184 359.811 76.854 360.837 82.8756 360.761C83.3125 360.533 83.7874 360.533 84.2433 360.704C87.2826 360.59 90.2839 360.21 93.1523 359.469C97.7302 358.272 102.213 356.143 106.012 353.293C109.716 350.518 112.376 346.565 115.586 343.278C118.986 339.819 123.089 336.513 125.673 332.37C126.851 330.489 127.572 328.36 128.75 326.479C130.137 324.312 131.448 322.184 132.416 319.771C134.335 314.963 136.044 310.383 136.69 305.214C137.241 300.767 138.02 296.415 139.73 292.273C141.686 287.56 142.541 282.391 143.415 277.412C144.289 272.414 145.295 267.454 146.226 262.475C147.176 257.363 146.986 252.479 146.872 247.31C146.758 242.313 146.53 237.562 145.903 232.583C145.238 227.357 145.599 221.979 145.599 216.715C145.599 214.13 145.827 211.47 145.561 208.905C145.314 206.472 144.858 204.325 145.086 201.873C145.998 191.915 146.302 181.768 143.168 172.152C142.503 170.1 141.534 168.18 140.774 166.166C140.072 164.284 139.901 161.719 138.799 160.085C138.172 159.173 138.59 158.184 139.331 157.652H139.274C139.179 157.652 139.103 157.614 139.008 157.595C134.297 157.348 129.548 156.303 124.894 155.657C119.651 154.916 114.446 154.023 109.223 153.243C104.113 152.464 98.737 152.255 93.5701 152.008C88.5743 151.761 83.5974 152.141 78.6016 151.704C68.154 150.773 57.8013 148.55 47.2967 148.303C44.9602 148.246 42.7187 148.075 40.4013 147.751C37.7989 147.39 35.1395 147.542 32.5181 147.542C27.9021 147.542 23.1152 147.333 18.5943 148.417C9.49533 150.583 7.10185 160.028 5.6012 168.085C3.72062 178.176 4.04358 188.552 4.27153 198.757C4.49948 208.981 4.95532 219.375 4.40445 229.58C4.11951 234.882 3.56865 239.975 4.00555 245.315V245.334Z" fill="black"/>
<path d="M127.536 33.2157C129.078 34.2825 131.662 36.5403 132.552 38.6134C132.839 39.2837 132.679 40.2744 132.485 40.8733C132.291 41.4721 131.903 41.6985 131.505 41.8088C131.107 41.9192 130.712 41.9068 130.5 40.7758C129.879 37.4458 130.386 34.6627 130.777 33.9829C130.964 33.6586 131.442 33.6191 131.714 33.7594C133.056 34.4508 132.446 37.2908 132.226 39.2423C132.139 40.0166 131.558 40.242 130.7 40.3934C128.61 40.7623 126.759 40.3671 125.879 39.7556C125.131 39.235 125.249 38.1326 125.407 37.3259C125.488 36.9111 125.882 36.5774 126.25 36.3342C126.967 35.8609 128.326 35.8491 129.866 35.9264C131.955 36.6929 133.392 37.8305 133.876 38.6686C134.049 39.1312 134.073 39.6697 134.097 40.2244" stroke="black" stroke-width="3" stroke-linecap="round"/>
<path d="M158.681 36.6302C158.681 36.6517 158.681 36.6731 158.477 36.6767C158.273 36.6802 157.864 36.6653 157.652 36.2021C157.44 35.739 157.438 34.8281 157.544 34.1986C157.65 33.569 157.866 33.2484 158.212 32.9836C158.957 32.413 160.115 32.3078 161.173 32.5126C161.665 32.6077 161.912 33.1512 162.059 33.9155C162.41 35.7402 161.931 37.2396 161.235 37.9155C159.659 39.4464 157.331 39.0309 155.531 38.5998C154.43 38.3363 153.723 37.3725 153.253 36.603C152.74 35.7624 152.854 34.5193 153.003 33.4547C153.118 32.6307 154.295 32.3131 155.399 32.0427C155.955 31.9064 156.538 31.9408 156.957 32.1067C157.734 32.4143 157.994 33.3992 158.174 34.408C158.276 34.9739 158.242 35.672 158.022 36.1127C157.803 36.5535 157.359 36.7215 156.936 36.7969C156.514 36.8722 156.126 36.8498 155.895 36.6044C155.366 36.043 155.535 34.7579 155.724 33.607C155.81 33.0802 156.291 32.7807 156.696 32.5843C157.1 32.3879 157.519 32.332 157.972 32.3315C160.66 34.4201 163.64 39.2727 164.347 40.7276C164.655 41.3394 164.86 41.6944 165.101 42.53" stroke="black" stroke-width="3" stroke-linecap="round"/>
<path d="M190.496 44.3581C190.459 44.3581 189.127 44.3581 187.089 44.1407C186.336 44.0604 186.266 43.4886 186.215 42.8922C186.102 41.5547 186.337 40.3955 186.733 39.6475C186.932 39.2732 187.224 38.9668 187.769 38.7842C189.075 38.3469 190.308 38.7098 190.97 39.1577C192.403 40.1291 192.142 42.2528 191.943 43.5727C191.862 44.1079 191.344 44.2409 190.733 44.3269C190.121 44.4129 189.31 44.4149 188.747 44.2158C188.184 44.0166 187.893 43.6163 187.702 43.2056C187.337 42.4222 187.341 41.3876 187.478 40.362C187.54 39.8974 187.889 39.6121 188.251 39.4201C188.999 39.0232 189.93 39.0792 190.737 39.2438C191.151 39.328 191.472 39.7373 191.696 40.1387C192.146 40.9427 192.108 42.1251 191.95 43.2661C191.878 43.7831 191.476 44.095 190.995 44.2658C190.513 44.4366 189.877 44.4366 189.407 44.2654C188.938 44.0941 188.655 43.7516 188.631 43.4044C188.607 43.0572 188.849 42.7156 189.305 42.5362C189.761 42.3568 190.423 42.3498 190.92 42.4768C191.417 42.6039 191.729 42.8651 191.907 43.4579C192.084 44.0507 192.117 44.9671 191.937 45.4818C191.757 45.9965 191.363 46.0817 191.039 45.9334C190.053 44.2364 189.704 41.9311 189.917 40.7736C190.13 40.3615 190.556 40.3051 191.69 40.6082" stroke="black" stroke-width="3" stroke-linecap="round"/>
<path d="M132.926 107.307C132.926 105.086 133.283 99.3178 134.502 95.8506C135.476 93.0776 136.405 88.9482 137.283 84.5472C137.473 83.593 137.567 82.6655 137.345 82.0109C136.407 79.2521 130.556 80.2487 121.78 77.1779C114.788 74.7317 109.168 68.582 105.014 63.1835C103.006 60.5728 102.364 56.9253 101.533 33.8174C101.333 28.2531 102.473 25.7439 103.685 22.6758C104.566 20.4462 107.294 17.693 112.829 13.449C120.43 7.62153 129.436 4.99668 136.482 3.17999C140.127 2.24024 144.068 1.92749 150.138 1.70949C164.322 1.20016 173.808 1.73702 176.28 2.07888C182.958 3.00224 192.953 8.02525 198.396 11.345C203.622 14.5321 207.797 22.9634 209.88 25.8067C211.694 28.2828 214.321 34.5033 215.843 40.8424C219.048 54.1986 214.259 59.3348 211.223 63.7892C209.052 66.9732 204.712 66.5801 186.134 74.9456C179.526 77.9215 175.582 78.1524 172.538 78.5005C167.243 79.1058 157.165 80.6731 150.381 81.9033C149.477 82.0964 148.708 82.3322 148.011 82.6127C147.314 82.8932 146.713 83.2112 146.094 83.5387" stroke="black" stroke-width="3" stroke-linecap="round"/>
<path d="M150.781 78.7474C149.652 80.0127 146.764 83.14 140.179 90.9745C137.874 94.3812 137.354 97.2595 133.697 107.408C132.843 109.564 132.545 110.181 132.086 111.344" stroke="black" stroke-width="3" stroke-linecap="round"/>
</svg>
